G04 #@! TF.FileFunction,Copper,L2,Bot,Signal*
%FSLAX46Y46*%
G04 Gerber Fmt 4.6, Leading zero omitted, Abs format (unit mm)*
G04 Created by KiCad (PCBNEW 4.1.0-alpha+201608010716+6997~46~ubuntu16.04.1-product) date Mon Aug  8 11:54:26 2016*
%MOMM*%
%LPD*%
G01*
G04 APERTURE LIST*
%ADD10C,0.100000*%
%ADD11C,0.228600*%
%ADD12R,1.270000X2.540000*%
%ADD13R,2.540000X1.270000*%
%ADD14R,1.778000X4.191000*%
%ADD15C,1.397000*%
%ADD16R,2.794000X4.826000*%
%ADD17O,2.540000X1.524000*%
%ADD18O,5.080000X3.048000*%
%ADD19O,2.032000X1.524000*%
%ADD20O,1.524000X2.032000*%
%ADD21R,4.960000X3.800000*%
%ADD22R,1.440000X1.600000*%
%ADD23R,1.524000X2.540000*%
%ADD24O,1.524000X2.540000*%
%ADD25R,2.800000X2.400000*%
%ADD26C,2.000000*%
%ADD27C,2.200000*%
%ADD28R,2.500000X2.710000*%
%ADD29C,3.556000*%
%ADD30O,1.854200X2.540000*%
%ADD31R,1.854200X2.540000*%
%ADD32C,0.889000*%
%ADD33C,1.066800*%
%ADD34C,0.609600*%
%ADD35C,0.203200*%
G04 APERTURE END LIST*
D10*
D11*
X143510000Y-79375000D02*
X59690000Y-79375000D01*
X143510000Y-120015000D02*
X143510000Y-79375000D01*
X59690000Y-120015000D02*
X143510000Y-120015000D01*
X59690000Y-79375000D02*
X59690000Y-120015000D01*
D12*
X67056000Y-106680000D03*
X70104000Y-106680000D03*
D13*
X62865000Y-112014000D03*
X62865000Y-108966000D03*
D14*
X130175000Y-89916000D03*
X127635000Y-89916000D03*
X125095000Y-89916000D03*
D15*
X132588000Y-86741000D03*
X122682000Y-86741000D03*
D16*
X133629400Y-83185000D03*
X121640600Y-83185000D03*
D15*
X132969000Y-94742000D03*
X132969000Y-104648000D03*
D14*
X125095000Y-109474000D03*
X127635000Y-109474000D03*
X130175000Y-109474000D03*
D15*
X122682000Y-112649000D03*
X132588000Y-112649000D03*
D16*
X121640600Y-116205000D03*
X133629400Y-116205000D03*
D17*
X67310000Y-113030000D03*
X67310000Y-115570000D03*
X67310000Y-110490000D03*
D18*
X63500000Y-104775000D03*
X63500000Y-94615000D03*
D19*
X69596000Y-99695000D03*
D20*
X72390000Y-99695000D03*
X72390000Y-96901000D03*
X72390000Y-102489000D03*
D15*
X123952000Y-85471000D03*
X131318000Y-85471000D03*
X131318000Y-113919000D03*
X123952000Y-113919000D03*
D21*
X63115000Y-99695000D03*
D22*
X66915000Y-100760000D03*
X66915000Y-98630000D03*
D23*
X78740000Y-92075000D03*
D24*
X81280000Y-92075000D03*
X83820000Y-92075000D03*
X86360000Y-92075000D03*
X88900000Y-92075000D03*
X91440000Y-92075000D03*
X93980000Y-92075000D03*
X96520000Y-92075000D03*
X99060000Y-92075000D03*
X101600000Y-92075000D03*
X104140000Y-92075000D03*
X106680000Y-92075000D03*
X109220000Y-92075000D03*
X111760000Y-92075000D03*
X111760000Y-107315000D03*
X109220000Y-107315000D03*
X106680000Y-107315000D03*
X104140000Y-107315000D03*
X101600000Y-107315000D03*
X99060000Y-107315000D03*
X96520000Y-107315000D03*
X93980000Y-107315000D03*
X91440000Y-107315000D03*
X88900000Y-107315000D03*
X86360000Y-107315000D03*
X83820000Y-107315000D03*
X81280000Y-107315000D03*
X78740000Y-107315000D03*
D17*
X111760000Y-104775000D03*
X111760000Y-102235000D03*
X111760000Y-99695000D03*
X111760000Y-97155000D03*
X111760000Y-94615000D03*
D24*
X81280000Y-104267000D03*
X86360000Y-104267000D03*
X88900000Y-104267000D03*
X91440000Y-104267000D03*
X93980000Y-102743000D03*
X93980000Y-99187000D03*
X96520000Y-102743000D03*
X96520000Y-99187000D03*
X99060000Y-99187000D03*
X101600000Y-99187000D03*
X104140000Y-99187000D03*
X106680000Y-99187000D03*
X109220000Y-99187000D03*
X99060000Y-102743000D03*
X101600000Y-102743000D03*
X104140000Y-102743000D03*
X106680000Y-102743000D03*
X109220000Y-102743000D03*
D13*
X69850000Y-84201000D03*
X69850000Y-87249000D03*
D12*
X75819000Y-106680000D03*
X72771000Y-106680000D03*
D25*
X141480000Y-93995000D03*
X135380000Y-93995000D03*
X141480000Y-105395000D03*
X135380000Y-105395000D03*
D26*
X141480000Y-99695000D03*
D27*
X136980000Y-99695000D03*
D28*
X71755000Y-115605000D03*
X71755000Y-111725000D03*
D29*
X62230000Y-81915000D03*
X62230000Y-117475000D03*
X118110000Y-99695000D03*
D30*
X78740000Y-81915000D03*
X81280000Y-81915000D03*
D31*
X76200000Y-81915000D03*
D30*
X83820000Y-81915000D03*
X86360000Y-81915000D03*
X88900000Y-81915000D03*
X91440000Y-81915000D03*
X93980000Y-81915000D03*
X96520000Y-81915000D03*
X99060000Y-81915000D03*
X101600000Y-81915000D03*
X104140000Y-81915000D03*
X106680000Y-81915000D03*
X109220000Y-81915000D03*
X111760000Y-81915000D03*
X114300000Y-81915000D03*
X114300000Y-117475000D03*
X111760000Y-117475000D03*
X109220000Y-117475000D03*
X106680000Y-117475000D03*
X104140000Y-117475000D03*
X101600000Y-117475000D03*
X99060000Y-117475000D03*
X96520000Y-117475000D03*
X93980000Y-117475000D03*
X91440000Y-117475000D03*
X88900000Y-117475000D03*
X86360000Y-117475000D03*
X83820000Y-117475000D03*
X81280000Y-117475000D03*
X78740000Y-117475000D03*
X76200000Y-117475000D03*
D29*
X77470000Y-86995000D03*
X77470000Y-112395000D03*
X118110000Y-117475000D03*
X118110000Y-81915000D03*
D32*
X127753100Y-104531400D03*
X69353800Y-104411300D03*
X128905000Y-113703200D03*
X112907400Y-87837500D03*
X126237500Y-99695000D03*
X128544500Y-85434500D03*
X130048700Y-92819200D03*
X120165300Y-91649900D03*
X131704800Y-105643500D03*
X76432000Y-104292800D03*
D33*
X66915000Y-98630000D02*
X66915000Y-100760000D01*
X141480000Y-93995000D02*
X139292300Y-93995000D01*
X66915000Y-101972500D02*
X69353800Y-104411300D01*
X66915000Y-100760000D02*
X66915000Y-101972500D01*
X135380000Y-93995000D02*
X139292300Y-93995000D01*
X135380000Y-96904500D02*
X127753100Y-104531400D01*
X135380000Y-93995000D02*
X135380000Y-96904500D01*
X127635000Y-112433200D02*
X128905000Y-113703200D01*
X127635000Y-109474000D02*
X127635000Y-112433200D01*
X64287700Y-110388700D02*
X62865000Y-110388700D01*
X65252300Y-111353300D02*
X64287700Y-110388700D01*
X65252300Y-113030000D02*
X65252300Y-111353300D01*
X62865000Y-108966000D02*
X62865000Y-110388700D01*
X66922700Y-113030000D02*
X65252300Y-113030000D01*
X78740000Y-92075000D02*
X78740000Y-94132700D01*
X72390000Y-97155000D02*
X73939700Y-97155000D01*
X71272700Y-88671700D02*
X69850000Y-88671700D01*
X76847900Y-94246800D02*
X71272700Y-88671700D01*
X76962000Y-94132700D02*
X76847900Y-94246800D01*
X78740000Y-94132700D02*
X76962000Y-94132700D01*
X76847900Y-94246800D02*
X73939700Y-97155000D01*
X69850000Y-87249000D02*
X69850000Y-88671700D01*
X72441400Y-104292700D02*
X72771000Y-104622300D01*
X72390000Y-104292700D02*
X72441400Y-104292700D01*
X72390000Y-102235000D02*
X72390000Y-104292700D01*
X127635000Y-109474000D02*
X127635000Y-106590800D01*
X127635000Y-106281400D02*
X127635000Y-106590800D01*
X129194500Y-106281400D02*
X127635000Y-106281400D01*
X132322900Y-103153000D02*
X129194500Y-106281400D01*
X141225700Y-103153000D02*
X132322900Y-103153000D01*
X141480000Y-103407300D02*
X141225700Y-103153000D01*
X126237500Y-104883900D02*
X126237500Y-99695000D01*
X127635000Y-106281400D02*
X126237500Y-104883900D01*
X141480000Y-105395000D02*
X141480000Y-103407300D01*
X127635000Y-86344000D02*
X128544500Y-85434500D01*
X127635000Y-89916000D02*
X127635000Y-86344000D01*
X72771000Y-106680000D02*
X72771000Y-105818300D01*
X72771000Y-105818300D02*
X72771000Y-104622300D01*
X72388400Y-105818300D02*
X71526700Y-106680000D01*
X72771000Y-105818300D02*
X72388400Y-105818300D01*
X70104000Y-106680000D02*
X71526700Y-106680000D01*
X66922700Y-113030000D02*
X67310000Y-113030000D01*
X67310000Y-113030000D02*
X69367700Y-113030000D01*
X70104000Y-106680000D02*
X70104000Y-108737700D01*
X126237500Y-93544100D02*
X126237500Y-99695000D01*
X118614000Y-93544100D02*
X126237500Y-93544100D01*
X112907400Y-87837500D02*
X118614000Y-93544100D01*
X126982400Y-92799200D02*
X127635000Y-92799200D01*
X126237500Y-93544100D02*
X126982400Y-92799200D01*
X127635000Y-89916000D02*
X127635000Y-92799200D01*
X70104000Y-109250200D02*
X70104000Y-108737700D01*
X69367700Y-109986500D02*
X70104000Y-109250200D01*
X69367700Y-113030000D02*
X69367700Y-109986500D01*
D34*
X130048700Y-92567600D02*
X130175000Y-92441300D01*
X130048700Y-92819200D02*
X130048700Y-92567600D01*
X130175000Y-89916000D02*
X130175000Y-92441300D01*
X120956700Y-92441300D02*
X125095000Y-92441300D01*
X120165300Y-91649900D02*
X120956700Y-92441300D01*
X125095000Y-89916000D02*
X125095000Y-92441300D01*
X121700000Y-103553700D02*
X125095000Y-106948700D01*
X110587400Y-103553700D02*
X121700000Y-103553700D01*
X109715100Y-104426000D02*
X110587400Y-103553700D01*
X106168400Y-104426000D02*
X109715100Y-104426000D01*
X105410000Y-103667600D02*
X106168400Y-104426000D01*
X105410000Y-101778800D02*
X105410000Y-103667600D01*
X104596200Y-100965000D02*
X105410000Y-101778800D01*
X103753700Y-100965000D02*
X104596200Y-100965000D01*
X102971200Y-100182500D02*
X103753700Y-100965000D01*
X102971200Y-97686000D02*
X102971200Y-100182500D01*
X99060000Y-93774800D02*
X102971200Y-97686000D01*
X99060000Y-92075000D02*
X99060000Y-93774800D01*
X125095000Y-109474000D02*
X125095000Y-106948700D01*
X130175000Y-109474000D02*
X130175000Y-106948700D01*
X130399600Y-106948700D02*
X131704800Y-105643500D01*
X130175000Y-106948700D02*
X130399600Y-106948700D01*
D33*
X63119000Y-113436700D02*
X62865000Y-113436700D01*
X65252300Y-115570000D02*
X63119000Y-113436700D01*
X67310000Y-115570000D02*
X65252300Y-115570000D01*
X62865000Y-112014000D02*
X62865000Y-113436700D01*
X69402700Y-115605000D02*
X69367700Y-115570000D01*
X71755000Y-115605000D02*
X69402700Y-115605000D01*
X67310000Y-115570000D02*
X69367700Y-115570000D01*
X63115000Y-99695000D02*
X63115000Y-102382700D01*
X65393200Y-97007300D02*
X63115000Y-97007300D01*
X67792300Y-94608200D02*
X65393200Y-97007300D01*
X67792300Y-84201000D02*
X67792300Y-94608200D01*
X69850000Y-84201000D02*
X67792300Y-84201000D01*
X63115000Y-99695000D02*
X63115000Y-97007300D01*
X70713300Y-81915000D02*
X69850000Y-82778300D01*
X76200000Y-81915000D02*
X70713300Y-81915000D01*
X69850000Y-84201000D02*
X69850000Y-82778300D01*
X67056000Y-104045500D02*
X67056000Y-106680000D01*
X65393200Y-102382700D02*
X67056000Y-104045500D01*
X63115000Y-102382700D02*
X65393200Y-102382700D01*
X67107400Y-108737700D02*
X67310000Y-108940300D01*
X67056000Y-108737700D02*
X67107400Y-108737700D01*
X67310000Y-110490000D02*
X67310000Y-108940300D01*
X67056000Y-106680000D02*
X67056000Y-108737700D01*
X77876700Y-107315000D02*
X77241700Y-106680000D01*
X78740000Y-107315000D02*
X77876700Y-107315000D01*
X75819000Y-106680000D02*
X77241700Y-106680000D01*
X71755000Y-111725000D02*
X72773900Y-111725000D01*
X75819000Y-106680000D02*
X75819000Y-108737700D01*
X78740000Y-117475000D02*
X78740000Y-115417300D01*
X76857600Y-115417300D02*
X72998500Y-111558200D01*
X78740000Y-115417300D02*
X76857600Y-115417300D01*
X72940700Y-111558200D02*
X72998500Y-111558200D01*
X72773900Y-111725000D02*
X72940700Y-111558200D01*
X72998500Y-111558200D02*
X75819000Y-108737700D01*
D34*
X86360000Y-81915000D02*
X86360000Y-92075000D01*
X88900000Y-81915000D02*
X88900000Y-92075000D01*
X91440000Y-81915000D02*
X91440000Y-92075000D01*
X93980000Y-81915000D02*
X93980000Y-92075000D01*
X96520000Y-92075000D02*
X96520000Y-90375200D01*
X96520000Y-83614800D02*
X96520000Y-90375200D01*
X96520000Y-81915000D02*
X96520000Y-83614800D01*
X104140000Y-81915000D02*
X104140000Y-92075000D01*
X106680000Y-81915000D02*
X106680000Y-92075000D01*
X109220000Y-81915000D02*
X109220000Y-92075000D01*
X111760000Y-92075000D02*
X111760000Y-90375200D01*
X111760000Y-87098800D02*
X111760000Y-90375200D01*
X115652400Y-83206400D02*
X111760000Y-87098800D01*
X115652400Y-81023800D02*
X115652400Y-83206400D01*
X114858400Y-80229800D02*
X115652400Y-81023800D01*
X113445200Y-80229800D02*
X114858400Y-80229800D01*
X111760000Y-81915000D02*
X113445200Y-80229800D01*
X114300000Y-105615200D02*
X113459800Y-104775000D01*
X114300000Y-117475000D02*
X114300000Y-105615200D01*
X111760000Y-104775000D02*
X113459800Y-104775000D01*
X111760000Y-117475000D02*
X111760000Y-107315000D01*
X109220000Y-117475000D02*
X109220000Y-107315000D01*
X106680000Y-117475000D02*
X106680000Y-107315000D01*
X104140000Y-117475000D02*
X104140000Y-107315000D01*
X101600000Y-117475000D02*
X101600000Y-107315000D01*
X99060000Y-117475000D02*
X99060000Y-107315000D01*
X96520000Y-117475000D02*
X96520000Y-107315000D01*
X93980000Y-117475000D02*
X93980000Y-107315000D01*
X91440000Y-117475000D02*
X91440000Y-107315000D01*
X88900000Y-117475000D02*
X88900000Y-107315000D01*
X86360000Y-117475000D02*
X86360000Y-107315000D01*
D33*
X83820000Y-117475000D02*
X83820000Y-107315000D01*
X81280000Y-115417300D02*
X81280000Y-109372700D01*
X81280000Y-117475000D02*
X81280000Y-115417300D01*
X81280000Y-107315000D02*
X81280000Y-109372700D01*
X78515500Y-102209300D02*
X76432000Y-104292800D01*
X86360000Y-102209300D02*
X78515500Y-102209300D01*
X86360000Y-104775000D02*
X86360000Y-102209300D01*
D34*
X99060000Y-99695000D02*
X99060000Y-97487200D01*
X82530300Y-83165300D02*
X81280000Y-81915000D01*
X82530300Y-92952600D02*
X82530300Y-83165300D01*
X86933600Y-97355900D02*
X82530300Y-92952600D01*
X98928700Y-97355900D02*
X86933600Y-97355900D01*
X99060000Y-97487200D02*
X98928700Y-97355900D01*
X100099500Y-95986700D02*
X101600000Y-97487200D01*
X88099700Y-95986700D02*
X100099500Y-95986700D01*
X85090000Y-92977000D02*
X88099700Y-95986700D01*
X85090000Y-83185000D02*
X85090000Y-92977000D01*
X83820000Y-81915000D02*
X85090000Y-83185000D01*
X101600000Y-99695000D02*
X101600000Y-97487200D01*
X106186200Y-101043200D02*
X106680000Y-101043200D01*
X105308800Y-100165800D02*
X106186200Y-101043200D01*
X105308800Y-97974400D02*
X105308800Y-100165800D01*
X100330000Y-92995600D02*
X105308800Y-97974400D01*
X100330000Y-83185000D02*
X100330000Y-92995600D01*
X99060000Y-81915000D02*
X100330000Y-83185000D01*
X106680000Y-102235000D02*
X106680000Y-101043200D01*
X108849600Y-101043200D02*
X109220000Y-101043200D01*
X107947200Y-100140800D02*
X108849600Y-101043200D01*
X107947200Y-98063500D02*
X107947200Y-100140800D01*
X102870000Y-92986300D02*
X107947200Y-98063500D01*
X102870000Y-83185000D02*
X102870000Y-92986300D01*
X101600000Y-81915000D02*
X102870000Y-83185000D01*
X109220000Y-102235000D02*
X109220000Y-101043200D01*
X109220000Y-94516600D02*
X109220000Y-99695000D01*
X110591200Y-93145400D02*
X109220000Y-94516600D01*
X110591200Y-85623800D02*
X110591200Y-93145400D01*
X114300000Y-81915000D02*
X110591200Y-85623800D01*
X74851800Y-100965000D02*
X73581800Y-99695000D01*
X94567000Y-100965000D02*
X74851800Y-100965000D01*
X95247200Y-101645200D02*
X94567000Y-100965000D01*
X95247200Y-103813900D02*
X95247200Y-101645200D01*
X95969400Y-104536100D02*
X95247200Y-103813900D01*
X101506700Y-104536100D02*
X95969400Y-104536100D01*
X101600000Y-104442800D02*
X101506700Y-104536100D01*
X101600000Y-102235000D02*
X101600000Y-104442800D01*
X72390000Y-99695000D02*
X73581800Y-99695000D01*
D35*
G36*
X113014148Y-79798747D02*
X112338339Y-80474557D01*
X112231428Y-80403121D01*
X111760000Y-80309348D01*
X111288572Y-80403121D01*
X110888915Y-80670163D01*
X110621873Y-81069820D01*
X110528100Y-81541248D01*
X110528100Y-82288752D01*
X110621873Y-82760180D01*
X110888915Y-83159837D01*
X111288572Y-83426879D01*
X111760000Y-83520652D01*
X111850182Y-83502714D01*
X110160148Y-85192748D01*
X110028003Y-85390516D01*
X109981600Y-85623800D01*
X109981600Y-90792668D01*
X109974342Y-90781806D01*
X109829600Y-90685093D01*
X109829600Y-83334556D01*
X110091085Y-83159837D01*
X110358127Y-82760180D01*
X110451900Y-82288752D01*
X110451900Y-81541248D01*
X110358127Y-81069820D01*
X110091085Y-80670163D01*
X109691428Y-80403121D01*
X109220000Y-80309348D01*
X108748572Y-80403121D01*
X108348915Y-80670163D01*
X108081873Y-81069820D01*
X107988100Y-81541248D01*
X107988100Y-82288752D01*
X108081873Y-82760180D01*
X108348915Y-83159837D01*
X108610400Y-83334556D01*
X108610400Y-90685093D01*
X108465658Y-90781806D01*
X108234405Y-91127901D01*
X108153200Y-91536148D01*
X108153200Y-92613852D01*
X108234405Y-93022099D01*
X108465658Y-93368194D01*
X108811753Y-93599447D01*
X109198183Y-93676312D01*
X108788948Y-94085548D01*
X108656803Y-94283316D01*
X108610400Y-94516600D01*
X108610400Y-97797093D01*
X108516313Y-97859959D01*
X108510397Y-97830216D01*
X108378252Y-97632448D01*
X104378930Y-93633126D01*
X104548247Y-93599447D01*
X104894342Y-93368194D01*
X105125595Y-93022099D01*
X105206800Y-92613852D01*
X105206800Y-91536148D01*
X105125595Y-91127901D01*
X104894342Y-90781806D01*
X104749600Y-90685093D01*
X104749600Y-83334556D01*
X105011085Y-83159837D01*
X105278127Y-82760180D01*
X105371900Y-82288752D01*
X105371900Y-81541248D01*
X105448100Y-81541248D01*
X105448100Y-82288752D01*
X105541873Y-82760180D01*
X105808915Y-83159837D01*
X106070400Y-83334556D01*
X106070400Y-90685093D01*
X105925658Y-90781806D01*
X105694405Y-91127901D01*
X105613200Y-91536148D01*
X105613200Y-92613852D01*
X105694405Y-93022099D01*
X105925658Y-93368194D01*
X106271753Y-93599447D01*
X106680000Y-93680652D01*
X107088247Y-93599447D01*
X107434342Y-93368194D01*
X107665595Y-93022099D01*
X107746800Y-92613852D01*
X107746800Y-91536148D01*
X107665595Y-91127901D01*
X107434342Y-90781806D01*
X107289600Y-90685093D01*
X107289600Y-83334556D01*
X107551085Y-83159837D01*
X107818127Y-82760180D01*
X107911900Y-82288752D01*
X107911900Y-81541248D01*
X107818127Y-81069820D01*
X107551085Y-80670163D01*
X107151428Y-80403121D01*
X106680000Y-80309348D01*
X106208572Y-80403121D01*
X105808915Y-80670163D01*
X105541873Y-81069820D01*
X105448100Y-81541248D01*
X105371900Y-81541248D01*
X105278127Y-81069820D01*
X105011085Y-80670163D01*
X104611428Y-80403121D01*
X104140000Y-80309348D01*
X103668572Y-80403121D01*
X103268915Y-80670163D01*
X103001873Y-81069820D01*
X102908100Y-81541248D01*
X102908100Y-82288752D01*
X102926038Y-82378934D01*
X102831900Y-82284796D01*
X102831900Y-81541248D01*
X102738127Y-81069820D01*
X102471085Y-80670163D01*
X102071428Y-80403121D01*
X101600000Y-80309348D01*
X101128572Y-80403121D01*
X100728915Y-80670163D01*
X100461873Y-81069820D01*
X100368100Y-81541248D01*
X100368100Y-82288752D01*
X100386038Y-82378934D01*
X100291900Y-82284796D01*
X100291900Y-81541248D01*
X100198127Y-81069820D01*
X99931085Y-80670163D01*
X99531428Y-80403121D01*
X99060000Y-80309348D01*
X98588572Y-80403121D01*
X98188915Y-80670163D01*
X97921873Y-81069820D01*
X97828100Y-81541248D01*
X97828100Y-82288752D01*
X97921873Y-82760180D01*
X98188915Y-83159837D01*
X98588572Y-83426879D01*
X99060000Y-83520652D01*
X99531428Y-83426879D01*
X99638339Y-83355443D01*
X99720400Y-83437504D01*
X99720400Y-90719036D01*
X99468247Y-90550553D01*
X99060000Y-90469348D01*
X98651753Y-90550553D01*
X98305658Y-90781806D01*
X98074405Y-91127901D01*
X97993200Y-91536148D01*
X97993200Y-92613852D01*
X98074405Y-93022099D01*
X98305658Y-93368194D01*
X98450400Y-93464907D01*
X98450400Y-93774800D01*
X98496803Y-94008084D01*
X98628948Y-94205852D01*
X99800196Y-95377100D01*
X88352205Y-95377100D01*
X86606687Y-93631583D01*
X86768247Y-93599447D01*
X87114342Y-93368194D01*
X87345595Y-93022099D01*
X87426800Y-92613852D01*
X87426800Y-91536148D01*
X87345595Y-91127901D01*
X87114342Y-90781806D01*
X86969600Y-90685093D01*
X86969600Y-83334556D01*
X87231085Y-83159837D01*
X87498127Y-82760180D01*
X87591900Y-82288752D01*
X87591900Y-81541248D01*
X87668100Y-81541248D01*
X87668100Y-82288752D01*
X87761873Y-82760180D01*
X88028915Y-83159837D01*
X88290400Y-83334556D01*
X88290400Y-90685093D01*
X88145658Y-90781806D01*
X87914405Y-91127901D01*
X87833200Y-91536148D01*
X87833200Y-92613852D01*
X87914405Y-93022099D01*
X88145658Y-93368194D01*
X88491753Y-93599447D01*
X88900000Y-93680652D01*
X89308247Y-93599447D01*
X89654342Y-93368194D01*
X89885595Y-93022099D01*
X89966800Y-92613852D01*
X89966800Y-91536148D01*
X89885595Y-91127901D01*
X89654342Y-90781806D01*
X89509600Y-90685093D01*
X89509600Y-83334556D01*
X89771085Y-83159837D01*
X90038127Y-82760180D01*
X90131900Y-82288752D01*
X90131900Y-81541248D01*
X90208100Y-81541248D01*
X90208100Y-82288752D01*
X90301873Y-82760180D01*
X90568915Y-83159837D01*
X90830400Y-83334556D01*
X90830400Y-90685093D01*
X90685658Y-90781806D01*
X90454405Y-91127901D01*
X90373200Y-91536148D01*
X90373200Y-92613852D01*
X90454405Y-93022099D01*
X90685658Y-93368194D01*
X91031753Y-93599447D01*
X91440000Y-93680652D01*
X91848247Y-93599447D01*
X92194342Y-93368194D01*
X92425595Y-93022099D01*
X92506800Y-92613852D01*
X92506800Y-91536148D01*
X92425595Y-91127901D01*
X92194342Y-90781806D01*
X92049600Y-90685093D01*
X92049600Y-83334556D01*
X92311085Y-83159837D01*
X92578127Y-82760180D01*
X92671900Y-82288752D01*
X92671900Y-81541248D01*
X92748100Y-81541248D01*
X92748100Y-82288752D01*
X92841873Y-82760180D01*
X93108915Y-83159837D01*
X93370400Y-83334556D01*
X93370400Y-90685093D01*
X93225658Y-90781806D01*
X92994405Y-91127901D01*
X92913200Y-91536148D01*
X92913200Y-92613852D01*
X92994405Y-93022099D01*
X93225658Y-93368194D01*
X93571753Y-93599447D01*
X93980000Y-93680652D01*
X94388247Y-93599447D01*
X94734342Y-93368194D01*
X94965595Y-93022099D01*
X95046800Y-92613852D01*
X95046800Y-91536148D01*
X94965595Y-91127901D01*
X94734342Y-90781806D01*
X94589600Y-90685093D01*
X94589600Y-83334556D01*
X94851085Y-83159837D01*
X95118127Y-82760180D01*
X95211900Y-82288752D01*
X95211900Y-81541248D01*
X95288100Y-81541248D01*
X95288100Y-82288752D01*
X95381873Y-82760180D01*
X95648915Y-83159837D01*
X95910400Y-83334556D01*
X95910400Y-90685093D01*
X95765658Y-90781806D01*
X95534405Y-91127901D01*
X95453200Y-91536148D01*
X95453200Y-92613852D01*
X95534405Y-93022099D01*
X95765658Y-93368194D01*
X96111753Y-93599447D01*
X96520000Y-93680652D01*
X96928247Y-93599447D01*
X97274342Y-93368194D01*
X97505595Y-93022099D01*
X97586800Y-92613852D01*
X97586800Y-91536148D01*
X97505595Y-91127901D01*
X97274342Y-90781806D01*
X97129600Y-90685093D01*
X97129600Y-83334556D01*
X97391085Y-83159837D01*
X97658127Y-82760180D01*
X97751900Y-82288752D01*
X97751900Y-81541248D01*
X97658127Y-81069820D01*
X97391085Y-80670163D01*
X96991428Y-80403121D01*
X96520000Y-80309348D01*
X96048572Y-80403121D01*
X95648915Y-80670163D01*
X95381873Y-81069820D01*
X95288100Y-81541248D01*
X95211900Y-81541248D01*
X95118127Y-81069820D01*
X94851085Y-80670163D01*
X94451428Y-80403121D01*
X93980000Y-80309348D01*
X93508572Y-80403121D01*
X93108915Y-80670163D01*
X92841873Y-81069820D01*
X92748100Y-81541248D01*
X92671900Y-81541248D01*
X92578127Y-81069820D01*
X92311085Y-80670163D01*
X91911428Y-80403121D01*
X91440000Y-80309348D01*
X90968572Y-80403121D01*
X90568915Y-80670163D01*
X90301873Y-81069820D01*
X90208100Y-81541248D01*
X90131900Y-81541248D01*
X90038127Y-81069820D01*
X89771085Y-80670163D01*
X89371428Y-80403121D01*
X88900000Y-80309348D01*
X88428572Y-80403121D01*
X88028915Y-80670163D01*
X87761873Y-81069820D01*
X87668100Y-81541248D01*
X87591900Y-81541248D01*
X87498127Y-81069820D01*
X87231085Y-80670163D01*
X86831428Y-80403121D01*
X86360000Y-80309348D01*
X85888572Y-80403121D01*
X85488915Y-80670163D01*
X85221873Y-81069820D01*
X85128100Y-81541248D01*
X85128100Y-82288752D01*
X85146038Y-82378934D01*
X85051900Y-82284796D01*
X85051900Y-81541248D01*
X84958127Y-81069820D01*
X84691085Y-80670163D01*
X84291428Y-80403121D01*
X83820000Y-80309348D01*
X83348572Y-80403121D01*
X82948915Y-80670163D01*
X82681873Y-81069820D01*
X82588100Y-81541248D01*
X82588100Y-82288752D01*
X82606038Y-82378934D01*
X82511900Y-82284796D01*
X82511900Y-81541248D01*
X82418127Y-81069820D01*
X82151085Y-80670163D01*
X81751428Y-80403121D01*
X81280000Y-80309348D01*
X80808572Y-80403121D01*
X80408915Y-80670163D01*
X80161414Y-81040575D01*
X80101405Y-80843231D01*
X79718848Y-80377726D01*
X79187270Y-80094053D01*
X79129731Y-80085643D01*
X78892400Y-80196215D01*
X78892400Y-81762600D01*
X78912400Y-81762600D01*
X78912400Y-82067400D01*
X78892400Y-82067400D01*
X78892400Y-83633785D01*
X79129731Y-83744357D01*
X79187270Y-83735947D01*
X79718848Y-83452274D01*
X80101405Y-82986769D01*
X80161414Y-82789425D01*
X80408915Y-83159837D01*
X80808572Y-83426879D01*
X81280000Y-83520652D01*
X81751428Y-83426879D01*
X81858339Y-83355443D01*
X81920700Y-83417804D01*
X81920700Y-90705873D01*
X81688247Y-90550553D01*
X81280000Y-90469348D01*
X80871753Y-90550553D01*
X80525658Y-90781806D01*
X80294405Y-91127901D01*
X80213200Y-91536148D01*
X80213200Y-92613852D01*
X80294405Y-93022099D01*
X80525658Y-93368194D01*
X80871753Y-93599447D01*
X81280000Y-93680652D01*
X81688247Y-93599447D01*
X82034342Y-93368194D01*
X82061631Y-93327354D01*
X82099248Y-93383652D01*
X86502548Y-97786953D01*
X86621102Y-97866167D01*
X86700316Y-97919097D01*
X86933600Y-97965500D01*
X93177754Y-97965500D01*
X92994405Y-98239901D01*
X92913200Y-98648148D01*
X92913200Y-99725852D01*
X92994405Y-100134099D01*
X93142273Y-100355400D01*
X75104304Y-100355400D01*
X74012852Y-99263948D01*
X73815084Y-99131803D01*
X73581800Y-99085400D01*
X73391214Y-99085400D01*
X73375595Y-99006877D01*
X73144342Y-98660782D01*
X72837204Y-98455559D01*
X73281708Y-98209480D01*
X73617363Y-97787970D01*
X73766163Y-97270096D01*
X73614825Y-97053400D01*
X72542400Y-97053400D01*
X72542400Y-97073400D01*
X72237600Y-97073400D01*
X72237600Y-97053400D01*
X71165175Y-97053400D01*
X71013837Y-97270096D01*
X71162637Y-97787970D01*
X71498292Y-98209480D01*
X71942796Y-98455559D01*
X71635658Y-98660782D01*
X71404405Y-99006877D01*
X71323200Y-99415124D01*
X71323200Y-99974876D01*
X71404405Y-100383123D01*
X71635658Y-100729218D01*
X71942796Y-100934441D01*
X71498292Y-101180520D01*
X71162637Y-101602030D01*
X71013837Y-102119904D01*
X71165175Y-102336600D01*
X72237600Y-102336600D01*
X72237600Y-102316600D01*
X72542400Y-102316600D01*
X72542400Y-102336600D01*
X73614825Y-102336600D01*
X73766163Y-102119904D01*
X73617363Y-101602030D01*
X73281708Y-101180520D01*
X72837204Y-100934441D01*
X73144342Y-100729218D01*
X73375595Y-100383123D01*
X73380941Y-100356245D01*
X74420748Y-101396052D01*
X74618516Y-101528197D01*
X74851800Y-101574600D01*
X77895984Y-101574600D01*
X77886882Y-101580682D01*
X75803382Y-103664182D01*
X75610671Y-103952595D01*
X75543000Y-104292800D01*
X75610671Y-104633005D01*
X75803382Y-104921418D01*
X75991979Y-105047434D01*
X75184000Y-105047434D01*
X75045252Y-105075033D01*
X74927627Y-105153627D01*
X74849033Y-105271252D01*
X74821434Y-105410000D01*
X74821434Y-107950000D01*
X74849033Y-108088748D01*
X74927627Y-108206373D01*
X74930000Y-108207959D01*
X74930000Y-108369464D01*
X73216092Y-110083372D01*
X73143748Y-110035033D01*
X73005000Y-110007434D01*
X70505000Y-110007434D01*
X70366252Y-110035033D01*
X70248627Y-110113627D01*
X70170033Y-110231252D01*
X70142434Y-110370000D01*
X70142434Y-113080000D01*
X70170033Y-113218748D01*
X70248627Y-113336373D01*
X70366252Y-113414967D01*
X70505000Y-113442566D01*
X73005000Y-113442566D01*
X73143748Y-113414967D01*
X73261373Y-113336373D01*
X73339967Y-113218748D01*
X73350228Y-113167164D01*
X76033697Y-115850633D01*
X75709132Y-115915193D01*
X75292994Y-116193247D01*
X75014940Y-116609385D01*
X74917300Y-117100253D01*
X74917300Y-117849747D01*
X75014940Y-118340615D01*
X75292994Y-118756753D01*
X75709132Y-119034807D01*
X76200000Y-119132447D01*
X76690868Y-119034807D01*
X77107006Y-118756753D01*
X77385060Y-118340615D01*
X77470000Y-117913594D01*
X77554940Y-118340615D01*
X77832994Y-118756753D01*
X78249132Y-119034807D01*
X78740000Y-119132447D01*
X79230868Y-119034807D01*
X79647006Y-118756753D01*
X79925060Y-118340615D01*
X80010000Y-117913594D01*
X80094940Y-118340615D01*
X80372994Y-118756753D01*
X80789132Y-119034807D01*
X81280000Y-119132447D01*
X81770868Y-119034807D01*
X82187006Y-118756753D01*
X82465060Y-118340615D01*
X82550000Y-117913594D01*
X82634940Y-118340615D01*
X82912994Y-118756753D01*
X83329132Y-119034807D01*
X83820000Y-119132447D01*
X84310868Y-119034807D01*
X84727006Y-118756753D01*
X85005060Y-118340615D01*
X85102700Y-117849747D01*
X85102700Y-117100253D01*
X85005060Y-116609385D01*
X84727006Y-116193247D01*
X84709000Y-116181216D01*
X84709000Y-108497339D01*
X84852528Y-108282534D01*
X84937600Y-107854847D01*
X84937600Y-106775153D01*
X84852528Y-106347466D01*
X84610263Y-105984890D01*
X84247687Y-105742625D01*
X83820000Y-105657553D01*
X83392313Y-105742625D01*
X83029737Y-105984890D01*
X82787472Y-106347466D01*
X82702400Y-106775153D01*
X82702400Y-107854847D01*
X82787472Y-108282534D01*
X82931000Y-108497339D01*
X82931000Y-116181216D01*
X82912994Y-116193247D01*
X82634940Y-116609385D01*
X82550000Y-117036406D01*
X82465060Y-116609385D01*
X82187006Y-116193247D01*
X82169000Y-116181216D01*
X82169000Y-108497339D01*
X82312528Y-108282534D01*
X82397600Y-107854847D01*
X82397600Y-106775153D01*
X82312528Y-106347466D01*
X82070263Y-105984890D01*
X81780085Y-105791000D01*
X82070263Y-105597110D01*
X82312528Y-105234534D01*
X82397600Y-104806847D01*
X82397600Y-103727153D01*
X82312528Y-103299466D01*
X82178113Y-103098300D01*
X85461887Y-103098300D01*
X85327472Y-103299466D01*
X85242400Y-103727153D01*
X85242400Y-104806847D01*
X85327472Y-105234534D01*
X85569737Y-105597110D01*
X85905499Y-105821459D01*
X85605658Y-106021806D01*
X85374405Y-106367901D01*
X85293200Y-106776148D01*
X85293200Y-107853852D01*
X85374405Y-108262099D01*
X85605658Y-108608194D01*
X85750400Y-108704907D01*
X85750400Y-116055444D01*
X85488915Y-116230163D01*
X85221873Y-116629820D01*
X85128100Y-117101248D01*
X85128100Y-117848752D01*
X85221873Y-118320180D01*
X85488915Y-118719837D01*
X85888572Y-118986879D01*
X86360000Y-119080652D01*
X86831428Y-118986879D01*
X87231085Y-118719837D01*
X87498127Y-118320180D01*
X87591900Y-117848752D01*
X87591900Y-117101248D01*
X87668100Y-117101248D01*
X87668100Y-117848752D01*
X87761873Y-118320180D01*
X88028915Y-118719837D01*
X88428572Y-118986879D01*
X88900000Y-119080652D01*
X89371428Y-118986879D01*
X89771085Y-118719837D01*
X90038127Y-118320180D01*
X90131900Y-117848752D01*
X90131900Y-117101248D01*
X90208100Y-117101248D01*
X90208100Y-117848752D01*
X90301873Y-118320180D01*
X90568915Y-118719837D01*
X90968572Y-118986879D01*
X91440000Y-119080652D01*
X91911428Y-118986879D01*
X92311085Y-118719837D01*
X92578127Y-118320180D01*
X92671900Y-117848752D01*
X92671900Y-117101248D01*
X92748100Y-117101248D01*
X92748100Y-117848752D01*
X92841873Y-118320180D01*
X93108915Y-118719837D01*
X93508572Y-118986879D01*
X93980000Y-119080652D01*
X94451428Y-118986879D01*
X94851085Y-118719837D01*
X95118127Y-118320180D01*
X95211900Y-117848752D01*
X95211900Y-117101248D01*
X95288100Y-117101248D01*
X95288100Y-117848752D01*
X95381873Y-118320180D01*
X95648915Y-118719837D01*
X96048572Y-118986879D01*
X96520000Y-119080652D01*
X96991428Y-118986879D01*
X97391085Y-118719837D01*
X97658127Y-118320180D01*
X97751900Y-117848752D01*
X97751900Y-117101248D01*
X97828100Y-117101248D01*
X97828100Y-117848752D01*
X97921873Y-118320180D01*
X98188915Y-118719837D01*
X98588572Y-118986879D01*
X99060000Y-119080652D01*
X99531428Y-118986879D01*
X99931085Y-118719837D01*
X100198127Y-118320180D01*
X100291900Y-117848752D01*
X100291900Y-117101248D01*
X100368100Y-117101248D01*
X100368100Y-117848752D01*
X100461873Y-118320180D01*
X100728915Y-118719837D01*
X101128572Y-118986879D01*
X101600000Y-119080652D01*
X102071428Y-118986879D01*
X102471085Y-118719837D01*
X102738127Y-118320180D01*
X102831900Y-117848752D01*
X102831900Y-117101248D01*
X102908100Y-117101248D01*
X102908100Y-117848752D01*
X103001873Y-118320180D01*
X103268915Y-118719837D01*
X103668572Y-118986879D01*
X104140000Y-119080652D01*
X104611428Y-118986879D01*
X105011085Y-118719837D01*
X105278127Y-118320180D01*
X105371900Y-117848752D01*
X105371900Y-117101248D01*
X105448100Y-117101248D01*
X105448100Y-117848752D01*
X105541873Y-118320180D01*
X105808915Y-118719837D01*
X106208572Y-118986879D01*
X106680000Y-119080652D01*
X107151428Y-118986879D01*
X107551085Y-118719837D01*
X107818127Y-118320180D01*
X107911900Y-117848752D01*
X107911900Y-117101248D01*
X107988100Y-117101248D01*
X107988100Y-117848752D01*
X108081873Y-118320180D01*
X108348915Y-118719837D01*
X108748572Y-118986879D01*
X109220000Y-119080652D01*
X109691428Y-118986879D01*
X110091085Y-118719837D01*
X110358127Y-118320180D01*
X110451900Y-117848752D01*
X110451900Y-117101248D01*
X110358127Y-116629820D01*
X110091085Y-116230163D01*
X109829600Y-116055444D01*
X109829600Y-108704907D01*
X109974342Y-108608194D01*
X110205595Y-108262099D01*
X110286800Y-107853852D01*
X110286800Y-106776148D01*
X110205595Y-106367901D01*
X109974342Y-106021806D01*
X109628247Y-105790553D01*
X109220000Y-105709348D01*
X108811753Y-105790553D01*
X108465658Y-106021806D01*
X108234405Y-106367901D01*
X108153200Y-106776148D01*
X108153200Y-107853852D01*
X108234405Y-108262099D01*
X108465658Y-108608194D01*
X108610400Y-108704907D01*
X108610400Y-116055444D01*
X108348915Y-116230163D01*
X108081873Y-116629820D01*
X107988100Y-117101248D01*
X107911900Y-117101248D01*
X107818127Y-116629820D01*
X107551085Y-116230163D01*
X107289600Y-116055444D01*
X107289600Y-108704907D01*
X107434342Y-108608194D01*
X107665595Y-108262099D01*
X107746800Y-107853852D01*
X107746800Y-106776148D01*
X107665595Y-106367901D01*
X107434342Y-106021806D01*
X107088247Y-105790553D01*
X106680000Y-105709348D01*
X106271753Y-105790553D01*
X105925658Y-106021806D01*
X105694405Y-106367901D01*
X105613200Y-106776148D01*
X105613200Y-107853852D01*
X105694405Y-108262099D01*
X105925658Y-108608194D01*
X106070400Y-108704907D01*
X106070400Y-116055444D01*
X105808915Y-116230163D01*
X105541873Y-116629820D01*
X105448100Y-117101248D01*
X105371900Y-117101248D01*
X105278127Y-116629820D01*
X105011085Y-116230163D01*
X104749600Y-116055444D01*
X104749600Y-108704907D01*
X104894342Y-108608194D01*
X105125595Y-108262099D01*
X105206800Y-107853852D01*
X105206800Y-106776148D01*
X105125595Y-106367901D01*
X104894342Y-106021806D01*
X104548247Y-105790553D01*
X104140000Y-105709348D01*
X103731753Y-105790553D01*
X103385658Y-106021806D01*
X103154405Y-106367901D01*
X103073200Y-106776148D01*
X103073200Y-107853852D01*
X103154405Y-108262099D01*
X103385658Y-108608194D01*
X103530400Y-108704907D01*
X103530400Y-116055444D01*
X103268915Y-116230163D01*
X103001873Y-116629820D01*
X102908100Y-117101248D01*
X102831900Y-117101248D01*
X102738127Y-116629820D01*
X102471085Y-116230163D01*
X102209600Y-116055444D01*
X102209600Y-108704907D01*
X102354342Y-108608194D01*
X102585595Y-108262099D01*
X102666800Y-107853852D01*
X102666800Y-106776148D01*
X102585595Y-106367901D01*
X102354342Y-106021806D01*
X102008247Y-105790553D01*
X101600000Y-105709348D01*
X101191753Y-105790553D01*
X100845658Y-106021806D01*
X100614405Y-106367901D01*
X100533200Y-106776148D01*
X100533200Y-107853852D01*
X100614405Y-108262099D01*
X100845658Y-108608194D01*
X100990400Y-108704907D01*
X100990400Y-116055444D01*
X100728915Y-116230163D01*
X100461873Y-116629820D01*
X100368100Y-117101248D01*
X100291900Y-117101248D01*
X100198127Y-116629820D01*
X99931085Y-116230163D01*
X99669600Y-116055444D01*
X99669600Y-108704907D01*
X99814342Y-108608194D01*
X100045595Y-108262099D01*
X100126800Y-107853852D01*
X100126800Y-106776148D01*
X100045595Y-106367901D01*
X99814342Y-106021806D01*
X99468247Y-105790553D01*
X99060000Y-105709348D01*
X98651753Y-105790553D01*
X98305658Y-106021806D01*
X98074405Y-106367901D01*
X97993200Y-106776148D01*
X97993200Y-107853852D01*
X98074405Y-108262099D01*
X98305658Y-108608194D01*
X98450400Y-108704907D01*
X98450400Y-116055444D01*
X98188915Y-116230163D01*
X97921873Y-116629820D01*
X97828100Y-117101248D01*
X97751900Y-117101248D01*
X97658127Y-116629820D01*
X97391085Y-116230163D01*
X97129600Y-116055444D01*
X97129600Y-108704907D01*
X97274342Y-108608194D01*
X97505595Y-108262099D01*
X97586800Y-107853852D01*
X97586800Y-106776148D01*
X97505595Y-106367901D01*
X97274342Y-106021806D01*
X96928247Y-105790553D01*
X96520000Y-105709348D01*
X96111753Y-105790553D01*
X95765658Y-106021806D01*
X95534405Y-106367901D01*
X95453200Y-106776148D01*
X95453200Y-107853852D01*
X95534405Y-108262099D01*
X95765658Y-108608194D01*
X95910400Y-108704907D01*
X95910400Y-116055444D01*
X95648915Y-116230163D01*
X95381873Y-116629820D01*
X95288100Y-117101248D01*
X95211900Y-117101248D01*
X95118127Y-116629820D01*
X94851085Y-116230163D01*
X94589600Y-116055444D01*
X94589600Y-108704907D01*
X94734342Y-108608194D01*
X94965595Y-108262099D01*
X95046800Y-107853852D01*
X95046800Y-106776148D01*
X94965595Y-106367901D01*
X94734342Y-106021806D01*
X94388247Y-105790553D01*
X93980000Y-105709348D01*
X93571753Y-105790553D01*
X93225658Y-106021806D01*
X92994405Y-106367901D01*
X92913200Y-106776148D01*
X92913200Y-107853852D01*
X92994405Y-108262099D01*
X93225658Y-108608194D01*
X93370400Y-108704907D01*
X93370400Y-116055444D01*
X93108915Y-116230163D01*
X92841873Y-116629820D01*
X92748100Y-117101248D01*
X92671900Y-117101248D01*
X92578127Y-116629820D01*
X92311085Y-116230163D01*
X92049600Y-116055444D01*
X92049600Y-108704907D01*
X92194342Y-108608194D01*
X92425595Y-108262099D01*
X92506800Y-107853852D01*
X92506800Y-106776148D01*
X92425595Y-106367901D01*
X92194342Y-106021806D01*
X91848916Y-105791000D01*
X92194342Y-105560194D01*
X92425595Y-105214099D01*
X92506800Y-104805852D01*
X92506800Y-103728148D01*
X92425595Y-103319901D01*
X92194342Y-102973806D01*
X91848247Y-102742553D01*
X91440000Y-102661348D01*
X91031753Y-102742553D01*
X90685658Y-102973806D01*
X90454405Y-103319901D01*
X90373200Y-103728148D01*
X90373200Y-104805852D01*
X90454405Y-105214099D01*
X90685658Y-105560194D01*
X91031084Y-105791000D01*
X90685658Y-106021806D01*
X90454405Y-106367901D01*
X90373200Y-106776148D01*
X90373200Y-107853852D01*
X90454405Y-108262099D01*
X90685658Y-108608194D01*
X90830400Y-108704907D01*
X90830400Y-116055444D01*
X90568915Y-116230163D01*
X90301873Y-116629820D01*
X90208100Y-117101248D01*
X90131900Y-117101248D01*
X90038127Y-116629820D01*
X89771085Y-116230163D01*
X89509600Y-116055444D01*
X89509600Y-108704907D01*
X89654342Y-108608194D01*
X89885595Y-108262099D01*
X89966800Y-107853852D01*
X89966800Y-106776148D01*
X89885595Y-106367901D01*
X89654342Y-106021806D01*
X89308916Y-105791000D01*
X89654342Y-105560194D01*
X89885595Y-105214099D01*
X89966800Y-104805852D01*
X89966800Y-103728148D01*
X89885595Y-103319901D01*
X89654342Y-102973806D01*
X89308247Y-102742553D01*
X88900000Y-102661348D01*
X88491753Y-102742553D01*
X88145658Y-102973806D01*
X87914405Y-103319901D01*
X87833200Y-103728148D01*
X87833200Y-104805852D01*
X87914405Y-105214099D01*
X88145658Y-105560194D01*
X88491084Y-105791000D01*
X88145658Y-106021806D01*
X87914405Y-106367901D01*
X87833200Y-106776148D01*
X87833200Y-107853852D01*
X87914405Y-108262099D01*
X88145658Y-108608194D01*
X88290400Y-108704907D01*
X88290400Y-116055444D01*
X88028915Y-116230163D01*
X87761873Y-116629820D01*
X87668100Y-117101248D01*
X87591900Y-117101248D01*
X87498127Y-116629820D01*
X87231085Y-116230163D01*
X86969600Y-116055444D01*
X86969600Y-108704907D01*
X87114342Y-108608194D01*
X87345595Y-108262099D01*
X87426800Y-107853852D01*
X87426800Y-106776148D01*
X87345595Y-106367901D01*
X87114342Y-106021806D01*
X86814501Y-105821459D01*
X87150263Y-105597110D01*
X87392528Y-105234534D01*
X87477600Y-104806847D01*
X87477600Y-103727153D01*
X87392528Y-103299466D01*
X87249000Y-103084661D01*
X87249000Y-102209300D01*
X87181329Y-101869094D01*
X86988618Y-101580682D01*
X86979516Y-101574600D01*
X93142273Y-101574600D01*
X92994405Y-101795901D01*
X92913200Y-102204148D01*
X92913200Y-103281852D01*
X92994405Y-103690099D01*
X93225658Y-104036194D01*
X93571753Y-104267447D01*
X93980000Y-104348652D01*
X94388247Y-104267447D01*
X94694464Y-104062840D01*
X94816148Y-104244952D01*
X95538348Y-104967152D01*
X95736116Y-105099297D01*
X95969400Y-105145700D01*
X101506700Y-105145700D01*
X101739984Y-105099297D01*
X101937752Y-104967152D01*
X102031052Y-104873852D01*
X102163197Y-104676084D01*
X102184070Y-104571148D01*
X102209600Y-104442800D01*
X102209600Y-104132907D01*
X102354342Y-104036194D01*
X102585595Y-103690099D01*
X102666800Y-103281852D01*
X102666800Y-102204148D01*
X102585595Y-101795901D01*
X102354342Y-101449806D01*
X102008247Y-101218553D01*
X101600000Y-101137348D01*
X101191753Y-101218553D01*
X100845658Y-101449806D01*
X100614405Y-101795901D01*
X100533200Y-102204148D01*
X100533200Y-103281852D01*
X100614405Y-103690099D01*
X100772363Y-103926500D01*
X99887637Y-103926500D01*
X100045595Y-103690099D01*
X100126800Y-103281852D01*
X100126800Y-102204148D01*
X100045595Y-101795901D01*
X99814342Y-101449806D01*
X99468247Y-101218553D01*
X99060000Y-101137348D01*
X98651753Y-101218553D01*
X98305658Y-101449806D01*
X98074405Y-101795901D01*
X97993200Y-102204148D01*
X97993200Y-103281852D01*
X98074405Y-103690099D01*
X98232363Y-103926500D01*
X97347637Y-103926500D01*
X97505595Y-103690099D01*
X97586800Y-103281852D01*
X97586800Y-102204148D01*
X97505595Y-101795901D01*
X97274342Y-101449806D01*
X96928247Y-101218553D01*
X96520000Y-101137348D01*
X96111753Y-101218553D01*
X95811801Y-101418974D01*
X95810397Y-101411916D01*
X95678252Y-101214148D01*
X94998052Y-100533948D01*
X94800284Y-100401803D01*
X94788312Y-100399422D01*
X94965595Y-100134099D01*
X95046800Y-99725852D01*
X95046800Y-98648148D01*
X94965595Y-98239901D01*
X94782246Y-97965500D01*
X95717754Y-97965500D01*
X95534405Y-98239901D01*
X95453200Y-98648148D01*
X95453200Y-99725852D01*
X95534405Y-100134099D01*
X95765658Y-100480194D01*
X96111753Y-100711447D01*
X96520000Y-100792652D01*
X96928247Y-100711447D01*
X97274342Y-100480194D01*
X97505595Y-100134099D01*
X97586800Y-99725852D01*
X97586800Y-98648148D01*
X97505595Y-98239901D01*
X97322246Y-97965500D01*
X98257754Y-97965500D01*
X98074405Y-98239901D01*
X97993200Y-98648148D01*
X97993200Y-99725852D01*
X98074405Y-100134099D01*
X98305658Y-100480194D01*
X98651753Y-100711447D01*
X99060000Y-100792652D01*
X99468247Y-100711447D01*
X99814342Y-100480194D01*
X100045595Y-100134099D01*
X100126800Y-99725852D01*
X100126800Y-98648148D01*
X100045595Y-98239901D01*
X99814342Y-97893806D01*
X99669600Y-97797093D01*
X99669600Y-97487200D01*
X99623197Y-97253916D01*
X99491052Y-97056148D01*
X99359752Y-96924848D01*
X99161984Y-96792703D01*
X98928700Y-96746300D01*
X87186105Y-96746300D01*
X84070608Y-93630803D01*
X84228247Y-93599447D01*
X84574342Y-93368194D01*
X84603329Y-93324812D01*
X84658948Y-93408052D01*
X87668648Y-96417753D01*
X87787202Y-96496967D01*
X87866416Y-96549897D01*
X88099700Y-96596300D01*
X99846996Y-96596300D01*
X100990400Y-97739705D01*
X100990400Y-97797093D01*
X100845658Y-97893806D01*
X100614405Y-98239901D01*
X100533200Y-98648148D01*
X100533200Y-99725852D01*
X100614405Y-100134099D01*
X100845658Y-100480194D01*
X101191753Y-100711447D01*
X101600000Y-100792652D01*
X102008247Y-100711447D01*
X102354342Y-100480194D01*
X102405566Y-100403532D01*
X102408003Y-100415784D01*
X102540148Y-100613552D01*
X103322648Y-101396052D01*
X103394377Y-101443980D01*
X103385658Y-101449806D01*
X103154405Y-101795901D01*
X103073200Y-102204148D01*
X103073200Y-103281852D01*
X103154405Y-103690099D01*
X103385658Y-104036194D01*
X103731753Y-104267447D01*
X104140000Y-104348652D01*
X104548247Y-104267447D01*
X104894342Y-104036194D01*
X104915778Y-104004112D01*
X104978948Y-104098652D01*
X105737348Y-104857053D01*
X105833678Y-104921418D01*
X105935116Y-104989197D01*
X106168400Y-105035600D01*
X109715100Y-105035600D01*
X109948384Y-104989197D01*
X110146152Y-104857052D01*
X110166601Y-104836603D01*
X110235553Y-105183247D01*
X110466806Y-105529342D01*
X110812901Y-105760595D01*
X111221148Y-105841800D01*
X111275056Y-105841800D01*
X111005658Y-106021806D01*
X110774405Y-106367901D01*
X110693200Y-106776148D01*
X110693200Y-107853852D01*
X110774405Y-108262099D01*
X111005658Y-108608194D01*
X111150400Y-108704907D01*
X111150400Y-116055444D01*
X110888915Y-116230163D01*
X110621873Y-116629820D01*
X110528100Y-117101248D01*
X110528100Y-117848752D01*
X110621873Y-118320180D01*
X110888915Y-118719837D01*
X111288572Y-118986879D01*
X111760000Y-119080652D01*
X112231428Y-118986879D01*
X112631085Y-118719837D01*
X112898127Y-118320180D01*
X112991900Y-117848752D01*
X112991900Y-117101248D01*
X112898127Y-116629820D01*
X112631085Y-116230163D01*
X112369600Y-116055444D01*
X112369600Y-108704907D01*
X112514342Y-108608194D01*
X112745595Y-108262099D01*
X112826800Y-107853852D01*
X112826800Y-106776148D01*
X112745595Y-106367901D01*
X112514342Y-106021806D01*
X112244944Y-105841800D01*
X112298852Y-105841800D01*
X112707099Y-105760595D01*
X113053194Y-105529342D01*
X113149907Y-105384600D01*
X113207296Y-105384600D01*
X113690400Y-105867704D01*
X113690400Y-116055444D01*
X113428915Y-116230163D01*
X113161873Y-116629820D01*
X113068100Y-117101248D01*
X113068100Y-117848752D01*
X113161873Y-118320180D01*
X113428915Y-118719837D01*
X113828572Y-118986879D01*
X114300000Y-119080652D01*
X114771428Y-118986879D01*
X115171085Y-118719837D01*
X115438127Y-118320180D01*
X115524197Y-117887477D01*
X116026840Y-117887477D01*
X116343259Y-118653270D01*
X116928648Y-119239682D01*
X117693888Y-119557437D01*
X118522477Y-119558160D01*
X119288270Y-119241741D01*
X119874682Y-118656352D01*
X119932829Y-118516318D01*
X119932829Y-118618000D01*
X119956485Y-118736927D01*
X120023852Y-118837748D01*
X120124673Y-118905115D01*
X120243600Y-118928771D01*
X123037600Y-118928771D01*
X123156527Y-118905115D01*
X123257348Y-118837748D01*
X123324715Y-118736927D01*
X123348371Y-118618000D01*
X123348371Y-114734437D01*
X123382934Y-114769061D01*
X123751556Y-114922126D01*
X124150693Y-114922474D01*
X124519581Y-114770052D01*
X124802061Y-114488066D01*
X124955126Y-114119444D01*
X124955127Y-114117693D01*
X130314526Y-114117693D01*
X130466948Y-114486581D01*
X130748934Y-114769061D01*
X131117556Y-114922126D01*
X131516693Y-114922474D01*
X131885581Y-114770052D01*
X131921629Y-114734067D01*
X131921629Y-118618000D01*
X131945285Y-118736927D01*
X132012652Y-118837748D01*
X132113473Y-118905115D01*
X132232400Y-118928771D01*
X135026400Y-118928771D01*
X135145327Y-118905115D01*
X135246148Y-118837748D01*
X135313515Y-118736927D01*
X135337171Y-118618000D01*
X135337171Y-113792000D01*
X135313515Y-113673073D01*
X135246148Y-113572252D01*
X135145327Y-113504885D01*
X135026400Y-113481229D01*
X133174437Y-113481229D01*
X133438061Y-113218066D01*
X133591126Y-112849444D01*
X133591474Y-112450307D01*
X133439052Y-112081419D01*
X133157066Y-111798939D01*
X132788444Y-111645874D01*
X132389307Y-111645526D01*
X132020419Y-111797948D01*
X131737939Y-112079934D01*
X131584874Y-112448556D01*
X131584526Y-112847693D01*
X131632219Y-112963117D01*
X131518444Y-112915874D01*
X131119307Y-112915526D01*
X130750419Y-113067948D01*
X130467939Y-113349934D01*
X130314874Y-113718556D01*
X130314526Y-114117693D01*
X124955127Y-114117693D01*
X124955474Y-113720307D01*
X124803052Y-113351419D01*
X124521066Y-113068939D01*
X124152444Y-112915874D01*
X123753307Y-112915526D01*
X123637883Y-112963219D01*
X123685126Y-112849444D01*
X123685474Y-112450307D01*
X123533052Y-112081419D01*
X123251066Y-111798939D01*
X122882444Y-111645874D01*
X122483307Y-111645526D01*
X122114419Y-111797948D01*
X121831939Y-112079934D01*
X121678874Y-112448556D01*
X121678526Y-112847693D01*
X121830948Y-113216581D01*
X122095133Y-113481229D01*
X120243600Y-113481229D01*
X120124673Y-113504885D01*
X120023852Y-113572252D01*
X119956485Y-113673073D01*
X119932829Y-113792000D01*
X119932829Y-116432473D01*
X119876741Y-116296730D01*
X119291352Y-115710318D01*
X118526112Y-115392563D01*
X117697523Y-115391840D01*
X116931730Y-115708259D01*
X116345318Y-116293648D01*
X116027563Y-117058888D01*
X116026840Y-117887477D01*
X115524197Y-117887477D01*
X115531900Y-117848752D01*
X115531900Y-117101248D01*
X115438127Y-116629820D01*
X115171085Y-116230163D01*
X114909600Y-116055444D01*
X114909600Y-105615200D01*
X114863197Y-105381916D01*
X114731052Y-105184148D01*
X113890852Y-104343948D01*
X113693084Y-104211803D01*
X113459800Y-104165400D01*
X113149907Y-104165400D01*
X113148504Y-104163300D01*
X121447496Y-104163300D01*
X124351925Y-107067729D01*
X124206000Y-107067729D01*
X124087073Y-107091385D01*
X123986252Y-107158752D01*
X123918885Y-107259573D01*
X123895229Y-107378500D01*
X123895229Y-111569500D01*
X123918885Y-111688427D01*
X123986252Y-111789248D01*
X124087073Y-111856615D01*
X124206000Y-111880271D01*
X125984000Y-111880271D01*
X126102927Y-111856615D01*
X126182952Y-111803144D01*
X126229206Y-111914811D01*
X126400689Y-112086294D01*
X126624743Y-112179100D01*
X127330200Y-112179100D01*
X127482600Y-112026700D01*
X127482600Y-109626400D01*
X127462600Y-109626400D01*
X127462600Y-109321600D01*
X127482600Y-109321600D01*
X127482600Y-106921300D01*
X127787400Y-106921300D01*
X127787400Y-109321600D01*
X127807400Y-109321600D01*
X127807400Y-109626400D01*
X127787400Y-109626400D01*
X127787400Y-112026700D01*
X127939800Y-112179100D01*
X128645257Y-112179100D01*
X128869311Y-112086294D01*
X129040794Y-111914811D01*
X129087048Y-111803144D01*
X129167073Y-111856615D01*
X129286000Y-111880271D01*
X131064000Y-111880271D01*
X131182927Y-111856615D01*
X131283748Y-111789248D01*
X131351115Y-111688427D01*
X131374771Y-111569500D01*
X131374771Y-107378500D01*
X131351115Y-107259573D01*
X131283748Y-107158752D01*
X131182927Y-107091385D01*
X131129622Y-107080782D01*
X131817506Y-106392899D01*
X131853191Y-106392930D01*
X132128690Y-106279096D01*
X132339656Y-106068499D01*
X132453970Y-105793199D01*
X132454208Y-105520597D01*
X132768556Y-105651126D01*
X133167693Y-105651474D01*
X133536581Y-105499052D01*
X133669229Y-105366636D01*
X133669229Y-106595000D01*
X133692885Y-106713927D01*
X133760252Y-106814748D01*
X133861073Y-106882115D01*
X133980000Y-106905771D01*
X136780000Y-106905771D01*
X136898927Y-106882115D01*
X136999748Y-106814748D01*
X137067115Y-106713927D01*
X137090771Y-106595000D01*
X137090771Y-105699800D01*
X139470400Y-105699800D01*
X139470400Y-106716257D01*
X139563206Y-106940311D01*
X139734689Y-107111794D01*
X139958743Y-107204600D01*
X141175200Y-107204600D01*
X141327600Y-107052200D01*
X141327600Y-105547400D01*
X139622800Y-105547400D01*
X139470400Y-105699800D01*
X137090771Y-105699800D01*
X137090771Y-104195000D01*
X137067115Y-104076073D01*
X137065559Y-104073743D01*
X139470400Y-104073743D01*
X139470400Y-105090200D01*
X139622800Y-105242600D01*
X141327600Y-105242600D01*
X141327600Y-103737800D01*
X141175200Y-103585400D01*
X139958743Y-103585400D01*
X139734689Y-103678206D01*
X139563206Y-103849689D01*
X139470400Y-104073743D01*
X137065559Y-104073743D01*
X136999748Y-103975252D01*
X136898927Y-103907885D01*
X136780000Y-103884229D01*
X133980000Y-103884229D01*
X133861073Y-103907885D01*
X133760252Y-103975252D01*
X133742135Y-104002366D01*
X133538066Y-103797939D01*
X133169444Y-103644874D01*
X132770307Y-103644526D01*
X132401419Y-103796948D01*
X132118939Y-104078934D01*
X131965874Y-104447556D01*
X131965526Y-104846693D01*
X132012280Y-104959846D01*
X131854499Y-104894330D01*
X131556409Y-104894070D01*
X131280910Y-105007904D01*
X131069944Y-105218501D01*
X130955630Y-105493801D01*
X130955598Y-105530597D01*
X130140167Y-106346029D01*
X129941716Y-106385503D01*
X129743948Y-106517648D01*
X129611803Y-106715416D01*
X129565400Y-106948700D01*
X129565400Y-107067729D01*
X129286000Y-107067729D01*
X129167073Y-107091385D01*
X129087048Y-107144856D01*
X129040794Y-107033189D01*
X128869311Y-106861706D01*
X128645257Y-106768900D01*
X127939800Y-106768900D01*
X127787400Y-106921300D01*
X127482600Y-106921300D01*
X127330200Y-106768900D01*
X126624743Y-106768900D01*
X126400689Y-106861706D01*
X126229206Y-107033189D01*
X126182952Y-107144856D01*
X126102927Y-107091385D01*
X125984000Y-107067729D01*
X125704600Y-107067729D01*
X125704600Y-106948700D01*
X125658197Y-106715416D01*
X125526052Y-106517648D01*
X122131052Y-103122648D01*
X121933284Y-102990503D01*
X121700000Y-102944100D01*
X113083424Y-102944100D01*
X113284447Y-102643247D01*
X113365652Y-102235000D01*
X113284447Y-101826753D01*
X113053194Y-101480658D01*
X112707099Y-101249405D01*
X112298852Y-101168200D01*
X111221148Y-101168200D01*
X110812901Y-101249405D01*
X110466806Y-101480658D01*
X110235553Y-101826753D01*
X110223642Y-101886632D01*
X110205595Y-101795901D01*
X109974342Y-101449806D01*
X109829600Y-101353093D01*
X109829600Y-101043200D01*
X109783197Y-100809916D01*
X109689883Y-100670263D01*
X109974342Y-100480194D01*
X110205595Y-100134099D01*
X110223642Y-100043368D01*
X110235553Y-100103247D01*
X110466806Y-100449342D01*
X110812901Y-100680595D01*
X111221148Y-100761800D01*
X112298852Y-100761800D01*
X112707099Y-100680595D01*
X113053194Y-100449342D01*
X113281620Y-100107477D01*
X116026840Y-100107477D01*
X116343259Y-100873270D01*
X116928648Y-101459682D01*
X117693888Y-101777437D01*
X118522477Y-101778160D01*
X119288270Y-101461741D01*
X119874682Y-100876352D01*
X120192437Y-100111112D01*
X120193160Y-99282523D01*
X119876741Y-98516730D01*
X119291352Y-97930318D01*
X118526112Y-97612563D01*
X117697523Y-97611840D01*
X116931730Y-97928259D01*
X116345318Y-98513648D01*
X116027563Y-99278888D01*
X116026840Y-100107477D01*
X113281620Y-100107477D01*
X113284447Y-100103247D01*
X113365652Y-99695000D01*
X113284447Y-99286753D01*
X113053194Y-98940658D01*
X112707099Y-98709405D01*
X112298852Y-98628200D01*
X111221148Y-98628200D01*
X110812901Y-98709405D01*
X110466806Y-98940658D01*
X110286800Y-99210056D01*
X110286800Y-98648148D01*
X110205595Y-98239901D01*
X109974342Y-97893806D01*
X109829600Y-97797093D01*
X109829600Y-97155000D01*
X110154348Y-97155000D01*
X110235553Y-97563247D01*
X110466806Y-97909342D01*
X110812901Y-98140595D01*
X111221148Y-98221800D01*
X112298852Y-98221800D01*
X112707099Y-98140595D01*
X113053194Y-97909342D01*
X113284447Y-97563247D01*
X113365652Y-97155000D01*
X113284447Y-96746753D01*
X113053194Y-96400658D01*
X112707099Y-96169405D01*
X112298852Y-96088200D01*
X111221148Y-96088200D01*
X110812901Y-96169405D01*
X110466806Y-96400658D01*
X110235553Y-96746753D01*
X110154348Y-97155000D01*
X109829600Y-97155000D01*
X109829600Y-94769104D01*
X110196719Y-94401985D01*
X110154348Y-94615000D01*
X110235553Y-95023247D01*
X110466806Y-95369342D01*
X110812901Y-95600595D01*
X111221148Y-95681800D01*
X112298852Y-95681800D01*
X112707099Y-95600595D01*
X113053194Y-95369342D01*
X113284447Y-95023247D01*
X113365652Y-94615000D01*
X113284447Y-94206753D01*
X113053194Y-93860658D01*
X112707099Y-93629405D01*
X112298852Y-93548200D01*
X112244944Y-93548200D01*
X112514342Y-93368194D01*
X112745595Y-93022099D01*
X112826800Y-92613852D01*
X112826800Y-91798291D01*
X119415870Y-91798291D01*
X119529704Y-92073790D01*
X119740301Y-92284756D01*
X120015601Y-92399070D01*
X120052398Y-92399102D01*
X120525648Y-92872353D01*
X120605053Y-92925409D01*
X120723416Y-93004497D01*
X120956700Y-93050900D01*
X125095000Y-93050900D01*
X125328284Y-93004497D01*
X125526052Y-92872352D01*
X125658197Y-92674584D01*
X125704600Y-92441300D01*
X125704600Y-92322271D01*
X125984000Y-92322271D01*
X126102927Y-92298615D01*
X126182952Y-92245144D01*
X126229206Y-92356811D01*
X126400689Y-92528294D01*
X126624743Y-92621100D01*
X127330200Y-92621100D01*
X127482600Y-92468700D01*
X127482600Y-90068400D01*
X127462600Y-90068400D01*
X127462600Y-89763600D01*
X127482600Y-89763600D01*
X127482600Y-87363300D01*
X127787400Y-87363300D01*
X127787400Y-89763600D01*
X127807400Y-89763600D01*
X127807400Y-90068400D01*
X127787400Y-90068400D01*
X127787400Y-92468700D01*
X127939800Y-92621100D01*
X128645257Y-92621100D01*
X128869311Y-92528294D01*
X129040794Y-92356811D01*
X129087048Y-92245144D01*
X129167073Y-92298615D01*
X129286000Y-92322271D01*
X129485900Y-92322271D01*
X129413844Y-92394201D01*
X129299530Y-92669501D01*
X129299270Y-92967591D01*
X129413104Y-93243090D01*
X129623701Y-93454056D01*
X129899001Y-93568370D01*
X130197091Y-93568630D01*
X130472590Y-93454796D01*
X130683556Y-93244199D01*
X130797870Y-92968899D01*
X130798130Y-92670809D01*
X130758180Y-92574123D01*
X130784600Y-92441300D01*
X130784600Y-92322271D01*
X131064000Y-92322271D01*
X131182927Y-92298615D01*
X131283748Y-92231248D01*
X131351115Y-92130427D01*
X131374771Y-92011500D01*
X131374771Y-87820500D01*
X131351115Y-87701573D01*
X131283748Y-87600752D01*
X131182927Y-87533385D01*
X131064000Y-87509729D01*
X129286000Y-87509729D01*
X129167073Y-87533385D01*
X129087048Y-87586856D01*
X129040794Y-87475189D01*
X128869311Y-87303706D01*
X128645257Y-87210900D01*
X127939800Y-87210900D01*
X127787400Y-87363300D01*
X127482600Y-87363300D01*
X127330200Y-87210900D01*
X126624743Y-87210900D01*
X126400689Y-87303706D01*
X126229206Y-87475189D01*
X126182952Y-87586856D01*
X126102927Y-87533385D01*
X125984000Y-87509729D01*
X124206000Y-87509729D01*
X124087073Y-87533385D01*
X123986252Y-87600752D01*
X123918885Y-87701573D01*
X123895229Y-87820500D01*
X123895229Y-91831700D01*
X121209205Y-91831700D01*
X120914699Y-91537194D01*
X120914730Y-91501509D01*
X120800896Y-91226010D01*
X120590299Y-91015044D01*
X120314999Y-90900730D01*
X120016909Y-90900470D01*
X119741410Y-91014304D01*
X119530444Y-91224901D01*
X119416130Y-91500201D01*
X119415870Y-91798291D01*
X112826800Y-91798291D01*
X112826800Y-91536148D01*
X112745595Y-91127901D01*
X112514342Y-90781806D01*
X112369600Y-90685093D01*
X112369600Y-87351304D01*
X116083452Y-83637452D01*
X116215597Y-83439684D01*
X116262000Y-83206400D01*
X116262000Y-82896608D01*
X116343259Y-83093270D01*
X116928648Y-83679682D01*
X117693888Y-83997437D01*
X118522477Y-83998160D01*
X119288270Y-83681741D01*
X119874682Y-83096352D01*
X119932829Y-82956318D01*
X119932829Y-85598000D01*
X119956485Y-85716927D01*
X120023852Y-85817748D01*
X120124673Y-85885115D01*
X120243600Y-85908771D01*
X122095563Y-85908771D01*
X121831939Y-86171934D01*
X121678874Y-86540556D01*
X121678526Y-86939693D01*
X121830948Y-87308581D01*
X122112934Y-87591061D01*
X122481556Y-87744126D01*
X122880693Y-87744474D01*
X123249581Y-87592052D01*
X123532061Y-87310066D01*
X123685126Y-86941444D01*
X123685474Y-86542307D01*
X123637781Y-86426883D01*
X123751556Y-86474126D01*
X124150693Y-86474474D01*
X124519581Y-86322052D01*
X124802061Y-86040066D01*
X124955126Y-85671444D01*
X124955127Y-85669693D01*
X130314526Y-85669693D01*
X130466948Y-86038581D01*
X130748934Y-86321061D01*
X131117556Y-86474126D01*
X131516693Y-86474474D01*
X131632117Y-86426781D01*
X131584874Y-86540556D01*
X131584526Y-86939693D01*
X131736948Y-87308581D01*
X132018934Y-87591061D01*
X132387556Y-87744126D01*
X132786693Y-87744474D01*
X133155581Y-87592052D01*
X133438061Y-87310066D01*
X133591126Y-86941444D01*
X133591474Y-86542307D01*
X133439052Y-86173419D01*
X133174867Y-85908771D01*
X135026400Y-85908771D01*
X135145327Y-85885115D01*
X135246148Y-85817748D01*
X135313515Y-85716927D01*
X135337171Y-85598000D01*
X135337171Y-80772000D01*
X135313515Y-80653073D01*
X135246148Y-80552252D01*
X135145327Y-80484885D01*
X135026400Y-80461229D01*
X132232400Y-80461229D01*
X132113473Y-80484885D01*
X132012652Y-80552252D01*
X131945285Y-80653073D01*
X131921629Y-80772000D01*
X131921629Y-84655563D01*
X131887066Y-84620939D01*
X131518444Y-84467874D01*
X131119307Y-84467526D01*
X130750419Y-84619948D01*
X130467939Y-84901934D01*
X130314874Y-85270556D01*
X130314526Y-85669693D01*
X124955127Y-85669693D01*
X124955474Y-85272307D01*
X124803052Y-84903419D01*
X124521066Y-84620939D01*
X124152444Y-84467874D01*
X123753307Y-84467526D01*
X123384419Y-84619948D01*
X123348371Y-84655933D01*
X123348371Y-80772000D01*
X123324715Y-80653073D01*
X123257348Y-80552252D01*
X123156527Y-80484885D01*
X123037600Y-80461229D01*
X120243600Y-80461229D01*
X120124673Y-80484885D01*
X120023852Y-80552252D01*
X119956485Y-80653073D01*
X119932829Y-80772000D01*
X119932829Y-80872473D01*
X119876741Y-80736730D01*
X119291352Y-80150318D01*
X118526112Y-79832563D01*
X117697523Y-79831840D01*
X116931730Y-80148259D01*
X116345318Y-80733648D01*
X116249963Y-80963288D01*
X116215597Y-80790516D01*
X116162667Y-80711302D01*
X116083453Y-80592748D01*
X115289452Y-79798748D01*
X115282496Y-79794100D01*
X143090900Y-79794100D01*
X143090900Y-92508243D01*
X143018748Y-92460033D01*
X142880000Y-92432434D01*
X140080000Y-92432434D01*
X139941252Y-92460033D01*
X139823627Y-92538627D01*
X139745033Y-92656252D01*
X139717434Y-92795000D01*
X139717434Y-93106000D01*
X137142566Y-93106000D01*
X137142566Y-92795000D01*
X137114967Y-92656252D01*
X137036373Y-92538627D01*
X136918748Y-92460033D01*
X136780000Y-92432434D01*
X133980000Y-92432434D01*
X133841252Y-92460033D01*
X133723627Y-92538627D01*
X133645033Y-92656252D01*
X133617434Y-92795000D01*
X133617434Y-93971446D01*
X133538066Y-93891939D01*
X133169444Y-93738874D01*
X132770307Y-93738526D01*
X132401419Y-93890948D01*
X132118939Y-94172934D01*
X131965874Y-94541556D01*
X131965526Y-94940693D01*
X132117948Y-95309581D01*
X132399934Y-95592061D01*
X132768556Y-95745126D01*
X133167693Y-95745474D01*
X133536581Y-95593052D01*
X133705574Y-95424355D01*
X133723627Y-95451373D01*
X133841252Y-95529967D01*
X133980000Y-95557566D01*
X134491000Y-95557566D01*
X134491000Y-96536264D01*
X127124482Y-103902782D01*
X126931771Y-104191195D01*
X126864100Y-104531400D01*
X126931771Y-104871605D01*
X127124482Y-105160018D01*
X127412895Y-105352729D01*
X127753100Y-105420400D01*
X128093305Y-105352729D01*
X128381718Y-105160018D01*
X133568530Y-99973206D01*
X135574956Y-99973206D01*
X135788374Y-100489716D01*
X136183206Y-100885237D01*
X136699342Y-101099556D01*
X137258206Y-101100044D01*
X137774716Y-100886626D01*
X138170237Y-100491794D01*
X138384556Y-99975658D01*
X138384575Y-99953402D01*
X140174974Y-99953402D01*
X140373199Y-100433144D01*
X140739925Y-100800511D01*
X141219320Y-100999573D01*
X141738402Y-101000026D01*
X142218144Y-100801801D01*
X142585511Y-100435075D01*
X142784573Y-99955680D01*
X142785026Y-99436598D01*
X142586801Y-98956856D01*
X142220075Y-98589489D01*
X141740680Y-98390427D01*
X141221598Y-98389974D01*
X140741856Y-98588199D01*
X140374489Y-98954925D01*
X140175427Y-99434320D01*
X140174974Y-99953402D01*
X138384575Y-99953402D01*
X138385044Y-99416794D01*
X138171626Y-98900284D01*
X137776794Y-98504763D01*
X137260658Y-98290444D01*
X136701794Y-98289956D01*
X136185284Y-98503374D01*
X135789763Y-98898206D01*
X135575444Y-99414342D01*
X135574956Y-99973206D01*
X133568530Y-99973206D01*
X136008618Y-97533118D01*
X136201329Y-97244706D01*
X136269000Y-96904500D01*
X136269000Y-95557566D01*
X136780000Y-95557566D01*
X136918748Y-95529967D01*
X137036373Y-95451373D01*
X137114967Y-95333748D01*
X137142566Y-95195000D01*
X137142566Y-94884000D01*
X139717434Y-94884000D01*
X139717434Y-95195000D01*
X139745033Y-95333748D01*
X139823627Y-95451373D01*
X139941252Y-95529967D01*
X140080000Y-95557566D01*
X142880000Y-95557566D01*
X143018748Y-95529967D01*
X143090900Y-95481757D01*
X143090900Y-103622531D01*
X143001257Y-103585400D01*
X141784800Y-103585400D01*
X141632400Y-103737800D01*
X141632400Y-105242600D01*
X141652400Y-105242600D01*
X141652400Y-105547400D01*
X141632400Y-105547400D01*
X141632400Y-107052200D01*
X141784800Y-107204600D01*
X143001257Y-107204600D01*
X143090900Y-107167469D01*
X143090900Y-119595900D01*
X60109100Y-119595900D01*
X60109100Y-117887477D01*
X60146840Y-117887477D01*
X60463259Y-118653270D01*
X61048648Y-119239682D01*
X61813888Y-119557437D01*
X62642477Y-119558160D01*
X63408270Y-119241741D01*
X63994682Y-118656352D01*
X64312437Y-117891112D01*
X64313160Y-117062523D01*
X63996741Y-116296730D01*
X63411352Y-115710318D01*
X62646112Y-115392563D01*
X61817523Y-115391840D01*
X61051730Y-115708259D01*
X60465318Y-116293648D01*
X60147563Y-117058888D01*
X60146840Y-117887477D01*
X60109100Y-117887477D01*
X60109100Y-111379000D01*
X61232434Y-111379000D01*
X61232434Y-112649000D01*
X61260033Y-112787748D01*
X61338627Y-112905373D01*
X61456252Y-112983967D01*
X61595000Y-113011566D01*
X61976000Y-113011566D01*
X61976000Y-113436700D01*
X62043671Y-113776906D01*
X62236382Y-114065318D01*
X62524794Y-114258029D01*
X62722399Y-114297335D01*
X64623682Y-116198618D01*
X64912094Y-116391329D01*
X65252300Y-116459000D01*
X66127661Y-116459000D01*
X66342466Y-116602528D01*
X66770153Y-116687600D01*
X67849847Y-116687600D01*
X68277534Y-116602528D01*
X68492339Y-116459000D01*
X69226743Y-116459000D01*
X69402700Y-116494000D01*
X70142434Y-116494000D01*
X70142434Y-116960000D01*
X70170033Y-117098748D01*
X70248627Y-117216373D01*
X70366252Y-117294967D01*
X70505000Y-117322566D01*
X73005000Y-117322566D01*
X73143748Y-117294967D01*
X73261373Y-117216373D01*
X73339967Y-117098748D01*
X73367566Y-116960000D01*
X73367566Y-114250000D01*
X73339967Y-114111252D01*
X73261373Y-113993627D01*
X73143748Y-113915033D01*
X73005000Y-113887434D01*
X70505000Y-113887434D01*
X70366252Y-113915033D01*
X70248627Y-113993627D01*
X70170033Y-114111252D01*
X70142434Y-114250000D01*
X70142434Y-114716000D01*
X69543657Y-114716000D01*
X69367700Y-114681000D01*
X68492339Y-114681000D01*
X68277534Y-114537472D01*
X67849847Y-114452400D01*
X66770153Y-114452400D01*
X66342466Y-114537472D01*
X66127661Y-114681000D01*
X65620536Y-114681000D01*
X64333297Y-113393761D01*
X65479516Y-113393761D01*
X65724369Y-113892104D01*
X66136312Y-114238872D01*
X66649600Y-114401600D01*
X67157600Y-114401600D01*
X67157600Y-113182400D01*
X67462400Y-113182400D01*
X67462400Y-114401600D01*
X67970400Y-114401600D01*
X68483688Y-114238872D01*
X68895631Y-113892104D01*
X69140484Y-113393761D01*
X69027637Y-113182400D01*
X67462400Y-113182400D01*
X67157600Y-113182400D01*
X65592363Y-113182400D01*
X65479516Y-113393761D01*
X64333297Y-113393761D01*
X63951102Y-113011566D01*
X64135000Y-113011566D01*
X64273748Y-112983967D01*
X64391373Y-112905373D01*
X64469967Y-112787748D01*
X64494136Y-112666239D01*
X65479516Y-112666239D01*
X65592363Y-112877600D01*
X67157600Y-112877600D01*
X67157600Y-111658400D01*
X67462400Y-111658400D01*
X67462400Y-112877600D01*
X69027637Y-112877600D01*
X69140484Y-112666239D01*
X68895631Y-112167896D01*
X68483688Y-111821128D01*
X67970400Y-111658400D01*
X67462400Y-111658400D01*
X67157600Y-111658400D01*
X66649600Y-111658400D01*
X66136312Y-111821128D01*
X65724369Y-112167896D01*
X65479516Y-112666239D01*
X64494136Y-112666239D01*
X64497566Y-112649000D01*
X64497566Y-111379000D01*
X64469967Y-111240252D01*
X64391373Y-111122627D01*
X64273748Y-111044033D01*
X64135000Y-111016434D01*
X61595000Y-111016434D01*
X61456252Y-111044033D01*
X61338627Y-111122627D01*
X61260033Y-111240252D01*
X61232434Y-111379000D01*
X60109100Y-111379000D01*
X60109100Y-109270800D01*
X60985400Y-109270800D01*
X60985400Y-109722257D01*
X61078206Y-109946311D01*
X61249689Y-110117794D01*
X61473743Y-110210600D01*
X62560200Y-110210600D01*
X62712600Y-110058200D01*
X62712600Y-109118400D01*
X63017400Y-109118400D01*
X63017400Y-110058200D01*
X63169800Y-110210600D01*
X64256257Y-110210600D01*
X64480311Y-110117794D01*
X64651794Y-109946311D01*
X64744600Y-109722257D01*
X64744600Y-109270800D01*
X64592200Y-109118400D01*
X63017400Y-109118400D01*
X62712600Y-109118400D01*
X61137800Y-109118400D01*
X60985400Y-109270800D01*
X60109100Y-109270800D01*
X60109100Y-108209743D01*
X60985400Y-108209743D01*
X60985400Y-108661200D01*
X61137800Y-108813600D01*
X62712600Y-108813600D01*
X62712600Y-107873800D01*
X63017400Y-107873800D01*
X63017400Y-108813600D01*
X64592200Y-108813600D01*
X64744600Y-108661200D01*
X64744600Y-108209743D01*
X64651794Y-107985689D01*
X64480311Y-107814206D01*
X64256257Y-107721400D01*
X63169800Y-107721400D01*
X63017400Y-107873800D01*
X62712600Y-107873800D01*
X62560200Y-107721400D01*
X61473743Y-107721400D01*
X61249689Y-107814206D01*
X61078206Y-107985689D01*
X60985400Y-108209743D01*
X60109100Y-108209743D01*
X60109100Y-97795000D01*
X60324229Y-97795000D01*
X60324229Y-101595000D01*
X60347885Y-101713927D01*
X60415252Y-101814748D01*
X60516073Y-101882115D01*
X60635000Y-101905771D01*
X62226000Y-101905771D01*
X62226000Y-102382700D01*
X62293671Y-102722906D01*
X62442871Y-102946200D01*
X62428267Y-102946200D01*
X61728416Y-103085409D01*
X61135110Y-103481843D01*
X60738676Y-104075149D01*
X60599467Y-104775000D01*
X60738676Y-105474851D01*
X61135110Y-106068157D01*
X61728416Y-106464591D01*
X62428267Y-106603800D01*
X64571733Y-106603800D01*
X65271584Y-106464591D01*
X65864890Y-106068157D01*
X66058434Y-105778498D01*
X66058434Y-107950000D01*
X66086033Y-108088748D01*
X66164627Y-108206373D01*
X66167000Y-108207959D01*
X66167000Y-108737700D01*
X66234671Y-109077906D01*
X66421000Y-109356767D01*
X66421000Y-109441851D01*
X66342466Y-109457472D01*
X65979890Y-109699737D01*
X65737625Y-110062313D01*
X65652553Y-110490000D01*
X65737625Y-110917687D01*
X65979890Y-111280263D01*
X66342466Y-111522528D01*
X66770153Y-111607600D01*
X67849847Y-111607600D01*
X68277534Y-111522528D01*
X68640110Y-111280263D01*
X68882375Y-110917687D01*
X68967447Y-110490000D01*
X68882375Y-110062313D01*
X68640110Y-109699737D01*
X68277534Y-109457472D01*
X68199000Y-109441851D01*
X68199000Y-108940300D01*
X68159970Y-108744082D01*
X68131330Y-108600095D01*
X67945000Y-108321233D01*
X67945000Y-108207959D01*
X67947373Y-108206373D01*
X68025967Y-108088748D01*
X68053566Y-107950000D01*
X68053566Y-106984800D01*
X68859400Y-106984800D01*
X68859400Y-108071257D01*
X68952206Y-108295311D01*
X69123689Y-108466794D01*
X69347743Y-108559600D01*
X69799200Y-108559600D01*
X69951600Y-108407200D01*
X69951600Y-106832400D01*
X70256400Y-106832400D01*
X70256400Y-108407200D01*
X70408800Y-108559600D01*
X70860257Y-108559600D01*
X71084311Y-108466794D01*
X71255794Y-108295311D01*
X71348600Y-108071257D01*
X71348600Y-106984800D01*
X71526400Y-106984800D01*
X71526400Y-108071257D01*
X71619206Y-108295311D01*
X71790689Y-108466794D01*
X72014743Y-108559600D01*
X72466200Y-108559600D01*
X72618600Y-108407200D01*
X72618600Y-106832400D01*
X72923400Y-106832400D01*
X72923400Y-108407200D01*
X73075800Y-108559600D01*
X73527257Y-108559600D01*
X73751311Y-108466794D01*
X73922794Y-108295311D01*
X74015600Y-108071257D01*
X74015600Y-106984800D01*
X73863200Y-106832400D01*
X72923400Y-106832400D01*
X72618600Y-106832400D01*
X71678800Y-106832400D01*
X71526400Y-106984800D01*
X71348600Y-106984800D01*
X71196200Y-106832400D01*
X70256400Y-106832400D01*
X69951600Y-106832400D01*
X69011800Y-106832400D01*
X68859400Y-106984800D01*
X68053566Y-106984800D01*
X68053566Y-105410000D01*
X68025967Y-105271252D01*
X67947373Y-105153627D01*
X67945000Y-105152041D01*
X67945000Y-104259736D01*
X68725182Y-105039918D01*
X68911030Y-105164097D01*
X68859400Y-105288743D01*
X68859400Y-106375200D01*
X69011800Y-106527600D01*
X69951600Y-106527600D01*
X69951600Y-106507600D01*
X70256400Y-106507600D01*
X70256400Y-106527600D01*
X71196200Y-106527600D01*
X71348600Y-106375200D01*
X71348600Y-105288743D01*
X71526400Y-105288743D01*
X71526400Y-106375200D01*
X71678800Y-106527600D01*
X72618600Y-106527600D01*
X72618600Y-104952800D01*
X72923400Y-104952800D01*
X72923400Y-106527600D01*
X73863200Y-106527600D01*
X74015600Y-106375200D01*
X74015600Y-105288743D01*
X73922794Y-105064689D01*
X73751311Y-104893206D01*
X73527257Y-104800400D01*
X73075800Y-104800400D01*
X72923400Y-104952800D01*
X72618600Y-104952800D01*
X72466200Y-104800400D01*
X72014743Y-104800400D01*
X71790689Y-104893206D01*
X71619206Y-105064689D01*
X71526400Y-105288743D01*
X71348600Y-105288743D01*
X71255794Y-105064689D01*
X71084311Y-104893206D01*
X70860257Y-104800400D01*
X70408800Y-104800400D01*
X70256402Y-104952798D01*
X70256402Y-104800400D01*
X70142458Y-104800400D01*
X70175129Y-104751505D01*
X70242800Y-104411300D01*
X70175129Y-104071095D01*
X69982418Y-103782682D01*
X69057832Y-102858096D01*
X71013837Y-102858096D01*
X71162637Y-103375970D01*
X71498292Y-103797480D01*
X71969701Y-104058454D01*
X72026239Y-104065484D01*
X72237600Y-103952637D01*
X72237600Y-102641400D01*
X72542400Y-102641400D01*
X72542400Y-103952637D01*
X72753761Y-104065484D01*
X72810299Y-104058454D01*
X73281708Y-103797480D01*
X73617363Y-103375970D01*
X73766163Y-102858096D01*
X73614825Y-102641400D01*
X72542400Y-102641400D01*
X72237600Y-102641400D01*
X71165175Y-102641400D01*
X71013837Y-102858096D01*
X69057832Y-102858096D01*
X67904710Y-101704974D01*
X67922115Y-101678927D01*
X67945771Y-101560000D01*
X67945771Y-99960000D01*
X67922115Y-99841073D01*
X67854748Y-99740252D01*
X67804000Y-99706343D01*
X67804000Y-99695000D01*
X68249324Y-99695000D01*
X68330529Y-100103247D01*
X68561782Y-100449342D01*
X68907877Y-100680595D01*
X69316124Y-100761800D01*
X69875876Y-100761800D01*
X70284123Y-100680595D01*
X70630218Y-100449342D01*
X70861471Y-100103247D01*
X70942676Y-99695000D01*
X70861471Y-99286753D01*
X70630218Y-98940658D01*
X70284123Y-98709405D01*
X69875876Y-98628200D01*
X69316124Y-98628200D01*
X68907877Y-98709405D01*
X68561782Y-98940658D01*
X68330529Y-99286753D01*
X68249324Y-99695000D01*
X67804000Y-99695000D01*
X67804000Y-99683657D01*
X67854748Y-99649748D01*
X67922115Y-99548927D01*
X67945771Y-99430000D01*
X67945771Y-97830000D01*
X67922115Y-97711073D01*
X67854748Y-97610252D01*
X67753927Y-97542885D01*
X67635000Y-97519229D01*
X66195000Y-97519229D01*
X66124480Y-97533256D01*
X67125832Y-96531904D01*
X71013837Y-96531904D01*
X71165175Y-96748600D01*
X72237600Y-96748600D01*
X72237600Y-95437363D01*
X72542400Y-95437363D01*
X72542400Y-96748600D01*
X73614825Y-96748600D01*
X73766163Y-96531904D01*
X73617363Y-96014030D01*
X73281708Y-95592520D01*
X72810299Y-95331546D01*
X72753761Y-95324516D01*
X72542400Y-95437363D01*
X72237600Y-95437363D01*
X72026239Y-95324516D01*
X71969701Y-95331546D01*
X71498292Y-95592520D01*
X71162637Y-96014030D01*
X71013837Y-96531904D01*
X67125832Y-96531904D01*
X68420918Y-95236818D01*
X68448860Y-95195000D01*
X68613629Y-94948406D01*
X68681300Y-94608200D01*
X68681300Y-92379800D01*
X77368400Y-92379800D01*
X77368400Y-93466257D01*
X77461206Y-93690311D01*
X77632689Y-93861794D01*
X77856743Y-93954600D01*
X78435200Y-93954600D01*
X78587600Y-93802200D01*
X78587600Y-92227400D01*
X78892400Y-92227400D01*
X78892400Y-93802200D01*
X79044800Y-93954600D01*
X79623257Y-93954600D01*
X79847311Y-93861794D01*
X80018794Y-93690311D01*
X80111600Y-93466257D01*
X80111600Y-92379800D01*
X79959200Y-92227400D01*
X78892400Y-92227400D01*
X78587600Y-92227400D01*
X77520800Y-92227400D01*
X77368400Y-92379800D01*
X68681300Y-92379800D01*
X68681300Y-90683743D01*
X77368400Y-90683743D01*
X77368400Y-91770200D01*
X77520800Y-91922600D01*
X78587600Y-91922600D01*
X78587600Y-90347800D01*
X78892400Y-90347800D01*
X78892400Y-91922600D01*
X79959200Y-91922600D01*
X80111600Y-91770200D01*
X80111600Y-90683743D01*
X80018794Y-90459689D01*
X79847311Y-90288206D01*
X79623257Y-90195400D01*
X79044800Y-90195400D01*
X78892400Y-90347800D01*
X78587600Y-90347800D01*
X78435200Y-90195400D01*
X77856743Y-90195400D01*
X77632689Y-90288206D01*
X77461206Y-90459689D01*
X77368400Y-90683743D01*
X68681300Y-90683743D01*
X68681300Y-88493600D01*
X69545200Y-88493600D01*
X69697600Y-88341200D01*
X69697600Y-87401400D01*
X70002400Y-87401400D01*
X70002400Y-88341200D01*
X70154800Y-88493600D01*
X71241257Y-88493600D01*
X71465311Y-88400794D01*
X71636794Y-88229311D01*
X71729600Y-88005257D01*
X71729600Y-87553800D01*
X71583277Y-87407477D01*
X75386840Y-87407477D01*
X75703259Y-88173270D01*
X76288648Y-88759682D01*
X77053888Y-89077437D01*
X77882477Y-89078160D01*
X78648270Y-88761741D01*
X79234682Y-88176352D01*
X79552437Y-87411112D01*
X79553160Y-86582523D01*
X79236741Y-85816730D01*
X78651352Y-85230318D01*
X77886112Y-84912563D01*
X77057523Y-84911840D01*
X76291730Y-85228259D01*
X75705318Y-85813648D01*
X75387563Y-86578888D01*
X75386840Y-87407477D01*
X71583277Y-87407477D01*
X71577200Y-87401400D01*
X70002400Y-87401400D01*
X69697600Y-87401400D01*
X69677600Y-87401400D01*
X69677600Y-87096600D01*
X69697600Y-87096600D01*
X69697600Y-86156800D01*
X70002400Y-86156800D01*
X70002400Y-87096600D01*
X71577200Y-87096600D01*
X71729600Y-86944200D01*
X71729600Y-86492743D01*
X71636794Y-86268689D01*
X71465311Y-86097206D01*
X71241257Y-86004400D01*
X70154800Y-86004400D01*
X70002400Y-86156800D01*
X69697600Y-86156800D01*
X69545200Y-86004400D01*
X68681300Y-86004400D01*
X68681300Y-85198566D01*
X71120000Y-85198566D01*
X71258748Y-85170967D01*
X71376373Y-85092373D01*
X71454967Y-84974748D01*
X71482566Y-84836000D01*
X71482566Y-83566000D01*
X71454967Y-83427252D01*
X71376373Y-83309627D01*
X71258748Y-83231033D01*
X71120000Y-83203434D01*
X70739000Y-83203434D01*
X70739000Y-83146536D01*
X71081536Y-82804000D01*
X74910334Y-82804000D01*
X74910334Y-83185000D01*
X74937933Y-83323748D01*
X75016527Y-83441373D01*
X75134152Y-83519967D01*
X75272900Y-83547566D01*
X77127100Y-83547566D01*
X77265848Y-83519967D01*
X77383473Y-83441373D01*
X77462067Y-83323748D01*
X77489666Y-83185000D01*
X77489666Y-83121923D01*
X77761152Y-83452274D01*
X78292730Y-83735947D01*
X78350269Y-83744357D01*
X78587600Y-83633785D01*
X78587600Y-82067400D01*
X78567600Y-82067400D01*
X78567600Y-81762600D01*
X78587600Y-81762600D01*
X78587600Y-80196215D01*
X78350269Y-80085643D01*
X78292730Y-80094053D01*
X77761152Y-80377726D01*
X77489666Y-80708077D01*
X77489666Y-80645000D01*
X77462067Y-80506252D01*
X77383473Y-80388627D01*
X77265848Y-80310033D01*
X77127100Y-80282434D01*
X75272900Y-80282434D01*
X75134152Y-80310033D01*
X75016527Y-80388627D01*
X74937933Y-80506252D01*
X74910334Y-80645000D01*
X74910334Y-81026000D01*
X70713300Y-81026000D01*
X70373095Y-81093670D01*
X70084682Y-81286382D01*
X69221382Y-82149682D01*
X69028671Y-82438094D01*
X68961000Y-82778300D01*
X68961000Y-83203434D01*
X68580000Y-83203434D01*
X68441252Y-83231033D01*
X68323627Y-83309627D01*
X68322041Y-83312000D01*
X67792300Y-83312000D01*
X67452094Y-83379671D01*
X67163682Y-83572382D01*
X66970971Y-83860794D01*
X66903300Y-84201000D01*
X66903300Y-94239964D01*
X66368817Y-94774447D01*
X66400533Y-94615000D01*
X66261324Y-93915149D01*
X65864890Y-93321843D01*
X65271584Y-92925409D01*
X64571733Y-92786200D01*
X62428267Y-92786200D01*
X61728416Y-92925409D01*
X61135110Y-93321843D01*
X60738676Y-93915149D01*
X60599467Y-94615000D01*
X60738676Y-95314851D01*
X61135110Y-95908157D01*
X61728416Y-96304591D01*
X62428267Y-96443800D01*
X62442871Y-96443800D01*
X62293671Y-96667094D01*
X62226000Y-97007300D01*
X62226000Y-97484229D01*
X60635000Y-97484229D01*
X60516073Y-97507885D01*
X60415252Y-97575252D01*
X60347885Y-97676073D01*
X60324229Y-97795000D01*
X60109100Y-97795000D01*
X60109100Y-82327477D01*
X60146840Y-82327477D01*
X60463259Y-83093270D01*
X61048648Y-83679682D01*
X61813888Y-83997437D01*
X62642477Y-83998160D01*
X63408270Y-83681741D01*
X63994682Y-83096352D01*
X64312437Y-82331112D01*
X64313160Y-81502523D01*
X63996741Y-80736730D01*
X63411352Y-80150318D01*
X62646112Y-79832563D01*
X61817523Y-79831840D01*
X61051730Y-80148259D01*
X60465318Y-80733648D01*
X60147563Y-81498888D01*
X60146840Y-82327477D01*
X60109100Y-82327477D01*
X60109100Y-79794100D01*
X113021103Y-79794100D01*
X113014148Y-79798747D01*
X113014148Y-79798747D01*
G37*
X113014148Y-79798747D02*
X112338339Y-80474557D01*
X112231428Y-80403121D01*
X111760000Y-80309348D01*
X111288572Y-80403121D01*
X110888915Y-80670163D01*
X110621873Y-81069820D01*
X110528100Y-81541248D01*
X110528100Y-82288752D01*
X110621873Y-82760180D01*
X110888915Y-83159837D01*
X111288572Y-83426879D01*
X111760000Y-83520652D01*
X111850182Y-83502714D01*
X110160148Y-85192748D01*
X110028003Y-85390516D01*
X109981600Y-85623800D01*
X109981600Y-90792668D01*
X109974342Y-90781806D01*
X109829600Y-90685093D01*
X109829600Y-83334556D01*
X110091085Y-83159837D01*
X110358127Y-82760180D01*
X110451900Y-82288752D01*
X110451900Y-81541248D01*
X110358127Y-81069820D01*
X110091085Y-80670163D01*
X109691428Y-80403121D01*
X109220000Y-80309348D01*
X108748572Y-80403121D01*
X108348915Y-80670163D01*
X108081873Y-81069820D01*
X107988100Y-81541248D01*
X107988100Y-82288752D01*
X108081873Y-82760180D01*
X108348915Y-83159837D01*
X108610400Y-83334556D01*
X108610400Y-90685093D01*
X108465658Y-90781806D01*
X108234405Y-91127901D01*
X108153200Y-91536148D01*
X108153200Y-92613852D01*
X108234405Y-93022099D01*
X108465658Y-93368194D01*
X108811753Y-93599447D01*
X109198183Y-93676312D01*
X108788948Y-94085548D01*
X108656803Y-94283316D01*
X108610400Y-94516600D01*
X108610400Y-97797093D01*
X108516313Y-97859959D01*
X108510397Y-97830216D01*
X108378252Y-97632448D01*
X104378930Y-93633126D01*
X104548247Y-93599447D01*
X104894342Y-93368194D01*
X105125595Y-93022099D01*
X105206800Y-92613852D01*
X105206800Y-91536148D01*
X105125595Y-91127901D01*
X104894342Y-90781806D01*
X104749600Y-90685093D01*
X104749600Y-83334556D01*
X105011085Y-83159837D01*
X105278127Y-82760180D01*
X105371900Y-82288752D01*
X105371900Y-81541248D01*
X105448100Y-81541248D01*
X105448100Y-82288752D01*
X105541873Y-82760180D01*
X105808915Y-83159837D01*
X106070400Y-83334556D01*
X106070400Y-90685093D01*
X105925658Y-90781806D01*
X105694405Y-91127901D01*
X105613200Y-91536148D01*
X105613200Y-92613852D01*
X105694405Y-93022099D01*
X105925658Y-93368194D01*
X106271753Y-93599447D01*
X106680000Y-93680652D01*
X107088247Y-93599447D01*
X107434342Y-93368194D01*
X107665595Y-93022099D01*
X107746800Y-92613852D01*
X107746800Y-91536148D01*
X107665595Y-91127901D01*
X107434342Y-90781806D01*
X107289600Y-90685093D01*
X107289600Y-83334556D01*
X107551085Y-83159837D01*
X107818127Y-82760180D01*
X107911900Y-82288752D01*
X107911900Y-81541248D01*
X107818127Y-81069820D01*
X107551085Y-80670163D01*
X107151428Y-80403121D01*
X106680000Y-80309348D01*
X106208572Y-80403121D01*
X105808915Y-80670163D01*
X105541873Y-81069820D01*
X105448100Y-81541248D01*
X105371900Y-81541248D01*
X105278127Y-81069820D01*
X105011085Y-80670163D01*
X104611428Y-80403121D01*
X104140000Y-80309348D01*
X103668572Y-80403121D01*
X103268915Y-80670163D01*
X103001873Y-81069820D01*
X102908100Y-81541248D01*
X102908100Y-82288752D01*
X102926038Y-82378934D01*
X102831900Y-82284796D01*
X102831900Y-81541248D01*
X102738127Y-81069820D01*
X102471085Y-80670163D01*
X102071428Y-80403121D01*
X101600000Y-80309348D01*
X101128572Y-80403121D01*
X100728915Y-80670163D01*
X100461873Y-81069820D01*
X100368100Y-81541248D01*
X100368100Y-82288752D01*
X100386038Y-82378934D01*
X100291900Y-82284796D01*
X100291900Y-81541248D01*
X100198127Y-81069820D01*
X99931085Y-80670163D01*
X99531428Y-80403121D01*
X99060000Y-80309348D01*
X98588572Y-80403121D01*
X98188915Y-80670163D01*
X97921873Y-81069820D01*
X97828100Y-81541248D01*
X97828100Y-82288752D01*
X97921873Y-82760180D01*
X98188915Y-83159837D01*
X98588572Y-83426879D01*
X99060000Y-83520652D01*
X99531428Y-83426879D01*
X99638339Y-83355443D01*
X99720400Y-83437504D01*
X99720400Y-90719036D01*
X99468247Y-90550553D01*
X99060000Y-90469348D01*
X98651753Y-90550553D01*
X98305658Y-90781806D01*
X98074405Y-91127901D01*
X97993200Y-91536148D01*
X97993200Y-92613852D01*
X98074405Y-93022099D01*
X98305658Y-93368194D01*
X98450400Y-93464907D01*
X98450400Y-93774800D01*
X98496803Y-94008084D01*
X98628948Y-94205852D01*
X99800196Y-95377100D01*
X88352205Y-95377100D01*
X86606687Y-93631583D01*
X86768247Y-93599447D01*
X87114342Y-93368194D01*
X87345595Y-93022099D01*
X87426800Y-92613852D01*
X87426800Y-91536148D01*
X87345595Y-91127901D01*
X87114342Y-90781806D01*
X86969600Y-90685093D01*
X86969600Y-83334556D01*
X87231085Y-83159837D01*
X87498127Y-82760180D01*
X87591900Y-82288752D01*
X87591900Y-81541248D01*
X87668100Y-81541248D01*
X87668100Y-82288752D01*
X87761873Y-82760180D01*
X88028915Y-83159837D01*
X88290400Y-83334556D01*
X88290400Y-90685093D01*
X88145658Y-90781806D01*
X87914405Y-91127901D01*
X87833200Y-91536148D01*
X87833200Y-92613852D01*
X87914405Y-93022099D01*
X88145658Y-93368194D01*
X88491753Y-93599447D01*
X88900000Y-93680652D01*
X89308247Y-93599447D01*
X89654342Y-93368194D01*
X89885595Y-93022099D01*
X89966800Y-92613852D01*
X89966800Y-91536148D01*
X89885595Y-91127901D01*
X89654342Y-90781806D01*
X89509600Y-90685093D01*
X89509600Y-83334556D01*
X89771085Y-83159837D01*
X90038127Y-82760180D01*
X90131900Y-82288752D01*
X90131900Y-81541248D01*
X90208100Y-81541248D01*
X90208100Y-82288752D01*
X90301873Y-82760180D01*
X90568915Y-83159837D01*
X90830400Y-83334556D01*
X90830400Y-90685093D01*
X90685658Y-90781806D01*
X90454405Y-91127901D01*
X90373200Y-91536148D01*
X90373200Y-92613852D01*
X90454405Y-93022099D01*
X90685658Y-93368194D01*
X91031753Y-93599447D01*
X91440000Y-93680652D01*
X91848247Y-93599447D01*
X92194342Y-93368194D01*
X92425595Y-93022099D01*
X92506800Y-92613852D01*
X92506800Y-91536148D01*
X92425595Y-91127901D01*
X92194342Y-90781806D01*
X92049600Y-90685093D01*
X92049600Y-83334556D01*
X92311085Y-83159837D01*
X92578127Y-82760180D01*
X92671900Y-82288752D01*
X92671900Y-81541248D01*
X92748100Y-81541248D01*
X92748100Y-82288752D01*
X92841873Y-82760180D01*
X93108915Y-83159837D01*
X93370400Y-83334556D01*
X93370400Y-90685093D01*
X93225658Y-90781806D01*
X92994405Y-91127901D01*
X92913200Y-91536148D01*
X92913200Y-92613852D01*
X92994405Y-93022099D01*
X93225658Y-93368194D01*
X93571753Y-93599447D01*
X93980000Y-93680652D01*
X94388247Y-93599447D01*
X94734342Y-93368194D01*
X94965595Y-93022099D01*
X95046800Y-92613852D01*
X95046800Y-91536148D01*
X94965595Y-91127901D01*
X94734342Y-90781806D01*
X94589600Y-90685093D01*
X94589600Y-83334556D01*
X94851085Y-83159837D01*
X95118127Y-82760180D01*
X95211900Y-82288752D01*
X95211900Y-81541248D01*
X95288100Y-81541248D01*
X95288100Y-82288752D01*
X95381873Y-82760180D01*
X95648915Y-83159837D01*
X95910400Y-83334556D01*
X95910400Y-90685093D01*
X95765658Y-90781806D01*
X95534405Y-91127901D01*
X95453200Y-91536148D01*
X95453200Y-92613852D01*
X95534405Y-93022099D01*
X95765658Y-93368194D01*
X96111753Y-93599447D01*
X96520000Y-93680652D01*
X96928247Y-93599447D01*
X97274342Y-93368194D01*
X97505595Y-93022099D01*
X97586800Y-92613852D01*
X97586800Y-91536148D01*
X97505595Y-91127901D01*
X97274342Y-90781806D01*
X97129600Y-90685093D01*
X97129600Y-83334556D01*
X97391085Y-83159837D01*
X97658127Y-82760180D01*
X97751900Y-82288752D01*
X97751900Y-81541248D01*
X97658127Y-81069820D01*
X97391085Y-80670163D01*
X96991428Y-80403121D01*
X96520000Y-80309348D01*
X96048572Y-80403121D01*
X95648915Y-80670163D01*
X95381873Y-81069820D01*
X95288100Y-81541248D01*
X95211900Y-81541248D01*
X95118127Y-81069820D01*
X94851085Y-80670163D01*
X94451428Y-80403121D01*
X93980000Y-80309348D01*
X93508572Y-80403121D01*
X93108915Y-80670163D01*
X92841873Y-81069820D01*
X92748100Y-81541248D01*
X92671900Y-81541248D01*
X92578127Y-81069820D01*
X92311085Y-80670163D01*
X91911428Y-80403121D01*
X91440000Y-80309348D01*
X90968572Y-80403121D01*
X90568915Y-80670163D01*
X90301873Y-81069820D01*
X90208100Y-81541248D01*
X90131900Y-81541248D01*
X90038127Y-81069820D01*
X89771085Y-80670163D01*
X89371428Y-80403121D01*
X88900000Y-80309348D01*
X88428572Y-80403121D01*
X88028915Y-80670163D01*
X87761873Y-81069820D01*
X87668100Y-81541248D01*
X87591900Y-81541248D01*
X87498127Y-81069820D01*
X87231085Y-80670163D01*
X86831428Y-80403121D01*
X86360000Y-80309348D01*
X85888572Y-80403121D01*
X85488915Y-80670163D01*
X85221873Y-81069820D01*
X85128100Y-81541248D01*
X85128100Y-82288752D01*
X85146038Y-82378934D01*
X85051900Y-82284796D01*
X85051900Y-81541248D01*
X84958127Y-81069820D01*
X84691085Y-80670163D01*
X84291428Y-80403121D01*
X83820000Y-80309348D01*
X83348572Y-80403121D01*
X82948915Y-80670163D01*
X82681873Y-81069820D01*
X82588100Y-81541248D01*
X82588100Y-82288752D01*
X82606038Y-82378934D01*
X82511900Y-82284796D01*
X82511900Y-81541248D01*
X82418127Y-81069820D01*
X82151085Y-80670163D01*
X81751428Y-80403121D01*
X81280000Y-80309348D01*
X80808572Y-80403121D01*
X80408915Y-80670163D01*
X80161414Y-81040575D01*
X80101405Y-80843231D01*
X79718848Y-80377726D01*
X79187270Y-80094053D01*
X79129731Y-80085643D01*
X78892400Y-80196215D01*
X78892400Y-81762600D01*
X78912400Y-81762600D01*
X78912400Y-82067400D01*
X78892400Y-82067400D01*
X78892400Y-83633785D01*
X79129731Y-83744357D01*
X79187270Y-83735947D01*
X79718848Y-83452274D01*
X80101405Y-82986769D01*
X80161414Y-82789425D01*
X80408915Y-83159837D01*
X80808572Y-83426879D01*
X81280000Y-83520652D01*
X81751428Y-83426879D01*
X81858339Y-83355443D01*
X81920700Y-83417804D01*
X81920700Y-90705873D01*
X81688247Y-90550553D01*
X81280000Y-90469348D01*
X80871753Y-90550553D01*
X80525658Y-90781806D01*
X80294405Y-91127901D01*
X80213200Y-91536148D01*
X80213200Y-92613852D01*
X80294405Y-93022099D01*
X80525658Y-93368194D01*
X80871753Y-93599447D01*
X81280000Y-93680652D01*
X81688247Y-93599447D01*
X82034342Y-93368194D01*
X82061631Y-93327354D01*
X82099248Y-93383652D01*
X86502548Y-97786953D01*
X86621102Y-97866167D01*
X86700316Y-97919097D01*
X86933600Y-97965500D01*
X93177754Y-97965500D01*
X92994405Y-98239901D01*
X92913200Y-98648148D01*
X92913200Y-99725852D01*
X92994405Y-100134099D01*
X93142273Y-100355400D01*
X75104304Y-100355400D01*
X74012852Y-99263948D01*
X73815084Y-99131803D01*
X73581800Y-99085400D01*
X73391214Y-99085400D01*
X73375595Y-99006877D01*
X73144342Y-98660782D01*
X72837204Y-98455559D01*
X73281708Y-98209480D01*
X73617363Y-97787970D01*
X73766163Y-97270096D01*
X73614825Y-97053400D01*
X72542400Y-97053400D01*
X72542400Y-97073400D01*
X72237600Y-97073400D01*
X72237600Y-97053400D01*
X71165175Y-97053400D01*
X71013837Y-97270096D01*
X71162637Y-97787970D01*
X71498292Y-98209480D01*
X71942796Y-98455559D01*
X71635658Y-98660782D01*
X71404405Y-99006877D01*
X71323200Y-99415124D01*
X71323200Y-99974876D01*
X71404405Y-100383123D01*
X71635658Y-100729218D01*
X71942796Y-100934441D01*
X71498292Y-101180520D01*
X71162637Y-101602030D01*
X71013837Y-102119904D01*
X71165175Y-102336600D01*
X72237600Y-102336600D01*
X72237600Y-102316600D01*
X72542400Y-102316600D01*
X72542400Y-102336600D01*
X73614825Y-102336600D01*
X73766163Y-102119904D01*
X73617363Y-101602030D01*
X73281708Y-101180520D01*
X72837204Y-100934441D01*
X73144342Y-100729218D01*
X73375595Y-100383123D01*
X73380941Y-100356245D01*
X74420748Y-101396052D01*
X74618516Y-101528197D01*
X74851800Y-101574600D01*
X77895984Y-101574600D01*
X77886882Y-101580682D01*
X75803382Y-103664182D01*
X75610671Y-103952595D01*
X75543000Y-104292800D01*
X75610671Y-104633005D01*
X75803382Y-104921418D01*
X75991979Y-105047434D01*
X75184000Y-105047434D01*
X75045252Y-105075033D01*
X74927627Y-105153627D01*
X74849033Y-105271252D01*
X74821434Y-105410000D01*
X74821434Y-107950000D01*
X74849033Y-108088748D01*
X74927627Y-108206373D01*
X74930000Y-108207959D01*
X74930000Y-108369464D01*
X73216092Y-110083372D01*
X73143748Y-110035033D01*
X73005000Y-110007434D01*
X70505000Y-110007434D01*
X70366252Y-110035033D01*
X70248627Y-110113627D01*
X70170033Y-110231252D01*
X70142434Y-110370000D01*
X70142434Y-113080000D01*
X70170033Y-113218748D01*
X70248627Y-113336373D01*
X70366252Y-113414967D01*
X70505000Y-113442566D01*
X73005000Y-113442566D01*
X73143748Y-113414967D01*
X73261373Y-113336373D01*
X73339967Y-113218748D01*
X73350228Y-113167164D01*
X76033697Y-115850633D01*
X75709132Y-115915193D01*
X75292994Y-116193247D01*
X75014940Y-116609385D01*
X74917300Y-117100253D01*
X74917300Y-117849747D01*
X75014940Y-118340615D01*
X75292994Y-118756753D01*
X75709132Y-119034807D01*
X76200000Y-119132447D01*
X76690868Y-119034807D01*
X77107006Y-118756753D01*
X77385060Y-118340615D01*
X77470000Y-117913594D01*
X77554940Y-118340615D01*
X77832994Y-118756753D01*
X78249132Y-119034807D01*
X78740000Y-119132447D01*
X79230868Y-119034807D01*
X79647006Y-118756753D01*
X79925060Y-118340615D01*
X80010000Y-117913594D01*
X80094940Y-118340615D01*
X80372994Y-118756753D01*
X80789132Y-119034807D01*
X81280000Y-119132447D01*
X81770868Y-119034807D01*
X82187006Y-118756753D01*
X82465060Y-118340615D01*
X82550000Y-117913594D01*
X82634940Y-118340615D01*
X82912994Y-118756753D01*
X83329132Y-119034807D01*
X83820000Y-119132447D01*
X84310868Y-119034807D01*
X84727006Y-118756753D01*
X85005060Y-118340615D01*
X85102700Y-117849747D01*
X85102700Y-117100253D01*
X85005060Y-116609385D01*
X84727006Y-116193247D01*
X84709000Y-116181216D01*
X84709000Y-108497339D01*
X84852528Y-108282534D01*
X84937600Y-107854847D01*
X84937600Y-106775153D01*
X84852528Y-106347466D01*
X84610263Y-105984890D01*
X84247687Y-105742625D01*
X83820000Y-105657553D01*
X83392313Y-105742625D01*
X83029737Y-105984890D01*
X82787472Y-106347466D01*
X82702400Y-106775153D01*
X82702400Y-107854847D01*
X82787472Y-108282534D01*
X82931000Y-108497339D01*
X82931000Y-116181216D01*
X82912994Y-116193247D01*
X82634940Y-116609385D01*
X82550000Y-117036406D01*
X82465060Y-116609385D01*
X82187006Y-116193247D01*
X82169000Y-116181216D01*
X82169000Y-108497339D01*
X82312528Y-108282534D01*
X82397600Y-107854847D01*
X82397600Y-106775153D01*
X82312528Y-106347466D01*
X82070263Y-105984890D01*
X81780085Y-105791000D01*
X82070263Y-105597110D01*
X82312528Y-105234534D01*
X82397600Y-104806847D01*
X82397600Y-103727153D01*
X82312528Y-103299466D01*
X82178113Y-103098300D01*
X85461887Y-103098300D01*
X85327472Y-103299466D01*
X85242400Y-103727153D01*
X85242400Y-104806847D01*
X85327472Y-105234534D01*
X85569737Y-105597110D01*
X85905499Y-105821459D01*
X85605658Y-106021806D01*
X85374405Y-106367901D01*
X85293200Y-106776148D01*
X85293200Y-107853852D01*
X85374405Y-108262099D01*
X85605658Y-108608194D01*
X85750400Y-108704907D01*
X85750400Y-116055444D01*
X85488915Y-116230163D01*
X85221873Y-116629820D01*
X85128100Y-117101248D01*
X85128100Y-117848752D01*
X85221873Y-118320180D01*
X85488915Y-118719837D01*
X85888572Y-118986879D01*
X86360000Y-119080652D01*
X86831428Y-118986879D01*
X87231085Y-118719837D01*
X87498127Y-118320180D01*
X87591900Y-117848752D01*
X87591900Y-117101248D01*
X87668100Y-117101248D01*
X87668100Y-117848752D01*
X87761873Y-118320180D01*
X88028915Y-118719837D01*
X88428572Y-118986879D01*
X88900000Y-119080652D01*
X89371428Y-118986879D01*
X89771085Y-118719837D01*
X90038127Y-118320180D01*
X90131900Y-117848752D01*
X90131900Y-117101248D01*
X90208100Y-117101248D01*
X90208100Y-117848752D01*
X90301873Y-118320180D01*
X90568915Y-118719837D01*
X90968572Y-118986879D01*
X91440000Y-119080652D01*
X91911428Y-118986879D01*
X92311085Y-118719837D01*
X92578127Y-118320180D01*
X92671900Y-117848752D01*
X92671900Y-117101248D01*
X92748100Y-117101248D01*
X92748100Y-117848752D01*
X92841873Y-118320180D01*
X93108915Y-118719837D01*
X93508572Y-118986879D01*
X93980000Y-119080652D01*
X94451428Y-118986879D01*
X94851085Y-118719837D01*
X95118127Y-118320180D01*
X95211900Y-117848752D01*
X95211900Y-117101248D01*
X95288100Y-117101248D01*
X95288100Y-117848752D01*
X95381873Y-118320180D01*
X95648915Y-118719837D01*
X96048572Y-118986879D01*
X96520000Y-119080652D01*
X96991428Y-118986879D01*
X97391085Y-118719837D01*
X97658127Y-118320180D01*
X97751900Y-117848752D01*
X97751900Y-117101248D01*
X97828100Y-117101248D01*
X97828100Y-117848752D01*
X97921873Y-118320180D01*
X98188915Y-118719837D01*
X98588572Y-118986879D01*
X99060000Y-119080652D01*
X99531428Y-118986879D01*
X99931085Y-118719837D01*
X100198127Y-118320180D01*
X100291900Y-117848752D01*
X100291900Y-117101248D01*
X100368100Y-117101248D01*
X100368100Y-117848752D01*
X100461873Y-118320180D01*
X100728915Y-118719837D01*
X101128572Y-118986879D01*
X101600000Y-119080652D01*
X102071428Y-118986879D01*
X102471085Y-118719837D01*
X102738127Y-118320180D01*
X102831900Y-117848752D01*
X102831900Y-117101248D01*
X102908100Y-117101248D01*
X102908100Y-117848752D01*
X103001873Y-118320180D01*
X103268915Y-118719837D01*
X103668572Y-118986879D01*
X104140000Y-119080652D01*
X104611428Y-118986879D01*
X105011085Y-118719837D01*
X105278127Y-118320180D01*
X105371900Y-117848752D01*
X105371900Y-117101248D01*
X105448100Y-117101248D01*
X105448100Y-117848752D01*
X105541873Y-118320180D01*
X105808915Y-118719837D01*
X106208572Y-118986879D01*
X106680000Y-119080652D01*
X107151428Y-118986879D01*
X107551085Y-118719837D01*
X107818127Y-118320180D01*
X107911900Y-117848752D01*
X107911900Y-117101248D01*
X107988100Y-117101248D01*
X107988100Y-117848752D01*
X108081873Y-118320180D01*
X108348915Y-118719837D01*
X108748572Y-118986879D01*
X109220000Y-119080652D01*
X109691428Y-118986879D01*
X110091085Y-118719837D01*
X110358127Y-118320180D01*
X110451900Y-117848752D01*
X110451900Y-117101248D01*
X110358127Y-116629820D01*
X110091085Y-116230163D01*
X109829600Y-116055444D01*
X109829600Y-108704907D01*
X109974342Y-108608194D01*
X110205595Y-108262099D01*
X110286800Y-107853852D01*
X110286800Y-106776148D01*
X110205595Y-106367901D01*
X109974342Y-106021806D01*
X109628247Y-105790553D01*
X109220000Y-105709348D01*
X108811753Y-105790553D01*
X108465658Y-106021806D01*
X108234405Y-106367901D01*
X108153200Y-106776148D01*
X108153200Y-107853852D01*
X108234405Y-108262099D01*
X108465658Y-108608194D01*
X108610400Y-108704907D01*
X108610400Y-116055444D01*
X108348915Y-116230163D01*
X108081873Y-116629820D01*
X107988100Y-117101248D01*
X107911900Y-117101248D01*
X107818127Y-116629820D01*
X107551085Y-116230163D01*
X107289600Y-116055444D01*
X107289600Y-108704907D01*
X107434342Y-108608194D01*
X107665595Y-108262099D01*
X107746800Y-107853852D01*
X107746800Y-106776148D01*
X107665595Y-106367901D01*
X107434342Y-106021806D01*
X107088247Y-105790553D01*
X106680000Y-105709348D01*
X106271753Y-105790553D01*
X105925658Y-106021806D01*
X105694405Y-106367901D01*
X105613200Y-106776148D01*
X105613200Y-107853852D01*
X105694405Y-108262099D01*
X105925658Y-108608194D01*
X106070400Y-108704907D01*
X106070400Y-116055444D01*
X105808915Y-116230163D01*
X105541873Y-116629820D01*
X105448100Y-117101248D01*
X105371900Y-117101248D01*
X105278127Y-116629820D01*
X105011085Y-116230163D01*
X104749600Y-116055444D01*
X104749600Y-108704907D01*
X104894342Y-108608194D01*
X105125595Y-108262099D01*
X105206800Y-107853852D01*
X105206800Y-106776148D01*
X105125595Y-106367901D01*
X104894342Y-106021806D01*
X104548247Y-105790553D01*
X104140000Y-105709348D01*
X103731753Y-105790553D01*
X103385658Y-106021806D01*
X103154405Y-106367901D01*
X103073200Y-106776148D01*
X103073200Y-107853852D01*
X103154405Y-108262099D01*
X103385658Y-108608194D01*
X103530400Y-108704907D01*
X103530400Y-116055444D01*
X103268915Y-116230163D01*
X103001873Y-116629820D01*
X102908100Y-117101248D01*
X102831900Y-117101248D01*
X102738127Y-116629820D01*
X102471085Y-116230163D01*
X102209600Y-116055444D01*
X102209600Y-108704907D01*
X102354342Y-108608194D01*
X102585595Y-108262099D01*
X102666800Y-107853852D01*
X102666800Y-106776148D01*
X102585595Y-106367901D01*
X102354342Y-106021806D01*
X102008247Y-105790553D01*
X101600000Y-105709348D01*
X101191753Y-105790553D01*
X100845658Y-106021806D01*
X100614405Y-106367901D01*
X100533200Y-106776148D01*
X100533200Y-107853852D01*
X100614405Y-108262099D01*
X100845658Y-108608194D01*
X100990400Y-108704907D01*
X100990400Y-116055444D01*
X100728915Y-116230163D01*
X100461873Y-116629820D01*
X100368100Y-117101248D01*
X100291900Y-117101248D01*
X100198127Y-116629820D01*
X99931085Y-116230163D01*
X99669600Y-116055444D01*
X99669600Y-108704907D01*
X99814342Y-108608194D01*
X100045595Y-108262099D01*
X100126800Y-107853852D01*
X100126800Y-106776148D01*
X100045595Y-106367901D01*
X99814342Y-106021806D01*
X99468247Y-105790553D01*
X99060000Y-105709348D01*
X98651753Y-105790553D01*
X98305658Y-106021806D01*
X98074405Y-106367901D01*
X97993200Y-106776148D01*
X97993200Y-107853852D01*
X98074405Y-108262099D01*
X98305658Y-108608194D01*
X98450400Y-108704907D01*
X98450400Y-116055444D01*
X98188915Y-116230163D01*
X97921873Y-116629820D01*
X97828100Y-117101248D01*
X97751900Y-117101248D01*
X97658127Y-116629820D01*
X97391085Y-116230163D01*
X97129600Y-116055444D01*
X97129600Y-108704907D01*
X97274342Y-108608194D01*
X97505595Y-108262099D01*
X97586800Y-107853852D01*
X97586800Y-106776148D01*
X97505595Y-106367901D01*
X97274342Y-106021806D01*
X96928247Y-105790553D01*
X96520000Y-105709348D01*
X96111753Y-105790553D01*
X95765658Y-106021806D01*
X95534405Y-106367901D01*
X95453200Y-106776148D01*
X95453200Y-107853852D01*
X95534405Y-108262099D01*
X95765658Y-108608194D01*
X95910400Y-108704907D01*
X95910400Y-116055444D01*
X95648915Y-116230163D01*
X95381873Y-116629820D01*
X95288100Y-117101248D01*
X95211900Y-117101248D01*
X95118127Y-116629820D01*
X94851085Y-116230163D01*
X94589600Y-116055444D01*
X94589600Y-108704907D01*
X94734342Y-108608194D01*
X94965595Y-108262099D01*
X95046800Y-107853852D01*
X95046800Y-106776148D01*
X94965595Y-106367901D01*
X94734342Y-106021806D01*
X94388247Y-105790553D01*
X93980000Y-105709348D01*
X93571753Y-105790553D01*
X93225658Y-106021806D01*
X92994405Y-106367901D01*
X92913200Y-106776148D01*
X92913200Y-107853852D01*
X92994405Y-108262099D01*
X93225658Y-108608194D01*
X93370400Y-108704907D01*
X93370400Y-116055444D01*
X93108915Y-116230163D01*
X92841873Y-116629820D01*
X92748100Y-117101248D01*
X92671900Y-117101248D01*
X92578127Y-116629820D01*
X92311085Y-116230163D01*
X92049600Y-116055444D01*
X92049600Y-108704907D01*
X92194342Y-108608194D01*
X92425595Y-108262099D01*
X92506800Y-107853852D01*
X92506800Y-106776148D01*
X92425595Y-106367901D01*
X92194342Y-106021806D01*
X91848916Y-105791000D01*
X92194342Y-105560194D01*
X92425595Y-105214099D01*
X92506800Y-104805852D01*
X92506800Y-103728148D01*
X92425595Y-103319901D01*
X92194342Y-102973806D01*
X91848247Y-102742553D01*
X91440000Y-102661348D01*
X91031753Y-102742553D01*
X90685658Y-102973806D01*
X90454405Y-103319901D01*
X90373200Y-103728148D01*
X90373200Y-104805852D01*
X90454405Y-105214099D01*
X90685658Y-105560194D01*
X91031084Y-105791000D01*
X90685658Y-106021806D01*
X90454405Y-106367901D01*
X90373200Y-106776148D01*
X90373200Y-107853852D01*
X90454405Y-108262099D01*
X90685658Y-108608194D01*
X90830400Y-108704907D01*
X90830400Y-116055444D01*
X90568915Y-116230163D01*
X90301873Y-116629820D01*
X90208100Y-117101248D01*
X90131900Y-117101248D01*
X90038127Y-116629820D01*
X89771085Y-116230163D01*
X89509600Y-116055444D01*
X89509600Y-108704907D01*
X89654342Y-108608194D01*
X89885595Y-108262099D01*
X89966800Y-107853852D01*
X89966800Y-106776148D01*
X89885595Y-106367901D01*
X89654342Y-106021806D01*
X89308916Y-105791000D01*
X89654342Y-105560194D01*
X89885595Y-105214099D01*
X89966800Y-104805852D01*
X89966800Y-103728148D01*
X89885595Y-103319901D01*
X89654342Y-102973806D01*
X89308247Y-102742553D01*
X88900000Y-102661348D01*
X88491753Y-102742553D01*
X88145658Y-102973806D01*
X87914405Y-103319901D01*
X87833200Y-103728148D01*
X87833200Y-104805852D01*
X87914405Y-105214099D01*
X88145658Y-105560194D01*
X88491084Y-105791000D01*
X88145658Y-106021806D01*
X87914405Y-106367901D01*
X87833200Y-106776148D01*
X87833200Y-107853852D01*
X87914405Y-108262099D01*
X88145658Y-108608194D01*
X88290400Y-108704907D01*
X88290400Y-116055444D01*
X88028915Y-116230163D01*
X87761873Y-116629820D01*
X87668100Y-117101248D01*
X87591900Y-117101248D01*
X87498127Y-116629820D01*
X87231085Y-116230163D01*
X86969600Y-116055444D01*
X86969600Y-108704907D01*
X87114342Y-108608194D01*
X87345595Y-108262099D01*
X87426800Y-107853852D01*
X87426800Y-106776148D01*
X87345595Y-106367901D01*
X87114342Y-106021806D01*
X86814501Y-105821459D01*
X87150263Y-105597110D01*
X87392528Y-105234534D01*
X87477600Y-104806847D01*
X87477600Y-103727153D01*
X87392528Y-103299466D01*
X87249000Y-103084661D01*
X87249000Y-102209300D01*
X87181329Y-101869094D01*
X86988618Y-101580682D01*
X86979516Y-101574600D01*
X93142273Y-101574600D01*
X92994405Y-101795901D01*
X92913200Y-102204148D01*
X92913200Y-103281852D01*
X92994405Y-103690099D01*
X93225658Y-104036194D01*
X93571753Y-104267447D01*
X93980000Y-104348652D01*
X94388247Y-104267447D01*
X94694464Y-104062840D01*
X94816148Y-104244952D01*
X95538348Y-104967152D01*
X95736116Y-105099297D01*
X95969400Y-105145700D01*
X101506700Y-105145700D01*
X101739984Y-105099297D01*
X101937752Y-104967152D01*
X102031052Y-104873852D01*
X102163197Y-104676084D01*
X102184070Y-104571148D01*
X102209600Y-104442800D01*
X102209600Y-104132907D01*
X102354342Y-104036194D01*
X102585595Y-103690099D01*
X102666800Y-103281852D01*
X102666800Y-102204148D01*
X102585595Y-101795901D01*
X102354342Y-101449806D01*
X102008247Y-101218553D01*
X101600000Y-101137348D01*
X101191753Y-101218553D01*
X100845658Y-101449806D01*
X100614405Y-101795901D01*
X100533200Y-102204148D01*
X100533200Y-103281852D01*
X100614405Y-103690099D01*
X100772363Y-103926500D01*
X99887637Y-103926500D01*
X100045595Y-103690099D01*
X100126800Y-103281852D01*
X100126800Y-102204148D01*
X100045595Y-101795901D01*
X99814342Y-101449806D01*
X99468247Y-101218553D01*
X99060000Y-101137348D01*
X98651753Y-101218553D01*
X98305658Y-101449806D01*
X98074405Y-101795901D01*
X97993200Y-102204148D01*
X97993200Y-103281852D01*
X98074405Y-103690099D01*
X98232363Y-103926500D01*
X97347637Y-103926500D01*
X97505595Y-103690099D01*
X97586800Y-103281852D01*
X97586800Y-102204148D01*
X97505595Y-101795901D01*
X97274342Y-101449806D01*
X96928247Y-101218553D01*
X96520000Y-101137348D01*
X96111753Y-101218553D01*
X95811801Y-101418974D01*
X95810397Y-101411916D01*
X95678252Y-101214148D01*
X94998052Y-100533948D01*
X94800284Y-100401803D01*
X94788312Y-100399422D01*
X94965595Y-100134099D01*
X95046800Y-99725852D01*
X95046800Y-98648148D01*
X94965595Y-98239901D01*
X94782246Y-97965500D01*
X95717754Y-97965500D01*
X95534405Y-98239901D01*
X95453200Y-98648148D01*
X95453200Y-99725852D01*
X95534405Y-100134099D01*
X95765658Y-100480194D01*
X96111753Y-100711447D01*
X96520000Y-100792652D01*
X96928247Y-100711447D01*
X97274342Y-100480194D01*
X97505595Y-100134099D01*
X97586800Y-99725852D01*
X97586800Y-98648148D01*
X97505595Y-98239901D01*
X97322246Y-97965500D01*
X98257754Y-97965500D01*
X98074405Y-98239901D01*
X97993200Y-98648148D01*
X97993200Y-99725852D01*
X98074405Y-100134099D01*
X98305658Y-100480194D01*
X98651753Y-100711447D01*
X99060000Y-100792652D01*
X99468247Y-100711447D01*
X99814342Y-100480194D01*
X100045595Y-100134099D01*
X100126800Y-99725852D01*
X100126800Y-98648148D01*
X100045595Y-98239901D01*
X99814342Y-97893806D01*
X99669600Y-97797093D01*
X99669600Y-97487200D01*
X99623197Y-97253916D01*
X99491052Y-97056148D01*
X99359752Y-96924848D01*
X99161984Y-96792703D01*
X98928700Y-96746300D01*
X87186105Y-96746300D01*
X84070608Y-93630803D01*
X84228247Y-93599447D01*
X84574342Y-93368194D01*
X84603329Y-93324812D01*
X84658948Y-93408052D01*
X87668648Y-96417753D01*
X87787202Y-96496967D01*
X87866416Y-96549897D01*
X88099700Y-96596300D01*
X99846996Y-96596300D01*
X100990400Y-97739705D01*
X100990400Y-97797093D01*
X100845658Y-97893806D01*
X100614405Y-98239901D01*
X100533200Y-98648148D01*
X100533200Y-99725852D01*
X100614405Y-100134099D01*
X100845658Y-100480194D01*
X101191753Y-100711447D01*
X101600000Y-100792652D01*
X102008247Y-100711447D01*
X102354342Y-100480194D01*
X102405566Y-100403532D01*
X102408003Y-100415784D01*
X102540148Y-100613552D01*
X103322648Y-101396052D01*
X103394377Y-101443980D01*
X103385658Y-101449806D01*
X103154405Y-101795901D01*
X103073200Y-102204148D01*
X103073200Y-103281852D01*
X103154405Y-103690099D01*
X103385658Y-104036194D01*
X103731753Y-104267447D01*
X104140000Y-104348652D01*
X104548247Y-104267447D01*
X104894342Y-104036194D01*
X104915778Y-104004112D01*
X104978948Y-104098652D01*
X105737348Y-104857053D01*
X105833678Y-104921418D01*
X105935116Y-104989197D01*
X106168400Y-105035600D01*
X109715100Y-105035600D01*
X109948384Y-104989197D01*
X110146152Y-104857052D01*
X110166601Y-104836603D01*
X110235553Y-105183247D01*
X110466806Y-105529342D01*
X110812901Y-105760595D01*
X111221148Y-105841800D01*
X111275056Y-105841800D01*
X111005658Y-106021806D01*
X110774405Y-106367901D01*
X110693200Y-106776148D01*
X110693200Y-107853852D01*
X110774405Y-108262099D01*
X111005658Y-108608194D01*
X111150400Y-108704907D01*
X111150400Y-116055444D01*
X110888915Y-116230163D01*
X110621873Y-116629820D01*
X110528100Y-117101248D01*
X110528100Y-117848752D01*
X110621873Y-118320180D01*
X110888915Y-118719837D01*
X111288572Y-118986879D01*
X111760000Y-119080652D01*
X112231428Y-118986879D01*
X112631085Y-118719837D01*
X112898127Y-118320180D01*
X112991900Y-117848752D01*
X112991900Y-117101248D01*
X112898127Y-116629820D01*
X112631085Y-116230163D01*
X112369600Y-116055444D01*
X112369600Y-108704907D01*
X112514342Y-108608194D01*
X112745595Y-108262099D01*
X112826800Y-107853852D01*
X112826800Y-106776148D01*
X112745595Y-106367901D01*
X112514342Y-106021806D01*
X112244944Y-105841800D01*
X112298852Y-105841800D01*
X112707099Y-105760595D01*
X113053194Y-105529342D01*
X113149907Y-105384600D01*
X113207296Y-105384600D01*
X113690400Y-105867704D01*
X113690400Y-116055444D01*
X113428915Y-116230163D01*
X113161873Y-116629820D01*
X113068100Y-117101248D01*
X113068100Y-117848752D01*
X113161873Y-118320180D01*
X113428915Y-118719837D01*
X113828572Y-118986879D01*
X114300000Y-119080652D01*
X114771428Y-118986879D01*
X115171085Y-118719837D01*
X115438127Y-118320180D01*
X115524197Y-117887477D01*
X116026840Y-117887477D01*
X116343259Y-118653270D01*
X116928648Y-119239682D01*
X117693888Y-119557437D01*
X118522477Y-119558160D01*
X119288270Y-119241741D01*
X119874682Y-118656352D01*
X119932829Y-118516318D01*
X119932829Y-118618000D01*
X119956485Y-118736927D01*
X120023852Y-118837748D01*
X120124673Y-118905115D01*
X120243600Y-118928771D01*
X123037600Y-118928771D01*
X123156527Y-118905115D01*
X123257348Y-118837748D01*
X123324715Y-118736927D01*
X123348371Y-118618000D01*
X123348371Y-114734437D01*
X123382934Y-114769061D01*
X123751556Y-114922126D01*
X124150693Y-114922474D01*
X124519581Y-114770052D01*
X124802061Y-114488066D01*
X124955126Y-114119444D01*
X124955127Y-114117693D01*
X130314526Y-114117693D01*
X130466948Y-114486581D01*
X130748934Y-114769061D01*
X131117556Y-114922126D01*
X131516693Y-114922474D01*
X131885581Y-114770052D01*
X131921629Y-114734067D01*
X131921629Y-118618000D01*
X131945285Y-118736927D01*
X132012652Y-118837748D01*
X132113473Y-118905115D01*
X132232400Y-118928771D01*
X135026400Y-118928771D01*
X135145327Y-118905115D01*
X135246148Y-118837748D01*
X135313515Y-118736927D01*
X135337171Y-118618000D01*
X135337171Y-113792000D01*
X135313515Y-113673073D01*
X135246148Y-113572252D01*
X135145327Y-113504885D01*
X135026400Y-113481229D01*
X133174437Y-113481229D01*
X133438061Y-113218066D01*
X133591126Y-112849444D01*
X133591474Y-112450307D01*
X133439052Y-112081419D01*
X133157066Y-111798939D01*
X132788444Y-111645874D01*
X132389307Y-111645526D01*
X132020419Y-111797948D01*
X131737939Y-112079934D01*
X131584874Y-112448556D01*
X131584526Y-112847693D01*
X131632219Y-112963117D01*
X131518444Y-112915874D01*
X131119307Y-112915526D01*
X130750419Y-113067948D01*
X130467939Y-113349934D01*
X130314874Y-113718556D01*
X130314526Y-114117693D01*
X124955127Y-114117693D01*
X124955474Y-113720307D01*
X124803052Y-113351419D01*
X124521066Y-113068939D01*
X124152444Y-112915874D01*
X123753307Y-112915526D01*
X123637883Y-112963219D01*
X123685126Y-112849444D01*
X123685474Y-112450307D01*
X123533052Y-112081419D01*
X123251066Y-111798939D01*
X122882444Y-111645874D01*
X122483307Y-111645526D01*
X122114419Y-111797948D01*
X121831939Y-112079934D01*
X121678874Y-112448556D01*
X121678526Y-112847693D01*
X121830948Y-113216581D01*
X122095133Y-113481229D01*
X120243600Y-113481229D01*
X120124673Y-113504885D01*
X120023852Y-113572252D01*
X119956485Y-113673073D01*
X119932829Y-113792000D01*
X119932829Y-116432473D01*
X119876741Y-116296730D01*
X119291352Y-115710318D01*
X118526112Y-115392563D01*
X117697523Y-115391840D01*
X116931730Y-115708259D01*
X116345318Y-116293648D01*
X116027563Y-117058888D01*
X116026840Y-117887477D01*
X115524197Y-117887477D01*
X115531900Y-117848752D01*
X115531900Y-117101248D01*
X115438127Y-116629820D01*
X115171085Y-116230163D01*
X114909600Y-116055444D01*
X114909600Y-105615200D01*
X114863197Y-105381916D01*
X114731052Y-105184148D01*
X113890852Y-104343948D01*
X113693084Y-104211803D01*
X113459800Y-104165400D01*
X113149907Y-104165400D01*
X113148504Y-104163300D01*
X121447496Y-104163300D01*
X124351925Y-107067729D01*
X124206000Y-107067729D01*
X124087073Y-107091385D01*
X123986252Y-107158752D01*
X123918885Y-107259573D01*
X123895229Y-107378500D01*
X123895229Y-111569500D01*
X123918885Y-111688427D01*
X123986252Y-111789248D01*
X124087073Y-111856615D01*
X124206000Y-111880271D01*
X125984000Y-111880271D01*
X126102927Y-111856615D01*
X126182952Y-111803144D01*
X126229206Y-111914811D01*
X126400689Y-112086294D01*
X126624743Y-112179100D01*
X127330200Y-112179100D01*
X127482600Y-112026700D01*
X127482600Y-109626400D01*
X127462600Y-109626400D01*
X127462600Y-109321600D01*
X127482600Y-109321600D01*
X127482600Y-106921300D01*
X127787400Y-106921300D01*
X127787400Y-109321600D01*
X127807400Y-109321600D01*
X127807400Y-109626400D01*
X127787400Y-109626400D01*
X127787400Y-112026700D01*
X127939800Y-112179100D01*
X128645257Y-112179100D01*
X128869311Y-112086294D01*
X129040794Y-111914811D01*
X129087048Y-111803144D01*
X129167073Y-111856615D01*
X129286000Y-111880271D01*
X131064000Y-111880271D01*
X131182927Y-111856615D01*
X131283748Y-111789248D01*
X131351115Y-111688427D01*
X131374771Y-111569500D01*
X131374771Y-107378500D01*
X131351115Y-107259573D01*
X131283748Y-107158752D01*
X131182927Y-107091385D01*
X131129622Y-107080782D01*
X131817506Y-106392899D01*
X131853191Y-106392930D01*
X132128690Y-106279096D01*
X132339656Y-106068499D01*
X132453970Y-105793199D01*
X132454208Y-105520597D01*
X132768556Y-105651126D01*
X133167693Y-105651474D01*
X133536581Y-105499052D01*
X133669229Y-105366636D01*
X133669229Y-106595000D01*
X133692885Y-106713927D01*
X133760252Y-106814748D01*
X133861073Y-106882115D01*
X133980000Y-106905771D01*
X136780000Y-106905771D01*
X136898927Y-106882115D01*
X136999748Y-106814748D01*
X137067115Y-106713927D01*
X137090771Y-106595000D01*
X137090771Y-105699800D01*
X139470400Y-105699800D01*
X139470400Y-106716257D01*
X139563206Y-106940311D01*
X139734689Y-107111794D01*
X139958743Y-107204600D01*
X141175200Y-107204600D01*
X141327600Y-107052200D01*
X141327600Y-105547400D01*
X139622800Y-105547400D01*
X139470400Y-105699800D01*
X137090771Y-105699800D01*
X137090771Y-104195000D01*
X137067115Y-104076073D01*
X137065559Y-104073743D01*
X139470400Y-104073743D01*
X139470400Y-105090200D01*
X139622800Y-105242600D01*
X141327600Y-105242600D01*
X141327600Y-103737800D01*
X141175200Y-103585400D01*
X139958743Y-103585400D01*
X139734689Y-103678206D01*
X139563206Y-103849689D01*
X139470400Y-104073743D01*
X137065559Y-104073743D01*
X136999748Y-103975252D01*
X136898927Y-103907885D01*
X136780000Y-103884229D01*
X133980000Y-103884229D01*
X133861073Y-103907885D01*
X133760252Y-103975252D01*
X133742135Y-104002366D01*
X133538066Y-103797939D01*
X133169444Y-103644874D01*
X132770307Y-103644526D01*
X132401419Y-103796948D01*
X132118939Y-104078934D01*
X131965874Y-104447556D01*
X131965526Y-104846693D01*
X132012280Y-104959846D01*
X131854499Y-104894330D01*
X131556409Y-104894070D01*
X131280910Y-105007904D01*
X131069944Y-105218501D01*
X130955630Y-105493801D01*
X130955598Y-105530597D01*
X130140167Y-106346029D01*
X129941716Y-106385503D01*
X129743948Y-106517648D01*
X129611803Y-106715416D01*
X129565400Y-106948700D01*
X129565400Y-107067729D01*
X129286000Y-107067729D01*
X129167073Y-107091385D01*
X129087048Y-107144856D01*
X129040794Y-107033189D01*
X128869311Y-106861706D01*
X128645257Y-106768900D01*
X127939800Y-106768900D01*
X127787400Y-106921300D01*
X127482600Y-106921300D01*
X127330200Y-106768900D01*
X126624743Y-106768900D01*
X126400689Y-106861706D01*
X126229206Y-107033189D01*
X126182952Y-107144856D01*
X126102927Y-107091385D01*
X125984000Y-107067729D01*
X125704600Y-107067729D01*
X125704600Y-106948700D01*
X125658197Y-106715416D01*
X125526052Y-106517648D01*
X122131052Y-103122648D01*
X121933284Y-102990503D01*
X121700000Y-102944100D01*
X113083424Y-102944100D01*
X113284447Y-102643247D01*
X113365652Y-102235000D01*
X113284447Y-101826753D01*
X113053194Y-101480658D01*
X112707099Y-101249405D01*
X112298852Y-101168200D01*
X111221148Y-101168200D01*
X110812901Y-101249405D01*
X110466806Y-101480658D01*
X110235553Y-101826753D01*
X110223642Y-101886632D01*
X110205595Y-101795901D01*
X109974342Y-101449806D01*
X109829600Y-101353093D01*
X109829600Y-101043200D01*
X109783197Y-100809916D01*
X109689883Y-100670263D01*
X109974342Y-100480194D01*
X110205595Y-100134099D01*
X110223642Y-100043368D01*
X110235553Y-100103247D01*
X110466806Y-100449342D01*
X110812901Y-100680595D01*
X111221148Y-100761800D01*
X112298852Y-100761800D01*
X112707099Y-100680595D01*
X113053194Y-100449342D01*
X113281620Y-100107477D01*
X116026840Y-100107477D01*
X116343259Y-100873270D01*
X116928648Y-101459682D01*
X117693888Y-101777437D01*
X118522477Y-101778160D01*
X119288270Y-101461741D01*
X119874682Y-100876352D01*
X120192437Y-100111112D01*
X120193160Y-99282523D01*
X119876741Y-98516730D01*
X119291352Y-97930318D01*
X118526112Y-97612563D01*
X117697523Y-97611840D01*
X116931730Y-97928259D01*
X116345318Y-98513648D01*
X116027563Y-99278888D01*
X116026840Y-100107477D01*
X113281620Y-100107477D01*
X113284447Y-100103247D01*
X113365652Y-99695000D01*
X113284447Y-99286753D01*
X113053194Y-98940658D01*
X112707099Y-98709405D01*
X112298852Y-98628200D01*
X111221148Y-98628200D01*
X110812901Y-98709405D01*
X110466806Y-98940658D01*
X110286800Y-99210056D01*
X110286800Y-98648148D01*
X110205595Y-98239901D01*
X109974342Y-97893806D01*
X109829600Y-97797093D01*
X109829600Y-97155000D01*
X110154348Y-97155000D01*
X110235553Y-97563247D01*
X110466806Y-97909342D01*
X110812901Y-98140595D01*
X111221148Y-98221800D01*
X112298852Y-98221800D01*
X112707099Y-98140595D01*
X113053194Y-97909342D01*
X113284447Y-97563247D01*
X113365652Y-97155000D01*
X113284447Y-96746753D01*
X113053194Y-96400658D01*
X112707099Y-96169405D01*
X112298852Y-96088200D01*
X111221148Y-96088200D01*
X110812901Y-96169405D01*
X110466806Y-96400658D01*
X110235553Y-96746753D01*
X110154348Y-97155000D01*
X109829600Y-97155000D01*
X109829600Y-94769104D01*
X110196719Y-94401985D01*
X110154348Y-94615000D01*
X110235553Y-95023247D01*
X110466806Y-95369342D01*
X110812901Y-95600595D01*
X111221148Y-95681800D01*
X112298852Y-95681800D01*
X112707099Y-95600595D01*
X113053194Y-95369342D01*
X113284447Y-95023247D01*
X113365652Y-94615000D01*
X113284447Y-94206753D01*
X113053194Y-93860658D01*
X112707099Y-93629405D01*
X112298852Y-93548200D01*
X112244944Y-93548200D01*
X112514342Y-93368194D01*
X112745595Y-93022099D01*
X112826800Y-92613852D01*
X112826800Y-91798291D01*
X119415870Y-91798291D01*
X119529704Y-92073790D01*
X119740301Y-92284756D01*
X120015601Y-92399070D01*
X120052398Y-92399102D01*
X120525648Y-92872353D01*
X120605053Y-92925409D01*
X120723416Y-93004497D01*
X120956700Y-93050900D01*
X125095000Y-93050900D01*
X125328284Y-93004497D01*
X125526052Y-92872352D01*
X125658197Y-92674584D01*
X125704600Y-92441300D01*
X125704600Y-92322271D01*
X125984000Y-92322271D01*
X126102927Y-92298615D01*
X126182952Y-92245144D01*
X126229206Y-92356811D01*
X126400689Y-92528294D01*
X126624743Y-92621100D01*
X127330200Y-92621100D01*
X127482600Y-92468700D01*
X127482600Y-90068400D01*
X127462600Y-90068400D01*
X127462600Y-89763600D01*
X127482600Y-89763600D01*
X127482600Y-87363300D01*
X127787400Y-87363300D01*
X127787400Y-89763600D01*
X127807400Y-89763600D01*
X127807400Y-90068400D01*
X127787400Y-90068400D01*
X127787400Y-92468700D01*
X127939800Y-92621100D01*
X128645257Y-92621100D01*
X128869311Y-92528294D01*
X129040794Y-92356811D01*
X129087048Y-92245144D01*
X129167073Y-92298615D01*
X129286000Y-92322271D01*
X129485900Y-92322271D01*
X129413844Y-92394201D01*
X129299530Y-92669501D01*
X129299270Y-92967591D01*
X129413104Y-93243090D01*
X129623701Y-93454056D01*
X129899001Y-93568370D01*
X130197091Y-93568630D01*
X130472590Y-93454796D01*
X130683556Y-93244199D01*
X130797870Y-92968899D01*
X130798130Y-92670809D01*
X130758180Y-92574123D01*
X130784600Y-92441300D01*
X130784600Y-92322271D01*
X131064000Y-92322271D01*
X131182927Y-92298615D01*
X131283748Y-92231248D01*
X131351115Y-92130427D01*
X131374771Y-92011500D01*
X131374771Y-87820500D01*
X131351115Y-87701573D01*
X131283748Y-87600752D01*
X131182927Y-87533385D01*
X131064000Y-87509729D01*
X129286000Y-87509729D01*
X129167073Y-87533385D01*
X129087048Y-87586856D01*
X129040794Y-87475189D01*
X128869311Y-87303706D01*
X128645257Y-87210900D01*
X127939800Y-87210900D01*
X127787400Y-87363300D01*
X127482600Y-87363300D01*
X127330200Y-87210900D01*
X126624743Y-87210900D01*
X126400689Y-87303706D01*
X126229206Y-87475189D01*
X126182952Y-87586856D01*
X126102927Y-87533385D01*
X125984000Y-87509729D01*
X124206000Y-87509729D01*
X124087073Y-87533385D01*
X123986252Y-87600752D01*
X123918885Y-87701573D01*
X123895229Y-87820500D01*
X123895229Y-91831700D01*
X121209205Y-91831700D01*
X120914699Y-91537194D01*
X120914730Y-91501509D01*
X120800896Y-91226010D01*
X120590299Y-91015044D01*
X120314999Y-90900730D01*
X120016909Y-90900470D01*
X119741410Y-91014304D01*
X119530444Y-91224901D01*
X119416130Y-91500201D01*
X119415870Y-91798291D01*
X112826800Y-91798291D01*
X112826800Y-91536148D01*
X112745595Y-91127901D01*
X112514342Y-90781806D01*
X112369600Y-90685093D01*
X112369600Y-87351304D01*
X116083452Y-83637452D01*
X116215597Y-83439684D01*
X116262000Y-83206400D01*
X116262000Y-82896608D01*
X116343259Y-83093270D01*
X116928648Y-83679682D01*
X117693888Y-83997437D01*
X118522477Y-83998160D01*
X119288270Y-83681741D01*
X119874682Y-83096352D01*
X119932829Y-82956318D01*
X119932829Y-85598000D01*
X119956485Y-85716927D01*
X120023852Y-85817748D01*
X120124673Y-85885115D01*
X120243600Y-85908771D01*
X122095563Y-85908771D01*
X121831939Y-86171934D01*
X121678874Y-86540556D01*
X121678526Y-86939693D01*
X121830948Y-87308581D01*
X122112934Y-87591061D01*
X122481556Y-87744126D01*
X122880693Y-87744474D01*
X123249581Y-87592052D01*
X123532061Y-87310066D01*
X123685126Y-86941444D01*
X123685474Y-86542307D01*
X123637781Y-86426883D01*
X123751556Y-86474126D01*
X124150693Y-86474474D01*
X124519581Y-86322052D01*
X124802061Y-86040066D01*
X124955126Y-85671444D01*
X124955127Y-85669693D01*
X130314526Y-85669693D01*
X130466948Y-86038581D01*
X130748934Y-86321061D01*
X131117556Y-86474126D01*
X131516693Y-86474474D01*
X131632117Y-86426781D01*
X131584874Y-86540556D01*
X131584526Y-86939693D01*
X131736948Y-87308581D01*
X132018934Y-87591061D01*
X132387556Y-87744126D01*
X132786693Y-87744474D01*
X133155581Y-87592052D01*
X133438061Y-87310066D01*
X133591126Y-86941444D01*
X133591474Y-86542307D01*
X133439052Y-86173419D01*
X133174867Y-85908771D01*
X135026400Y-85908771D01*
X135145327Y-85885115D01*
X135246148Y-85817748D01*
X135313515Y-85716927D01*
X135337171Y-85598000D01*
X135337171Y-80772000D01*
X135313515Y-80653073D01*
X135246148Y-80552252D01*
X135145327Y-80484885D01*
X135026400Y-80461229D01*
X132232400Y-80461229D01*
X132113473Y-80484885D01*
X132012652Y-80552252D01*
X131945285Y-80653073D01*
X131921629Y-80772000D01*
X131921629Y-84655563D01*
X131887066Y-84620939D01*
X131518444Y-84467874D01*
X131119307Y-84467526D01*
X130750419Y-84619948D01*
X130467939Y-84901934D01*
X130314874Y-85270556D01*
X130314526Y-85669693D01*
X124955127Y-85669693D01*
X124955474Y-85272307D01*
X124803052Y-84903419D01*
X124521066Y-84620939D01*
X124152444Y-84467874D01*
X123753307Y-84467526D01*
X123384419Y-84619948D01*
X123348371Y-84655933D01*
X123348371Y-80772000D01*
X123324715Y-80653073D01*
X123257348Y-80552252D01*
X123156527Y-80484885D01*
X123037600Y-80461229D01*
X120243600Y-80461229D01*
X120124673Y-80484885D01*
X120023852Y-80552252D01*
X119956485Y-80653073D01*
X119932829Y-80772000D01*
X119932829Y-80872473D01*
X119876741Y-80736730D01*
X119291352Y-80150318D01*
X118526112Y-79832563D01*
X117697523Y-79831840D01*
X116931730Y-80148259D01*
X116345318Y-80733648D01*
X116249963Y-80963288D01*
X116215597Y-80790516D01*
X116162667Y-80711302D01*
X116083453Y-80592748D01*
X115289452Y-79798748D01*
X115282496Y-79794100D01*
X143090900Y-79794100D01*
X143090900Y-92508243D01*
X143018748Y-92460033D01*
X142880000Y-92432434D01*
X140080000Y-92432434D01*
X139941252Y-92460033D01*
X139823627Y-92538627D01*
X139745033Y-92656252D01*
X139717434Y-92795000D01*
X139717434Y-93106000D01*
X137142566Y-93106000D01*
X137142566Y-92795000D01*
X137114967Y-92656252D01*
X137036373Y-92538627D01*
X136918748Y-92460033D01*
X136780000Y-92432434D01*
X133980000Y-92432434D01*
X133841252Y-92460033D01*
X133723627Y-92538627D01*
X133645033Y-92656252D01*
X133617434Y-92795000D01*
X133617434Y-93971446D01*
X133538066Y-93891939D01*
X133169444Y-93738874D01*
X132770307Y-93738526D01*
X132401419Y-93890948D01*
X132118939Y-94172934D01*
X131965874Y-94541556D01*
X131965526Y-94940693D01*
X132117948Y-95309581D01*
X132399934Y-95592061D01*
X132768556Y-95745126D01*
X133167693Y-95745474D01*
X133536581Y-95593052D01*
X133705574Y-95424355D01*
X133723627Y-95451373D01*
X133841252Y-95529967D01*
X133980000Y-95557566D01*
X134491000Y-95557566D01*
X134491000Y-96536264D01*
X127124482Y-103902782D01*
X126931771Y-104191195D01*
X126864100Y-104531400D01*
X126931771Y-104871605D01*
X127124482Y-105160018D01*
X127412895Y-105352729D01*
X127753100Y-105420400D01*
X128093305Y-105352729D01*
X128381718Y-105160018D01*
X133568530Y-99973206D01*
X135574956Y-99973206D01*
X135788374Y-100489716D01*
X136183206Y-100885237D01*
X136699342Y-101099556D01*
X137258206Y-101100044D01*
X137774716Y-100886626D01*
X138170237Y-100491794D01*
X138384556Y-99975658D01*
X138384575Y-99953402D01*
X140174974Y-99953402D01*
X140373199Y-100433144D01*
X140739925Y-100800511D01*
X141219320Y-100999573D01*
X141738402Y-101000026D01*
X142218144Y-100801801D01*
X142585511Y-100435075D01*
X142784573Y-99955680D01*
X142785026Y-99436598D01*
X142586801Y-98956856D01*
X142220075Y-98589489D01*
X141740680Y-98390427D01*
X141221598Y-98389974D01*
X140741856Y-98588199D01*
X140374489Y-98954925D01*
X140175427Y-99434320D01*
X140174974Y-99953402D01*
X138384575Y-99953402D01*
X138385044Y-99416794D01*
X138171626Y-98900284D01*
X137776794Y-98504763D01*
X137260658Y-98290444D01*
X136701794Y-98289956D01*
X136185284Y-98503374D01*
X135789763Y-98898206D01*
X135575444Y-99414342D01*
X135574956Y-99973206D01*
X133568530Y-99973206D01*
X136008618Y-97533118D01*
X136201329Y-97244706D01*
X136269000Y-96904500D01*
X136269000Y-95557566D01*
X136780000Y-95557566D01*
X136918748Y-95529967D01*
X137036373Y-95451373D01*
X137114967Y-95333748D01*
X137142566Y-95195000D01*
X137142566Y-94884000D01*
X139717434Y-94884000D01*
X139717434Y-95195000D01*
X139745033Y-95333748D01*
X139823627Y-95451373D01*
X139941252Y-95529967D01*
X140080000Y-95557566D01*
X142880000Y-95557566D01*
X143018748Y-95529967D01*
X143090900Y-95481757D01*
X143090900Y-103622531D01*
X143001257Y-103585400D01*
X141784800Y-103585400D01*
X141632400Y-103737800D01*
X141632400Y-105242600D01*
X141652400Y-105242600D01*
X141652400Y-105547400D01*
X141632400Y-105547400D01*
X141632400Y-107052200D01*
X141784800Y-107204600D01*
X143001257Y-107204600D01*
X143090900Y-107167469D01*
X143090900Y-119595900D01*
X60109100Y-119595900D01*
X60109100Y-117887477D01*
X60146840Y-117887477D01*
X60463259Y-118653270D01*
X61048648Y-119239682D01*
X61813888Y-119557437D01*
X62642477Y-119558160D01*
X63408270Y-119241741D01*
X63994682Y-118656352D01*
X64312437Y-117891112D01*
X64313160Y-117062523D01*
X63996741Y-116296730D01*
X63411352Y-115710318D01*
X62646112Y-115392563D01*
X61817523Y-115391840D01*
X61051730Y-115708259D01*
X60465318Y-116293648D01*
X60147563Y-117058888D01*
X60146840Y-117887477D01*
X60109100Y-117887477D01*
X60109100Y-111379000D01*
X61232434Y-111379000D01*
X61232434Y-112649000D01*
X61260033Y-112787748D01*
X61338627Y-112905373D01*
X61456252Y-112983967D01*
X61595000Y-113011566D01*
X61976000Y-113011566D01*
X61976000Y-113436700D01*
X62043671Y-113776906D01*
X62236382Y-114065318D01*
X62524794Y-114258029D01*
X62722399Y-114297335D01*
X64623682Y-116198618D01*
X64912094Y-116391329D01*
X65252300Y-116459000D01*
X66127661Y-116459000D01*
X66342466Y-116602528D01*
X66770153Y-116687600D01*
X67849847Y-116687600D01*
X68277534Y-116602528D01*
X68492339Y-116459000D01*
X69226743Y-116459000D01*
X69402700Y-116494000D01*
X70142434Y-116494000D01*
X70142434Y-116960000D01*
X70170033Y-117098748D01*
X70248627Y-117216373D01*
X70366252Y-117294967D01*
X70505000Y-117322566D01*
X73005000Y-117322566D01*
X73143748Y-117294967D01*
X73261373Y-117216373D01*
X73339967Y-117098748D01*
X73367566Y-116960000D01*
X73367566Y-114250000D01*
X73339967Y-114111252D01*
X73261373Y-113993627D01*
X73143748Y-113915033D01*
X73005000Y-113887434D01*
X70505000Y-113887434D01*
X70366252Y-113915033D01*
X70248627Y-113993627D01*
X70170033Y-114111252D01*
X70142434Y-114250000D01*
X70142434Y-114716000D01*
X69543657Y-114716000D01*
X69367700Y-114681000D01*
X68492339Y-114681000D01*
X68277534Y-114537472D01*
X67849847Y-114452400D01*
X66770153Y-114452400D01*
X66342466Y-114537472D01*
X66127661Y-114681000D01*
X65620536Y-114681000D01*
X64333297Y-113393761D01*
X65479516Y-113393761D01*
X65724369Y-113892104D01*
X66136312Y-114238872D01*
X66649600Y-114401600D01*
X67157600Y-114401600D01*
X67157600Y-113182400D01*
X67462400Y-113182400D01*
X67462400Y-114401600D01*
X67970400Y-114401600D01*
X68483688Y-114238872D01*
X68895631Y-113892104D01*
X69140484Y-113393761D01*
X69027637Y-113182400D01*
X67462400Y-113182400D01*
X67157600Y-113182400D01*
X65592363Y-113182400D01*
X65479516Y-113393761D01*
X64333297Y-113393761D01*
X63951102Y-113011566D01*
X64135000Y-113011566D01*
X64273748Y-112983967D01*
X64391373Y-112905373D01*
X64469967Y-112787748D01*
X64494136Y-112666239D01*
X65479516Y-112666239D01*
X65592363Y-112877600D01*
X67157600Y-112877600D01*
X67157600Y-111658400D01*
X67462400Y-111658400D01*
X67462400Y-112877600D01*
X69027637Y-112877600D01*
X69140484Y-112666239D01*
X68895631Y-112167896D01*
X68483688Y-111821128D01*
X67970400Y-111658400D01*
X67462400Y-111658400D01*
X67157600Y-111658400D01*
X66649600Y-111658400D01*
X66136312Y-111821128D01*
X65724369Y-112167896D01*
X65479516Y-112666239D01*
X64494136Y-112666239D01*
X64497566Y-112649000D01*
X64497566Y-111379000D01*
X64469967Y-111240252D01*
X64391373Y-111122627D01*
X64273748Y-111044033D01*
X64135000Y-111016434D01*
X61595000Y-111016434D01*
X61456252Y-111044033D01*
X61338627Y-111122627D01*
X61260033Y-111240252D01*
X61232434Y-111379000D01*
X60109100Y-111379000D01*
X60109100Y-109270800D01*
X60985400Y-109270800D01*
X60985400Y-109722257D01*
X61078206Y-109946311D01*
X61249689Y-110117794D01*
X61473743Y-110210600D01*
X62560200Y-110210600D01*
X62712600Y-110058200D01*
X62712600Y-109118400D01*
X63017400Y-109118400D01*
X63017400Y-110058200D01*
X63169800Y-110210600D01*
X64256257Y-110210600D01*
X64480311Y-110117794D01*
X64651794Y-109946311D01*
X64744600Y-109722257D01*
X64744600Y-109270800D01*
X64592200Y-109118400D01*
X63017400Y-109118400D01*
X62712600Y-109118400D01*
X61137800Y-109118400D01*
X60985400Y-109270800D01*
X60109100Y-109270800D01*
X60109100Y-108209743D01*
X60985400Y-108209743D01*
X60985400Y-108661200D01*
X61137800Y-108813600D01*
X62712600Y-108813600D01*
X62712600Y-107873800D01*
X63017400Y-107873800D01*
X63017400Y-108813600D01*
X64592200Y-108813600D01*
X64744600Y-108661200D01*
X64744600Y-108209743D01*
X64651794Y-107985689D01*
X64480311Y-107814206D01*
X64256257Y-107721400D01*
X63169800Y-107721400D01*
X63017400Y-107873800D01*
X62712600Y-107873800D01*
X62560200Y-107721400D01*
X61473743Y-107721400D01*
X61249689Y-107814206D01*
X61078206Y-107985689D01*
X60985400Y-108209743D01*
X60109100Y-108209743D01*
X60109100Y-97795000D01*
X60324229Y-97795000D01*
X60324229Y-101595000D01*
X60347885Y-101713927D01*
X60415252Y-101814748D01*
X60516073Y-101882115D01*
X60635000Y-101905771D01*
X62226000Y-101905771D01*
X62226000Y-102382700D01*
X62293671Y-102722906D01*
X62442871Y-102946200D01*
X62428267Y-102946200D01*
X61728416Y-103085409D01*
X61135110Y-103481843D01*
X60738676Y-104075149D01*
X60599467Y-104775000D01*
X60738676Y-105474851D01*
X61135110Y-106068157D01*
X61728416Y-106464591D01*
X62428267Y-106603800D01*
X64571733Y-106603800D01*
X65271584Y-106464591D01*
X65864890Y-106068157D01*
X66058434Y-105778498D01*
X66058434Y-107950000D01*
X66086033Y-108088748D01*
X66164627Y-108206373D01*
X66167000Y-108207959D01*
X66167000Y-108737700D01*
X66234671Y-109077906D01*
X66421000Y-109356767D01*
X66421000Y-109441851D01*
X66342466Y-109457472D01*
X65979890Y-109699737D01*
X65737625Y-110062313D01*
X65652553Y-110490000D01*
X65737625Y-110917687D01*
X65979890Y-111280263D01*
X66342466Y-111522528D01*
X66770153Y-111607600D01*
X67849847Y-111607600D01*
X68277534Y-111522528D01*
X68640110Y-111280263D01*
X68882375Y-110917687D01*
X68967447Y-110490000D01*
X68882375Y-110062313D01*
X68640110Y-109699737D01*
X68277534Y-109457472D01*
X68199000Y-109441851D01*
X68199000Y-108940300D01*
X68159970Y-108744082D01*
X68131330Y-108600095D01*
X67945000Y-108321233D01*
X67945000Y-108207959D01*
X67947373Y-108206373D01*
X68025967Y-108088748D01*
X68053566Y-107950000D01*
X68053566Y-106984800D01*
X68859400Y-106984800D01*
X68859400Y-108071257D01*
X68952206Y-108295311D01*
X69123689Y-108466794D01*
X69347743Y-108559600D01*
X69799200Y-108559600D01*
X69951600Y-108407200D01*
X69951600Y-106832400D01*
X70256400Y-106832400D01*
X70256400Y-108407200D01*
X70408800Y-108559600D01*
X70860257Y-108559600D01*
X71084311Y-108466794D01*
X71255794Y-108295311D01*
X71348600Y-108071257D01*
X71348600Y-106984800D01*
X71526400Y-106984800D01*
X71526400Y-108071257D01*
X71619206Y-108295311D01*
X71790689Y-108466794D01*
X72014743Y-108559600D01*
X72466200Y-108559600D01*
X72618600Y-108407200D01*
X72618600Y-106832400D01*
X72923400Y-106832400D01*
X72923400Y-108407200D01*
X73075800Y-108559600D01*
X73527257Y-108559600D01*
X73751311Y-108466794D01*
X73922794Y-108295311D01*
X74015600Y-108071257D01*
X74015600Y-106984800D01*
X73863200Y-106832400D01*
X72923400Y-106832400D01*
X72618600Y-106832400D01*
X71678800Y-106832400D01*
X71526400Y-106984800D01*
X71348600Y-106984800D01*
X71196200Y-106832400D01*
X70256400Y-106832400D01*
X69951600Y-106832400D01*
X69011800Y-106832400D01*
X68859400Y-106984800D01*
X68053566Y-106984800D01*
X68053566Y-105410000D01*
X68025967Y-105271252D01*
X67947373Y-105153627D01*
X67945000Y-105152041D01*
X67945000Y-104259736D01*
X68725182Y-105039918D01*
X68911030Y-105164097D01*
X68859400Y-105288743D01*
X68859400Y-106375200D01*
X69011800Y-106527600D01*
X69951600Y-106527600D01*
X69951600Y-106507600D01*
X70256400Y-106507600D01*
X70256400Y-106527600D01*
X71196200Y-106527600D01*
X71348600Y-106375200D01*
X71348600Y-105288743D01*
X71526400Y-105288743D01*
X71526400Y-106375200D01*
X71678800Y-106527600D01*
X72618600Y-106527600D01*
X72618600Y-104952800D01*
X72923400Y-104952800D01*
X72923400Y-106527600D01*
X73863200Y-106527600D01*
X74015600Y-106375200D01*
X74015600Y-105288743D01*
X73922794Y-105064689D01*
X73751311Y-104893206D01*
X73527257Y-104800400D01*
X73075800Y-104800400D01*
X72923400Y-104952800D01*
X72618600Y-104952800D01*
X72466200Y-104800400D01*
X72014743Y-104800400D01*
X71790689Y-104893206D01*
X71619206Y-105064689D01*
X71526400Y-105288743D01*
X71348600Y-105288743D01*
X71255794Y-105064689D01*
X71084311Y-104893206D01*
X70860257Y-104800400D01*
X70408800Y-104800400D01*
X70256402Y-104952798D01*
X70256402Y-104800400D01*
X70142458Y-104800400D01*
X70175129Y-104751505D01*
X70242800Y-104411300D01*
X70175129Y-104071095D01*
X69982418Y-103782682D01*
X69057832Y-102858096D01*
X71013837Y-102858096D01*
X71162637Y-103375970D01*
X71498292Y-103797480D01*
X71969701Y-104058454D01*
X72026239Y-104065484D01*
X72237600Y-103952637D01*
X72237600Y-102641400D01*
X72542400Y-102641400D01*
X72542400Y-103952637D01*
X72753761Y-104065484D01*
X72810299Y-104058454D01*
X73281708Y-103797480D01*
X73617363Y-103375970D01*
X73766163Y-102858096D01*
X73614825Y-102641400D01*
X72542400Y-102641400D01*
X72237600Y-102641400D01*
X71165175Y-102641400D01*
X71013837Y-102858096D01*
X69057832Y-102858096D01*
X67904710Y-101704974D01*
X67922115Y-101678927D01*
X67945771Y-101560000D01*
X67945771Y-99960000D01*
X67922115Y-99841073D01*
X67854748Y-99740252D01*
X67804000Y-99706343D01*
X67804000Y-99695000D01*
X68249324Y-99695000D01*
X68330529Y-100103247D01*
X68561782Y-100449342D01*
X68907877Y-100680595D01*
X69316124Y-100761800D01*
X69875876Y-100761800D01*
X70284123Y-100680595D01*
X70630218Y-100449342D01*
X70861471Y-100103247D01*
X70942676Y-99695000D01*
X70861471Y-99286753D01*
X70630218Y-98940658D01*
X70284123Y-98709405D01*
X69875876Y-98628200D01*
X69316124Y-98628200D01*
X68907877Y-98709405D01*
X68561782Y-98940658D01*
X68330529Y-99286753D01*
X68249324Y-99695000D01*
X67804000Y-99695000D01*
X67804000Y-99683657D01*
X67854748Y-99649748D01*
X67922115Y-99548927D01*
X67945771Y-99430000D01*
X67945771Y-97830000D01*
X67922115Y-97711073D01*
X67854748Y-97610252D01*
X67753927Y-97542885D01*
X67635000Y-97519229D01*
X66195000Y-97519229D01*
X66124480Y-97533256D01*
X67125832Y-96531904D01*
X71013837Y-96531904D01*
X71165175Y-96748600D01*
X72237600Y-96748600D01*
X72237600Y-95437363D01*
X72542400Y-95437363D01*
X72542400Y-96748600D01*
X73614825Y-96748600D01*
X73766163Y-96531904D01*
X73617363Y-96014030D01*
X73281708Y-95592520D01*
X72810299Y-95331546D01*
X72753761Y-95324516D01*
X72542400Y-95437363D01*
X72237600Y-95437363D01*
X72026239Y-95324516D01*
X71969701Y-95331546D01*
X71498292Y-95592520D01*
X71162637Y-96014030D01*
X71013837Y-96531904D01*
X67125832Y-96531904D01*
X68420918Y-95236818D01*
X68448860Y-95195000D01*
X68613629Y-94948406D01*
X68681300Y-94608200D01*
X68681300Y-92379800D01*
X77368400Y-92379800D01*
X77368400Y-93466257D01*
X77461206Y-93690311D01*
X77632689Y-93861794D01*
X77856743Y-93954600D01*
X78435200Y-93954600D01*
X78587600Y-93802200D01*
X78587600Y-92227400D01*
X78892400Y-92227400D01*
X78892400Y-93802200D01*
X79044800Y-93954600D01*
X79623257Y-93954600D01*
X79847311Y-93861794D01*
X80018794Y-93690311D01*
X80111600Y-93466257D01*
X80111600Y-92379800D01*
X79959200Y-92227400D01*
X78892400Y-92227400D01*
X78587600Y-92227400D01*
X77520800Y-92227400D01*
X77368400Y-92379800D01*
X68681300Y-92379800D01*
X68681300Y-90683743D01*
X77368400Y-90683743D01*
X77368400Y-91770200D01*
X77520800Y-91922600D01*
X78587600Y-91922600D01*
X78587600Y-90347800D01*
X78892400Y-90347800D01*
X78892400Y-91922600D01*
X79959200Y-91922600D01*
X80111600Y-91770200D01*
X80111600Y-90683743D01*
X80018794Y-90459689D01*
X79847311Y-90288206D01*
X79623257Y-90195400D01*
X79044800Y-90195400D01*
X78892400Y-90347800D01*
X78587600Y-90347800D01*
X78435200Y-90195400D01*
X77856743Y-90195400D01*
X77632689Y-90288206D01*
X77461206Y-90459689D01*
X77368400Y-90683743D01*
X68681300Y-90683743D01*
X68681300Y-88493600D01*
X69545200Y-88493600D01*
X69697600Y-88341200D01*
X69697600Y-87401400D01*
X70002400Y-87401400D01*
X70002400Y-88341200D01*
X70154800Y-88493600D01*
X71241257Y-88493600D01*
X71465311Y-88400794D01*
X71636794Y-88229311D01*
X71729600Y-88005257D01*
X71729600Y-87553800D01*
X71583277Y-87407477D01*
X75386840Y-87407477D01*
X75703259Y-88173270D01*
X76288648Y-88759682D01*
X77053888Y-89077437D01*
X77882477Y-89078160D01*
X78648270Y-88761741D01*
X79234682Y-88176352D01*
X79552437Y-87411112D01*
X79553160Y-86582523D01*
X79236741Y-85816730D01*
X78651352Y-85230318D01*
X77886112Y-84912563D01*
X77057523Y-84911840D01*
X76291730Y-85228259D01*
X75705318Y-85813648D01*
X75387563Y-86578888D01*
X75386840Y-87407477D01*
X71583277Y-87407477D01*
X71577200Y-87401400D01*
X70002400Y-87401400D01*
X69697600Y-87401400D01*
X69677600Y-87401400D01*
X69677600Y-87096600D01*
X69697600Y-87096600D01*
X69697600Y-86156800D01*
X70002400Y-86156800D01*
X70002400Y-87096600D01*
X71577200Y-87096600D01*
X71729600Y-86944200D01*
X71729600Y-86492743D01*
X71636794Y-86268689D01*
X71465311Y-86097206D01*
X71241257Y-86004400D01*
X70154800Y-86004400D01*
X70002400Y-86156800D01*
X69697600Y-86156800D01*
X69545200Y-86004400D01*
X68681300Y-86004400D01*
X68681300Y-85198566D01*
X71120000Y-85198566D01*
X71258748Y-85170967D01*
X71376373Y-85092373D01*
X71454967Y-84974748D01*
X71482566Y-84836000D01*
X71482566Y-83566000D01*
X71454967Y-83427252D01*
X71376373Y-83309627D01*
X71258748Y-83231033D01*
X71120000Y-83203434D01*
X70739000Y-83203434D01*
X70739000Y-83146536D01*
X71081536Y-82804000D01*
X74910334Y-82804000D01*
X74910334Y-83185000D01*
X74937933Y-83323748D01*
X75016527Y-83441373D01*
X75134152Y-83519967D01*
X75272900Y-83547566D01*
X77127100Y-83547566D01*
X77265848Y-83519967D01*
X77383473Y-83441373D01*
X77462067Y-83323748D01*
X77489666Y-83185000D01*
X77489666Y-83121923D01*
X77761152Y-83452274D01*
X78292730Y-83735947D01*
X78350269Y-83744357D01*
X78587600Y-83633785D01*
X78587600Y-82067400D01*
X78567600Y-82067400D01*
X78567600Y-81762600D01*
X78587600Y-81762600D01*
X78587600Y-80196215D01*
X78350269Y-80085643D01*
X78292730Y-80094053D01*
X77761152Y-80377726D01*
X77489666Y-80708077D01*
X77489666Y-80645000D01*
X77462067Y-80506252D01*
X77383473Y-80388627D01*
X77265848Y-80310033D01*
X77127100Y-80282434D01*
X75272900Y-80282434D01*
X75134152Y-80310033D01*
X75016527Y-80388627D01*
X74937933Y-80506252D01*
X74910334Y-80645000D01*
X74910334Y-81026000D01*
X70713300Y-81026000D01*
X70373095Y-81093670D01*
X70084682Y-81286382D01*
X69221382Y-82149682D01*
X69028671Y-82438094D01*
X68961000Y-82778300D01*
X68961000Y-83203434D01*
X68580000Y-83203434D01*
X68441252Y-83231033D01*
X68323627Y-83309627D01*
X68322041Y-83312000D01*
X67792300Y-83312000D01*
X67452094Y-83379671D01*
X67163682Y-83572382D01*
X66970971Y-83860794D01*
X66903300Y-84201000D01*
X66903300Y-94239964D01*
X66368817Y-94774447D01*
X66400533Y-94615000D01*
X66261324Y-93915149D01*
X65864890Y-93321843D01*
X65271584Y-92925409D01*
X64571733Y-92786200D01*
X62428267Y-92786200D01*
X61728416Y-92925409D01*
X61135110Y-93321843D01*
X60738676Y-93915149D01*
X60599467Y-94615000D01*
X60738676Y-95314851D01*
X61135110Y-95908157D01*
X61728416Y-96304591D01*
X62428267Y-96443800D01*
X62442871Y-96443800D01*
X62293671Y-96667094D01*
X62226000Y-97007300D01*
X62226000Y-97484229D01*
X60635000Y-97484229D01*
X60516073Y-97507885D01*
X60415252Y-97575252D01*
X60347885Y-97676073D01*
X60324229Y-97795000D01*
X60109100Y-97795000D01*
X60109100Y-82327477D01*
X60146840Y-82327477D01*
X60463259Y-83093270D01*
X61048648Y-83679682D01*
X61813888Y-83997437D01*
X62642477Y-83998160D01*
X63408270Y-83681741D01*
X63994682Y-83096352D01*
X64312437Y-82331112D01*
X64313160Y-81502523D01*
X63996741Y-80736730D01*
X63411352Y-80150318D01*
X62646112Y-79832563D01*
X61817523Y-79831840D01*
X61051730Y-80148259D01*
X60465318Y-80733648D01*
X60147563Y-81498888D01*
X60146840Y-82327477D01*
X60109100Y-82327477D01*
X60109100Y-79794100D01*
X113021103Y-79794100D01*
X113014148Y-79798747D01*
M02*
