G04 #@! TF.FileFunction,Legend,Top*
%FSLAX46Y46*%
G04 Gerber Fmt 4.6, Leading zero omitted, Abs format (unit mm)*
G04 Created by KiCad (PCBNEW 4.1.0-alpha+201608010716+6997~46~ubuntu16.04.1-product) date Mon Aug  8 11:54:26 2016*
%MOMM*%
%LPD*%
G01*
G04 APERTURE LIST*
%ADD10C,0.100000*%
%ADD11C,0.228600*%
%ADD12C,0.190500*%
%ADD13C,0.254000*%
%ADD14C,0.381000*%
%ADD15C,0.127000*%
%ADD16C,0.150000*%
%ADD17C,0.158750*%
%ADD18C,1.600200*%
%ADD19R,4.591000X2.178000*%
%ADD20R,5.029200X2.997200*%
%ADD21O,2.940000X1.924000*%
%ADD22O,5.480000X3.448000*%
%ADD23O,2.432000X1.924000*%
%ADD24O,1.924000X2.432000*%
%ADD25R,1.990040X3.067000*%
%ADD26R,2.178000X4.591000*%
%ADD27R,2.997200X5.029200*%
%ADD28R,4.000000X5.160000*%
%ADD29R,1.800000X1.640000*%
%ADD30R,1.924000X2.940000*%
%ADD31O,1.924000X2.940000*%
%ADD32R,1.670000X2.940000*%
%ADD33C,2.400000*%
%ADD34C,2.600000*%
%ADD35R,3.110000X2.900000*%
%ADD36C,3.956000*%
%ADD37O,2.254200X2.940000*%
%ADD38R,2.254200X2.940000*%
G04 APERTURE END LIST*
D10*
D11*
X143510000Y-79375000D02*
X59690000Y-79375000D01*
X143510000Y-120015000D02*
X143510000Y-79375000D01*
X59690000Y-120015000D02*
X143510000Y-120015000D01*
D12*
X60542714Y-112213571D02*
X60542714Y-111778142D01*
X61304714Y-111995857D02*
X60542714Y-111995857D01*
X61304714Y-111415285D02*
X61268428Y-111487857D01*
X61232142Y-111524142D01*
X61159571Y-111560428D01*
X60941857Y-111560428D01*
X60869285Y-111524142D01*
X60833000Y-111487857D01*
X60796714Y-111415285D01*
X60796714Y-111306428D01*
X60833000Y-111233857D01*
X60869285Y-111197571D01*
X60941857Y-111161285D01*
X61159571Y-111161285D01*
X61232142Y-111197571D01*
X61268428Y-111233857D01*
X61304714Y-111306428D01*
X61304714Y-111415285D01*
X60796714Y-110834714D02*
X61558714Y-110834714D01*
X60833000Y-110834714D02*
X60796714Y-110762142D01*
X60796714Y-110617000D01*
X60833000Y-110544428D01*
X60869285Y-110508142D01*
X60941857Y-110471857D01*
X61159571Y-110471857D01*
X61232142Y-110508142D01*
X61268428Y-110544428D01*
X61304714Y-110617000D01*
X61304714Y-110762142D01*
X61268428Y-110834714D01*
X61232142Y-110145285D02*
X61268428Y-110109000D01*
X61304714Y-110145285D01*
X61268428Y-110181571D01*
X61232142Y-110145285D01*
X61304714Y-110145285D01*
X60833000Y-110145285D02*
X60869285Y-110109000D01*
X60905571Y-110145285D01*
X60869285Y-110181571D01*
X60833000Y-110145285D01*
X60905571Y-110145285D01*
X60905571Y-90024857D02*
X60941857Y-89916000D01*
X60978142Y-89879714D01*
X61050714Y-89843428D01*
X61159571Y-89843428D01*
X61232142Y-89879714D01*
X61268428Y-89916000D01*
X61304714Y-89988571D01*
X61304714Y-90278857D01*
X60542714Y-90278857D01*
X60542714Y-90024857D01*
X60579000Y-89952285D01*
X60615285Y-89916000D01*
X60687857Y-89879714D01*
X60760428Y-89879714D01*
X60833000Y-89916000D01*
X60869285Y-89952285D01*
X60905571Y-90024857D01*
X60905571Y-90278857D01*
X61304714Y-89408000D02*
X61268428Y-89480571D01*
X61232142Y-89516857D01*
X61159571Y-89553142D01*
X60941857Y-89553142D01*
X60869285Y-89516857D01*
X60833000Y-89480571D01*
X60796714Y-89408000D01*
X60796714Y-89299142D01*
X60833000Y-89226571D01*
X60869285Y-89190285D01*
X60941857Y-89154000D01*
X61159571Y-89154000D01*
X61232142Y-89190285D01*
X61268428Y-89226571D01*
X61304714Y-89299142D01*
X61304714Y-89408000D01*
X60796714Y-88936285D02*
X60796714Y-88646000D01*
X60542714Y-88827428D02*
X61195857Y-88827428D01*
X61268428Y-88791142D01*
X61304714Y-88718571D01*
X61304714Y-88646000D01*
X60796714Y-88500857D02*
X60796714Y-88210571D01*
X60542714Y-88392000D02*
X61195857Y-88392000D01*
X61268428Y-88355714D01*
X61304714Y-88283142D01*
X61304714Y-88210571D01*
X61304714Y-87847714D02*
X61268428Y-87920285D01*
X61232142Y-87956571D01*
X61159571Y-87992857D01*
X60941857Y-87992857D01*
X60869285Y-87956571D01*
X60833000Y-87920285D01*
X60796714Y-87847714D01*
X60796714Y-87738857D01*
X60833000Y-87666285D01*
X60869285Y-87630000D01*
X60941857Y-87593714D01*
X61159571Y-87593714D01*
X61232142Y-87630000D01*
X61268428Y-87666285D01*
X61304714Y-87738857D01*
X61304714Y-87847714D01*
X61304714Y-87267142D02*
X60796714Y-87267142D01*
X60869285Y-87267142D02*
X60833000Y-87230857D01*
X60796714Y-87158285D01*
X60796714Y-87049428D01*
X60833000Y-86976857D01*
X60905571Y-86940571D01*
X61304714Y-86940571D01*
X60905571Y-86940571D02*
X60833000Y-86904285D01*
X60796714Y-86831714D01*
X60796714Y-86722857D01*
X60833000Y-86650285D01*
X60905571Y-86614000D01*
X61304714Y-86614000D01*
X61232142Y-86251142D02*
X61268428Y-86214857D01*
X61304714Y-86251142D01*
X61268428Y-86287428D01*
X61232142Y-86251142D01*
X61304714Y-86251142D01*
X60833000Y-86251142D02*
X60869285Y-86214857D01*
X60905571Y-86251142D01*
X60869285Y-86287428D01*
X60833000Y-86251142D01*
X60905571Y-86251142D01*
X142929428Y-90569142D02*
X142929428Y-89988571D01*
X143219714Y-90278857D02*
X142639142Y-90278857D01*
X143219714Y-89589428D02*
X143219714Y-89444285D01*
X143183428Y-89371714D01*
X143147142Y-89335428D01*
X143038285Y-89262857D01*
X142893142Y-89226571D01*
X142602857Y-89226571D01*
X142530285Y-89262857D01*
X142494000Y-89299142D01*
X142457714Y-89371714D01*
X142457714Y-89516857D01*
X142494000Y-89589428D01*
X142530285Y-89625714D01*
X142602857Y-89662000D01*
X142784285Y-89662000D01*
X142856857Y-89625714D01*
X142893142Y-89589428D01*
X142929428Y-89516857D01*
X142929428Y-89371714D01*
X142893142Y-89299142D01*
X142856857Y-89262857D01*
X142784285Y-89226571D01*
X142929428Y-88900000D02*
X142929428Y-88319428D01*
X142711714Y-87630000D02*
X143219714Y-87630000D01*
X142421428Y-87811428D02*
X142965714Y-87992857D01*
X142965714Y-87521142D01*
X142530285Y-87267142D02*
X142494000Y-87230857D01*
X142457714Y-87158285D01*
X142457714Y-86976857D01*
X142494000Y-86904285D01*
X142530285Y-86868000D01*
X142602857Y-86831714D01*
X142675428Y-86831714D01*
X142784285Y-86868000D01*
X143219714Y-87303428D01*
X143219714Y-86831714D01*
X142457714Y-86614000D02*
X143219714Y-86360000D01*
X142457714Y-86106000D01*
X143219714Y-85852000D02*
X142457714Y-85852000D01*
X142457714Y-85670571D01*
X142494000Y-85561714D01*
X142566571Y-85489142D01*
X142639142Y-85452857D01*
X142784285Y-85416571D01*
X142893142Y-85416571D01*
X143038285Y-85452857D01*
X143110857Y-85489142D01*
X143183428Y-85561714D01*
X143219714Y-85670571D01*
X143219714Y-85852000D01*
X143147142Y-84654571D02*
X143183428Y-84690857D01*
X143219714Y-84799714D01*
X143219714Y-84872285D01*
X143183428Y-84981142D01*
X143110857Y-85053714D01*
X143038285Y-85090000D01*
X142893142Y-85126285D01*
X142784285Y-85126285D01*
X142639142Y-85090000D01*
X142566571Y-85053714D01*
X142494000Y-84981142D01*
X142457714Y-84872285D01*
X142457714Y-84799714D01*
X142494000Y-84690857D01*
X142530285Y-84654571D01*
X141260285Y-92492285D02*
X141224000Y-92456000D01*
X141187714Y-92383428D01*
X141187714Y-92202000D01*
X141224000Y-92129428D01*
X141260285Y-92093142D01*
X141332857Y-92056857D01*
X141405428Y-92056857D01*
X141514285Y-92093142D01*
X141949714Y-92528571D01*
X141949714Y-92056857D01*
X141877142Y-91730285D02*
X141913428Y-91694000D01*
X141949714Y-91730285D01*
X141913428Y-91766571D01*
X141877142Y-91730285D01*
X141949714Y-91730285D01*
X141187714Y-91004571D02*
X141187714Y-91367428D01*
X141550571Y-91403714D01*
X141514285Y-91367428D01*
X141478000Y-91294857D01*
X141478000Y-91113428D01*
X141514285Y-91040857D01*
X141550571Y-91004571D01*
X141623142Y-90968285D01*
X141804571Y-90968285D01*
X141877142Y-91004571D01*
X141913428Y-91040857D01*
X141949714Y-91113428D01*
X141949714Y-91294857D01*
X141913428Y-91367428D01*
X141877142Y-91403714D01*
X141949714Y-90714285D02*
X141441714Y-90315142D01*
X141441714Y-90714285D02*
X141949714Y-90315142D01*
X141187714Y-89662000D02*
X141187714Y-90024857D01*
X141550571Y-90061142D01*
X141514285Y-90024857D01*
X141478000Y-89952285D01*
X141478000Y-89770857D01*
X141514285Y-89698285D01*
X141550571Y-89662000D01*
X141623142Y-89625714D01*
X141804571Y-89625714D01*
X141877142Y-89662000D01*
X141913428Y-89698285D01*
X141949714Y-89770857D01*
X141949714Y-89952285D01*
X141913428Y-90024857D01*
X141877142Y-90061142D01*
X141877142Y-89299142D02*
X141913428Y-89262857D01*
X141949714Y-89299142D01*
X141913428Y-89335428D01*
X141877142Y-89299142D01*
X141949714Y-89299142D01*
X141187714Y-88573428D02*
X141187714Y-88936285D01*
X141550571Y-88972571D01*
X141514285Y-88936285D01*
X141478000Y-88863714D01*
X141478000Y-88682285D01*
X141514285Y-88609714D01*
X141550571Y-88573428D01*
X141623142Y-88537142D01*
X141804571Y-88537142D01*
X141877142Y-88573428D01*
X141913428Y-88609714D01*
X141949714Y-88682285D01*
X141949714Y-88863714D01*
X141913428Y-88936285D01*
X141877142Y-88972571D01*
X141877142Y-87194571D02*
X141913428Y-87230857D01*
X141949714Y-87339714D01*
X141949714Y-87412285D01*
X141913428Y-87521142D01*
X141840857Y-87593714D01*
X141768285Y-87630000D01*
X141623142Y-87666285D01*
X141514285Y-87666285D01*
X141369142Y-87630000D01*
X141296571Y-87593714D01*
X141224000Y-87521142D01*
X141187714Y-87412285D01*
X141187714Y-87339714D01*
X141224000Y-87230857D01*
X141260285Y-87194571D01*
X141913428Y-86577714D02*
X141949714Y-86650285D01*
X141949714Y-86795428D01*
X141913428Y-86868000D01*
X141840857Y-86904285D01*
X141550571Y-86904285D01*
X141478000Y-86868000D01*
X141441714Y-86795428D01*
X141441714Y-86650285D01*
X141478000Y-86577714D01*
X141550571Y-86541428D01*
X141623142Y-86541428D01*
X141695714Y-86904285D01*
X141441714Y-86214857D02*
X141949714Y-86214857D01*
X141514285Y-86214857D02*
X141478000Y-86178571D01*
X141441714Y-86106000D01*
X141441714Y-85997142D01*
X141478000Y-85924571D01*
X141550571Y-85888285D01*
X141949714Y-85888285D01*
X141441714Y-85634285D02*
X141441714Y-85344000D01*
X141187714Y-85525428D02*
X141840857Y-85525428D01*
X141913428Y-85489142D01*
X141949714Y-85416571D01*
X141949714Y-85344000D01*
X141913428Y-84799714D02*
X141949714Y-84872285D01*
X141949714Y-85017428D01*
X141913428Y-85090000D01*
X141840857Y-85126285D01*
X141550571Y-85126285D01*
X141478000Y-85090000D01*
X141441714Y-85017428D01*
X141441714Y-84872285D01*
X141478000Y-84799714D01*
X141550571Y-84763428D01*
X141623142Y-84763428D01*
X141695714Y-85126285D01*
X141949714Y-84436857D02*
X141441714Y-84436857D01*
X141586857Y-84436857D02*
X141514285Y-84400571D01*
X141478000Y-84364285D01*
X141441714Y-84291714D01*
X141441714Y-84219142D01*
X141659428Y-83384571D02*
X141659428Y-82804000D01*
X141949714Y-83094285D02*
X141369142Y-83094285D01*
D13*
X136573380Y-119156238D02*
X136718523Y-119204619D01*
X136960428Y-119204619D01*
X137057190Y-119156238D01*
X137105571Y-119107857D01*
X137153952Y-119011095D01*
X137153952Y-118914333D01*
X137105571Y-118817571D01*
X137057190Y-118769190D01*
X136960428Y-118720809D01*
X136766904Y-118672428D01*
X136670142Y-118624047D01*
X136621761Y-118575666D01*
X136573380Y-118478904D01*
X136573380Y-118382142D01*
X136621761Y-118285380D01*
X136670142Y-118237000D01*
X136766904Y-118188619D01*
X137008809Y-118188619D01*
X137153952Y-118237000D01*
X137976428Y-119156238D02*
X137879666Y-119204619D01*
X137686142Y-119204619D01*
X137589380Y-119156238D01*
X137541000Y-119059476D01*
X137541000Y-118672428D01*
X137589380Y-118575666D01*
X137686142Y-118527285D01*
X137879666Y-118527285D01*
X137976428Y-118575666D01*
X138024809Y-118672428D01*
X138024809Y-118769190D01*
X137541000Y-118865952D01*
X138460238Y-119204619D02*
X138460238Y-118527285D01*
X138460238Y-118720809D02*
X138508619Y-118624047D01*
X138557000Y-118575666D01*
X138653761Y-118527285D01*
X138750523Y-118527285D01*
X139089190Y-119204619D02*
X139089190Y-118527285D01*
X139089190Y-118188619D02*
X139040809Y-118237000D01*
X139089190Y-118285380D01*
X139137571Y-118237000D01*
X139089190Y-118188619D01*
X139089190Y-118285380D01*
X140008428Y-119204619D02*
X140008428Y-118672428D01*
X139960047Y-118575666D01*
X139863285Y-118527285D01*
X139669761Y-118527285D01*
X139573000Y-118575666D01*
X140008428Y-119156238D02*
X139911666Y-119204619D01*
X139669761Y-119204619D01*
X139573000Y-119156238D01*
X139524619Y-119059476D01*
X139524619Y-118962714D01*
X139573000Y-118865952D01*
X139669761Y-118817571D01*
X139911666Y-118817571D01*
X140008428Y-118769190D01*
X140637380Y-119204619D02*
X140540619Y-119156238D01*
X140492238Y-119059476D01*
X140492238Y-118188619D01*
X140927666Y-118188619D02*
X141556619Y-118188619D01*
X141217952Y-118575666D01*
X141363095Y-118575666D01*
X141459857Y-118624047D01*
X141508238Y-118672428D01*
X141556619Y-118769190D01*
X141556619Y-119011095D01*
X141508238Y-119107857D01*
X141459857Y-119156238D01*
X141363095Y-119204619D01*
X141072809Y-119204619D01*
X140976047Y-119156238D01*
X140927666Y-119107857D01*
X142651238Y-112346619D02*
X142699619Y-112201476D01*
X142699619Y-111959571D01*
X142651238Y-111862809D01*
X142602857Y-111814428D01*
X142506095Y-111766047D01*
X142409333Y-111766047D01*
X142312571Y-111814428D01*
X142264190Y-111862809D01*
X142215809Y-111959571D01*
X142167428Y-112153095D01*
X142119047Y-112249857D01*
X142070666Y-112298238D01*
X141973904Y-112346619D01*
X141877142Y-112346619D01*
X141780380Y-112298238D01*
X141732000Y-112249857D01*
X141683619Y-112153095D01*
X141683619Y-111911190D01*
X141732000Y-111766047D01*
X142651238Y-110943571D02*
X142699619Y-111040333D01*
X142699619Y-111233857D01*
X142651238Y-111330619D01*
X142554476Y-111379000D01*
X142167428Y-111379000D01*
X142070666Y-111330619D01*
X142022285Y-111233857D01*
X142022285Y-111040333D01*
X142070666Y-110943571D01*
X142167428Y-110895190D01*
X142264190Y-110895190D01*
X142360952Y-111379000D01*
X142699619Y-110459761D02*
X142022285Y-110459761D01*
X142215809Y-110459761D02*
X142119047Y-110411380D01*
X142070666Y-110363000D01*
X142022285Y-110266238D01*
X142022285Y-110169476D01*
X142699619Y-109830809D02*
X142022285Y-109830809D01*
X141683619Y-109830809D02*
X141732000Y-109879190D01*
X141780380Y-109830809D01*
X141732000Y-109782428D01*
X141683619Y-109830809D01*
X141780380Y-109830809D01*
X142699619Y-108911571D02*
X142167428Y-108911571D01*
X142070666Y-108959952D01*
X142022285Y-109056714D01*
X142022285Y-109250238D01*
X142070666Y-109347000D01*
X142651238Y-108911571D02*
X142699619Y-109008333D01*
X142699619Y-109250238D01*
X142651238Y-109347000D01*
X142554476Y-109395380D01*
X142457714Y-109395380D01*
X142360952Y-109347000D01*
X142312571Y-109250238D01*
X142312571Y-109008333D01*
X142264190Y-108911571D01*
X142699619Y-108282619D02*
X142651238Y-108379380D01*
X142554476Y-108427761D01*
X141683619Y-108427761D01*
X141780380Y-107943952D02*
X141732000Y-107895571D01*
X141683619Y-107798809D01*
X141683619Y-107556904D01*
X141732000Y-107460142D01*
X141780380Y-107411761D01*
X141877142Y-107363380D01*
X141973904Y-107363380D01*
X142119047Y-107411761D01*
X142699619Y-107992333D01*
X142699619Y-107363380D01*
X136573380Y-81056238D02*
X136718523Y-81104619D01*
X136960428Y-81104619D01*
X137057190Y-81056238D01*
X137105571Y-81007857D01*
X137153952Y-80911095D01*
X137153952Y-80814333D01*
X137105571Y-80717571D01*
X137057190Y-80669190D01*
X136960428Y-80620809D01*
X136766904Y-80572428D01*
X136670142Y-80524047D01*
X136621761Y-80475666D01*
X136573380Y-80378904D01*
X136573380Y-80282142D01*
X136621761Y-80185380D01*
X136670142Y-80137000D01*
X136766904Y-80088619D01*
X137008809Y-80088619D01*
X137153952Y-80137000D01*
X137976428Y-81056238D02*
X137879666Y-81104619D01*
X137686142Y-81104619D01*
X137589380Y-81056238D01*
X137541000Y-80959476D01*
X137541000Y-80572428D01*
X137589380Y-80475666D01*
X137686142Y-80427285D01*
X137879666Y-80427285D01*
X137976428Y-80475666D01*
X138024809Y-80572428D01*
X138024809Y-80669190D01*
X137541000Y-80765952D01*
X138460238Y-81104619D02*
X138460238Y-80427285D01*
X138460238Y-80620809D02*
X138508619Y-80524047D01*
X138557000Y-80475666D01*
X138653761Y-80427285D01*
X138750523Y-80427285D01*
X139089190Y-81104619D02*
X139089190Y-80427285D01*
X139089190Y-80088619D02*
X139040809Y-80137000D01*
X139089190Y-80185380D01*
X139137571Y-80137000D01*
X139089190Y-80088619D01*
X139089190Y-80185380D01*
X140008428Y-81104619D02*
X140008428Y-80572428D01*
X139960047Y-80475666D01*
X139863285Y-80427285D01*
X139669761Y-80427285D01*
X139573000Y-80475666D01*
X140008428Y-81056238D02*
X139911666Y-81104619D01*
X139669761Y-81104619D01*
X139573000Y-81056238D01*
X139524619Y-80959476D01*
X139524619Y-80862714D01*
X139573000Y-80765952D01*
X139669761Y-80717571D01*
X139911666Y-80717571D01*
X140008428Y-80669190D01*
X140637380Y-81104619D02*
X140540619Y-81056238D01*
X140492238Y-80959476D01*
X140492238Y-80088619D01*
X141556619Y-81104619D02*
X140976047Y-81104619D01*
X141266333Y-81104619D02*
X141266333Y-80088619D01*
X141169571Y-80233761D01*
X141072809Y-80330523D01*
X140976047Y-80378904D01*
X130422952Y-110562571D02*
X131197047Y-110562571D01*
X130422952Y-88972571D02*
X131197047Y-88972571D01*
X124072952Y-88972571D02*
X124847047Y-88972571D01*
X124460000Y-89359619D02*
X124460000Y-88585523D01*
X124072952Y-110562571D02*
X124847047Y-110562571D01*
X124460000Y-110949619D02*
X124460000Y-110175523D01*
X63578619Y-113223523D02*
X63578619Y-113707333D01*
X64062428Y-113755714D01*
X64014047Y-113707333D01*
X63965666Y-113610571D01*
X63965666Y-113368666D01*
X64014047Y-113271904D01*
X64062428Y-113223523D01*
X64159190Y-113175142D01*
X64401095Y-113175142D01*
X64497857Y-113223523D01*
X64546238Y-113271904D01*
X64594619Y-113368666D01*
X64594619Y-113610571D01*
X64546238Y-113707333D01*
X64497857Y-113755714D01*
X63578619Y-112884857D02*
X64594619Y-112546190D01*
X63578619Y-112207523D01*
X86855904Y-109425619D02*
X86855904Y-110151333D01*
X86807523Y-110296476D01*
X86710761Y-110393238D01*
X86565619Y-110441619D01*
X86468857Y-110441619D01*
X87775142Y-110441619D02*
X87775142Y-109909428D01*
X87726761Y-109812666D01*
X87630000Y-109764285D01*
X87436476Y-109764285D01*
X87339714Y-109812666D01*
X87775142Y-110393238D02*
X87678380Y-110441619D01*
X87436476Y-110441619D01*
X87339714Y-110393238D01*
X87291333Y-110296476D01*
X87291333Y-110199714D01*
X87339714Y-110102952D01*
X87436476Y-110054571D01*
X87678380Y-110054571D01*
X87775142Y-110006190D01*
X88258952Y-109764285D02*
X88258952Y-110441619D01*
X88258952Y-109861047D02*
X88307333Y-109812666D01*
X88404095Y-109764285D01*
X88549238Y-109764285D01*
X88646000Y-109812666D01*
X88694380Y-109909428D01*
X88694380Y-110441619D01*
X89565238Y-110393238D02*
X89468476Y-110441619D01*
X89274952Y-110441619D01*
X89178190Y-110393238D01*
X89129809Y-110296476D01*
X89129809Y-109909428D01*
X89178190Y-109812666D01*
X89274952Y-109764285D01*
X89468476Y-109764285D01*
X89565238Y-109812666D01*
X89613619Y-109909428D01*
X89613619Y-110006190D01*
X89129809Y-110102952D01*
X90194190Y-110441619D02*
X90097428Y-110393238D01*
X90049047Y-110296476D01*
X90049047Y-109425619D01*
X90581238Y-110441619D02*
X90581238Y-109764285D01*
X90581238Y-109425619D02*
X90532857Y-109474000D01*
X90581238Y-109522380D01*
X90629619Y-109474000D01*
X90581238Y-109425619D01*
X90581238Y-109522380D01*
X91500476Y-110441619D02*
X91500476Y-109909428D01*
X91452095Y-109812666D01*
X91355333Y-109764285D01*
X91161809Y-109764285D01*
X91065047Y-109812666D01*
X91500476Y-110393238D02*
X91403714Y-110441619D01*
X91161809Y-110441619D01*
X91065047Y-110393238D01*
X91016666Y-110296476D01*
X91016666Y-110199714D01*
X91065047Y-110102952D01*
X91161809Y-110054571D01*
X91403714Y-110054571D01*
X91500476Y-110006190D01*
X92758380Y-110441619D02*
X92758380Y-109425619D01*
X93097047Y-110151333D01*
X93435714Y-109425619D01*
X93435714Y-110441619D01*
X94064666Y-110441619D02*
X93967904Y-110393238D01*
X93919523Y-110344857D01*
X93871142Y-110248095D01*
X93871142Y-109957809D01*
X93919523Y-109861047D01*
X93967904Y-109812666D01*
X94064666Y-109764285D01*
X94209809Y-109764285D01*
X94306571Y-109812666D01*
X94354952Y-109861047D01*
X94403333Y-109957809D01*
X94403333Y-110248095D01*
X94354952Y-110344857D01*
X94306571Y-110393238D01*
X94209809Y-110441619D01*
X94064666Y-110441619D01*
X95274190Y-110441619D02*
X95274190Y-109425619D01*
X95274190Y-110393238D02*
X95177428Y-110441619D01*
X94983904Y-110441619D01*
X94887142Y-110393238D01*
X94838761Y-110344857D01*
X94790380Y-110248095D01*
X94790380Y-109957809D01*
X94838761Y-109861047D01*
X94887142Y-109812666D01*
X94983904Y-109764285D01*
X95177428Y-109764285D01*
X95274190Y-109812666D01*
X96193428Y-109764285D02*
X96193428Y-110441619D01*
X95758000Y-109764285D02*
X95758000Y-110296476D01*
X95806380Y-110393238D01*
X95903142Y-110441619D01*
X96048285Y-110441619D01*
X96145047Y-110393238D01*
X96193428Y-110344857D01*
X96822380Y-110441619D02*
X96725619Y-110393238D01*
X96677238Y-110296476D01*
X96677238Y-109425619D01*
X97644857Y-110441619D02*
X97644857Y-109909428D01*
X97596476Y-109812666D01*
X97499714Y-109764285D01*
X97306190Y-109764285D01*
X97209428Y-109812666D01*
X97644857Y-110393238D02*
X97548095Y-110441619D01*
X97306190Y-110441619D01*
X97209428Y-110393238D01*
X97161047Y-110296476D01*
X97161047Y-110199714D01*
X97209428Y-110102952D01*
X97306190Y-110054571D01*
X97548095Y-110054571D01*
X97644857Y-110006190D01*
X98128666Y-110441619D02*
X98128666Y-109764285D01*
X98128666Y-109957809D02*
X98177047Y-109861047D01*
X98225428Y-109812666D01*
X98322190Y-109764285D01*
X98418952Y-109764285D01*
X99531714Y-110441619D02*
X99531714Y-109425619D01*
X99773619Y-109425619D01*
X99918761Y-109474000D01*
X100015523Y-109570761D01*
X100063904Y-109667523D01*
X100112285Y-109861047D01*
X100112285Y-110006190D01*
X100063904Y-110199714D01*
X100015523Y-110296476D01*
X99918761Y-110393238D01*
X99773619Y-110441619D01*
X99531714Y-110441619D01*
X100934761Y-110393238D02*
X100838000Y-110441619D01*
X100644476Y-110441619D01*
X100547714Y-110393238D01*
X100499333Y-110296476D01*
X100499333Y-109909428D01*
X100547714Y-109812666D01*
X100644476Y-109764285D01*
X100838000Y-109764285D01*
X100934761Y-109812666D01*
X100983142Y-109909428D01*
X100983142Y-110006190D01*
X100499333Y-110102952D01*
X101321809Y-109764285D02*
X101563714Y-110441619D01*
X101805619Y-109764285D01*
X102192666Y-110441619D02*
X102192666Y-109764285D01*
X102192666Y-109425619D02*
X102144285Y-109474000D01*
X102192666Y-109522380D01*
X102241047Y-109474000D01*
X102192666Y-109425619D01*
X102192666Y-109522380D01*
X103111904Y-110393238D02*
X103015142Y-110441619D01*
X102821619Y-110441619D01*
X102724857Y-110393238D01*
X102676476Y-110344857D01*
X102628095Y-110248095D01*
X102628095Y-109957809D01*
X102676476Y-109861047D01*
X102724857Y-109812666D01*
X102821619Y-109764285D01*
X103015142Y-109764285D01*
X103111904Y-109812666D01*
X103934380Y-110393238D02*
X103837619Y-110441619D01*
X103644095Y-110441619D01*
X103547333Y-110393238D01*
X103498952Y-110296476D01*
X103498952Y-109909428D01*
X103547333Y-109812666D01*
X103644095Y-109764285D01*
X103837619Y-109764285D01*
X103934380Y-109812666D01*
X103982761Y-109909428D01*
X103982761Y-110006190D01*
X103498952Y-110102952D01*
X86807523Y-112219619D02*
X86807523Y-111542285D01*
X86807523Y-111639047D02*
X86855904Y-111590666D01*
X86952666Y-111542285D01*
X87097809Y-111542285D01*
X87194571Y-111590666D01*
X87242952Y-111687428D01*
X87242952Y-112219619D01*
X87242952Y-111687428D02*
X87291333Y-111590666D01*
X87388095Y-111542285D01*
X87533238Y-111542285D01*
X87630000Y-111590666D01*
X87678380Y-111687428D01*
X87678380Y-112219619D01*
X88307333Y-112219619D02*
X88210571Y-112171238D01*
X88162190Y-112122857D01*
X88113809Y-112026095D01*
X88113809Y-111735809D01*
X88162190Y-111639047D01*
X88210571Y-111590666D01*
X88307333Y-111542285D01*
X88452476Y-111542285D01*
X88549238Y-111590666D01*
X88597619Y-111639047D01*
X88646000Y-111735809D01*
X88646000Y-112026095D01*
X88597619Y-112122857D01*
X88549238Y-112171238D01*
X88452476Y-112219619D01*
X88307333Y-112219619D01*
X89516857Y-112219619D02*
X89516857Y-111203619D01*
X89516857Y-112171238D02*
X89420095Y-112219619D01*
X89226571Y-112219619D01*
X89129809Y-112171238D01*
X89081428Y-112122857D01*
X89033047Y-112026095D01*
X89033047Y-111735809D01*
X89081428Y-111639047D01*
X89129809Y-111590666D01*
X89226571Y-111542285D01*
X89420095Y-111542285D01*
X89516857Y-111590666D01*
X90436095Y-111542285D02*
X90436095Y-112219619D01*
X90000666Y-111542285D02*
X90000666Y-112074476D01*
X90049047Y-112171238D01*
X90145809Y-112219619D01*
X90290952Y-112219619D01*
X90387714Y-112171238D01*
X90436095Y-112122857D01*
X91065047Y-112219619D02*
X90968285Y-112171238D01*
X90919904Y-112074476D01*
X90919904Y-111203619D01*
X91887523Y-112219619D02*
X91887523Y-111687428D01*
X91839142Y-111590666D01*
X91742380Y-111542285D01*
X91548857Y-111542285D01*
X91452095Y-111590666D01*
X91887523Y-112171238D02*
X91790761Y-112219619D01*
X91548857Y-112219619D01*
X91452095Y-112171238D01*
X91403714Y-112074476D01*
X91403714Y-111977714D01*
X91452095Y-111880952D01*
X91548857Y-111832571D01*
X91790761Y-111832571D01*
X91887523Y-111784190D01*
X92371333Y-112219619D02*
X92371333Y-111542285D01*
X92371333Y-111735809D02*
X92419714Y-111639047D01*
X92468095Y-111590666D01*
X92564857Y-111542285D01*
X92661619Y-111542285D01*
X92758380Y-112316380D02*
X93532476Y-112316380D01*
X94209809Y-112219619D02*
X94209809Y-111203619D01*
X94209809Y-112171238D02*
X94113047Y-112219619D01*
X93919523Y-112219619D01*
X93822761Y-112171238D01*
X93774380Y-112122857D01*
X93726000Y-112026095D01*
X93726000Y-111735809D01*
X93774380Y-111639047D01*
X93822761Y-111590666D01*
X93919523Y-111542285D01*
X94113047Y-111542285D01*
X94209809Y-111590666D01*
X95080666Y-112171238D02*
X94983904Y-112219619D01*
X94790380Y-112219619D01*
X94693619Y-112171238D01*
X94645238Y-112074476D01*
X94645238Y-111687428D01*
X94693619Y-111590666D01*
X94790380Y-111542285D01*
X94983904Y-111542285D01*
X95080666Y-111590666D01*
X95129047Y-111687428D01*
X95129047Y-111784190D01*
X94645238Y-111880952D01*
X95467714Y-111542285D02*
X95709619Y-112219619D01*
X95951523Y-111542285D01*
X96338571Y-112219619D02*
X96338571Y-111542285D01*
X96338571Y-111203619D02*
X96290190Y-111252000D01*
X96338571Y-111300380D01*
X96386952Y-111252000D01*
X96338571Y-111203619D01*
X96338571Y-111300380D01*
X97257809Y-112171238D02*
X97161047Y-112219619D01*
X96967523Y-112219619D01*
X96870761Y-112171238D01*
X96822380Y-112122857D01*
X96774000Y-112026095D01*
X96774000Y-111735809D01*
X96822380Y-111639047D01*
X96870761Y-111590666D01*
X96967523Y-111542285D01*
X97161047Y-111542285D01*
X97257809Y-111590666D01*
X98080285Y-112171238D02*
X97983523Y-112219619D01*
X97790000Y-112219619D01*
X97693238Y-112171238D01*
X97644857Y-112074476D01*
X97644857Y-111687428D01*
X97693238Y-111590666D01*
X97790000Y-111542285D01*
X97983523Y-111542285D01*
X98080285Y-111590666D01*
X98128666Y-111687428D01*
X98128666Y-111784190D01*
X97644857Y-111880952D01*
X98322190Y-112316380D02*
X99096285Y-112316380D01*
X99193047Y-111542285D02*
X99580095Y-111542285D01*
X99338190Y-111203619D02*
X99338190Y-112074476D01*
X99386571Y-112171238D01*
X99483333Y-112219619D01*
X99580095Y-112219619D01*
X100305809Y-112171238D02*
X100209047Y-112219619D01*
X100015523Y-112219619D01*
X99918761Y-112171238D01*
X99870380Y-112074476D01*
X99870380Y-111687428D01*
X99918761Y-111590666D01*
X100015523Y-111542285D01*
X100209047Y-111542285D01*
X100305809Y-111590666D01*
X100354190Y-111687428D01*
X100354190Y-111784190D01*
X99870380Y-111880952D01*
X101176666Y-112171238D02*
X101079904Y-112219619D01*
X100886380Y-112219619D01*
X100789619Y-112171238D01*
X100741238Y-112074476D01*
X100741238Y-111687428D01*
X100789619Y-111590666D01*
X100886380Y-111542285D01*
X101079904Y-111542285D01*
X101176666Y-111590666D01*
X101225047Y-111687428D01*
X101225047Y-111784190D01*
X100741238Y-111880952D01*
X101660476Y-111542285D02*
X101660476Y-112219619D01*
X101660476Y-111639047D02*
X101708857Y-111590666D01*
X101805619Y-111542285D01*
X101950761Y-111542285D01*
X102047523Y-111590666D01*
X102095904Y-111687428D01*
X102095904Y-112219619D01*
X102531333Y-112171238D02*
X102628095Y-112219619D01*
X102821619Y-112219619D01*
X102918380Y-112171238D01*
X102966761Y-112074476D01*
X102966761Y-112026095D01*
X102918380Y-111929333D01*
X102821619Y-111880952D01*
X102676476Y-111880952D01*
X102579714Y-111832571D01*
X102531333Y-111735809D01*
X102531333Y-111687428D01*
X102579714Y-111590666D01*
X102676476Y-111542285D01*
X102821619Y-111542285D01*
X102918380Y-111590666D01*
X103305428Y-111542285D02*
X103547333Y-112219619D01*
X103789238Y-111542285D02*
X103547333Y-112219619D01*
X103450571Y-112461523D01*
X103402190Y-112509904D01*
X103305428Y-112558285D01*
X89129809Y-112981619D02*
X89226571Y-112981619D01*
X89323333Y-113030000D01*
X89371714Y-113078380D01*
X89420095Y-113175142D01*
X89468476Y-113368666D01*
X89468476Y-113610571D01*
X89420095Y-113804095D01*
X89371714Y-113900857D01*
X89323333Y-113949238D01*
X89226571Y-113997619D01*
X89129809Y-113997619D01*
X89033047Y-113949238D01*
X88984666Y-113900857D01*
X88936285Y-113804095D01*
X88887904Y-113610571D01*
X88887904Y-113368666D01*
X88936285Y-113175142D01*
X88984666Y-113078380D01*
X89033047Y-113030000D01*
X89129809Y-112981619D01*
X90049047Y-113417047D02*
X89952285Y-113368666D01*
X89903904Y-113320285D01*
X89855523Y-113223523D01*
X89855523Y-113175142D01*
X89903904Y-113078380D01*
X89952285Y-113030000D01*
X90049047Y-112981619D01*
X90242571Y-112981619D01*
X90339333Y-113030000D01*
X90387714Y-113078380D01*
X90436095Y-113175142D01*
X90436095Y-113223523D01*
X90387714Y-113320285D01*
X90339333Y-113368666D01*
X90242571Y-113417047D01*
X90049047Y-113417047D01*
X89952285Y-113465428D01*
X89903904Y-113513809D01*
X89855523Y-113610571D01*
X89855523Y-113804095D01*
X89903904Y-113900857D01*
X89952285Y-113949238D01*
X90049047Y-113997619D01*
X90242571Y-113997619D01*
X90339333Y-113949238D01*
X90387714Y-113900857D01*
X90436095Y-113804095D01*
X90436095Y-113610571D01*
X90387714Y-113513809D01*
X90339333Y-113465428D01*
X90242571Y-113417047D01*
X91597238Y-112933238D02*
X90726380Y-114239523D01*
X91887523Y-113078380D02*
X91935904Y-113030000D01*
X92032666Y-112981619D01*
X92274571Y-112981619D01*
X92371333Y-113030000D01*
X92419714Y-113078380D01*
X92468095Y-113175142D01*
X92468095Y-113271904D01*
X92419714Y-113417047D01*
X91839142Y-113997619D01*
X92468095Y-113997619D01*
X93097047Y-112981619D02*
X93193809Y-112981619D01*
X93290571Y-113030000D01*
X93338952Y-113078380D01*
X93387333Y-113175142D01*
X93435714Y-113368666D01*
X93435714Y-113610571D01*
X93387333Y-113804095D01*
X93338952Y-113900857D01*
X93290571Y-113949238D01*
X93193809Y-113997619D01*
X93097047Y-113997619D01*
X93000285Y-113949238D01*
X92951904Y-113900857D01*
X92903523Y-113804095D01*
X92855142Y-113610571D01*
X92855142Y-113368666D01*
X92903523Y-113175142D01*
X92951904Y-113078380D01*
X93000285Y-113030000D01*
X93097047Y-112981619D01*
X94403333Y-113997619D02*
X93822761Y-113997619D01*
X94113047Y-113997619D02*
X94113047Y-112981619D01*
X94016285Y-113126761D01*
X93919523Y-113223523D01*
X93822761Y-113271904D01*
X95274190Y-112981619D02*
X95080666Y-112981619D01*
X94983904Y-113030000D01*
X94935523Y-113078380D01*
X94838761Y-113223523D01*
X94790380Y-113417047D01*
X94790380Y-113804095D01*
X94838761Y-113900857D01*
X94887142Y-113949238D01*
X94983904Y-113997619D01*
X95177428Y-113997619D01*
X95274190Y-113949238D01*
X95322571Y-113900857D01*
X95370952Y-113804095D01*
X95370952Y-113562190D01*
X95322571Y-113465428D01*
X95274190Y-113417047D01*
X95177428Y-113368666D01*
X94983904Y-113368666D01*
X94887142Y-113417047D01*
X94838761Y-113465428D01*
X94790380Y-113562190D01*
X96483714Y-113320285D02*
X96725619Y-113997619D01*
X96967523Y-113320285D01*
X97741619Y-113949238D02*
X97644857Y-113997619D01*
X97451333Y-113997619D01*
X97354571Y-113949238D01*
X97306190Y-113852476D01*
X97306190Y-113465428D01*
X97354571Y-113368666D01*
X97451333Y-113320285D01*
X97644857Y-113320285D01*
X97741619Y-113368666D01*
X97790000Y-113465428D01*
X97790000Y-113562190D01*
X97306190Y-113658952D01*
X98225428Y-113997619D02*
X98225428Y-113320285D01*
X98225428Y-113513809D02*
X98273809Y-113417047D01*
X98322190Y-113368666D01*
X98418952Y-113320285D01*
X98515714Y-113320285D01*
X100160666Y-113997619D02*
X99580095Y-113997619D01*
X99870380Y-113997619D02*
X99870380Y-112981619D01*
X99773619Y-113126761D01*
X99676857Y-113223523D01*
X99580095Y-113271904D01*
X100596095Y-113900857D02*
X100644476Y-113949238D01*
X100596095Y-113997619D01*
X100547714Y-113949238D01*
X100596095Y-113900857D01*
X100596095Y-113997619D01*
X101612095Y-113997619D02*
X101031523Y-113997619D01*
X101321809Y-113997619D02*
X101321809Y-112981619D01*
X101225047Y-113126761D01*
X101128285Y-113223523D01*
X101031523Y-113271904D01*
D11*
X59690000Y-79375000D02*
X59690000Y-120015000D01*
D14*
X144780000Y-93345000D02*
X144780000Y-106045000D01*
X144780000Y-106045000D02*
X130810000Y-106045000D01*
X144780000Y-93345000D02*
X130810000Y-93345000D01*
X130810000Y-93345000D02*
X130810000Y-106045000D01*
X65405000Y-118745000D02*
X73660000Y-118745000D01*
X73660000Y-118745000D02*
X73660000Y-107315000D01*
X73660000Y-107315000D02*
X65405000Y-107315000D01*
X65405000Y-107315000D02*
X65405000Y-118745000D01*
X69850000Y-97155000D02*
X69088000Y-96393000D01*
X71120000Y-100965000D02*
X69596000Y-101981000D01*
X57785000Y-106045000D02*
X57150000Y-106045000D01*
X57150000Y-106045000D02*
X57150000Y-93345000D01*
X57150000Y-93345000D02*
X57785000Y-93345000D01*
X57785000Y-107315000D02*
X73660000Y-107315000D01*
X73660000Y-107315000D02*
X73660000Y-92075000D01*
X73660000Y-92075000D02*
X57785000Y-92075000D01*
X57785000Y-92075000D02*
X57785000Y-107315000D01*
X71755000Y-95377000D02*
X67945000Y-99187000D01*
X71120000Y-99695000D02*
X71120000Y-102235000D01*
X70612000Y-85725000D02*
X69596000Y-86487000D01*
X71882000Y-85725000D02*
X70612000Y-85725000D01*
X67818000Y-85725000D02*
X69088000Y-85725000D01*
X71882000Y-88265000D02*
X71882000Y-83185000D01*
X67818000Y-88265000D02*
X67818000Y-83185000D01*
X66548000Y-89281000D02*
X73152000Y-89281000D01*
X73152000Y-89281000D02*
X73152000Y-82169000D01*
X73152000Y-82169000D02*
X66548000Y-82169000D01*
X66548000Y-82169000D02*
X66548000Y-89281000D01*
X122555000Y-73660000D02*
X132715000Y-73660000D01*
X132715000Y-73660000D02*
X132715000Y-87630000D01*
X122555000Y-73660000D02*
X122555000Y-87630000D01*
X122555000Y-87630000D02*
X132715000Y-87630000D01*
X132715000Y-125730000D02*
X122555000Y-125730000D01*
X122555000Y-125730000D02*
X122555000Y-111760000D01*
X132715000Y-125730000D02*
X132715000Y-111760000D01*
X132715000Y-111760000D02*
X122555000Y-111760000D01*
D11*
X115810000Y-105470000D02*
X120410000Y-105470000D01*
X120410000Y-105470000D02*
X120410000Y-112970000D01*
X120410000Y-112970000D02*
X115810000Y-112970000D01*
X115810000Y-112970000D02*
X115810000Y-105470000D01*
D15*
X87503000Y-98298000D02*
X85979000Y-98298000D01*
X85979000Y-98298000D02*
X85979000Y-101092000D01*
X85979000Y-101092000D02*
X87503000Y-101092000D01*
X89027000Y-101092000D02*
X90551000Y-101092000D01*
X90551000Y-101092000D02*
X90551000Y-98298000D01*
X90551000Y-98298000D02*
X89027000Y-98298000D01*
D16*
X79030000Y-97745000D02*
X79030000Y-98145000D01*
X79030000Y-101645000D02*
X79030000Y-101245000D01*
X83530000Y-101645000D02*
X83530000Y-101245000D01*
X83530000Y-97745000D02*
X83530000Y-98145000D01*
X79930000Y-101645000D02*
X79930000Y-101245000D01*
X79930000Y-101245000D02*
X80080000Y-101245000D01*
X80080000Y-101245000D02*
X80080000Y-101645000D01*
X79930000Y-97745000D02*
X79930000Y-98145000D01*
X79930000Y-98145000D02*
X80080000Y-98145000D01*
X80080000Y-98145000D02*
X80080000Y-97745000D01*
X79030000Y-97745000D02*
X83530000Y-97745000D01*
X83530000Y-101645000D02*
X79030000Y-101645000D01*
D11*
X64770000Y-81915000D02*
G75*
G03X64770000Y-81915000I-2540000J0D01*
G01*
X64770000Y-117475000D02*
G75*
G03X64770000Y-117475000I-2540000J0D01*
G01*
X120650000Y-99695000D02*
G75*
G03X120650000Y-99695000I-2540000J0D01*
G01*
D14*
X74930000Y-116205000D02*
X74930000Y-118745000D01*
X74930000Y-118745000D02*
X115570000Y-118745000D01*
X115570000Y-118745000D02*
X115570000Y-116205000D01*
X115570000Y-116205000D02*
X74930000Y-116205000D01*
X74930000Y-80645000D02*
X74930000Y-83185000D01*
X74930000Y-83185000D02*
X115570000Y-83185000D01*
X115570000Y-83185000D02*
X115570000Y-80645000D01*
X115570000Y-80645000D02*
X74930000Y-80645000D01*
D13*
X129999619Y-94729904D02*
X128983619Y-94729904D01*
X128983619Y-94342857D01*
X129032000Y-94246095D01*
X129080380Y-94197714D01*
X129177142Y-94149333D01*
X129322285Y-94149333D01*
X129419047Y-94197714D01*
X129467428Y-94246095D01*
X129515809Y-94342857D01*
X129515809Y-94729904D01*
X128983619Y-93810666D02*
X128983619Y-93181714D01*
X129370666Y-93520380D01*
X129370666Y-93375238D01*
X129419047Y-93278476D01*
X129467428Y-93230095D01*
X129564190Y-93181714D01*
X129806095Y-93181714D01*
X129902857Y-93230095D01*
X129951238Y-93278476D01*
X129999619Y-93375238D01*
X129999619Y-93665523D01*
X129951238Y-93762285D01*
X129902857Y-93810666D01*
X75389619Y-114166952D02*
X74905809Y-114505619D01*
X75389619Y-114747523D02*
X74373619Y-114747523D01*
X74373619Y-114360476D01*
X74422000Y-114263714D01*
X74470380Y-114215333D01*
X74567142Y-114166952D01*
X74712285Y-114166952D01*
X74809047Y-114215333D01*
X74857428Y-114263714D01*
X74905809Y-114360476D01*
X74905809Y-114747523D01*
X74857428Y-113731523D02*
X74857428Y-113392857D01*
X75389619Y-113247714D02*
X75389619Y-113731523D01*
X74373619Y-113731523D01*
X74373619Y-113247714D01*
X74422000Y-112280095D02*
X74373619Y-112376857D01*
X74373619Y-112522000D01*
X74422000Y-112667142D01*
X74518761Y-112763904D01*
X74615523Y-112812285D01*
X74809047Y-112860666D01*
X74954190Y-112860666D01*
X75147714Y-112812285D01*
X75244476Y-112763904D01*
X75341238Y-112667142D01*
X75389619Y-112522000D01*
X75389619Y-112425238D01*
X75341238Y-112280095D01*
X75292857Y-112231714D01*
X74954190Y-112231714D01*
X74954190Y-112425238D01*
X75389619Y-111264095D02*
X75389619Y-111844666D01*
X75389619Y-111554380D02*
X74373619Y-111554380D01*
X74518761Y-111651142D01*
X74615523Y-111747904D01*
X74663904Y-111844666D01*
X75389619Y-100444904D02*
X74373619Y-100444904D01*
X74373619Y-100057857D01*
X74422000Y-99961095D01*
X74470380Y-99912714D01*
X74567142Y-99864333D01*
X74712285Y-99864333D01*
X74809047Y-99912714D01*
X74857428Y-99961095D01*
X74905809Y-100057857D01*
X74905809Y-100444904D01*
X74373619Y-98945095D02*
X74373619Y-99428904D01*
X74857428Y-99477285D01*
X74809047Y-99428904D01*
X74760666Y-99332142D01*
X74760666Y-99090238D01*
X74809047Y-98993476D01*
X74857428Y-98945095D01*
X74954190Y-98896714D01*
X75196095Y-98896714D01*
X75292857Y-98945095D01*
X75341238Y-98993476D01*
X75389619Y-99090238D01*
X75389619Y-99332142D01*
X75341238Y-99428904D01*
X75292857Y-99477285D01*
D12*
X62175571Y-114554000D02*
X62211857Y-114445142D01*
X62248142Y-114408857D01*
X62320714Y-114372571D01*
X62429571Y-114372571D01*
X62502142Y-114408857D01*
X62538428Y-114445142D01*
X62574714Y-114517714D01*
X62574714Y-114808000D01*
X61812714Y-114808000D01*
X61812714Y-114554000D01*
X61849000Y-114481428D01*
X61885285Y-114445142D01*
X61957857Y-114408857D01*
X62030428Y-114408857D01*
X62103000Y-114445142D01*
X62139285Y-114481428D01*
X62175571Y-114554000D01*
X62175571Y-114808000D01*
X62574714Y-114046000D02*
X61812714Y-114046000D01*
X62574714Y-113610571D01*
X61812714Y-113610571D01*
X62502142Y-112812285D02*
X62538428Y-112848571D01*
X62574714Y-112957428D01*
X62574714Y-113030000D01*
X62538428Y-113138857D01*
X62465857Y-113211428D01*
X62393285Y-113247714D01*
X62248142Y-113284000D01*
X62139285Y-113284000D01*
X61994142Y-113247714D01*
X61921571Y-113211428D01*
X61849000Y-113138857D01*
X61812714Y-113030000D01*
X61812714Y-112957428D01*
X61849000Y-112848571D01*
X61885285Y-112812285D01*
X62175571Y-111651142D02*
X62211857Y-111542285D01*
X62248142Y-111506000D01*
X62320714Y-111469714D01*
X62429571Y-111469714D01*
X62502142Y-111506000D01*
X62538428Y-111542285D01*
X62574714Y-111614857D01*
X62574714Y-111905142D01*
X61812714Y-111905142D01*
X61812714Y-111651142D01*
X61849000Y-111578571D01*
X61885285Y-111542285D01*
X61957857Y-111506000D01*
X62030428Y-111506000D01*
X62103000Y-111542285D01*
X62139285Y-111578571D01*
X62175571Y-111651142D01*
X62175571Y-111905142D01*
X62865000Y-110344857D02*
X62828714Y-110381142D01*
X62719857Y-110453714D01*
X62647285Y-110490000D01*
X62538428Y-110526285D01*
X62357000Y-110562571D01*
X62211857Y-110562571D01*
X62030428Y-110526285D01*
X61921571Y-110490000D01*
X61849000Y-110453714D01*
X61740142Y-110381142D01*
X61703857Y-110344857D01*
X61812714Y-110163428D02*
X61812714Y-109728000D01*
X62574714Y-109945714D02*
X61812714Y-109945714D01*
X62574714Y-109038571D02*
X62211857Y-109292571D01*
X62574714Y-109474000D02*
X61812714Y-109474000D01*
X61812714Y-109183714D01*
X61849000Y-109111142D01*
X61885285Y-109074857D01*
X61957857Y-109038571D01*
X62066714Y-109038571D01*
X62139285Y-109074857D01*
X62175571Y-109111142D01*
X62211857Y-109183714D01*
X62211857Y-109474000D01*
X62574714Y-108712000D02*
X61812714Y-108712000D01*
X61849000Y-107950000D02*
X61812714Y-108022571D01*
X61812714Y-108131428D01*
X61849000Y-108240285D01*
X61921571Y-108312857D01*
X61994142Y-108349142D01*
X62139285Y-108385428D01*
X62248142Y-108385428D01*
X62393285Y-108349142D01*
X62465857Y-108312857D01*
X62538428Y-108240285D01*
X62574714Y-108131428D01*
X62574714Y-108058857D01*
X62538428Y-107950000D01*
X62502142Y-107913714D01*
X62248142Y-107913714D01*
X62248142Y-108058857D01*
X62865000Y-107659714D02*
X62828714Y-107623428D01*
X62719857Y-107550857D01*
X62647285Y-107514571D01*
X62538428Y-107478285D01*
X62357000Y-107442000D01*
X62211857Y-107442000D01*
X62030428Y-107478285D01*
X61921571Y-107514571D01*
X61849000Y-107550857D01*
X61740142Y-107623428D01*
X61703857Y-107659714D01*
X62175571Y-91349285D02*
X62211857Y-91240428D01*
X62248142Y-91204142D01*
X62320714Y-91167857D01*
X62429571Y-91167857D01*
X62502142Y-91204142D01*
X62538428Y-91240428D01*
X62574714Y-91313000D01*
X62574714Y-91603285D01*
X61812714Y-91603285D01*
X61812714Y-91349285D01*
X61849000Y-91276714D01*
X61885285Y-91240428D01*
X61957857Y-91204142D01*
X62030428Y-91204142D01*
X62103000Y-91240428D01*
X62139285Y-91276714D01*
X62175571Y-91349285D01*
X62175571Y-91603285D01*
X62574714Y-90841285D02*
X61812714Y-90841285D01*
X62574714Y-90405857D01*
X61812714Y-90405857D01*
X62502142Y-89607571D02*
X62538428Y-89643857D01*
X62574714Y-89752714D01*
X62574714Y-89825285D01*
X62538428Y-89934142D01*
X62465857Y-90006714D01*
X62393285Y-90043000D01*
X62248142Y-90079285D01*
X62139285Y-90079285D01*
X61994142Y-90043000D01*
X61921571Y-90006714D01*
X61849000Y-89934142D01*
X61812714Y-89825285D01*
X61812714Y-89752714D01*
X61849000Y-89643857D01*
X61885285Y-89607571D01*
X62357000Y-88736714D02*
X62357000Y-88373857D01*
X62574714Y-88809285D02*
X61812714Y-88555285D01*
X62574714Y-88301285D01*
X62865000Y-87249000D02*
X62828714Y-87285285D01*
X62719857Y-87357857D01*
X62647285Y-87394142D01*
X62538428Y-87430428D01*
X62357000Y-87466714D01*
X62211857Y-87466714D01*
X62030428Y-87430428D01*
X61921571Y-87394142D01*
X61849000Y-87357857D01*
X61740142Y-87285285D01*
X61703857Y-87249000D01*
X62574714Y-86958714D02*
X61812714Y-86958714D01*
X62502142Y-86160428D02*
X62538428Y-86196714D01*
X62574714Y-86305571D01*
X62574714Y-86378142D01*
X62538428Y-86487000D01*
X62465857Y-86559571D01*
X62393285Y-86595857D01*
X62248142Y-86632142D01*
X62139285Y-86632142D01*
X61994142Y-86595857D01*
X61921571Y-86559571D01*
X61849000Y-86487000D01*
X61812714Y-86378142D01*
X61812714Y-86305571D01*
X61849000Y-86196714D01*
X61885285Y-86160428D01*
X62574714Y-85833857D02*
X61812714Y-85833857D01*
X61812714Y-85543571D01*
X61849000Y-85471000D01*
X61885285Y-85434714D01*
X61957857Y-85398428D01*
X62066714Y-85398428D01*
X62139285Y-85434714D01*
X62175571Y-85471000D01*
X62211857Y-85543571D01*
X62211857Y-85833857D01*
X62865000Y-85144428D02*
X62828714Y-85108142D01*
X62719857Y-85035571D01*
X62647285Y-84999285D01*
X62538428Y-84963000D01*
X62357000Y-84926714D01*
X62211857Y-84926714D01*
X62030428Y-84963000D01*
X61921571Y-84999285D01*
X61849000Y-85035571D01*
X61740142Y-85108142D01*
X61703857Y-85144428D01*
D13*
X68761428Y-95558428D02*
X68809809Y-95413285D01*
X68858190Y-95364904D01*
X68954952Y-95316523D01*
X69100095Y-95316523D01*
X69196857Y-95364904D01*
X69245238Y-95413285D01*
X69293619Y-95510047D01*
X69293619Y-95897095D01*
X68277619Y-95897095D01*
X68277619Y-95558428D01*
X68326000Y-95461666D01*
X68374380Y-95413285D01*
X68471142Y-95364904D01*
X68567904Y-95364904D01*
X68664666Y-95413285D01*
X68713047Y-95461666D01*
X68761428Y-95558428D01*
X68761428Y-95897095D01*
X68023619Y-102525285D02*
X68023619Y-101944714D01*
X69039619Y-102235000D02*
X68023619Y-102235000D01*
X74706238Y-87079666D02*
X74754619Y-86934523D01*
X74754619Y-86692619D01*
X74706238Y-86595857D01*
X74657857Y-86547476D01*
X74561095Y-86499095D01*
X74464333Y-86499095D01*
X74367571Y-86547476D01*
X74319190Y-86595857D01*
X74270809Y-86692619D01*
X74222428Y-86886142D01*
X74174047Y-86982904D01*
X74125666Y-87031285D01*
X74028904Y-87079666D01*
X73932142Y-87079666D01*
X73835380Y-87031285D01*
X73787000Y-86982904D01*
X73738619Y-86886142D01*
X73738619Y-86644238D01*
X73787000Y-86499095D01*
X73738619Y-86160428D02*
X74754619Y-85918523D01*
X74028904Y-85725000D01*
X74754619Y-85531476D01*
X73738619Y-85289571D01*
X74754619Y-84370333D02*
X74754619Y-84950904D01*
X74754619Y-84660619D02*
X73738619Y-84660619D01*
X73883761Y-84757380D01*
X73980523Y-84854142D01*
X74028904Y-84950904D01*
X65864619Y-87539285D02*
X64848619Y-87539285D01*
X64848619Y-87152238D01*
X64897000Y-87055476D01*
X64945380Y-87007095D01*
X65042142Y-86958714D01*
X65187285Y-86958714D01*
X65284047Y-87007095D01*
X65332428Y-87055476D01*
X65380809Y-87152238D01*
X65380809Y-87539285D01*
X65864619Y-85942714D02*
X65380809Y-86281380D01*
X65864619Y-86523285D02*
X64848619Y-86523285D01*
X64848619Y-86136238D01*
X64897000Y-86039476D01*
X64945380Y-85991095D01*
X65042142Y-85942714D01*
X65187285Y-85942714D01*
X65284047Y-85991095D01*
X65332428Y-86039476D01*
X65380809Y-86136238D01*
X65380809Y-86523285D01*
X64848619Y-85313761D02*
X64848619Y-85120238D01*
X64897000Y-85023476D01*
X64993761Y-84926714D01*
X65187285Y-84878333D01*
X65525952Y-84878333D01*
X65719476Y-84926714D01*
X65816238Y-85023476D01*
X65864619Y-85120238D01*
X65864619Y-85313761D01*
X65816238Y-85410523D01*
X65719476Y-85507285D01*
X65525952Y-85555666D01*
X65187285Y-85555666D01*
X64993761Y-85507285D01*
X64897000Y-85410523D01*
X64848619Y-85313761D01*
X64897000Y-83910714D02*
X64848619Y-84007476D01*
X64848619Y-84152619D01*
X64897000Y-84297761D01*
X64993761Y-84394523D01*
X65090523Y-84442904D01*
X65284047Y-84491285D01*
X65429190Y-84491285D01*
X65622714Y-84442904D01*
X65719476Y-84394523D01*
X65816238Y-84297761D01*
X65864619Y-84152619D01*
X65864619Y-84055857D01*
X65816238Y-83910714D01*
X65767857Y-83862333D01*
X65429190Y-83862333D01*
X65429190Y-84055857D01*
X121805095Y-89359619D02*
X121805095Y-88343619D01*
X122192142Y-88343619D01*
X122288904Y-88392000D01*
X122337285Y-88440380D01*
X122385666Y-88537142D01*
X122385666Y-88682285D01*
X122337285Y-88779047D01*
X122288904Y-88827428D01*
X122192142Y-88875809D01*
X121805095Y-88875809D01*
X123256523Y-88343619D02*
X123063000Y-88343619D01*
X122966238Y-88392000D01*
X122917857Y-88440380D01*
X122821095Y-88585523D01*
X122772714Y-88779047D01*
X122772714Y-89166095D01*
X122821095Y-89262857D01*
X122869476Y-89311238D01*
X122966238Y-89359619D01*
X123159761Y-89359619D01*
X123256523Y-89311238D01*
X123304904Y-89262857D01*
X123353285Y-89166095D01*
X123353285Y-88924190D01*
X123304904Y-88827428D01*
X123256523Y-88779047D01*
X123159761Y-88730666D01*
X122966238Y-88730666D01*
X122869476Y-88779047D01*
X122821095Y-88827428D01*
X122772714Y-88924190D01*
X121805095Y-110949619D02*
X121805095Y-109933619D01*
X122192142Y-109933619D01*
X122288904Y-109982000D01*
X122337285Y-110030380D01*
X122385666Y-110127142D01*
X122385666Y-110272285D01*
X122337285Y-110369047D01*
X122288904Y-110417428D01*
X122192142Y-110465809D01*
X121805095Y-110465809D01*
X122724333Y-109933619D02*
X123401666Y-109933619D01*
X122966238Y-110949619D01*
X115394619Y-109969904D02*
X114378619Y-109969904D01*
X114378619Y-109728000D01*
X114427000Y-109582857D01*
X114523761Y-109486095D01*
X114620523Y-109437714D01*
X114814047Y-109389333D01*
X114959190Y-109389333D01*
X115152714Y-109437714D01*
X115249476Y-109486095D01*
X115346238Y-109582857D01*
X115394619Y-109728000D01*
X115394619Y-109969904D01*
X114717285Y-108518476D02*
X115394619Y-108518476D01*
X114330238Y-108760380D02*
X115055952Y-109002285D01*
X115055952Y-108373333D01*
X88095666Y-97771857D02*
X88047285Y-97820238D01*
X87902142Y-97868619D01*
X87805380Y-97868619D01*
X87660238Y-97820238D01*
X87563476Y-97723476D01*
X87515095Y-97626714D01*
X87466714Y-97433190D01*
X87466714Y-97288047D01*
X87515095Y-97094523D01*
X87563476Y-96997761D01*
X87660238Y-96901000D01*
X87805380Y-96852619D01*
X87902142Y-96852619D01*
X88047285Y-96901000D01*
X88095666Y-96949380D01*
X89014904Y-96852619D02*
X88531095Y-96852619D01*
X88482714Y-97336428D01*
X88531095Y-97288047D01*
X88627857Y-97239666D01*
X88869761Y-97239666D01*
X88966523Y-97288047D01*
X89014904Y-97336428D01*
X89063285Y-97433190D01*
X89063285Y-97675095D01*
X89014904Y-97771857D01*
X88966523Y-97820238D01*
X88869761Y-97868619D01*
X88627857Y-97868619D01*
X88531095Y-97820238D01*
X88482714Y-97771857D01*
X87176428Y-102440619D02*
X86595857Y-102440619D01*
X86886142Y-102440619D02*
X86886142Y-101424619D01*
X86789380Y-101569761D01*
X86692619Y-101666523D01*
X86595857Y-101714904D01*
X87805380Y-101424619D02*
X87902142Y-101424619D01*
X87998904Y-101473000D01*
X88047285Y-101521380D01*
X88095666Y-101618142D01*
X88144047Y-101811666D01*
X88144047Y-102053571D01*
X88095666Y-102247095D01*
X88047285Y-102343857D01*
X87998904Y-102392238D01*
X87902142Y-102440619D01*
X87805380Y-102440619D01*
X87708619Y-102392238D01*
X87660238Y-102343857D01*
X87611857Y-102247095D01*
X87563476Y-102053571D01*
X87563476Y-101811666D01*
X87611857Y-101618142D01*
X87660238Y-101521380D01*
X87708619Y-101473000D01*
X87805380Y-101424619D01*
X89014904Y-101763285D02*
X89014904Y-102440619D01*
X88579476Y-101763285D02*
X88579476Y-102295476D01*
X88627857Y-102392238D01*
X88724619Y-102440619D01*
X88869761Y-102440619D01*
X88966523Y-102392238D01*
X89014904Y-102343857D01*
X89837380Y-101908428D02*
X89498714Y-101908428D01*
X89498714Y-102440619D02*
X89498714Y-101424619D01*
X89982523Y-101424619D01*
X80530095Y-96979619D02*
X80530095Y-95963619D01*
X80772000Y-95963619D01*
X80917142Y-96012000D01*
X81013904Y-96108761D01*
X81062285Y-96205523D01*
X81110666Y-96399047D01*
X81110666Y-96544190D01*
X81062285Y-96737714D01*
X81013904Y-96834476D01*
X80917142Y-96931238D01*
X80772000Y-96979619D01*
X80530095Y-96979619D01*
X82078285Y-96979619D02*
X81497714Y-96979619D01*
X81788000Y-96979619D02*
X81788000Y-95963619D01*
X81691238Y-96108761D01*
X81594476Y-96205523D01*
X81497714Y-96253904D01*
D12*
X113719428Y-84110285D02*
X113755714Y-84074000D01*
X113828285Y-84037714D01*
X114009714Y-84037714D01*
X114082285Y-84074000D01*
X114118571Y-84110285D01*
X114154857Y-84182857D01*
X114154857Y-84255428D01*
X114118571Y-84364285D01*
X113683142Y-84799714D01*
X114154857Y-84799714D01*
X114590285Y-84364285D02*
X114517714Y-84328000D01*
X114481428Y-84291714D01*
X114445142Y-84219142D01*
X114445142Y-84182857D01*
X114481428Y-84110285D01*
X114517714Y-84074000D01*
X114590285Y-84037714D01*
X114735428Y-84037714D01*
X114808000Y-84074000D01*
X114844285Y-84110285D01*
X114880571Y-84182857D01*
X114880571Y-84219142D01*
X114844285Y-84291714D01*
X114808000Y-84328000D01*
X114735428Y-84364285D01*
X114590285Y-84364285D01*
X114517714Y-84400571D01*
X114481428Y-84436857D01*
X114445142Y-84509428D01*
X114445142Y-84654571D01*
X114481428Y-84727142D01*
X114517714Y-84763428D01*
X114590285Y-84799714D01*
X114735428Y-84799714D01*
X114808000Y-84763428D01*
X114844285Y-84727142D01*
X114880571Y-84654571D01*
X114880571Y-84509428D01*
X114844285Y-84436857D01*
X114808000Y-84400571D01*
X114735428Y-84364285D01*
X111614857Y-84799714D02*
X111179428Y-84799714D01*
X111397142Y-84799714D02*
X111397142Y-84037714D01*
X111324571Y-84146571D01*
X111252000Y-84219142D01*
X111179428Y-84255428D01*
X111905142Y-84110285D02*
X111941428Y-84074000D01*
X112014000Y-84037714D01*
X112195428Y-84037714D01*
X112268000Y-84074000D01*
X112304285Y-84110285D01*
X112340571Y-84182857D01*
X112340571Y-84255428D01*
X112304285Y-84364285D01*
X111868857Y-84799714D01*
X112340571Y-84799714D01*
X109074857Y-84799714D02*
X108639428Y-84799714D01*
X108857142Y-84799714D02*
X108857142Y-84037714D01*
X108784571Y-84146571D01*
X108712000Y-84219142D01*
X108639428Y-84255428D01*
X109800571Y-84799714D02*
X109365142Y-84799714D01*
X109582857Y-84799714D02*
X109582857Y-84037714D01*
X109510285Y-84146571D01*
X109437714Y-84219142D01*
X109365142Y-84255428D01*
X106534857Y-84799714D02*
X106099428Y-84799714D01*
X106317142Y-84799714D02*
X106317142Y-84037714D01*
X106244571Y-84146571D01*
X106172000Y-84219142D01*
X106099428Y-84255428D01*
X107006571Y-84037714D02*
X107079142Y-84037714D01*
X107151714Y-84074000D01*
X107188000Y-84110285D01*
X107224285Y-84182857D01*
X107260571Y-84328000D01*
X107260571Y-84509428D01*
X107224285Y-84654571D01*
X107188000Y-84727142D01*
X107151714Y-84763428D01*
X107079142Y-84799714D01*
X107006571Y-84799714D01*
X106934000Y-84763428D01*
X106897714Y-84727142D01*
X106861428Y-84654571D01*
X106825142Y-84509428D01*
X106825142Y-84328000D01*
X106861428Y-84182857D01*
X106897714Y-84110285D01*
X106934000Y-84074000D01*
X107006571Y-84037714D01*
X103994857Y-84799714D02*
X104140000Y-84799714D01*
X104212571Y-84763428D01*
X104248857Y-84727142D01*
X104321428Y-84618285D01*
X104357714Y-84473142D01*
X104357714Y-84182857D01*
X104321428Y-84110285D01*
X104285142Y-84074000D01*
X104212571Y-84037714D01*
X104067428Y-84037714D01*
X103994857Y-84074000D01*
X103958571Y-84110285D01*
X103922285Y-84182857D01*
X103922285Y-84364285D01*
X103958571Y-84436857D01*
X103994857Y-84473142D01*
X104067428Y-84509428D01*
X104212571Y-84509428D01*
X104285142Y-84473142D01*
X104321428Y-84436857D01*
X104357714Y-84364285D01*
X101019428Y-84110285D02*
X101055714Y-84074000D01*
X101128285Y-84037714D01*
X101309714Y-84037714D01*
X101382285Y-84074000D01*
X101418571Y-84110285D01*
X101454857Y-84182857D01*
X101454857Y-84255428D01*
X101418571Y-84364285D01*
X100983142Y-84799714D01*
X101454857Y-84799714D01*
X101817714Y-84799714D02*
X101962857Y-84799714D01*
X102035428Y-84763428D01*
X102071714Y-84727142D01*
X102144285Y-84618285D01*
X102180571Y-84473142D01*
X102180571Y-84182857D01*
X102144285Y-84110285D01*
X102108000Y-84074000D01*
X102035428Y-84037714D01*
X101890285Y-84037714D01*
X101817714Y-84074000D01*
X101781428Y-84110285D01*
X101745142Y-84182857D01*
X101745142Y-84364285D01*
X101781428Y-84436857D01*
X101817714Y-84473142D01*
X101890285Y-84509428D01*
X102035428Y-84509428D01*
X102108000Y-84473142D01*
X102144285Y-84436857D01*
X102180571Y-84364285D01*
X98443142Y-84037714D02*
X98914857Y-84037714D01*
X98660857Y-84328000D01*
X98769714Y-84328000D01*
X98842285Y-84364285D01*
X98878571Y-84400571D01*
X98914857Y-84473142D01*
X98914857Y-84654571D01*
X98878571Y-84727142D01*
X98842285Y-84763428D01*
X98769714Y-84799714D01*
X98552000Y-84799714D01*
X98479428Y-84763428D01*
X98443142Y-84727142D01*
X99386571Y-84037714D02*
X99459142Y-84037714D01*
X99531714Y-84074000D01*
X99568000Y-84110285D01*
X99604285Y-84182857D01*
X99640571Y-84328000D01*
X99640571Y-84509428D01*
X99604285Y-84654571D01*
X99568000Y-84727142D01*
X99531714Y-84763428D01*
X99459142Y-84799714D01*
X99386571Y-84799714D01*
X99314000Y-84763428D01*
X99277714Y-84727142D01*
X99241428Y-84654571D01*
X99205142Y-84509428D01*
X99205142Y-84328000D01*
X99241428Y-84182857D01*
X99277714Y-84110285D01*
X99314000Y-84074000D01*
X99386571Y-84037714D01*
X96665142Y-84037714D02*
X96520000Y-84037714D01*
X96447428Y-84074000D01*
X96411142Y-84110285D01*
X96338571Y-84219142D01*
X96302285Y-84364285D01*
X96302285Y-84654571D01*
X96338571Y-84727142D01*
X96374857Y-84763428D01*
X96447428Y-84799714D01*
X96592571Y-84799714D01*
X96665142Y-84763428D01*
X96701428Y-84727142D01*
X96737714Y-84654571D01*
X96737714Y-84473142D01*
X96701428Y-84400571D01*
X96665142Y-84364285D01*
X96592571Y-84328000D01*
X96447428Y-84328000D01*
X96374857Y-84364285D01*
X96338571Y-84400571D01*
X96302285Y-84473142D01*
X94161428Y-84037714D02*
X93798571Y-84037714D01*
X93762285Y-84400571D01*
X93798571Y-84364285D01*
X93871142Y-84328000D01*
X94052571Y-84328000D01*
X94125142Y-84364285D01*
X94161428Y-84400571D01*
X94197714Y-84473142D01*
X94197714Y-84654571D01*
X94161428Y-84727142D01*
X94125142Y-84763428D01*
X94052571Y-84799714D01*
X93871142Y-84799714D01*
X93798571Y-84763428D01*
X93762285Y-84727142D01*
X91585142Y-84291714D02*
X91585142Y-84799714D01*
X91403714Y-84001428D02*
X91222285Y-84545714D01*
X91694000Y-84545714D01*
X88646000Y-84037714D02*
X89117714Y-84037714D01*
X88863714Y-84328000D01*
X88972571Y-84328000D01*
X89045142Y-84364285D01*
X89081428Y-84400571D01*
X89117714Y-84473142D01*
X89117714Y-84654571D01*
X89081428Y-84727142D01*
X89045142Y-84763428D01*
X88972571Y-84799714D01*
X88754857Y-84799714D01*
X88682285Y-84763428D01*
X88646000Y-84727142D01*
X86142285Y-84110285D02*
X86178571Y-84074000D01*
X86251142Y-84037714D01*
X86432571Y-84037714D01*
X86505142Y-84074000D01*
X86541428Y-84110285D01*
X86577714Y-84182857D01*
X86577714Y-84255428D01*
X86541428Y-84364285D01*
X86106000Y-84799714D01*
X86577714Y-84799714D01*
X83239428Y-84110285D02*
X83275714Y-84074000D01*
X83348285Y-84037714D01*
X83529714Y-84037714D01*
X83602285Y-84074000D01*
X83638571Y-84110285D01*
X83674857Y-84182857D01*
X83674857Y-84255428D01*
X83638571Y-84364285D01*
X83203142Y-84799714D01*
X83674857Y-84799714D01*
X84364285Y-84037714D02*
X84001428Y-84037714D01*
X83965142Y-84400571D01*
X84001428Y-84364285D01*
X84074000Y-84328000D01*
X84255428Y-84328000D01*
X84328000Y-84364285D01*
X84364285Y-84400571D01*
X84400571Y-84473142D01*
X84400571Y-84654571D01*
X84364285Y-84727142D01*
X84328000Y-84763428D01*
X84255428Y-84799714D01*
X84074000Y-84799714D01*
X84001428Y-84763428D01*
X83965142Y-84727142D01*
X80699428Y-84110285D02*
X80735714Y-84074000D01*
X80808285Y-84037714D01*
X80989714Y-84037714D01*
X81062285Y-84074000D01*
X81098571Y-84110285D01*
X81134857Y-84182857D01*
X81134857Y-84255428D01*
X81098571Y-84364285D01*
X80663142Y-84799714D01*
X81134857Y-84799714D01*
X81788000Y-84291714D02*
X81788000Y-84799714D01*
X81606571Y-84001428D02*
X81425142Y-84545714D01*
X81896857Y-84545714D01*
X111614857Y-115279714D02*
X111179428Y-115279714D01*
X111397142Y-115279714D02*
X111397142Y-114517714D01*
X111324571Y-114626571D01*
X111252000Y-114699142D01*
X111179428Y-114735428D01*
X111868857Y-114517714D02*
X112340571Y-114517714D01*
X112086571Y-114808000D01*
X112195428Y-114808000D01*
X112268000Y-114844285D01*
X112304285Y-114880571D01*
X112340571Y-114953142D01*
X112340571Y-115134571D01*
X112304285Y-115207142D01*
X112268000Y-115243428D01*
X112195428Y-115279714D01*
X111977714Y-115279714D01*
X111905142Y-115243428D01*
X111868857Y-115207142D01*
X109074857Y-115279714D02*
X108639428Y-115279714D01*
X108857142Y-115279714D02*
X108857142Y-114517714D01*
X108784571Y-114626571D01*
X108712000Y-114699142D01*
X108639428Y-114735428D01*
X109728000Y-114771714D02*
X109728000Y-115279714D01*
X109546571Y-114481428D02*
X109365142Y-115025714D01*
X109836857Y-115025714D01*
X106534857Y-115279714D02*
X106099428Y-115279714D01*
X106317142Y-115279714D02*
X106317142Y-114517714D01*
X106244571Y-114626571D01*
X106172000Y-114699142D01*
X106099428Y-114735428D01*
X107224285Y-114517714D02*
X106861428Y-114517714D01*
X106825142Y-114880571D01*
X106861428Y-114844285D01*
X106934000Y-114808000D01*
X107115428Y-114808000D01*
X107188000Y-114844285D01*
X107224285Y-114880571D01*
X107260571Y-114953142D01*
X107260571Y-115134571D01*
X107224285Y-115207142D01*
X107188000Y-115243428D01*
X107115428Y-115279714D01*
X106934000Y-115279714D01*
X106861428Y-115243428D01*
X106825142Y-115207142D01*
X103994857Y-115279714D02*
X103559428Y-115279714D01*
X103777142Y-115279714D02*
X103777142Y-114517714D01*
X103704571Y-114626571D01*
X103632000Y-114699142D01*
X103559428Y-114735428D01*
X104648000Y-114517714D02*
X104502857Y-114517714D01*
X104430285Y-114554000D01*
X104394000Y-114590285D01*
X104321428Y-114699142D01*
X104285142Y-114844285D01*
X104285142Y-115134571D01*
X104321428Y-115207142D01*
X104357714Y-115243428D01*
X104430285Y-115279714D01*
X104575428Y-115279714D01*
X104648000Y-115243428D01*
X104684285Y-115207142D01*
X104720571Y-115134571D01*
X104720571Y-114953142D01*
X104684285Y-114880571D01*
X104648000Y-114844285D01*
X104575428Y-114808000D01*
X104430285Y-114808000D01*
X104357714Y-114844285D01*
X104321428Y-114880571D01*
X104285142Y-114953142D01*
X101454857Y-115279714D02*
X101019428Y-115279714D01*
X101237142Y-115279714D02*
X101237142Y-114517714D01*
X101164571Y-114626571D01*
X101092000Y-114699142D01*
X101019428Y-114735428D01*
X101708857Y-114517714D02*
X102216857Y-114517714D01*
X101890285Y-115279714D01*
X98914857Y-115279714D02*
X98479428Y-115279714D01*
X98697142Y-115279714D02*
X98697142Y-114517714D01*
X98624571Y-114626571D01*
X98552000Y-114699142D01*
X98479428Y-114735428D01*
X99350285Y-114844285D02*
X99277714Y-114808000D01*
X99241428Y-114771714D01*
X99205142Y-114699142D01*
X99205142Y-114662857D01*
X99241428Y-114590285D01*
X99277714Y-114554000D01*
X99350285Y-114517714D01*
X99495428Y-114517714D01*
X99568000Y-114554000D01*
X99604285Y-114590285D01*
X99640571Y-114662857D01*
X99640571Y-114699142D01*
X99604285Y-114771714D01*
X99568000Y-114808000D01*
X99495428Y-114844285D01*
X99350285Y-114844285D01*
X99277714Y-114880571D01*
X99241428Y-114916857D01*
X99205142Y-114989428D01*
X99205142Y-115134571D01*
X99241428Y-115207142D01*
X99277714Y-115243428D01*
X99350285Y-115279714D01*
X99495428Y-115279714D01*
X99568000Y-115243428D01*
X99604285Y-115207142D01*
X99640571Y-115134571D01*
X99640571Y-114989428D01*
X99604285Y-114916857D01*
X99568000Y-114880571D01*
X99495428Y-114844285D01*
X96374857Y-115279714D02*
X95939428Y-115279714D01*
X96157142Y-115279714D02*
X96157142Y-114517714D01*
X96084571Y-114626571D01*
X96012000Y-114699142D01*
X95939428Y-114735428D01*
X96737714Y-115279714D02*
X96882857Y-115279714D01*
X96955428Y-115243428D01*
X96991714Y-115207142D01*
X97064285Y-115098285D01*
X97100571Y-114953142D01*
X97100571Y-114662857D01*
X97064285Y-114590285D01*
X97028000Y-114554000D01*
X96955428Y-114517714D01*
X96810285Y-114517714D01*
X96737714Y-114554000D01*
X96701428Y-114590285D01*
X96665142Y-114662857D01*
X96665142Y-114844285D01*
X96701428Y-114916857D01*
X96737714Y-114953142D01*
X96810285Y-114989428D01*
X96955428Y-114989428D01*
X97028000Y-114953142D01*
X97064285Y-114916857D01*
X97100571Y-114844285D01*
X93399428Y-114590285D02*
X93435714Y-114554000D01*
X93508285Y-114517714D01*
X93689714Y-114517714D01*
X93762285Y-114554000D01*
X93798571Y-114590285D01*
X93834857Y-114662857D01*
X93834857Y-114735428D01*
X93798571Y-114844285D01*
X93363142Y-115279714D01*
X93834857Y-115279714D01*
X94306571Y-114517714D02*
X94379142Y-114517714D01*
X94451714Y-114554000D01*
X94488000Y-114590285D01*
X94524285Y-114662857D01*
X94560571Y-114808000D01*
X94560571Y-114989428D01*
X94524285Y-115134571D01*
X94488000Y-115207142D01*
X94451714Y-115243428D01*
X94379142Y-115279714D01*
X94306571Y-115279714D01*
X94234000Y-115243428D01*
X94197714Y-115207142D01*
X94161428Y-115134571D01*
X94125142Y-114989428D01*
X94125142Y-114808000D01*
X94161428Y-114662857D01*
X94197714Y-114590285D01*
X94234000Y-114554000D01*
X94306571Y-114517714D01*
X90859428Y-114590285D02*
X90895714Y-114554000D01*
X90968285Y-114517714D01*
X91149714Y-114517714D01*
X91222285Y-114554000D01*
X91258571Y-114590285D01*
X91294857Y-114662857D01*
X91294857Y-114735428D01*
X91258571Y-114844285D01*
X90823142Y-115279714D01*
X91294857Y-115279714D01*
X92020571Y-115279714D02*
X91585142Y-115279714D01*
X91802857Y-115279714D02*
X91802857Y-114517714D01*
X91730285Y-114626571D01*
X91657714Y-114699142D01*
X91585142Y-114735428D01*
D17*
X113544047Y-115222261D02*
X113544047Y-114587261D01*
X113695238Y-114587261D01*
X113785952Y-114617500D01*
X113846428Y-114677976D01*
X113876666Y-114738452D01*
X113906904Y-114859404D01*
X113906904Y-114950119D01*
X113876666Y-115071071D01*
X113846428Y-115131547D01*
X113785952Y-115192023D01*
X113695238Y-115222261D01*
X113544047Y-115222261D01*
X114148809Y-115040833D02*
X114451190Y-115040833D01*
X114088333Y-115222261D02*
X114300000Y-114587261D01*
X114511666Y-115222261D01*
X115086190Y-115161785D02*
X115055952Y-115192023D01*
X114965238Y-115222261D01*
X114904761Y-115222261D01*
X114814047Y-115192023D01*
X114753571Y-115131547D01*
X114723333Y-115071071D01*
X114693095Y-114950119D01*
X114693095Y-114859404D01*
X114723333Y-114738452D01*
X114753571Y-114677976D01*
X114814047Y-114617500D01*
X114904761Y-114587261D01*
X114965238Y-114587261D01*
X115055952Y-114617500D01*
X115086190Y-114647738D01*
X78256190Y-84137500D02*
X78195714Y-84107261D01*
X78105000Y-84107261D01*
X78014285Y-84137500D01*
X77953809Y-84197976D01*
X77923571Y-84258452D01*
X77893333Y-84379404D01*
X77893333Y-84470119D01*
X77923571Y-84591071D01*
X77953809Y-84651547D01*
X78014285Y-84712023D01*
X78105000Y-84742261D01*
X78165476Y-84742261D01*
X78256190Y-84712023D01*
X78286428Y-84681785D01*
X78286428Y-84470119D01*
X78165476Y-84470119D01*
X78558571Y-84742261D02*
X78558571Y-84107261D01*
X78921428Y-84742261D01*
X78921428Y-84107261D01*
X79223809Y-84742261D02*
X79223809Y-84107261D01*
X79375000Y-84107261D01*
X79465714Y-84137500D01*
X79526190Y-84197976D01*
X79556428Y-84258452D01*
X79586666Y-84379404D01*
X79586666Y-84470119D01*
X79556428Y-84591071D01*
X79526190Y-84651547D01*
X79465714Y-84712023D01*
X79375000Y-84742261D01*
X79223809Y-84742261D01*
X75353333Y-84107261D02*
X75565000Y-84742261D01*
X75776666Y-84107261D01*
X75988333Y-84742261D02*
X75988333Y-84107261D01*
X76139523Y-84107261D01*
X76230238Y-84137500D01*
X76290714Y-84197976D01*
X76320952Y-84258452D01*
X76351190Y-84379404D01*
X76351190Y-84470119D01*
X76320952Y-84591071D01*
X76290714Y-84651547D01*
X76230238Y-84712023D01*
X76139523Y-84742261D01*
X75988333Y-84742261D01*
X76623333Y-84742261D02*
X76623333Y-84107261D01*
X76774523Y-84107261D01*
X76865238Y-84137500D01*
X76925714Y-84197976D01*
X76955952Y-84258452D01*
X76986190Y-84379404D01*
X76986190Y-84470119D01*
X76955952Y-84591071D01*
X76925714Y-84651547D01*
X76865238Y-84712023D01*
X76774523Y-84742261D01*
X76623333Y-84742261D01*
D12*
X88319428Y-114590285D02*
X88355714Y-114554000D01*
X88428285Y-114517714D01*
X88609714Y-114517714D01*
X88682285Y-114554000D01*
X88718571Y-114590285D01*
X88754857Y-114662857D01*
X88754857Y-114735428D01*
X88718571Y-114844285D01*
X88283142Y-115279714D01*
X88754857Y-115279714D01*
X89045142Y-114590285D02*
X89081428Y-114554000D01*
X89154000Y-114517714D01*
X89335428Y-114517714D01*
X89408000Y-114554000D01*
X89444285Y-114590285D01*
X89480571Y-114662857D01*
X89480571Y-114735428D01*
X89444285Y-114844285D01*
X89008857Y-115279714D01*
X89480571Y-115279714D01*
X85779428Y-114590285D02*
X85815714Y-114554000D01*
X85888285Y-114517714D01*
X86069714Y-114517714D01*
X86142285Y-114554000D01*
X86178571Y-114590285D01*
X86214857Y-114662857D01*
X86214857Y-114735428D01*
X86178571Y-114844285D01*
X85743142Y-115279714D01*
X86214857Y-115279714D01*
X86468857Y-114517714D02*
X86940571Y-114517714D01*
X86686571Y-114808000D01*
X86795428Y-114808000D01*
X86868000Y-114844285D01*
X86904285Y-114880571D01*
X86940571Y-114953142D01*
X86940571Y-115134571D01*
X86904285Y-115207142D01*
X86868000Y-115243428D01*
X86795428Y-115279714D01*
X86577714Y-115279714D01*
X86505142Y-115243428D01*
X86468857Y-115207142D01*
D17*
X82882619Y-114587261D02*
X83275714Y-114587261D01*
X83064047Y-114829166D01*
X83154761Y-114829166D01*
X83215238Y-114859404D01*
X83245476Y-114889642D01*
X83275714Y-114950119D01*
X83275714Y-115101309D01*
X83245476Y-115161785D01*
X83215238Y-115192023D01*
X83154761Y-115222261D01*
X82973333Y-115222261D01*
X82912857Y-115192023D01*
X82882619Y-115161785D01*
X83547857Y-115161785D02*
X83578095Y-115192023D01*
X83547857Y-115222261D01*
X83517619Y-115192023D01*
X83547857Y-115161785D01*
X83547857Y-115222261D01*
X83789761Y-114587261D02*
X84182857Y-114587261D01*
X83971190Y-114829166D01*
X84061904Y-114829166D01*
X84122380Y-114859404D01*
X84152619Y-114889642D01*
X84182857Y-114950119D01*
X84182857Y-115101309D01*
X84152619Y-115161785D01*
X84122380Y-115192023D01*
X84061904Y-115222261D01*
X83880476Y-115222261D01*
X83820000Y-115192023D01*
X83789761Y-115161785D01*
X84364285Y-114587261D02*
X84575952Y-115222261D01*
X84787619Y-114587261D01*
X80161190Y-115040833D02*
X80463571Y-115040833D01*
X80100714Y-115222261D02*
X80312380Y-114587261D01*
X80524047Y-115222261D01*
X81068333Y-114617500D02*
X81007857Y-114587261D01*
X80917142Y-114587261D01*
X80826428Y-114617500D01*
X80765952Y-114677976D01*
X80735714Y-114738452D01*
X80705476Y-114859404D01*
X80705476Y-114950119D01*
X80735714Y-115071071D01*
X80765952Y-115131547D01*
X80826428Y-115192023D01*
X80917142Y-115222261D01*
X80977619Y-115222261D01*
X81068333Y-115192023D01*
X81098571Y-115161785D01*
X81098571Y-114950119D01*
X80977619Y-114950119D01*
X81370714Y-115222261D02*
X81370714Y-114587261D01*
X81733571Y-115222261D01*
X81733571Y-114587261D01*
X82035952Y-115222261D02*
X82035952Y-114587261D01*
X82187142Y-114587261D01*
X82277857Y-114617500D01*
X82338333Y-114677976D01*
X82368571Y-114738452D01*
X82398809Y-114859404D01*
X82398809Y-114950119D01*
X82368571Y-115071071D01*
X82338333Y-115131547D01*
X82277857Y-115192023D01*
X82187142Y-115222261D01*
X82035952Y-115222261D01*
X77953809Y-114587261D02*
X78165476Y-115222261D01*
X78377142Y-114587261D01*
X78588809Y-114889642D02*
X78800476Y-114889642D01*
X78891190Y-115222261D02*
X78588809Y-115222261D01*
X78588809Y-114587261D01*
X78891190Y-114587261D01*
X79163333Y-114889642D02*
X79375000Y-114889642D01*
X79465714Y-115222261D02*
X79163333Y-115222261D01*
X79163333Y-114587261D01*
X79465714Y-114587261D01*
X75171904Y-115040833D02*
X75474285Y-115040833D01*
X75111428Y-115222261D02*
X75323095Y-114587261D01*
X75534761Y-115222261D01*
X76109285Y-115222261D02*
X75897619Y-114919880D01*
X75746428Y-115222261D02*
X75746428Y-114587261D01*
X75988333Y-114587261D01*
X76048809Y-114617500D01*
X76079047Y-114647738D01*
X76109285Y-114708214D01*
X76109285Y-114798928D01*
X76079047Y-114859404D01*
X76048809Y-114889642D01*
X75988333Y-114919880D01*
X75746428Y-114919880D01*
X76381428Y-114889642D02*
X76593095Y-114889642D01*
X76683809Y-115222261D02*
X76381428Y-115222261D01*
X76381428Y-114587261D01*
X76683809Y-114587261D01*
X77167619Y-114889642D02*
X76955952Y-114889642D01*
X76955952Y-115222261D02*
X76955952Y-114587261D01*
X77258333Y-114587261D01*
%LPC*%
D18*
X132588000Y-86741000D03*
X122682000Y-86741000D03*
D19*
X129794000Y-97155000D03*
X129794000Y-99695000D03*
X129794000Y-102235000D03*
D18*
X132969000Y-94742000D03*
X132969000Y-104648000D03*
D20*
X136525000Y-93700600D03*
X136525000Y-105689400D03*
D18*
X122682000Y-112649000D03*
X132588000Y-112649000D03*
D21*
X67310000Y-113030000D03*
X67310000Y-115570000D03*
X67310000Y-110490000D03*
D22*
X63500000Y-104775000D03*
X63500000Y-94615000D03*
D23*
X69596000Y-99695000D03*
D24*
X72390000Y-99695000D03*
X72390000Y-96901000D03*
X72390000Y-102489000D03*
D25*
X67851020Y-81597500D03*
X67851020Y-89852500D03*
X71848980Y-81597500D03*
X71848980Y-89852500D03*
D26*
X126365000Y-88646000D03*
X128905000Y-88646000D03*
D18*
X123952000Y-85471000D03*
X131318000Y-85471000D03*
D27*
X122910600Y-81915000D03*
X132359400Y-81915000D03*
D26*
X128905000Y-110744000D03*
X126365000Y-110744000D03*
D18*
X131318000Y-113919000D03*
X123952000Y-113919000D03*
D27*
X132359400Y-117475000D03*
X122910600Y-117475000D03*
D28*
X118110000Y-110240000D03*
D29*
X117045000Y-106440000D03*
X119175000Y-106440000D03*
D30*
X78740000Y-92075000D03*
D31*
X81280000Y-92075000D03*
X83820000Y-92075000D03*
X86360000Y-92075000D03*
X88900000Y-92075000D03*
X91440000Y-92075000D03*
X93980000Y-92075000D03*
X96520000Y-92075000D03*
X99060000Y-92075000D03*
X101600000Y-92075000D03*
X104140000Y-92075000D03*
X106680000Y-92075000D03*
X109220000Y-92075000D03*
X111760000Y-92075000D03*
X111760000Y-107315000D03*
X109220000Y-107315000D03*
X106680000Y-107315000D03*
X104140000Y-107315000D03*
X101600000Y-107315000D03*
X99060000Y-107315000D03*
X96520000Y-107315000D03*
X93980000Y-107315000D03*
X91440000Y-107315000D03*
X88900000Y-107315000D03*
X86360000Y-107315000D03*
X83820000Y-107315000D03*
X81280000Y-107315000D03*
X78740000Y-107315000D03*
D21*
X111760000Y-104775000D03*
X111760000Y-102235000D03*
X111760000Y-99695000D03*
X111760000Y-97155000D03*
X111760000Y-94615000D03*
D31*
X81280000Y-104267000D03*
X86360000Y-104267000D03*
X88900000Y-104267000D03*
X91440000Y-104267000D03*
X93980000Y-102743000D03*
X93980000Y-99187000D03*
X96520000Y-102743000D03*
X96520000Y-99187000D03*
X99060000Y-99187000D03*
X101600000Y-99187000D03*
X104140000Y-99187000D03*
X106680000Y-99187000D03*
X109220000Y-99187000D03*
X99060000Y-102743000D03*
X101600000Y-102743000D03*
X104140000Y-102743000D03*
X106680000Y-102743000D03*
X109220000Y-102743000D03*
D32*
X86741000Y-99695000D03*
X89789000Y-99695000D03*
D33*
X141480000Y-99695000D03*
D34*
X136980000Y-99695000D03*
D35*
X83220000Y-99695000D03*
X79340000Y-99695000D03*
D36*
X62230000Y-81915000D03*
X62230000Y-117475000D03*
X118110000Y-99695000D03*
D37*
X78740000Y-81915000D03*
X81280000Y-81915000D03*
D38*
X76200000Y-81915000D03*
D37*
X83820000Y-81915000D03*
X86360000Y-81915000D03*
X88900000Y-81915000D03*
X91440000Y-81915000D03*
X93980000Y-81915000D03*
X96520000Y-81915000D03*
X99060000Y-81915000D03*
X101600000Y-81915000D03*
X104140000Y-81915000D03*
X106680000Y-81915000D03*
X109220000Y-81915000D03*
X111760000Y-81915000D03*
X114300000Y-81915000D03*
X114300000Y-117475000D03*
X111760000Y-117475000D03*
X109220000Y-117475000D03*
X106680000Y-117475000D03*
X104140000Y-117475000D03*
X101600000Y-117475000D03*
X99060000Y-117475000D03*
X96520000Y-117475000D03*
X93980000Y-117475000D03*
X91440000Y-117475000D03*
X88900000Y-117475000D03*
X86360000Y-117475000D03*
X83820000Y-117475000D03*
X81280000Y-117475000D03*
X78740000Y-117475000D03*
X76200000Y-117475000D03*
D36*
X77470000Y-86995000D03*
X77470000Y-112395000D03*
X118110000Y-117475000D03*
X118110000Y-81915000D03*
M02*
