G04 #@! TF.FileFunction,Legend,Bot*
%FSLAX46Y46*%
G04 Gerber Fmt 4.6, Leading zero omitted, Abs format (unit mm)*
G04 Created by KiCad (PCBNEW 4.1.0-alpha+201607150317+6980~46~ubuntu16.04.1-product) date Fri Jul 15 13:36:51 2016*
%MOMM*%
%LPD*%
G01*
G04 APERTURE LIST*
%ADD10C,0.100000*%
%ADD11C,0.190500*%
%ADD12C,0.254000*%
%ADD13C,0.228600*%
%ADD14C,0.127000*%
%ADD15C,0.381000*%
%ADD16C,0.150000*%
%ADD17O,2.254200X2.940000*%
%ADD18R,2.254200X2.940000*%
%ADD19C,3.956000*%
%ADD20R,1.670000X2.940000*%
%ADD21R,2.940000X1.670000*%
%ADD22R,3.200000X2.800000*%
%ADD23C,2.400000*%
%ADD24C,2.600000*%
%ADD25R,2.178000X4.591000*%
%ADD26C,1.600200*%
%ADD27R,2.997200X5.029200*%
%ADD28O,2.940000X1.924000*%
%ADD29O,5.480000X3.448000*%
%ADD30O,2.432000X1.924000*%
%ADD31O,1.924000X2.432000*%
%ADD32R,2.900000X2.400000*%
%ADD33R,5.160000X4.000000*%
%ADD34R,1.640000X1.800000*%
%ADD35R,1.924000X2.940000*%
%ADD36O,1.924000X2.940000*%
G04 APERTURE END LIST*
D10*
D11*
X121974428Y-96755857D02*
X121974428Y-97336428D01*
X122264714Y-97046142D02*
X121684142Y-97046142D01*
X122264714Y-97735571D02*
X122264714Y-97880714D01*
X122228428Y-97953285D01*
X122192142Y-97989571D01*
X122083285Y-98062142D01*
X121938142Y-98098428D01*
X121647857Y-98098428D01*
X121575285Y-98062142D01*
X121539000Y-98025857D01*
X121502714Y-97953285D01*
X121502714Y-97808142D01*
X121539000Y-97735571D01*
X121575285Y-97699285D01*
X121647857Y-97663000D01*
X121829285Y-97663000D01*
X121901857Y-97699285D01*
X121938142Y-97735571D01*
X121974428Y-97808142D01*
X121974428Y-97953285D01*
X121938142Y-98025857D01*
X121901857Y-98062142D01*
X121829285Y-98098428D01*
X121974428Y-98425000D02*
X121974428Y-99005571D01*
X121756714Y-99695000D02*
X122264714Y-99695000D01*
X121466428Y-99513571D02*
X122010714Y-99332142D01*
X122010714Y-99803857D01*
X121575285Y-100057857D02*
X121539000Y-100094142D01*
X121502714Y-100166714D01*
X121502714Y-100348142D01*
X121539000Y-100420714D01*
X121575285Y-100457000D01*
X121647857Y-100493285D01*
X121720428Y-100493285D01*
X121829285Y-100457000D01*
X122264714Y-100021571D01*
X122264714Y-100493285D01*
X121502714Y-100711000D02*
X122264714Y-100965000D01*
X121502714Y-101219000D01*
X122264714Y-101473000D02*
X121502714Y-101473000D01*
X121502714Y-101654428D01*
X121539000Y-101763285D01*
X121611571Y-101835857D01*
X121684142Y-101872142D01*
X121829285Y-101908428D01*
X121938142Y-101908428D01*
X122083285Y-101872142D01*
X122155857Y-101835857D01*
X122228428Y-101763285D01*
X122264714Y-101654428D01*
X122264714Y-101473000D01*
X122192142Y-102670428D02*
X122228428Y-102634142D01*
X122264714Y-102525285D01*
X122264714Y-102452714D01*
X122228428Y-102343857D01*
X122155857Y-102271285D01*
X122083285Y-102235000D01*
X121938142Y-102198714D01*
X121829285Y-102198714D01*
X121684142Y-102235000D01*
X121611571Y-102271285D01*
X121539000Y-102343857D01*
X121502714Y-102452714D01*
X121502714Y-102525285D01*
X121539000Y-102634142D01*
X121575285Y-102670428D01*
D12*
X121696238Y-80693380D02*
X121744619Y-80838523D01*
X121744619Y-81080428D01*
X121696238Y-81177190D01*
X121647857Y-81225571D01*
X121551095Y-81273952D01*
X121454333Y-81273952D01*
X121357571Y-81225571D01*
X121309190Y-81177190D01*
X121260809Y-81080428D01*
X121212428Y-80886904D01*
X121164047Y-80790142D01*
X121115666Y-80741761D01*
X121018904Y-80693380D01*
X120922142Y-80693380D01*
X120825380Y-80741761D01*
X120777000Y-80790142D01*
X120728619Y-80886904D01*
X120728619Y-81128809D01*
X120777000Y-81273952D01*
X121696238Y-82096428D02*
X121744619Y-81999666D01*
X121744619Y-81806142D01*
X121696238Y-81709380D01*
X121599476Y-81661000D01*
X121212428Y-81661000D01*
X121115666Y-81709380D01*
X121067285Y-81806142D01*
X121067285Y-81999666D01*
X121115666Y-82096428D01*
X121212428Y-82144809D01*
X121309190Y-82144809D01*
X121405952Y-81661000D01*
X121744619Y-82580238D02*
X121067285Y-82580238D01*
X121260809Y-82580238D02*
X121164047Y-82628619D01*
X121115666Y-82677000D01*
X121067285Y-82773761D01*
X121067285Y-82870523D01*
X121744619Y-83209190D02*
X121067285Y-83209190D01*
X120728619Y-83209190D02*
X120777000Y-83160809D01*
X120825380Y-83209190D01*
X120777000Y-83257571D01*
X120728619Y-83209190D01*
X120825380Y-83209190D01*
X121744619Y-84128428D02*
X121212428Y-84128428D01*
X121115666Y-84080047D01*
X121067285Y-83983285D01*
X121067285Y-83789761D01*
X121115666Y-83693000D01*
X121696238Y-84128428D02*
X121744619Y-84031666D01*
X121744619Y-83789761D01*
X121696238Y-83693000D01*
X121599476Y-83644619D01*
X121502714Y-83644619D01*
X121405952Y-83693000D01*
X121357571Y-83789761D01*
X121357571Y-84031666D01*
X121309190Y-84128428D01*
X121744619Y-84757380D02*
X121696238Y-84660619D01*
X121599476Y-84612238D01*
X120728619Y-84612238D01*
X121744619Y-85676619D02*
X121744619Y-85096047D01*
X121744619Y-85386333D02*
X120728619Y-85386333D01*
X120873761Y-85289571D01*
X120970523Y-85192809D01*
X121018904Y-85096047D01*
X121696238Y-113713380D02*
X121744619Y-113858523D01*
X121744619Y-114100428D01*
X121696238Y-114197190D01*
X121647857Y-114245571D01*
X121551095Y-114293952D01*
X121454333Y-114293952D01*
X121357571Y-114245571D01*
X121309190Y-114197190D01*
X121260809Y-114100428D01*
X121212428Y-113906904D01*
X121164047Y-113810142D01*
X121115666Y-113761761D01*
X121018904Y-113713380D01*
X120922142Y-113713380D01*
X120825380Y-113761761D01*
X120777000Y-113810142D01*
X120728619Y-113906904D01*
X120728619Y-114148809D01*
X120777000Y-114293952D01*
X121696238Y-115116428D02*
X121744619Y-115019666D01*
X121744619Y-114826142D01*
X121696238Y-114729380D01*
X121599476Y-114681000D01*
X121212428Y-114681000D01*
X121115666Y-114729380D01*
X121067285Y-114826142D01*
X121067285Y-115019666D01*
X121115666Y-115116428D01*
X121212428Y-115164809D01*
X121309190Y-115164809D01*
X121405952Y-114681000D01*
X121744619Y-115600238D02*
X121067285Y-115600238D01*
X121260809Y-115600238D02*
X121164047Y-115648619D01*
X121115666Y-115697000D01*
X121067285Y-115793761D01*
X121067285Y-115890523D01*
X121744619Y-116229190D02*
X121067285Y-116229190D01*
X120728619Y-116229190D02*
X120777000Y-116180809D01*
X120825380Y-116229190D01*
X120777000Y-116277571D01*
X120728619Y-116229190D01*
X120825380Y-116229190D01*
X121744619Y-117148428D02*
X121212428Y-117148428D01*
X121115666Y-117100047D01*
X121067285Y-117003285D01*
X121067285Y-116809761D01*
X121115666Y-116713000D01*
X121696238Y-117148428D02*
X121744619Y-117051666D01*
X121744619Y-116809761D01*
X121696238Y-116713000D01*
X121599476Y-116664619D01*
X121502714Y-116664619D01*
X121405952Y-116713000D01*
X121357571Y-116809761D01*
X121357571Y-117051666D01*
X121309190Y-117148428D01*
X121744619Y-117777380D02*
X121696238Y-117680619D01*
X121599476Y-117632238D01*
X120728619Y-117632238D01*
X120728619Y-118067666D02*
X120728619Y-118696619D01*
X121115666Y-118357952D01*
X121115666Y-118503095D01*
X121164047Y-118599857D01*
X121212428Y-118648238D01*
X121309190Y-118696619D01*
X121551095Y-118696619D01*
X121647857Y-118648238D01*
X121696238Y-118599857D01*
X121744619Y-118503095D01*
X121744619Y-118212809D01*
X121696238Y-118116047D01*
X121647857Y-118067666D01*
D11*
X122845285Y-94832714D02*
X122809000Y-94869000D01*
X122772714Y-94941571D01*
X122772714Y-95123000D01*
X122809000Y-95195571D01*
X122845285Y-95231857D01*
X122917857Y-95268142D01*
X122990428Y-95268142D01*
X123099285Y-95231857D01*
X123534714Y-94796428D01*
X123534714Y-95268142D01*
X123462142Y-95594714D02*
X123498428Y-95631000D01*
X123534714Y-95594714D01*
X123498428Y-95558428D01*
X123462142Y-95594714D01*
X123534714Y-95594714D01*
X122772714Y-96320428D02*
X122772714Y-95957571D01*
X123135571Y-95921285D01*
X123099285Y-95957571D01*
X123063000Y-96030142D01*
X123063000Y-96211571D01*
X123099285Y-96284142D01*
X123135571Y-96320428D01*
X123208142Y-96356714D01*
X123389571Y-96356714D01*
X123462142Y-96320428D01*
X123498428Y-96284142D01*
X123534714Y-96211571D01*
X123534714Y-96030142D01*
X123498428Y-95957571D01*
X123462142Y-95921285D01*
X123534714Y-96610714D02*
X123026714Y-97009857D01*
X123026714Y-96610714D02*
X123534714Y-97009857D01*
X122772714Y-97663000D02*
X122772714Y-97300142D01*
X123135571Y-97263857D01*
X123099285Y-97300142D01*
X123063000Y-97372714D01*
X123063000Y-97554142D01*
X123099285Y-97626714D01*
X123135571Y-97663000D01*
X123208142Y-97699285D01*
X123389571Y-97699285D01*
X123462142Y-97663000D01*
X123498428Y-97626714D01*
X123534714Y-97554142D01*
X123534714Y-97372714D01*
X123498428Y-97300142D01*
X123462142Y-97263857D01*
X123462142Y-98025857D02*
X123498428Y-98062142D01*
X123534714Y-98025857D01*
X123498428Y-97989571D01*
X123462142Y-98025857D01*
X123534714Y-98025857D01*
X122772714Y-98751571D02*
X122772714Y-98388714D01*
X123135571Y-98352428D01*
X123099285Y-98388714D01*
X123063000Y-98461285D01*
X123063000Y-98642714D01*
X123099285Y-98715285D01*
X123135571Y-98751571D01*
X123208142Y-98787857D01*
X123389571Y-98787857D01*
X123462142Y-98751571D01*
X123498428Y-98715285D01*
X123534714Y-98642714D01*
X123534714Y-98461285D01*
X123498428Y-98388714D01*
X123462142Y-98352428D01*
X123462142Y-100130428D02*
X123498428Y-100094142D01*
X123534714Y-99985285D01*
X123534714Y-99912714D01*
X123498428Y-99803857D01*
X123425857Y-99731285D01*
X123353285Y-99695000D01*
X123208142Y-99658714D01*
X123099285Y-99658714D01*
X122954142Y-99695000D01*
X122881571Y-99731285D01*
X122809000Y-99803857D01*
X122772714Y-99912714D01*
X122772714Y-99985285D01*
X122809000Y-100094142D01*
X122845285Y-100130428D01*
X123498428Y-100747285D02*
X123534714Y-100674714D01*
X123534714Y-100529571D01*
X123498428Y-100457000D01*
X123425857Y-100420714D01*
X123135571Y-100420714D01*
X123063000Y-100457000D01*
X123026714Y-100529571D01*
X123026714Y-100674714D01*
X123063000Y-100747285D01*
X123135571Y-100783571D01*
X123208142Y-100783571D01*
X123280714Y-100420714D01*
X123026714Y-101110142D02*
X123534714Y-101110142D01*
X123099285Y-101110142D02*
X123063000Y-101146428D01*
X123026714Y-101219000D01*
X123026714Y-101327857D01*
X123063000Y-101400428D01*
X123135571Y-101436714D01*
X123534714Y-101436714D01*
X123026714Y-101690714D02*
X123026714Y-101981000D01*
X122772714Y-101799571D02*
X123425857Y-101799571D01*
X123498428Y-101835857D01*
X123534714Y-101908428D01*
X123534714Y-101981000D01*
X123498428Y-102525285D02*
X123534714Y-102452714D01*
X123534714Y-102307571D01*
X123498428Y-102235000D01*
X123425857Y-102198714D01*
X123135571Y-102198714D01*
X123063000Y-102235000D01*
X123026714Y-102307571D01*
X123026714Y-102452714D01*
X123063000Y-102525285D01*
X123135571Y-102561571D01*
X123208142Y-102561571D01*
X123280714Y-102198714D01*
X123534714Y-102888142D02*
X123026714Y-102888142D01*
X123171857Y-102888142D02*
X123099285Y-102924428D01*
X123063000Y-102960714D01*
X123026714Y-103033285D01*
X123026714Y-103105857D01*
X123244428Y-103940428D02*
X123244428Y-104521000D01*
X123534714Y-104230714D02*
X122954142Y-104230714D01*
D12*
X120426238Y-97203380D02*
X120474619Y-97348523D01*
X120474619Y-97590428D01*
X120426238Y-97687190D01*
X120377857Y-97735571D01*
X120281095Y-97783952D01*
X120184333Y-97783952D01*
X120087571Y-97735571D01*
X120039190Y-97687190D01*
X119990809Y-97590428D01*
X119942428Y-97396904D01*
X119894047Y-97300142D01*
X119845666Y-97251761D01*
X119748904Y-97203380D01*
X119652142Y-97203380D01*
X119555380Y-97251761D01*
X119507000Y-97300142D01*
X119458619Y-97396904D01*
X119458619Y-97638809D01*
X119507000Y-97783952D01*
X120426238Y-98606428D02*
X120474619Y-98509666D01*
X120474619Y-98316142D01*
X120426238Y-98219380D01*
X120329476Y-98171000D01*
X119942428Y-98171000D01*
X119845666Y-98219380D01*
X119797285Y-98316142D01*
X119797285Y-98509666D01*
X119845666Y-98606428D01*
X119942428Y-98654809D01*
X120039190Y-98654809D01*
X120135952Y-98171000D01*
X120474619Y-99090238D02*
X119797285Y-99090238D01*
X119990809Y-99090238D02*
X119894047Y-99138619D01*
X119845666Y-99187000D01*
X119797285Y-99283761D01*
X119797285Y-99380523D01*
X120474619Y-99719190D02*
X119797285Y-99719190D01*
X119458619Y-99719190D02*
X119507000Y-99670809D01*
X119555380Y-99719190D01*
X119507000Y-99767571D01*
X119458619Y-99719190D01*
X119555380Y-99719190D01*
X120474619Y-100638428D02*
X119942428Y-100638428D01*
X119845666Y-100590047D01*
X119797285Y-100493285D01*
X119797285Y-100299761D01*
X119845666Y-100203000D01*
X120426238Y-100638428D02*
X120474619Y-100541666D01*
X120474619Y-100299761D01*
X120426238Y-100203000D01*
X120329476Y-100154619D01*
X120232714Y-100154619D01*
X120135952Y-100203000D01*
X120087571Y-100299761D01*
X120087571Y-100541666D01*
X120039190Y-100638428D01*
X120474619Y-101267380D02*
X120426238Y-101170619D01*
X120329476Y-101122238D01*
X119458619Y-101122238D01*
X119555380Y-101606047D02*
X119507000Y-101654428D01*
X119458619Y-101751190D01*
X119458619Y-101993095D01*
X119507000Y-102089857D01*
X119555380Y-102138238D01*
X119652142Y-102186619D01*
X119748904Y-102186619D01*
X119894047Y-102138238D01*
X120474619Y-101557666D01*
X120474619Y-102186619D01*
D13*
X137160000Y-79375000D02*
X59690000Y-79375000D01*
X137160000Y-120015000D02*
X137160000Y-79375000D01*
X59690000Y-120015000D02*
X137160000Y-120015000D01*
X59690000Y-79375000D02*
X59690000Y-120015000D01*
D14*
X69088000Y-108077000D02*
X67564000Y-108077000D01*
X67564000Y-108077000D02*
X67564000Y-105283000D01*
X67564000Y-105283000D02*
X69088000Y-105283000D01*
X70612000Y-105283000D02*
X72136000Y-105283000D01*
X72136000Y-105283000D02*
X72136000Y-108077000D01*
X72136000Y-108077000D02*
X70612000Y-108077000D01*
X64262000Y-111252000D02*
X64262000Y-112776000D01*
X64262000Y-112776000D02*
X61468000Y-112776000D01*
X61468000Y-112776000D02*
X61468000Y-111252000D01*
X61468000Y-109728000D02*
X61468000Y-108204000D01*
X61468000Y-108204000D02*
X64262000Y-108204000D01*
X64262000Y-108204000D02*
X64262000Y-109728000D01*
D15*
X139080000Y-102695000D02*
X135080000Y-102695000D01*
X135080000Y-102695000D02*
X135080000Y-96695000D01*
X135080000Y-96695000D02*
X139080000Y-96695000D01*
X124080000Y-104195000D02*
X124080000Y-95195000D01*
X124080000Y-95195000D02*
X139080000Y-95195000D01*
X139080000Y-95195000D02*
X139080000Y-104195000D01*
X139080000Y-104195000D02*
X124080000Y-104195000D01*
X135890000Y-74930000D02*
X123190000Y-74930000D01*
X123190000Y-74930000D02*
X123190000Y-88900000D01*
X135890000Y-74930000D02*
X135890000Y-88900000D01*
X135890000Y-88900000D02*
X123190000Y-88900000D01*
X123190000Y-124460000D02*
X135890000Y-124460000D01*
X135890000Y-124460000D02*
X135890000Y-110490000D01*
X123190000Y-124460000D02*
X123190000Y-110490000D01*
X123190000Y-110490000D02*
X135890000Y-110490000D01*
D16*
X69805000Y-111415000D02*
X70205000Y-111415000D01*
X73705000Y-111415000D02*
X73305000Y-111415000D01*
X73705000Y-115915000D02*
X73305000Y-115915000D01*
X69805000Y-115915000D02*
X70205000Y-115915000D01*
X73705000Y-112315000D02*
X73305000Y-112315000D01*
X73305000Y-112315000D02*
X73305000Y-112465000D01*
X73305000Y-112465000D02*
X73705000Y-112465000D01*
X69805000Y-112315000D02*
X70205000Y-112315000D01*
X70205000Y-112315000D02*
X70205000Y-112465000D01*
X70205000Y-112465000D02*
X69805000Y-112465000D01*
X69805000Y-111415000D02*
X69805000Y-115915000D01*
X73705000Y-115915000D02*
X73705000Y-111415000D01*
D13*
X67885000Y-101995000D02*
X67885000Y-97395000D01*
X67885000Y-97395000D02*
X60385000Y-97395000D01*
X60385000Y-97395000D02*
X60385000Y-101995000D01*
X60385000Y-101995000D02*
X67885000Y-101995000D01*
D15*
X109855000Y-99695000D02*
G75*
G03X109855000Y-99695000I-1270000J0D01*
G01*
X109855000Y-97155000D02*
X109855000Y-102235000D01*
X109855000Y-102235000D02*
X107315000Y-102235000D01*
X107315000Y-102235000D02*
X107315000Y-97155000D01*
X107315000Y-97155000D02*
X109855000Y-97155000D01*
X77470000Y-95885000D02*
X76200000Y-95885000D01*
X76200000Y-95885000D02*
X76200000Y-103505000D01*
X76200000Y-103505000D02*
X77470000Y-103505000D01*
X77470000Y-90805000D02*
X113030000Y-90805000D01*
X113030000Y-90805000D02*
X113030000Y-108585000D01*
X113030000Y-108585000D02*
X77470000Y-108585000D01*
X77470000Y-108585000D02*
X77470000Y-90805000D01*
D14*
X68453000Y-84963000D02*
X68453000Y-83439000D01*
X68453000Y-83439000D02*
X71247000Y-83439000D01*
X71247000Y-83439000D02*
X71247000Y-84963000D01*
X71247000Y-86487000D02*
X71247000Y-88011000D01*
X71247000Y-88011000D02*
X68453000Y-88011000D01*
X68453000Y-88011000D02*
X68453000Y-86487000D01*
X75692000Y-105283000D02*
X77216000Y-105283000D01*
X77216000Y-105283000D02*
X77216000Y-108077000D01*
X77216000Y-108077000D02*
X75692000Y-108077000D01*
X74168000Y-108077000D02*
X72644000Y-108077000D01*
X72644000Y-108077000D02*
X72644000Y-105283000D01*
X72644000Y-105283000D02*
X74168000Y-105283000D01*
D12*
X70019333Y-109328857D02*
X70067714Y-109377238D01*
X70212857Y-109425619D01*
X70309619Y-109425619D01*
X70454761Y-109377238D01*
X70551523Y-109280476D01*
X70599904Y-109183714D01*
X70648285Y-108990190D01*
X70648285Y-108845047D01*
X70599904Y-108651523D01*
X70551523Y-108554761D01*
X70454761Y-108458000D01*
X70309619Y-108409619D01*
X70212857Y-108409619D01*
X70067714Y-108458000D01*
X70019333Y-108506380D01*
X69051714Y-109425619D02*
X69632285Y-109425619D01*
X69342000Y-109425619D02*
X69342000Y-108409619D01*
X69438761Y-108554761D01*
X69535523Y-108651523D01*
X69632285Y-108699904D01*
X70938571Y-104853619D02*
X71519142Y-104853619D01*
X71228857Y-104853619D02*
X71228857Y-103837619D01*
X71325619Y-103982761D01*
X71422380Y-104079523D01*
X71519142Y-104127904D01*
X70309619Y-103837619D02*
X70212857Y-103837619D01*
X70116095Y-103886000D01*
X70067714Y-103934380D01*
X70019333Y-104031142D01*
X69970952Y-104224666D01*
X69970952Y-104466571D01*
X70019333Y-104660095D01*
X70067714Y-104756857D01*
X70116095Y-104805238D01*
X70212857Y-104853619D01*
X70309619Y-104853619D01*
X70406380Y-104805238D01*
X70454761Y-104756857D01*
X70503142Y-104660095D01*
X70551523Y-104466571D01*
X70551523Y-104224666D01*
X70503142Y-104031142D01*
X70454761Y-103934380D01*
X70406380Y-103886000D01*
X70309619Y-103837619D01*
X69100095Y-104176285D02*
X69100095Y-104853619D01*
X69535523Y-104176285D02*
X69535523Y-104708476D01*
X69487142Y-104805238D01*
X69390380Y-104853619D01*
X69245238Y-104853619D01*
X69148476Y-104805238D01*
X69100095Y-104756857D01*
X68277619Y-104321428D02*
X68616285Y-104321428D01*
X68616285Y-104853619D02*
X68616285Y-103837619D01*
X68132476Y-103837619D01*
X65513857Y-110320666D02*
X65562238Y-110272285D01*
X65610619Y-110127142D01*
X65610619Y-110030380D01*
X65562238Y-109885238D01*
X65465476Y-109788476D01*
X65368714Y-109740095D01*
X65175190Y-109691714D01*
X65030047Y-109691714D01*
X64836523Y-109740095D01*
X64739761Y-109788476D01*
X64643000Y-109885238D01*
X64594619Y-110030380D01*
X64594619Y-110127142D01*
X64643000Y-110272285D01*
X64691380Y-110320666D01*
X64691380Y-110707714D02*
X64643000Y-110756095D01*
X64594619Y-110852857D01*
X64594619Y-111094761D01*
X64643000Y-111191523D01*
X64691380Y-111239904D01*
X64788142Y-111288285D01*
X64884904Y-111288285D01*
X65030047Y-111239904D01*
X65610619Y-110659333D01*
X65610619Y-111288285D01*
X61038619Y-109401428D02*
X61038619Y-108820857D01*
X61038619Y-109111142D02*
X60022619Y-109111142D01*
X60167761Y-109014380D01*
X60264523Y-108917619D01*
X60312904Y-108820857D01*
X60022619Y-110030380D02*
X60022619Y-110127142D01*
X60071000Y-110223904D01*
X60119380Y-110272285D01*
X60216142Y-110320666D01*
X60409666Y-110369047D01*
X60651571Y-110369047D01*
X60845095Y-110320666D01*
X60941857Y-110272285D01*
X60990238Y-110223904D01*
X61038619Y-110127142D01*
X61038619Y-110030380D01*
X60990238Y-109933619D01*
X60941857Y-109885238D01*
X60845095Y-109836857D01*
X60651571Y-109788476D01*
X60409666Y-109788476D01*
X60216142Y-109836857D01*
X60119380Y-109885238D01*
X60071000Y-109933619D01*
X60022619Y-110030380D01*
X60361285Y-111239904D02*
X61038619Y-111239904D01*
X60361285Y-110804476D02*
X60893476Y-110804476D01*
X60990238Y-110852857D01*
X61038619Y-110949619D01*
X61038619Y-111094761D01*
X60990238Y-111191523D01*
X60941857Y-111239904D01*
X60506428Y-112062380D02*
X60506428Y-111723714D01*
X61038619Y-111723714D02*
X60022619Y-111723714D01*
X60022619Y-112207523D01*
X132829904Y-94439619D02*
X132829904Y-93423619D01*
X132442857Y-93423619D01*
X132346095Y-93472000D01*
X132297714Y-93520380D01*
X132249333Y-93617142D01*
X132249333Y-93762285D01*
X132297714Y-93859047D01*
X132346095Y-93907428D01*
X132442857Y-93955809D01*
X132829904Y-93955809D01*
X131281714Y-94439619D02*
X131862285Y-94439619D01*
X131572000Y-94439619D02*
X131572000Y-93423619D01*
X131668761Y-93568761D01*
X131765523Y-93665523D01*
X131862285Y-93713904D01*
X136004904Y-90629619D02*
X136004904Y-89613619D01*
X135617857Y-89613619D01*
X135521095Y-89662000D01*
X135472714Y-89710380D01*
X135424333Y-89807142D01*
X135424333Y-89952285D01*
X135472714Y-90049047D01*
X135521095Y-90097428D01*
X135617857Y-90145809D01*
X136004904Y-90145809D01*
X135037285Y-89710380D02*
X134988904Y-89662000D01*
X134892142Y-89613619D01*
X134650238Y-89613619D01*
X134553476Y-89662000D01*
X134505095Y-89710380D01*
X134456714Y-89807142D01*
X134456714Y-89903904D01*
X134505095Y-90049047D01*
X135085666Y-90629619D01*
X134456714Y-90629619D01*
X124574904Y-109679619D02*
X124574904Y-108663619D01*
X124187857Y-108663619D01*
X124091095Y-108712000D01*
X124042714Y-108760380D01*
X123994333Y-108857142D01*
X123994333Y-109002285D01*
X124042714Y-109099047D01*
X124091095Y-109147428D01*
X124187857Y-109195809D01*
X124574904Y-109195809D01*
X123123476Y-109002285D02*
X123123476Y-109679619D01*
X123365380Y-108615238D02*
X123607285Y-109340952D01*
X122978333Y-109340952D01*
X72504904Y-110624619D02*
X72504904Y-109608619D01*
X72263000Y-109608619D01*
X72117857Y-109657000D01*
X72021095Y-109753761D01*
X71972714Y-109850523D01*
X71924333Y-110044047D01*
X71924333Y-110189190D01*
X71972714Y-110382714D01*
X72021095Y-110479476D01*
X72117857Y-110576238D01*
X72263000Y-110624619D01*
X72504904Y-110624619D01*
X71537285Y-109705380D02*
X71488904Y-109657000D01*
X71392142Y-109608619D01*
X71150238Y-109608619D01*
X71053476Y-109657000D01*
X71005095Y-109705380D01*
X70956714Y-109802142D01*
X70956714Y-109898904D01*
X71005095Y-110044047D01*
X71585666Y-110624619D01*
X70956714Y-110624619D01*
X68059904Y-96979619D02*
X68059904Y-95963619D01*
X67818000Y-95963619D01*
X67672857Y-96012000D01*
X67576095Y-96108761D01*
X67527714Y-96205523D01*
X67479333Y-96399047D01*
X67479333Y-96544190D01*
X67527714Y-96737714D01*
X67576095Y-96834476D01*
X67672857Y-96931238D01*
X67818000Y-96979619D01*
X68059904Y-96979619D01*
X67140666Y-95963619D02*
X66511714Y-95963619D01*
X66850380Y-96350666D01*
X66705238Y-96350666D01*
X66608476Y-96399047D01*
X66560095Y-96447428D01*
X66511714Y-96544190D01*
X66511714Y-96786095D01*
X66560095Y-96882857D01*
X66608476Y-96931238D01*
X66705238Y-96979619D01*
X66995523Y-96979619D01*
X67092285Y-96931238D01*
X67140666Y-96882857D01*
X74373619Y-96550238D02*
X74373619Y-97130809D01*
X75389619Y-96840523D02*
X74373619Y-96840523D01*
X74857428Y-97469476D02*
X74857428Y-97808142D01*
X75389619Y-97953285D02*
X75389619Y-97469476D01*
X74373619Y-97469476D01*
X74373619Y-97953285D01*
X74857428Y-98388714D02*
X74857428Y-98727380D01*
X75389619Y-98872523D02*
X75389619Y-98388714D01*
X74373619Y-98388714D01*
X74373619Y-98872523D01*
X75389619Y-99307952D02*
X74373619Y-99307952D01*
X75389619Y-99888523D01*
X74373619Y-99888523D01*
X75341238Y-100323952D02*
X75389619Y-100469095D01*
X75389619Y-100711000D01*
X75341238Y-100807761D01*
X75292857Y-100856142D01*
X75196095Y-100904523D01*
X75099333Y-100904523D01*
X75002571Y-100856142D01*
X74954190Y-100807761D01*
X74905809Y-100711000D01*
X74857428Y-100517476D01*
X74809047Y-100420714D01*
X74760666Y-100372333D01*
X74663904Y-100323952D01*
X74567142Y-100323952D01*
X74470380Y-100372333D01*
X74422000Y-100420714D01*
X74373619Y-100517476D01*
X74373619Y-100759380D01*
X74422000Y-100904523D01*
X74905809Y-101533476D02*
X75389619Y-101533476D01*
X74373619Y-101194809D02*
X74905809Y-101533476D01*
X74373619Y-101872142D01*
X75389619Y-102743000D02*
X75389619Y-102162428D01*
X75389619Y-102452714D02*
X74373619Y-102452714D01*
X74518761Y-102355952D01*
X74615523Y-102259190D01*
X74663904Y-102162428D01*
X78193619Y-95292333D02*
X78193619Y-95872904D01*
X79209619Y-95582619D02*
X78193619Y-95582619D01*
X78677428Y-96211571D02*
X78677428Y-96550238D01*
X79209619Y-96695380D02*
X79209619Y-96211571D01*
X78193619Y-96211571D01*
X78193619Y-96695380D01*
X78677428Y-97130809D02*
X78677428Y-97469476D01*
X79209619Y-97614619D02*
X79209619Y-97130809D01*
X78193619Y-97130809D01*
X78193619Y-97614619D01*
X79209619Y-98050047D02*
X78193619Y-98050047D01*
X79209619Y-98630619D01*
X78193619Y-98630619D01*
X79161238Y-99066047D02*
X79209619Y-99211190D01*
X79209619Y-99453095D01*
X79161238Y-99549857D01*
X79112857Y-99598238D01*
X79016095Y-99646619D01*
X78919333Y-99646619D01*
X78822571Y-99598238D01*
X78774190Y-99549857D01*
X78725809Y-99453095D01*
X78677428Y-99259571D01*
X78629047Y-99162809D01*
X78580666Y-99114428D01*
X78483904Y-99066047D01*
X78387142Y-99066047D01*
X78290380Y-99114428D01*
X78242000Y-99162809D01*
X78193619Y-99259571D01*
X78193619Y-99501476D01*
X78242000Y-99646619D01*
X78725809Y-100275571D02*
X79209619Y-100275571D01*
X78193619Y-99936904D02*
X78725809Y-100275571D01*
X78193619Y-100614238D01*
X79306380Y-100711000D02*
X79306380Y-101485095D01*
X78193619Y-101630238D02*
X78193619Y-102259190D01*
X78580666Y-101920523D01*
X78580666Y-102065666D01*
X78629047Y-102162428D01*
X78677428Y-102210809D01*
X78774190Y-102259190D01*
X79016095Y-102259190D01*
X79112857Y-102210809D01*
X79161238Y-102162428D01*
X79209619Y-102065666D01*
X79209619Y-101775380D01*
X79161238Y-101678619D01*
X79112857Y-101630238D01*
X79306380Y-102452714D02*
X79306380Y-103226809D01*
X78290380Y-103420333D02*
X78242000Y-103468714D01*
X78193619Y-103565476D01*
X78193619Y-103807380D01*
X78242000Y-103904142D01*
X78290380Y-103952523D01*
X78387142Y-104000904D01*
X78483904Y-104000904D01*
X78629047Y-103952523D01*
X79209619Y-103371952D01*
X79209619Y-104000904D01*
X67926857Y-85555666D02*
X67975238Y-85507285D01*
X68023619Y-85362142D01*
X68023619Y-85265380D01*
X67975238Y-85120238D01*
X67878476Y-85023476D01*
X67781714Y-84975095D01*
X67588190Y-84926714D01*
X67443047Y-84926714D01*
X67249523Y-84975095D01*
X67152761Y-85023476D01*
X67056000Y-85120238D01*
X67007619Y-85265380D01*
X67007619Y-85362142D01*
X67056000Y-85507285D01*
X67104380Y-85555666D01*
X67007619Y-85894333D02*
X67007619Y-86523285D01*
X67394666Y-86184619D01*
X67394666Y-86329761D01*
X67443047Y-86426523D01*
X67491428Y-86474904D01*
X67588190Y-86523285D01*
X67830095Y-86523285D01*
X67926857Y-86474904D01*
X67975238Y-86426523D01*
X68023619Y-86329761D01*
X68023619Y-86039476D01*
X67975238Y-85942714D01*
X67926857Y-85894333D01*
X72595619Y-84636428D02*
X72595619Y-84055857D01*
X72595619Y-84346142D02*
X71579619Y-84346142D01*
X71724761Y-84249380D01*
X71821523Y-84152619D01*
X71869904Y-84055857D01*
X71579619Y-85265380D02*
X71579619Y-85362142D01*
X71628000Y-85458904D01*
X71676380Y-85507285D01*
X71773142Y-85555666D01*
X71966666Y-85604047D01*
X72208571Y-85604047D01*
X72402095Y-85555666D01*
X72498857Y-85507285D01*
X72547238Y-85458904D01*
X72595619Y-85362142D01*
X72595619Y-85265380D01*
X72547238Y-85168619D01*
X72498857Y-85120238D01*
X72402095Y-85071857D01*
X72208571Y-85023476D01*
X71966666Y-85023476D01*
X71773142Y-85071857D01*
X71676380Y-85120238D01*
X71628000Y-85168619D01*
X71579619Y-85265380D01*
X71918285Y-86474904D02*
X72595619Y-86474904D01*
X71918285Y-86039476D02*
X72450476Y-86039476D01*
X72547238Y-86087857D01*
X72595619Y-86184619D01*
X72595619Y-86329761D01*
X72547238Y-86426523D01*
X72498857Y-86474904D01*
X72063428Y-87297380D02*
X72063428Y-86958714D01*
X72595619Y-86958714D02*
X71579619Y-86958714D01*
X71579619Y-87442523D01*
X75099333Y-104756857D02*
X75147714Y-104805238D01*
X75292857Y-104853619D01*
X75389619Y-104853619D01*
X75534761Y-104805238D01*
X75631523Y-104708476D01*
X75679904Y-104611714D01*
X75728285Y-104418190D01*
X75728285Y-104273047D01*
X75679904Y-104079523D01*
X75631523Y-103982761D01*
X75534761Y-103886000D01*
X75389619Y-103837619D01*
X75292857Y-103837619D01*
X75147714Y-103886000D01*
X75099333Y-103934380D01*
X74228476Y-104176285D02*
X74228476Y-104853619D01*
X74470380Y-103789238D02*
X74712285Y-104514952D01*
X74083333Y-104514952D01*
X76018571Y-109425619D02*
X76599142Y-109425619D01*
X76308857Y-109425619D02*
X76308857Y-108409619D01*
X76405619Y-108554761D01*
X76502380Y-108651523D01*
X76599142Y-108699904D01*
X75389619Y-108409619D02*
X75292857Y-108409619D01*
X75196095Y-108458000D01*
X75147714Y-108506380D01*
X75099333Y-108603142D01*
X75050952Y-108796666D01*
X75050952Y-109038571D01*
X75099333Y-109232095D01*
X75147714Y-109328857D01*
X75196095Y-109377238D01*
X75292857Y-109425619D01*
X75389619Y-109425619D01*
X75486380Y-109377238D01*
X75534761Y-109328857D01*
X75583142Y-109232095D01*
X75631523Y-109038571D01*
X75631523Y-108796666D01*
X75583142Y-108603142D01*
X75534761Y-108506380D01*
X75486380Y-108458000D01*
X75389619Y-108409619D01*
X74180095Y-108748285D02*
X74180095Y-109425619D01*
X74615523Y-108748285D02*
X74615523Y-109280476D01*
X74567142Y-109377238D01*
X74470380Y-109425619D01*
X74325238Y-109425619D01*
X74228476Y-109377238D01*
X74180095Y-109328857D01*
X73357619Y-108893428D02*
X73696285Y-108893428D01*
X73696285Y-109425619D02*
X73696285Y-108409619D01*
X73212476Y-108409619D01*
%LPC*%
D17*
X78740000Y-81915000D03*
X81280000Y-81915000D03*
D18*
X76200000Y-81915000D03*
D17*
X83820000Y-81915000D03*
X86360000Y-81915000D03*
X88900000Y-81915000D03*
X91440000Y-81915000D03*
X93980000Y-81915000D03*
X96520000Y-81915000D03*
X99060000Y-81915000D03*
X101600000Y-81915000D03*
X104140000Y-81915000D03*
X106680000Y-81915000D03*
X109220000Y-81915000D03*
X111760000Y-81915000D03*
X114300000Y-81915000D03*
X114300000Y-117475000D03*
X111760000Y-117475000D03*
X109220000Y-117475000D03*
X106680000Y-117475000D03*
X104140000Y-117475000D03*
X101600000Y-117475000D03*
X99060000Y-117475000D03*
X96520000Y-117475000D03*
X93980000Y-117475000D03*
X91440000Y-117475000D03*
X88900000Y-117475000D03*
X86360000Y-117475000D03*
X83820000Y-117475000D03*
X81280000Y-117475000D03*
X78740000Y-117475000D03*
X76200000Y-117475000D03*
D19*
X77470000Y-86995000D03*
X77470000Y-112395000D03*
X118110000Y-116205000D03*
X118110000Y-83185000D03*
D20*
X68326000Y-106680000D03*
X71374000Y-106680000D03*
D21*
X62865000Y-112014000D03*
X62865000Y-108966000D03*
D22*
X129030000Y-105395000D03*
X135130000Y-105395000D03*
X129030000Y-93995000D03*
X135130000Y-93995000D03*
D23*
X129030000Y-99695000D03*
D24*
X133530000Y-99695000D03*
D25*
X132080000Y-89916000D03*
X129540000Y-89916000D03*
X127000000Y-89916000D03*
D26*
X134493000Y-86741000D03*
X124587000Y-86741000D03*
D27*
X135534400Y-83185000D03*
X123545600Y-83185000D03*
D26*
X125984000Y-94742000D03*
X125984000Y-104648000D03*
D25*
X127000000Y-109474000D03*
X129540000Y-109474000D03*
X132080000Y-109474000D03*
D26*
X124587000Y-112649000D03*
X134493000Y-112649000D03*
D27*
X123545600Y-116205000D03*
X135534400Y-116205000D03*
D28*
X67310000Y-113030000D03*
X67310000Y-115570000D03*
X67310000Y-110490000D03*
D29*
X63500000Y-104775000D03*
X63500000Y-94615000D03*
D30*
X69596000Y-99695000D03*
D31*
X72390000Y-99695000D03*
X72390000Y-96901000D03*
X72390000Y-102489000D03*
D32*
X71755000Y-115365000D03*
X71755000Y-111965000D03*
D26*
X125857000Y-85471000D03*
X133223000Y-85471000D03*
X133223000Y-113919000D03*
X125857000Y-113919000D03*
D33*
X63115000Y-99695000D03*
D34*
X66915000Y-100760000D03*
X66915000Y-98630000D03*
D19*
X116840000Y-99695000D03*
X62230000Y-117475000D03*
X62230000Y-81915000D03*
D35*
X78740000Y-92075000D03*
D36*
X81280000Y-92075000D03*
X83820000Y-92075000D03*
X86360000Y-92075000D03*
X88900000Y-92075000D03*
X91440000Y-92075000D03*
X93980000Y-92075000D03*
X96520000Y-92075000D03*
X99060000Y-92075000D03*
X101600000Y-92075000D03*
X104140000Y-92075000D03*
X106680000Y-92075000D03*
X109220000Y-92075000D03*
X111760000Y-92075000D03*
X111760000Y-107315000D03*
X109220000Y-107315000D03*
X106680000Y-107315000D03*
X104140000Y-107315000D03*
X101600000Y-107315000D03*
X99060000Y-107315000D03*
X96520000Y-107315000D03*
X93980000Y-107315000D03*
X91440000Y-107315000D03*
X88900000Y-107315000D03*
X86360000Y-107315000D03*
X83820000Y-107315000D03*
X81280000Y-107315000D03*
X78740000Y-107315000D03*
D28*
X111760000Y-104775000D03*
X111760000Y-102235000D03*
X111760000Y-99695000D03*
X111760000Y-97155000D03*
X111760000Y-94615000D03*
D36*
X81280000Y-104267000D03*
X86360000Y-104267000D03*
X88900000Y-104267000D03*
X91440000Y-104267000D03*
X93980000Y-102743000D03*
X93980000Y-99187000D03*
X96520000Y-102743000D03*
X96520000Y-99187000D03*
X99060000Y-99187000D03*
X101600000Y-99187000D03*
X104140000Y-99187000D03*
X106680000Y-99187000D03*
X109220000Y-99187000D03*
X99060000Y-102743000D03*
X101600000Y-102743000D03*
X104140000Y-102743000D03*
X106680000Y-102743000D03*
X109220000Y-102743000D03*
D21*
X69850000Y-84201000D03*
X69850000Y-87249000D03*
D20*
X76454000Y-106680000D03*
X73406000Y-106680000D03*
M02*
