G04 #@! TF.FileFunction,Legend,Top*
%FSLAX46Y46*%
G04 Gerber Fmt 4.6, Leading zero omitted, Abs format (unit mm)*
G04 Created by KiCad (PCBNEW 4.1.0-alpha+201607150317+6980~46~ubuntu16.04.1-product) date Fri Jul 15 13:36:51 2016*
%MOMM*%
%LPD*%
G01*
G04 APERTURE LIST*
%ADD10C,0.100000*%
%ADD11C,0.190500*%
%ADD12C,0.254000*%
%ADD13C,0.228600*%
%ADD14C,0.381000*%
%ADD15C,0.150000*%
%ADD16C,0.127000*%
%ADD17O,2.254200X2.940000*%
%ADD18R,2.254200X2.940000*%
%ADD19C,3.956000*%
%ADD20C,2.400000*%
%ADD21C,2.600000*%
%ADD22C,1.600200*%
%ADD23R,4.591000X2.178000*%
%ADD24R,5.029200X2.997200*%
%ADD25O,2.940000X1.924000*%
%ADD26O,5.480000X3.448000*%
%ADD27O,2.432000X1.924000*%
%ADD28O,1.924000X2.432000*%
%ADD29R,2.400000X2.900000*%
%ADD30R,1.990040X3.067000*%
%ADD31R,2.178000X4.591000*%
%ADD32R,2.997200X5.029200*%
%ADD33R,4.000000X5.160000*%
%ADD34R,1.800000X1.640000*%
%ADD35R,1.924000X2.940000*%
%ADD36O,1.924000X2.940000*%
%ADD37R,1.670000X2.940000*%
G04 APERTURE END LIST*
D10*
D11*
X136579428Y-92474142D02*
X136579428Y-91893571D01*
X136869714Y-92183857D02*
X136289142Y-92183857D01*
X136869714Y-91494428D02*
X136869714Y-91349285D01*
X136833428Y-91276714D01*
X136797142Y-91240428D01*
X136688285Y-91167857D01*
X136543142Y-91131571D01*
X136252857Y-91131571D01*
X136180285Y-91167857D01*
X136144000Y-91204142D01*
X136107714Y-91276714D01*
X136107714Y-91421857D01*
X136144000Y-91494428D01*
X136180285Y-91530714D01*
X136252857Y-91567000D01*
X136434285Y-91567000D01*
X136506857Y-91530714D01*
X136543142Y-91494428D01*
X136579428Y-91421857D01*
X136579428Y-91276714D01*
X136543142Y-91204142D01*
X136506857Y-91167857D01*
X136434285Y-91131571D01*
X136579428Y-90805000D02*
X136579428Y-90224428D01*
X136361714Y-89535000D02*
X136869714Y-89535000D01*
X136071428Y-89716428D02*
X136615714Y-89897857D01*
X136615714Y-89426142D01*
X136180285Y-89172142D02*
X136144000Y-89135857D01*
X136107714Y-89063285D01*
X136107714Y-88881857D01*
X136144000Y-88809285D01*
X136180285Y-88773000D01*
X136252857Y-88736714D01*
X136325428Y-88736714D01*
X136434285Y-88773000D01*
X136869714Y-89208428D01*
X136869714Y-88736714D01*
X136107714Y-88519000D02*
X136869714Y-88265000D01*
X136107714Y-88011000D01*
X136869714Y-87757000D02*
X136107714Y-87757000D01*
X136107714Y-87575571D01*
X136144000Y-87466714D01*
X136216571Y-87394142D01*
X136289142Y-87357857D01*
X136434285Y-87321571D01*
X136543142Y-87321571D01*
X136688285Y-87357857D01*
X136760857Y-87394142D01*
X136833428Y-87466714D01*
X136869714Y-87575571D01*
X136869714Y-87757000D01*
X136797142Y-86559571D02*
X136833428Y-86595857D01*
X136869714Y-86704714D01*
X136869714Y-86777285D01*
X136833428Y-86886142D01*
X136760857Y-86958714D01*
X136688285Y-86995000D01*
X136543142Y-87031285D01*
X136434285Y-87031285D01*
X136289142Y-86995000D01*
X136216571Y-86958714D01*
X136144000Y-86886142D01*
X136107714Y-86777285D01*
X136107714Y-86704714D01*
X136144000Y-86595857D01*
X136180285Y-86559571D01*
X119670285Y-104557285D02*
X119634000Y-104521000D01*
X119597714Y-104448428D01*
X119597714Y-104267000D01*
X119634000Y-104194428D01*
X119670285Y-104158142D01*
X119742857Y-104121857D01*
X119815428Y-104121857D01*
X119924285Y-104158142D01*
X120359714Y-104593571D01*
X120359714Y-104121857D01*
X120287142Y-103795285D02*
X120323428Y-103759000D01*
X120359714Y-103795285D01*
X120323428Y-103831571D01*
X120287142Y-103795285D01*
X120359714Y-103795285D01*
X119597714Y-103069571D02*
X119597714Y-103432428D01*
X119960571Y-103468714D01*
X119924285Y-103432428D01*
X119888000Y-103359857D01*
X119888000Y-103178428D01*
X119924285Y-103105857D01*
X119960571Y-103069571D01*
X120033142Y-103033285D01*
X120214571Y-103033285D01*
X120287142Y-103069571D01*
X120323428Y-103105857D01*
X120359714Y-103178428D01*
X120359714Y-103359857D01*
X120323428Y-103432428D01*
X120287142Y-103468714D01*
X120359714Y-102779285D02*
X119851714Y-102380142D01*
X119851714Y-102779285D02*
X120359714Y-102380142D01*
X119597714Y-101727000D02*
X119597714Y-102089857D01*
X119960571Y-102126142D01*
X119924285Y-102089857D01*
X119888000Y-102017285D01*
X119888000Y-101835857D01*
X119924285Y-101763285D01*
X119960571Y-101727000D01*
X120033142Y-101690714D01*
X120214571Y-101690714D01*
X120287142Y-101727000D01*
X120323428Y-101763285D01*
X120359714Y-101835857D01*
X120359714Y-102017285D01*
X120323428Y-102089857D01*
X120287142Y-102126142D01*
X120287142Y-101364142D02*
X120323428Y-101327857D01*
X120359714Y-101364142D01*
X120323428Y-101400428D01*
X120287142Y-101364142D01*
X120359714Y-101364142D01*
X119597714Y-100638428D02*
X119597714Y-101001285D01*
X119960571Y-101037571D01*
X119924285Y-101001285D01*
X119888000Y-100928714D01*
X119888000Y-100747285D01*
X119924285Y-100674714D01*
X119960571Y-100638428D01*
X120033142Y-100602142D01*
X120214571Y-100602142D01*
X120287142Y-100638428D01*
X120323428Y-100674714D01*
X120359714Y-100747285D01*
X120359714Y-100928714D01*
X120323428Y-101001285D01*
X120287142Y-101037571D01*
X120287142Y-99259571D02*
X120323428Y-99295857D01*
X120359714Y-99404714D01*
X120359714Y-99477285D01*
X120323428Y-99586142D01*
X120250857Y-99658714D01*
X120178285Y-99695000D01*
X120033142Y-99731285D01*
X119924285Y-99731285D01*
X119779142Y-99695000D01*
X119706571Y-99658714D01*
X119634000Y-99586142D01*
X119597714Y-99477285D01*
X119597714Y-99404714D01*
X119634000Y-99295857D01*
X119670285Y-99259571D01*
X120323428Y-98642714D02*
X120359714Y-98715285D01*
X120359714Y-98860428D01*
X120323428Y-98933000D01*
X120250857Y-98969285D01*
X119960571Y-98969285D01*
X119888000Y-98933000D01*
X119851714Y-98860428D01*
X119851714Y-98715285D01*
X119888000Y-98642714D01*
X119960571Y-98606428D01*
X120033142Y-98606428D01*
X120105714Y-98969285D01*
X119851714Y-98279857D02*
X120359714Y-98279857D01*
X119924285Y-98279857D02*
X119888000Y-98243571D01*
X119851714Y-98171000D01*
X119851714Y-98062142D01*
X119888000Y-97989571D01*
X119960571Y-97953285D01*
X120359714Y-97953285D01*
X119851714Y-97699285D02*
X119851714Y-97409000D01*
X119597714Y-97590428D02*
X120250857Y-97590428D01*
X120323428Y-97554142D01*
X120359714Y-97481571D01*
X120359714Y-97409000D01*
X120323428Y-96864714D02*
X120359714Y-96937285D01*
X120359714Y-97082428D01*
X120323428Y-97155000D01*
X120250857Y-97191285D01*
X119960571Y-97191285D01*
X119888000Y-97155000D01*
X119851714Y-97082428D01*
X119851714Y-96937285D01*
X119888000Y-96864714D01*
X119960571Y-96828428D01*
X120033142Y-96828428D01*
X120105714Y-97191285D01*
X120359714Y-96501857D02*
X119851714Y-96501857D01*
X119996857Y-96501857D02*
X119924285Y-96465571D01*
X119888000Y-96429285D01*
X119851714Y-96356714D01*
X119851714Y-96284142D01*
X120069428Y-95449571D02*
X120069428Y-94869000D01*
X120359714Y-95159285D02*
X119779142Y-95159285D01*
D12*
X136936238Y-118696619D02*
X136984619Y-118551476D01*
X136984619Y-118309571D01*
X136936238Y-118212809D01*
X136887857Y-118164428D01*
X136791095Y-118116047D01*
X136694333Y-118116047D01*
X136597571Y-118164428D01*
X136549190Y-118212809D01*
X136500809Y-118309571D01*
X136452428Y-118503095D01*
X136404047Y-118599857D01*
X136355666Y-118648238D01*
X136258904Y-118696619D01*
X136162142Y-118696619D01*
X136065380Y-118648238D01*
X136017000Y-118599857D01*
X135968619Y-118503095D01*
X135968619Y-118261190D01*
X136017000Y-118116047D01*
X136936238Y-117293571D02*
X136984619Y-117390333D01*
X136984619Y-117583857D01*
X136936238Y-117680619D01*
X136839476Y-117729000D01*
X136452428Y-117729000D01*
X136355666Y-117680619D01*
X136307285Y-117583857D01*
X136307285Y-117390333D01*
X136355666Y-117293571D01*
X136452428Y-117245190D01*
X136549190Y-117245190D01*
X136645952Y-117729000D01*
X136984619Y-116809761D02*
X136307285Y-116809761D01*
X136500809Y-116809761D02*
X136404047Y-116761380D01*
X136355666Y-116713000D01*
X136307285Y-116616238D01*
X136307285Y-116519476D01*
X136984619Y-116180809D02*
X136307285Y-116180809D01*
X135968619Y-116180809D02*
X136017000Y-116229190D01*
X136065380Y-116180809D01*
X136017000Y-116132428D01*
X135968619Y-116180809D01*
X136065380Y-116180809D01*
X136984619Y-115261571D02*
X136452428Y-115261571D01*
X136355666Y-115309952D01*
X136307285Y-115406714D01*
X136307285Y-115600238D01*
X136355666Y-115697000D01*
X136936238Y-115261571D02*
X136984619Y-115358333D01*
X136984619Y-115600238D01*
X136936238Y-115697000D01*
X136839476Y-115745380D01*
X136742714Y-115745380D01*
X136645952Y-115697000D01*
X136597571Y-115600238D01*
X136597571Y-115358333D01*
X136549190Y-115261571D01*
X136984619Y-114632619D02*
X136936238Y-114729380D01*
X136839476Y-114777761D01*
X135968619Y-114777761D01*
X135968619Y-114342333D02*
X135968619Y-113713380D01*
X136355666Y-114052047D01*
X136355666Y-113906904D01*
X136404047Y-113810142D01*
X136452428Y-113761761D01*
X136549190Y-113713380D01*
X136791095Y-113713380D01*
X136887857Y-113761761D01*
X136936238Y-113810142D01*
X136984619Y-113906904D01*
X136984619Y-114197190D01*
X136936238Y-114293952D01*
X136887857Y-114342333D01*
X136936238Y-111711619D02*
X136984619Y-111566476D01*
X136984619Y-111324571D01*
X136936238Y-111227809D01*
X136887857Y-111179428D01*
X136791095Y-111131047D01*
X136694333Y-111131047D01*
X136597571Y-111179428D01*
X136549190Y-111227809D01*
X136500809Y-111324571D01*
X136452428Y-111518095D01*
X136404047Y-111614857D01*
X136355666Y-111663238D01*
X136258904Y-111711619D01*
X136162142Y-111711619D01*
X136065380Y-111663238D01*
X136017000Y-111614857D01*
X135968619Y-111518095D01*
X135968619Y-111276190D01*
X136017000Y-111131047D01*
X136936238Y-110308571D02*
X136984619Y-110405333D01*
X136984619Y-110598857D01*
X136936238Y-110695619D01*
X136839476Y-110744000D01*
X136452428Y-110744000D01*
X136355666Y-110695619D01*
X136307285Y-110598857D01*
X136307285Y-110405333D01*
X136355666Y-110308571D01*
X136452428Y-110260190D01*
X136549190Y-110260190D01*
X136645952Y-110744000D01*
X136984619Y-109824761D02*
X136307285Y-109824761D01*
X136500809Y-109824761D02*
X136404047Y-109776380D01*
X136355666Y-109728000D01*
X136307285Y-109631238D01*
X136307285Y-109534476D01*
X136984619Y-109195809D02*
X136307285Y-109195809D01*
X135968619Y-109195809D02*
X136017000Y-109244190D01*
X136065380Y-109195809D01*
X136017000Y-109147428D01*
X135968619Y-109195809D01*
X136065380Y-109195809D01*
X136984619Y-108276571D02*
X136452428Y-108276571D01*
X136355666Y-108324952D01*
X136307285Y-108421714D01*
X136307285Y-108615238D01*
X136355666Y-108712000D01*
X136936238Y-108276571D02*
X136984619Y-108373333D01*
X136984619Y-108615238D01*
X136936238Y-108712000D01*
X136839476Y-108760380D01*
X136742714Y-108760380D01*
X136645952Y-108712000D01*
X136597571Y-108615238D01*
X136597571Y-108373333D01*
X136549190Y-108276571D01*
X136984619Y-107647619D02*
X136936238Y-107744380D01*
X136839476Y-107792761D01*
X135968619Y-107792761D01*
X136065380Y-107308952D02*
X136017000Y-107260571D01*
X135968619Y-107163809D01*
X135968619Y-106921904D01*
X136017000Y-106825142D01*
X136065380Y-106776761D01*
X136162142Y-106728380D01*
X136258904Y-106728380D01*
X136404047Y-106776761D01*
X136984619Y-107357333D01*
X136984619Y-106728380D01*
X136936238Y-85676619D02*
X136984619Y-85531476D01*
X136984619Y-85289571D01*
X136936238Y-85192809D01*
X136887857Y-85144428D01*
X136791095Y-85096047D01*
X136694333Y-85096047D01*
X136597571Y-85144428D01*
X136549190Y-85192809D01*
X136500809Y-85289571D01*
X136452428Y-85483095D01*
X136404047Y-85579857D01*
X136355666Y-85628238D01*
X136258904Y-85676619D01*
X136162142Y-85676619D01*
X136065380Y-85628238D01*
X136017000Y-85579857D01*
X135968619Y-85483095D01*
X135968619Y-85241190D01*
X136017000Y-85096047D01*
X136936238Y-84273571D02*
X136984619Y-84370333D01*
X136984619Y-84563857D01*
X136936238Y-84660619D01*
X136839476Y-84709000D01*
X136452428Y-84709000D01*
X136355666Y-84660619D01*
X136307285Y-84563857D01*
X136307285Y-84370333D01*
X136355666Y-84273571D01*
X136452428Y-84225190D01*
X136549190Y-84225190D01*
X136645952Y-84709000D01*
X136984619Y-83789761D02*
X136307285Y-83789761D01*
X136500809Y-83789761D02*
X136404047Y-83741380D01*
X136355666Y-83693000D01*
X136307285Y-83596238D01*
X136307285Y-83499476D01*
X136984619Y-83160809D02*
X136307285Y-83160809D01*
X135968619Y-83160809D02*
X136017000Y-83209190D01*
X136065380Y-83160809D01*
X136017000Y-83112428D01*
X135968619Y-83160809D01*
X136065380Y-83160809D01*
X136984619Y-82241571D02*
X136452428Y-82241571D01*
X136355666Y-82289952D01*
X136307285Y-82386714D01*
X136307285Y-82580238D01*
X136355666Y-82677000D01*
X136936238Y-82241571D02*
X136984619Y-82338333D01*
X136984619Y-82580238D01*
X136936238Y-82677000D01*
X136839476Y-82725380D01*
X136742714Y-82725380D01*
X136645952Y-82677000D01*
X136597571Y-82580238D01*
X136597571Y-82338333D01*
X136549190Y-82241571D01*
X136984619Y-81612619D02*
X136936238Y-81709380D01*
X136839476Y-81757761D01*
X135968619Y-81757761D01*
X136984619Y-80693380D02*
X136984619Y-81273952D01*
X136984619Y-80983666D02*
X135968619Y-80983666D01*
X136113761Y-81080428D01*
X136210523Y-81177190D01*
X136258904Y-81273952D01*
X132962952Y-110562571D02*
X133737047Y-110562571D01*
X132962952Y-88972571D02*
X133737047Y-88972571D01*
X125342952Y-88972571D02*
X126117047Y-88972571D01*
X125730000Y-89359619D02*
X125730000Y-88585523D01*
X125342952Y-110562571D02*
X126117047Y-110562571D01*
X125730000Y-110949619D02*
X125730000Y-110175523D01*
X63578619Y-113223523D02*
X63578619Y-113707333D01*
X64062428Y-113755714D01*
X64014047Y-113707333D01*
X63965666Y-113610571D01*
X63965666Y-113368666D01*
X64014047Y-113271904D01*
X64062428Y-113223523D01*
X64159190Y-113175142D01*
X64401095Y-113175142D01*
X64497857Y-113223523D01*
X64546238Y-113271904D01*
X64594619Y-113368666D01*
X64594619Y-113610571D01*
X64546238Y-113707333D01*
X64497857Y-113755714D01*
X63578619Y-112884857D02*
X64594619Y-112546190D01*
X63578619Y-112207523D01*
X86855904Y-110060619D02*
X86855904Y-110786333D01*
X86807523Y-110931476D01*
X86710761Y-111028238D01*
X86565619Y-111076619D01*
X86468857Y-111076619D01*
X87775142Y-111076619D02*
X87775142Y-110544428D01*
X87726761Y-110447666D01*
X87630000Y-110399285D01*
X87436476Y-110399285D01*
X87339714Y-110447666D01*
X87775142Y-111028238D02*
X87678380Y-111076619D01*
X87436476Y-111076619D01*
X87339714Y-111028238D01*
X87291333Y-110931476D01*
X87291333Y-110834714D01*
X87339714Y-110737952D01*
X87436476Y-110689571D01*
X87678380Y-110689571D01*
X87775142Y-110641190D01*
X88258952Y-110399285D02*
X88258952Y-111076619D01*
X88258952Y-110496047D02*
X88307333Y-110447666D01*
X88404095Y-110399285D01*
X88549238Y-110399285D01*
X88646000Y-110447666D01*
X88694380Y-110544428D01*
X88694380Y-111076619D01*
X89565238Y-111028238D02*
X89468476Y-111076619D01*
X89274952Y-111076619D01*
X89178190Y-111028238D01*
X89129809Y-110931476D01*
X89129809Y-110544428D01*
X89178190Y-110447666D01*
X89274952Y-110399285D01*
X89468476Y-110399285D01*
X89565238Y-110447666D01*
X89613619Y-110544428D01*
X89613619Y-110641190D01*
X89129809Y-110737952D01*
X90194190Y-111076619D02*
X90097428Y-111028238D01*
X90049047Y-110931476D01*
X90049047Y-110060619D01*
X90581238Y-111076619D02*
X90581238Y-110399285D01*
X90581238Y-110060619D02*
X90532857Y-110109000D01*
X90581238Y-110157380D01*
X90629619Y-110109000D01*
X90581238Y-110060619D01*
X90581238Y-110157380D01*
X91500476Y-111076619D02*
X91500476Y-110544428D01*
X91452095Y-110447666D01*
X91355333Y-110399285D01*
X91161809Y-110399285D01*
X91065047Y-110447666D01*
X91500476Y-111028238D02*
X91403714Y-111076619D01*
X91161809Y-111076619D01*
X91065047Y-111028238D01*
X91016666Y-110931476D01*
X91016666Y-110834714D01*
X91065047Y-110737952D01*
X91161809Y-110689571D01*
X91403714Y-110689571D01*
X91500476Y-110641190D01*
X92758380Y-111076619D02*
X92758380Y-110060619D01*
X93097047Y-110786333D01*
X93435714Y-110060619D01*
X93435714Y-111076619D01*
X94064666Y-111076619D02*
X93967904Y-111028238D01*
X93919523Y-110979857D01*
X93871142Y-110883095D01*
X93871142Y-110592809D01*
X93919523Y-110496047D01*
X93967904Y-110447666D01*
X94064666Y-110399285D01*
X94209809Y-110399285D01*
X94306571Y-110447666D01*
X94354952Y-110496047D01*
X94403333Y-110592809D01*
X94403333Y-110883095D01*
X94354952Y-110979857D01*
X94306571Y-111028238D01*
X94209809Y-111076619D01*
X94064666Y-111076619D01*
X95274190Y-111076619D02*
X95274190Y-110060619D01*
X95274190Y-111028238D02*
X95177428Y-111076619D01*
X94983904Y-111076619D01*
X94887142Y-111028238D01*
X94838761Y-110979857D01*
X94790380Y-110883095D01*
X94790380Y-110592809D01*
X94838761Y-110496047D01*
X94887142Y-110447666D01*
X94983904Y-110399285D01*
X95177428Y-110399285D01*
X95274190Y-110447666D01*
X96193428Y-110399285D02*
X96193428Y-111076619D01*
X95758000Y-110399285D02*
X95758000Y-110931476D01*
X95806380Y-111028238D01*
X95903142Y-111076619D01*
X96048285Y-111076619D01*
X96145047Y-111028238D01*
X96193428Y-110979857D01*
X96822380Y-111076619D02*
X96725619Y-111028238D01*
X96677238Y-110931476D01*
X96677238Y-110060619D01*
X97644857Y-111076619D02*
X97644857Y-110544428D01*
X97596476Y-110447666D01*
X97499714Y-110399285D01*
X97306190Y-110399285D01*
X97209428Y-110447666D01*
X97644857Y-111028238D02*
X97548095Y-111076619D01*
X97306190Y-111076619D01*
X97209428Y-111028238D01*
X97161047Y-110931476D01*
X97161047Y-110834714D01*
X97209428Y-110737952D01*
X97306190Y-110689571D01*
X97548095Y-110689571D01*
X97644857Y-110641190D01*
X98128666Y-111076619D02*
X98128666Y-110399285D01*
X98128666Y-110592809D02*
X98177047Y-110496047D01*
X98225428Y-110447666D01*
X98322190Y-110399285D01*
X98418952Y-110399285D01*
X99531714Y-111076619D02*
X99531714Y-110060619D01*
X99773619Y-110060619D01*
X99918761Y-110109000D01*
X100015523Y-110205761D01*
X100063904Y-110302523D01*
X100112285Y-110496047D01*
X100112285Y-110641190D01*
X100063904Y-110834714D01*
X100015523Y-110931476D01*
X99918761Y-111028238D01*
X99773619Y-111076619D01*
X99531714Y-111076619D01*
X100934761Y-111028238D02*
X100838000Y-111076619D01*
X100644476Y-111076619D01*
X100547714Y-111028238D01*
X100499333Y-110931476D01*
X100499333Y-110544428D01*
X100547714Y-110447666D01*
X100644476Y-110399285D01*
X100838000Y-110399285D01*
X100934761Y-110447666D01*
X100983142Y-110544428D01*
X100983142Y-110641190D01*
X100499333Y-110737952D01*
X101321809Y-110399285D02*
X101563714Y-111076619D01*
X101805619Y-110399285D01*
X102192666Y-111076619D02*
X102192666Y-110399285D01*
X102192666Y-110060619D02*
X102144285Y-110109000D01*
X102192666Y-110157380D01*
X102241047Y-110109000D01*
X102192666Y-110060619D01*
X102192666Y-110157380D01*
X103111904Y-111028238D02*
X103015142Y-111076619D01*
X102821619Y-111076619D01*
X102724857Y-111028238D01*
X102676476Y-110979857D01*
X102628095Y-110883095D01*
X102628095Y-110592809D01*
X102676476Y-110496047D01*
X102724857Y-110447666D01*
X102821619Y-110399285D01*
X103015142Y-110399285D01*
X103111904Y-110447666D01*
X103934380Y-111028238D02*
X103837619Y-111076619D01*
X103644095Y-111076619D01*
X103547333Y-111028238D01*
X103498952Y-110931476D01*
X103498952Y-110544428D01*
X103547333Y-110447666D01*
X103644095Y-110399285D01*
X103837619Y-110399285D01*
X103934380Y-110447666D01*
X103982761Y-110544428D01*
X103982761Y-110641190D01*
X103498952Y-110737952D01*
X86807523Y-112854619D02*
X86807523Y-112177285D01*
X86807523Y-112274047D02*
X86855904Y-112225666D01*
X86952666Y-112177285D01*
X87097809Y-112177285D01*
X87194571Y-112225666D01*
X87242952Y-112322428D01*
X87242952Y-112854619D01*
X87242952Y-112322428D02*
X87291333Y-112225666D01*
X87388095Y-112177285D01*
X87533238Y-112177285D01*
X87630000Y-112225666D01*
X87678380Y-112322428D01*
X87678380Y-112854619D01*
X88307333Y-112854619D02*
X88210571Y-112806238D01*
X88162190Y-112757857D01*
X88113809Y-112661095D01*
X88113809Y-112370809D01*
X88162190Y-112274047D01*
X88210571Y-112225666D01*
X88307333Y-112177285D01*
X88452476Y-112177285D01*
X88549238Y-112225666D01*
X88597619Y-112274047D01*
X88646000Y-112370809D01*
X88646000Y-112661095D01*
X88597619Y-112757857D01*
X88549238Y-112806238D01*
X88452476Y-112854619D01*
X88307333Y-112854619D01*
X89516857Y-112854619D02*
X89516857Y-111838619D01*
X89516857Y-112806238D02*
X89420095Y-112854619D01*
X89226571Y-112854619D01*
X89129809Y-112806238D01*
X89081428Y-112757857D01*
X89033047Y-112661095D01*
X89033047Y-112370809D01*
X89081428Y-112274047D01*
X89129809Y-112225666D01*
X89226571Y-112177285D01*
X89420095Y-112177285D01*
X89516857Y-112225666D01*
X90436095Y-112177285D02*
X90436095Y-112854619D01*
X90000666Y-112177285D02*
X90000666Y-112709476D01*
X90049047Y-112806238D01*
X90145809Y-112854619D01*
X90290952Y-112854619D01*
X90387714Y-112806238D01*
X90436095Y-112757857D01*
X91065047Y-112854619D02*
X90968285Y-112806238D01*
X90919904Y-112709476D01*
X90919904Y-111838619D01*
X91887523Y-112854619D02*
X91887523Y-112322428D01*
X91839142Y-112225666D01*
X91742380Y-112177285D01*
X91548857Y-112177285D01*
X91452095Y-112225666D01*
X91887523Y-112806238D02*
X91790761Y-112854619D01*
X91548857Y-112854619D01*
X91452095Y-112806238D01*
X91403714Y-112709476D01*
X91403714Y-112612714D01*
X91452095Y-112515952D01*
X91548857Y-112467571D01*
X91790761Y-112467571D01*
X91887523Y-112419190D01*
X92371333Y-112854619D02*
X92371333Y-112177285D01*
X92371333Y-112370809D02*
X92419714Y-112274047D01*
X92468095Y-112225666D01*
X92564857Y-112177285D01*
X92661619Y-112177285D01*
X92758380Y-112951380D02*
X93532476Y-112951380D01*
X94209809Y-112854619D02*
X94209809Y-111838619D01*
X94209809Y-112806238D02*
X94113047Y-112854619D01*
X93919523Y-112854619D01*
X93822761Y-112806238D01*
X93774380Y-112757857D01*
X93726000Y-112661095D01*
X93726000Y-112370809D01*
X93774380Y-112274047D01*
X93822761Y-112225666D01*
X93919523Y-112177285D01*
X94113047Y-112177285D01*
X94209809Y-112225666D01*
X95080666Y-112806238D02*
X94983904Y-112854619D01*
X94790380Y-112854619D01*
X94693619Y-112806238D01*
X94645238Y-112709476D01*
X94645238Y-112322428D01*
X94693619Y-112225666D01*
X94790380Y-112177285D01*
X94983904Y-112177285D01*
X95080666Y-112225666D01*
X95129047Y-112322428D01*
X95129047Y-112419190D01*
X94645238Y-112515952D01*
X95467714Y-112177285D02*
X95709619Y-112854619D01*
X95951523Y-112177285D01*
X96338571Y-112854619D02*
X96338571Y-112177285D01*
X96338571Y-111838619D02*
X96290190Y-111887000D01*
X96338571Y-111935380D01*
X96386952Y-111887000D01*
X96338571Y-111838619D01*
X96338571Y-111935380D01*
X97257809Y-112806238D02*
X97161047Y-112854619D01*
X96967523Y-112854619D01*
X96870761Y-112806238D01*
X96822380Y-112757857D01*
X96774000Y-112661095D01*
X96774000Y-112370809D01*
X96822380Y-112274047D01*
X96870761Y-112225666D01*
X96967523Y-112177285D01*
X97161047Y-112177285D01*
X97257809Y-112225666D01*
X98080285Y-112806238D02*
X97983523Y-112854619D01*
X97790000Y-112854619D01*
X97693238Y-112806238D01*
X97644857Y-112709476D01*
X97644857Y-112322428D01*
X97693238Y-112225666D01*
X97790000Y-112177285D01*
X97983523Y-112177285D01*
X98080285Y-112225666D01*
X98128666Y-112322428D01*
X98128666Y-112419190D01*
X97644857Y-112515952D01*
X98322190Y-112951380D02*
X99096285Y-112951380D01*
X99193047Y-112177285D02*
X99580095Y-112177285D01*
X99338190Y-111838619D02*
X99338190Y-112709476D01*
X99386571Y-112806238D01*
X99483333Y-112854619D01*
X99580095Y-112854619D01*
X100305809Y-112806238D02*
X100209047Y-112854619D01*
X100015523Y-112854619D01*
X99918761Y-112806238D01*
X99870380Y-112709476D01*
X99870380Y-112322428D01*
X99918761Y-112225666D01*
X100015523Y-112177285D01*
X100209047Y-112177285D01*
X100305809Y-112225666D01*
X100354190Y-112322428D01*
X100354190Y-112419190D01*
X99870380Y-112515952D01*
X101176666Y-112806238D02*
X101079904Y-112854619D01*
X100886380Y-112854619D01*
X100789619Y-112806238D01*
X100741238Y-112709476D01*
X100741238Y-112322428D01*
X100789619Y-112225666D01*
X100886380Y-112177285D01*
X101079904Y-112177285D01*
X101176666Y-112225666D01*
X101225047Y-112322428D01*
X101225047Y-112419190D01*
X100741238Y-112515952D01*
X101660476Y-112177285D02*
X101660476Y-112854619D01*
X101660476Y-112274047D02*
X101708857Y-112225666D01*
X101805619Y-112177285D01*
X101950761Y-112177285D01*
X102047523Y-112225666D01*
X102095904Y-112322428D01*
X102095904Y-112854619D01*
X102531333Y-112806238D02*
X102628095Y-112854619D01*
X102821619Y-112854619D01*
X102918380Y-112806238D01*
X102966761Y-112709476D01*
X102966761Y-112661095D01*
X102918380Y-112564333D01*
X102821619Y-112515952D01*
X102676476Y-112515952D01*
X102579714Y-112467571D01*
X102531333Y-112370809D01*
X102531333Y-112322428D01*
X102579714Y-112225666D01*
X102676476Y-112177285D01*
X102821619Y-112177285D01*
X102918380Y-112225666D01*
X103305428Y-112177285D02*
X103547333Y-112854619D01*
X103789238Y-112177285D02*
X103547333Y-112854619D01*
X103450571Y-113096523D01*
X103402190Y-113144904D01*
X103305428Y-113193285D01*
X89129809Y-113616619D02*
X89226571Y-113616619D01*
X89323333Y-113665000D01*
X89371714Y-113713380D01*
X89420095Y-113810142D01*
X89468476Y-114003666D01*
X89468476Y-114245571D01*
X89420095Y-114439095D01*
X89371714Y-114535857D01*
X89323333Y-114584238D01*
X89226571Y-114632619D01*
X89129809Y-114632619D01*
X89033047Y-114584238D01*
X88984666Y-114535857D01*
X88936285Y-114439095D01*
X88887904Y-114245571D01*
X88887904Y-114003666D01*
X88936285Y-113810142D01*
X88984666Y-113713380D01*
X89033047Y-113665000D01*
X89129809Y-113616619D01*
X89807142Y-113616619D02*
X90484476Y-113616619D01*
X90049047Y-114632619D01*
X91597238Y-113568238D02*
X90726380Y-114874523D01*
X91887523Y-113713380D02*
X91935904Y-113665000D01*
X92032666Y-113616619D01*
X92274571Y-113616619D01*
X92371333Y-113665000D01*
X92419714Y-113713380D01*
X92468095Y-113810142D01*
X92468095Y-113906904D01*
X92419714Y-114052047D01*
X91839142Y-114632619D01*
X92468095Y-114632619D01*
X93097047Y-113616619D02*
X93193809Y-113616619D01*
X93290571Y-113665000D01*
X93338952Y-113713380D01*
X93387333Y-113810142D01*
X93435714Y-114003666D01*
X93435714Y-114245571D01*
X93387333Y-114439095D01*
X93338952Y-114535857D01*
X93290571Y-114584238D01*
X93193809Y-114632619D01*
X93097047Y-114632619D01*
X93000285Y-114584238D01*
X92951904Y-114535857D01*
X92903523Y-114439095D01*
X92855142Y-114245571D01*
X92855142Y-114003666D01*
X92903523Y-113810142D01*
X92951904Y-113713380D01*
X93000285Y-113665000D01*
X93097047Y-113616619D01*
X94403333Y-114632619D02*
X93822761Y-114632619D01*
X94113047Y-114632619D02*
X94113047Y-113616619D01*
X94016285Y-113761761D01*
X93919523Y-113858523D01*
X93822761Y-113906904D01*
X95274190Y-113616619D02*
X95080666Y-113616619D01*
X94983904Y-113665000D01*
X94935523Y-113713380D01*
X94838761Y-113858523D01*
X94790380Y-114052047D01*
X94790380Y-114439095D01*
X94838761Y-114535857D01*
X94887142Y-114584238D01*
X94983904Y-114632619D01*
X95177428Y-114632619D01*
X95274190Y-114584238D01*
X95322571Y-114535857D01*
X95370952Y-114439095D01*
X95370952Y-114197190D01*
X95322571Y-114100428D01*
X95274190Y-114052047D01*
X95177428Y-114003666D01*
X94983904Y-114003666D01*
X94887142Y-114052047D01*
X94838761Y-114100428D01*
X94790380Y-114197190D01*
X96483714Y-113955285D02*
X96725619Y-114632619D01*
X96967523Y-113955285D01*
X97741619Y-114584238D02*
X97644857Y-114632619D01*
X97451333Y-114632619D01*
X97354571Y-114584238D01*
X97306190Y-114487476D01*
X97306190Y-114100428D01*
X97354571Y-114003666D01*
X97451333Y-113955285D01*
X97644857Y-113955285D01*
X97741619Y-114003666D01*
X97790000Y-114100428D01*
X97790000Y-114197190D01*
X97306190Y-114293952D01*
X98225428Y-114632619D02*
X98225428Y-113955285D01*
X98225428Y-114148809D02*
X98273809Y-114052047D01*
X98322190Y-114003666D01*
X98418952Y-113955285D01*
X98515714Y-113955285D01*
X100160666Y-114632619D02*
X99580095Y-114632619D01*
X99870380Y-114632619D02*
X99870380Y-113616619D01*
X99773619Y-113761761D01*
X99676857Y-113858523D01*
X99580095Y-113906904D01*
X100596095Y-114535857D02*
X100644476Y-114584238D01*
X100596095Y-114632619D01*
X100547714Y-114584238D01*
X100596095Y-114535857D01*
X100596095Y-114632619D01*
X101273428Y-113616619D02*
X101370190Y-113616619D01*
X101466952Y-113665000D01*
X101515333Y-113713380D01*
X101563714Y-113810142D01*
X101612095Y-114003666D01*
X101612095Y-114245571D01*
X101563714Y-114439095D01*
X101515333Y-114535857D01*
X101466952Y-114584238D01*
X101370190Y-114632619D01*
X101273428Y-114632619D01*
X101176666Y-114584238D01*
X101128285Y-114535857D01*
X101079904Y-114439095D01*
X101031523Y-114245571D01*
X101031523Y-114003666D01*
X101079904Y-113810142D01*
X101128285Y-113713380D01*
X101176666Y-113665000D01*
X101273428Y-113616619D01*
D13*
X137160000Y-79375000D02*
X59690000Y-79375000D01*
X137160000Y-120015000D02*
X137160000Y-79375000D01*
X59690000Y-120015000D02*
X137160000Y-120015000D01*
X59690000Y-79375000D02*
X59690000Y-120015000D01*
X73660000Y-79375000D02*
X73660000Y-120015000D01*
X73660000Y-120015000D02*
X137160000Y-120015000D01*
X137160000Y-120015000D02*
X137160000Y-79375000D01*
X137160000Y-79375000D02*
X73660000Y-79375000D01*
D14*
X137795000Y-93345000D02*
X137795000Y-106045000D01*
X137795000Y-106045000D02*
X123825000Y-106045000D01*
X137795000Y-93345000D02*
X123825000Y-93345000D01*
X123825000Y-93345000D02*
X123825000Y-106045000D01*
X65405000Y-118745000D02*
X73660000Y-118745000D01*
X73660000Y-118745000D02*
X73660000Y-107315000D01*
X73660000Y-107315000D02*
X65405000Y-107315000D01*
X65405000Y-107315000D02*
X65405000Y-118745000D01*
X69850000Y-97155000D02*
X69088000Y-96393000D01*
X71120000Y-100965000D02*
X69596000Y-101981000D01*
X57785000Y-106045000D02*
X57150000Y-106045000D01*
X57150000Y-106045000D02*
X57150000Y-93345000D01*
X57150000Y-93345000D02*
X57785000Y-93345000D01*
X57785000Y-107315000D02*
X73660000Y-107315000D01*
X73660000Y-107315000D02*
X73660000Y-92075000D01*
X73660000Y-92075000D02*
X57785000Y-92075000D01*
X57785000Y-92075000D02*
X57785000Y-107315000D01*
X71755000Y-95377000D02*
X67945000Y-99187000D01*
X71120000Y-99695000D02*
X71120000Y-102235000D01*
D15*
X78395000Y-97745000D02*
X78395000Y-98145000D01*
X78395000Y-101645000D02*
X78395000Y-101245000D01*
X82895000Y-101645000D02*
X82895000Y-101245000D01*
X82895000Y-97745000D02*
X82895000Y-98145000D01*
X79295000Y-101645000D02*
X79295000Y-101245000D01*
X79295000Y-101245000D02*
X79445000Y-101245000D01*
X79445000Y-101245000D02*
X79445000Y-101645000D01*
X79295000Y-97745000D02*
X79295000Y-98145000D01*
X79295000Y-98145000D02*
X79445000Y-98145000D01*
X79445000Y-98145000D02*
X79445000Y-97745000D01*
X78395000Y-97745000D02*
X82895000Y-97745000D01*
X82895000Y-101645000D02*
X78395000Y-101645000D01*
D14*
X70612000Y-85725000D02*
X69596000Y-86487000D01*
X71882000Y-85725000D02*
X70612000Y-85725000D01*
X67818000Y-85725000D02*
X69088000Y-85725000D01*
X71882000Y-88265000D02*
X71882000Y-83185000D01*
X67818000Y-88265000D02*
X67818000Y-83185000D01*
X66548000Y-89281000D02*
X73152000Y-89281000D01*
X73152000Y-89281000D02*
X73152000Y-82169000D01*
X73152000Y-82169000D02*
X66548000Y-82169000D01*
X66548000Y-82169000D02*
X66548000Y-89281000D01*
X124460000Y-73660000D02*
X134620000Y-73660000D01*
X134620000Y-73660000D02*
X134620000Y-87630000D01*
X124460000Y-73660000D02*
X124460000Y-87630000D01*
X124460000Y-87630000D02*
X134620000Y-87630000D01*
X134620000Y-125730000D02*
X124460000Y-125730000D01*
X124460000Y-125730000D02*
X124460000Y-111760000D01*
X134620000Y-125730000D02*
X134620000Y-111760000D01*
X134620000Y-111760000D02*
X124460000Y-111760000D01*
D13*
X114540000Y-104835000D02*
X119140000Y-104835000D01*
X119140000Y-104835000D02*
X119140000Y-112335000D01*
X119140000Y-112335000D02*
X114540000Y-112335000D01*
X114540000Y-112335000D02*
X114540000Y-104835000D01*
X119507000Y-99695000D02*
G75*
G03X119507000Y-99695000I-2667000J0D01*
G01*
X64897000Y-117475000D02*
G75*
G03X64897000Y-117475000I-2667000J0D01*
G01*
X64897000Y-81915000D02*
G75*
G03X64897000Y-81915000I-2667000J0D01*
G01*
D16*
X86868000Y-98298000D02*
X85344000Y-98298000D01*
X85344000Y-98298000D02*
X85344000Y-101092000D01*
X85344000Y-101092000D02*
X86868000Y-101092000D01*
X88392000Y-101092000D02*
X89916000Y-101092000D01*
X89916000Y-101092000D02*
X89916000Y-98298000D01*
X89916000Y-98298000D02*
X88392000Y-98298000D01*
D12*
X123014619Y-94729904D02*
X121998619Y-94729904D01*
X121998619Y-94342857D01*
X122047000Y-94246095D01*
X122095380Y-94197714D01*
X122192142Y-94149333D01*
X122337285Y-94149333D01*
X122434047Y-94197714D01*
X122482428Y-94246095D01*
X122530809Y-94342857D01*
X122530809Y-94729904D01*
X121998619Y-93810666D02*
X121998619Y-93181714D01*
X122385666Y-93520380D01*
X122385666Y-93375238D01*
X122434047Y-93278476D01*
X122482428Y-93230095D01*
X122579190Y-93181714D01*
X122821095Y-93181714D01*
X122917857Y-93230095D01*
X122966238Y-93278476D01*
X123014619Y-93375238D01*
X123014619Y-93665523D01*
X122966238Y-93762285D01*
X122917857Y-93810666D01*
X75389619Y-114166952D02*
X74905809Y-114505619D01*
X75389619Y-114747523D02*
X74373619Y-114747523D01*
X74373619Y-114360476D01*
X74422000Y-114263714D01*
X74470380Y-114215333D01*
X74567142Y-114166952D01*
X74712285Y-114166952D01*
X74809047Y-114215333D01*
X74857428Y-114263714D01*
X74905809Y-114360476D01*
X74905809Y-114747523D01*
X74857428Y-113731523D02*
X74857428Y-113392857D01*
X75389619Y-113247714D02*
X75389619Y-113731523D01*
X74373619Y-113731523D01*
X74373619Y-113247714D01*
X74422000Y-112280095D02*
X74373619Y-112376857D01*
X74373619Y-112522000D01*
X74422000Y-112667142D01*
X74518761Y-112763904D01*
X74615523Y-112812285D01*
X74809047Y-112860666D01*
X74954190Y-112860666D01*
X75147714Y-112812285D01*
X75244476Y-112763904D01*
X75341238Y-112667142D01*
X75389619Y-112522000D01*
X75389619Y-112425238D01*
X75341238Y-112280095D01*
X75292857Y-112231714D01*
X74954190Y-112231714D01*
X74954190Y-112425238D01*
X75389619Y-111264095D02*
X75389619Y-111844666D01*
X75389619Y-111554380D02*
X74373619Y-111554380D01*
X74518761Y-111651142D01*
X74615523Y-111747904D01*
X74663904Y-111844666D01*
X60210095Y-91264619D02*
X60210095Y-90248619D01*
X60597142Y-90248619D01*
X60693904Y-90297000D01*
X60742285Y-90345380D01*
X60790666Y-90442142D01*
X60790666Y-90587285D01*
X60742285Y-90684047D01*
X60693904Y-90732428D01*
X60597142Y-90780809D01*
X60210095Y-90780809D01*
X61709904Y-90248619D02*
X61226095Y-90248619D01*
X61177714Y-90732428D01*
X61226095Y-90684047D01*
X61322857Y-90635666D01*
X61564761Y-90635666D01*
X61661523Y-90684047D01*
X61709904Y-90732428D01*
X61758285Y-90829190D01*
X61758285Y-91071095D01*
X61709904Y-91167857D01*
X61661523Y-91216238D01*
X61564761Y-91264619D01*
X61322857Y-91264619D01*
X61226095Y-91216238D01*
X61177714Y-91167857D01*
X75643619Y-106686047D02*
X75643619Y-106105476D01*
X76659619Y-106395761D02*
X75643619Y-106395761D01*
X76659619Y-105621666D02*
X76611238Y-105718428D01*
X76562857Y-105766809D01*
X76466095Y-105815190D01*
X76175809Y-105815190D01*
X76079047Y-105766809D01*
X76030666Y-105718428D01*
X75982285Y-105621666D01*
X75982285Y-105476523D01*
X76030666Y-105379761D01*
X76079047Y-105331380D01*
X76175809Y-105283000D01*
X76466095Y-105283000D01*
X76562857Y-105331380D01*
X76611238Y-105379761D01*
X76659619Y-105476523D01*
X76659619Y-105621666D01*
X75982285Y-104847571D02*
X76998285Y-104847571D01*
X76030666Y-104847571D02*
X75982285Y-104750809D01*
X75982285Y-104557285D01*
X76030666Y-104460523D01*
X76079047Y-104412142D01*
X76175809Y-104363761D01*
X76466095Y-104363761D01*
X76562857Y-104412142D01*
X76611238Y-104460523D01*
X76659619Y-104557285D01*
X76659619Y-104750809D01*
X76611238Y-104847571D01*
X76562857Y-103928333D02*
X76611238Y-103879952D01*
X76659619Y-103928333D01*
X76611238Y-103976714D01*
X76562857Y-103928333D01*
X76659619Y-103928333D01*
X76030666Y-103928333D02*
X76079047Y-103879952D01*
X76127428Y-103928333D01*
X76079047Y-103976714D01*
X76030666Y-103928333D01*
X76127428Y-103928333D01*
X76127428Y-102331761D02*
X76175809Y-102186619D01*
X76224190Y-102138238D01*
X76320952Y-102089857D01*
X76466095Y-102089857D01*
X76562857Y-102138238D01*
X76611238Y-102186619D01*
X76659619Y-102283380D01*
X76659619Y-102670428D01*
X75643619Y-102670428D01*
X75643619Y-102331761D01*
X75692000Y-102235000D01*
X75740380Y-102186619D01*
X75837142Y-102138238D01*
X75933904Y-102138238D01*
X76030666Y-102186619D01*
X76079047Y-102235000D01*
X76127428Y-102331761D01*
X76127428Y-102670428D01*
X76659619Y-101654428D02*
X75643619Y-101654428D01*
X76659619Y-101073857D01*
X75643619Y-101073857D01*
X76562857Y-100009476D02*
X76611238Y-100057857D01*
X76659619Y-100203000D01*
X76659619Y-100299761D01*
X76611238Y-100444904D01*
X76514476Y-100541666D01*
X76417714Y-100590047D01*
X76224190Y-100638428D01*
X76079047Y-100638428D01*
X75885523Y-100590047D01*
X75788761Y-100541666D01*
X75692000Y-100444904D01*
X75643619Y-100299761D01*
X75643619Y-100203000D01*
X75692000Y-100057857D01*
X75740380Y-100009476D01*
X76127428Y-98461285D02*
X76175809Y-98316142D01*
X76224190Y-98267761D01*
X76320952Y-98219380D01*
X76466095Y-98219380D01*
X76562857Y-98267761D01*
X76611238Y-98316142D01*
X76659619Y-98412904D01*
X76659619Y-98799952D01*
X75643619Y-98799952D01*
X75643619Y-98461285D01*
X75692000Y-98364523D01*
X75740380Y-98316142D01*
X75837142Y-98267761D01*
X75933904Y-98267761D01*
X76030666Y-98316142D01*
X76079047Y-98364523D01*
X76127428Y-98461285D01*
X76127428Y-98799952D01*
X77046666Y-96719571D02*
X76998285Y-96767952D01*
X76853142Y-96864714D01*
X76756380Y-96913095D01*
X76611238Y-96961476D01*
X76369333Y-97009857D01*
X76175809Y-97009857D01*
X75933904Y-96961476D01*
X75788761Y-96913095D01*
X75692000Y-96864714D01*
X75546857Y-96767952D01*
X75498476Y-96719571D01*
X75643619Y-96477666D02*
X75643619Y-95897095D01*
X76659619Y-96187380D02*
X75643619Y-96187380D01*
X76659619Y-94977857D02*
X76175809Y-95316523D01*
X76659619Y-95558428D02*
X75643619Y-95558428D01*
X75643619Y-95171380D01*
X75692000Y-95074619D01*
X75740380Y-95026238D01*
X75837142Y-94977857D01*
X75982285Y-94977857D01*
X76079047Y-95026238D01*
X76127428Y-95074619D01*
X76175809Y-95171380D01*
X76175809Y-95558428D01*
X76659619Y-94542428D02*
X75643619Y-94542428D01*
X75692000Y-93526428D02*
X75643619Y-93623190D01*
X75643619Y-93768333D01*
X75692000Y-93913476D01*
X75788761Y-94010238D01*
X75885523Y-94058619D01*
X76079047Y-94107000D01*
X76224190Y-94107000D01*
X76417714Y-94058619D01*
X76514476Y-94010238D01*
X76611238Y-93913476D01*
X76659619Y-93768333D01*
X76659619Y-93671571D01*
X76611238Y-93526428D01*
X76562857Y-93478047D01*
X76224190Y-93478047D01*
X76224190Y-93671571D01*
X77046666Y-93139380D02*
X76998285Y-93091000D01*
X76853142Y-92994238D01*
X76756380Y-92945857D01*
X76611238Y-92897476D01*
X76369333Y-92849095D01*
X76175809Y-92849095D01*
X75933904Y-92897476D01*
X75788761Y-92945857D01*
X75692000Y-92994238D01*
X75546857Y-93091000D01*
X75498476Y-93139380D01*
X74603428Y-107121476D02*
X74651809Y-106976333D01*
X74700190Y-106927952D01*
X74796952Y-106879571D01*
X74942095Y-106879571D01*
X75038857Y-106927952D01*
X75087238Y-106976333D01*
X75135619Y-107073095D01*
X75135619Y-107460142D01*
X74119619Y-107460142D01*
X74119619Y-107121476D01*
X74168000Y-107024714D01*
X74216380Y-106976333D01*
X74313142Y-106927952D01*
X74409904Y-106927952D01*
X74506666Y-106976333D01*
X74555047Y-107024714D01*
X74603428Y-107121476D01*
X74603428Y-107460142D01*
X75135619Y-106299000D02*
X75087238Y-106395761D01*
X75038857Y-106444142D01*
X74942095Y-106492523D01*
X74651809Y-106492523D01*
X74555047Y-106444142D01*
X74506666Y-106395761D01*
X74458285Y-106299000D01*
X74458285Y-106153857D01*
X74506666Y-106057095D01*
X74555047Y-106008714D01*
X74651809Y-105960333D01*
X74942095Y-105960333D01*
X75038857Y-106008714D01*
X75087238Y-106057095D01*
X75135619Y-106153857D01*
X75135619Y-106299000D01*
X74458285Y-105670047D02*
X74458285Y-105283000D01*
X74119619Y-105524904D02*
X74990476Y-105524904D01*
X75087238Y-105476523D01*
X75135619Y-105379761D01*
X75135619Y-105283000D01*
X74458285Y-105089476D02*
X74458285Y-104702428D01*
X74119619Y-104944333D02*
X74990476Y-104944333D01*
X75087238Y-104895952D01*
X75135619Y-104799190D01*
X75135619Y-104702428D01*
X75135619Y-104218619D02*
X75087238Y-104315380D01*
X75038857Y-104363761D01*
X74942095Y-104412142D01*
X74651809Y-104412142D01*
X74555047Y-104363761D01*
X74506666Y-104315380D01*
X74458285Y-104218619D01*
X74458285Y-104073476D01*
X74506666Y-103976714D01*
X74555047Y-103928333D01*
X74651809Y-103879952D01*
X74942095Y-103879952D01*
X75038857Y-103928333D01*
X75087238Y-103976714D01*
X75135619Y-104073476D01*
X75135619Y-104218619D01*
X75135619Y-103444523D02*
X74458285Y-103444523D01*
X74555047Y-103444523D02*
X74506666Y-103396142D01*
X74458285Y-103299380D01*
X74458285Y-103154238D01*
X74506666Y-103057476D01*
X74603428Y-103009095D01*
X75135619Y-103009095D01*
X74603428Y-103009095D02*
X74506666Y-102960714D01*
X74458285Y-102863952D01*
X74458285Y-102718809D01*
X74506666Y-102622047D01*
X74603428Y-102573666D01*
X75135619Y-102573666D01*
X75038857Y-102089857D02*
X75087238Y-102041476D01*
X75135619Y-102089857D01*
X75087238Y-102138238D01*
X75038857Y-102089857D01*
X75135619Y-102089857D01*
X74506666Y-102089857D02*
X74555047Y-102041476D01*
X74603428Y-102089857D01*
X74555047Y-102138238D01*
X74506666Y-102089857D01*
X74603428Y-102089857D01*
X74603428Y-100493285D02*
X74651809Y-100348142D01*
X74700190Y-100299761D01*
X74796952Y-100251380D01*
X74942095Y-100251380D01*
X75038857Y-100299761D01*
X75087238Y-100348142D01*
X75135619Y-100444904D01*
X75135619Y-100831952D01*
X74119619Y-100831952D01*
X74119619Y-100493285D01*
X74168000Y-100396523D01*
X74216380Y-100348142D01*
X74313142Y-100299761D01*
X74409904Y-100299761D01*
X74506666Y-100348142D01*
X74555047Y-100396523D01*
X74603428Y-100493285D01*
X74603428Y-100831952D01*
X75135619Y-99815952D02*
X74119619Y-99815952D01*
X75135619Y-99235380D01*
X74119619Y-99235380D01*
X75038857Y-98171000D02*
X75087238Y-98219380D01*
X75135619Y-98364523D01*
X75135619Y-98461285D01*
X75087238Y-98606428D01*
X74990476Y-98703190D01*
X74893714Y-98751571D01*
X74700190Y-98799952D01*
X74555047Y-98799952D01*
X74361523Y-98751571D01*
X74264761Y-98703190D01*
X74168000Y-98606428D01*
X74119619Y-98461285D01*
X74119619Y-98364523D01*
X74168000Y-98219380D01*
X74216380Y-98171000D01*
X74845333Y-97009857D02*
X74845333Y-96526047D01*
X75135619Y-97106619D02*
X74119619Y-96767952D01*
X75135619Y-96429285D01*
X75522666Y-95026238D02*
X75474285Y-95074619D01*
X75329142Y-95171380D01*
X75232380Y-95219761D01*
X75087238Y-95268142D01*
X74845333Y-95316523D01*
X74651809Y-95316523D01*
X74409904Y-95268142D01*
X74264761Y-95219761D01*
X74168000Y-95171380D01*
X74022857Y-95074619D01*
X73974476Y-95026238D01*
X75135619Y-94639190D02*
X74119619Y-94639190D01*
X75038857Y-93574809D02*
X75087238Y-93623190D01*
X75135619Y-93768333D01*
X75135619Y-93865095D01*
X75087238Y-94010238D01*
X74990476Y-94107000D01*
X74893714Y-94155380D01*
X74700190Y-94203761D01*
X74555047Y-94203761D01*
X74361523Y-94155380D01*
X74264761Y-94107000D01*
X74168000Y-94010238D01*
X74119619Y-93865095D01*
X74119619Y-93768333D01*
X74168000Y-93623190D01*
X74216380Y-93574809D01*
X75135619Y-93139380D02*
X74119619Y-93139380D01*
X74119619Y-92752333D01*
X74168000Y-92655571D01*
X74216380Y-92607190D01*
X74313142Y-92558809D01*
X74458285Y-92558809D01*
X74555047Y-92607190D01*
X74603428Y-92655571D01*
X74651809Y-92752333D01*
X74651809Y-93139380D01*
X75522666Y-92220142D02*
X75474285Y-92171761D01*
X75329142Y-92075000D01*
X75232380Y-92026619D01*
X75087238Y-91978238D01*
X74845333Y-91929857D01*
X74651809Y-91929857D01*
X74409904Y-91978238D01*
X74264761Y-92026619D01*
X74168000Y-92075000D01*
X74022857Y-92171761D01*
X73974476Y-92220142D01*
X68761428Y-95558428D02*
X68809809Y-95413285D01*
X68858190Y-95364904D01*
X68954952Y-95316523D01*
X69100095Y-95316523D01*
X69196857Y-95364904D01*
X69245238Y-95413285D01*
X69293619Y-95510047D01*
X69293619Y-95897095D01*
X68277619Y-95897095D01*
X68277619Y-95558428D01*
X68326000Y-95461666D01*
X68374380Y-95413285D01*
X68471142Y-95364904D01*
X68567904Y-95364904D01*
X68664666Y-95413285D01*
X68713047Y-95461666D01*
X68761428Y-95558428D01*
X68761428Y-95897095D01*
X68023619Y-102525285D02*
X68023619Y-101944714D01*
X69039619Y-102235000D02*
X68023619Y-102235000D01*
X84914619Y-100444904D02*
X83898619Y-100444904D01*
X83898619Y-100203000D01*
X83947000Y-100057857D01*
X84043761Y-99961095D01*
X84140523Y-99912714D01*
X84334047Y-99864333D01*
X84479190Y-99864333D01*
X84672714Y-99912714D01*
X84769476Y-99961095D01*
X84866238Y-100057857D01*
X84914619Y-100203000D01*
X84914619Y-100444904D01*
X84914619Y-98896714D02*
X84914619Y-99477285D01*
X84914619Y-99187000D02*
X83898619Y-99187000D01*
X84043761Y-99283761D01*
X84140523Y-99380523D01*
X84188904Y-99477285D01*
X74706238Y-87079666D02*
X74754619Y-86934523D01*
X74754619Y-86692619D01*
X74706238Y-86595857D01*
X74657857Y-86547476D01*
X74561095Y-86499095D01*
X74464333Y-86499095D01*
X74367571Y-86547476D01*
X74319190Y-86595857D01*
X74270809Y-86692619D01*
X74222428Y-86886142D01*
X74174047Y-86982904D01*
X74125666Y-87031285D01*
X74028904Y-87079666D01*
X73932142Y-87079666D01*
X73835380Y-87031285D01*
X73787000Y-86982904D01*
X73738619Y-86886142D01*
X73738619Y-86644238D01*
X73787000Y-86499095D01*
X73738619Y-86160428D02*
X74754619Y-85918523D01*
X74028904Y-85725000D01*
X74754619Y-85531476D01*
X73738619Y-85289571D01*
X74754619Y-84370333D02*
X74754619Y-84950904D01*
X74754619Y-84660619D02*
X73738619Y-84660619D01*
X73883761Y-84757380D01*
X73980523Y-84854142D01*
X74028904Y-84950904D01*
X65864619Y-87539285D02*
X64848619Y-87539285D01*
X64848619Y-87152238D01*
X64897000Y-87055476D01*
X64945380Y-87007095D01*
X65042142Y-86958714D01*
X65187285Y-86958714D01*
X65284047Y-87007095D01*
X65332428Y-87055476D01*
X65380809Y-87152238D01*
X65380809Y-87539285D01*
X65864619Y-85942714D02*
X65380809Y-86281380D01*
X65864619Y-86523285D02*
X64848619Y-86523285D01*
X64848619Y-86136238D01*
X64897000Y-86039476D01*
X64945380Y-85991095D01*
X65042142Y-85942714D01*
X65187285Y-85942714D01*
X65284047Y-85991095D01*
X65332428Y-86039476D01*
X65380809Y-86136238D01*
X65380809Y-86523285D01*
X64848619Y-85313761D02*
X64848619Y-85120238D01*
X64897000Y-85023476D01*
X64993761Y-84926714D01*
X65187285Y-84878333D01*
X65525952Y-84878333D01*
X65719476Y-84926714D01*
X65816238Y-85023476D01*
X65864619Y-85120238D01*
X65864619Y-85313761D01*
X65816238Y-85410523D01*
X65719476Y-85507285D01*
X65525952Y-85555666D01*
X65187285Y-85555666D01*
X64993761Y-85507285D01*
X64897000Y-85410523D01*
X64848619Y-85313761D01*
X64897000Y-83910714D02*
X64848619Y-84007476D01*
X64848619Y-84152619D01*
X64897000Y-84297761D01*
X64993761Y-84394523D01*
X65090523Y-84442904D01*
X65284047Y-84491285D01*
X65429190Y-84491285D01*
X65622714Y-84442904D01*
X65719476Y-84394523D01*
X65816238Y-84297761D01*
X65864619Y-84152619D01*
X65864619Y-84055857D01*
X65816238Y-83910714D01*
X65767857Y-83862333D01*
X65429190Y-83862333D01*
X65429190Y-84055857D01*
X122440095Y-89359619D02*
X122440095Y-88343619D01*
X122827142Y-88343619D01*
X122923904Y-88392000D01*
X122972285Y-88440380D01*
X123020666Y-88537142D01*
X123020666Y-88682285D01*
X122972285Y-88779047D01*
X122923904Y-88827428D01*
X122827142Y-88875809D01*
X122440095Y-88875809D01*
X123891523Y-88343619D02*
X123698000Y-88343619D01*
X123601238Y-88392000D01*
X123552857Y-88440380D01*
X123456095Y-88585523D01*
X123407714Y-88779047D01*
X123407714Y-89166095D01*
X123456095Y-89262857D01*
X123504476Y-89311238D01*
X123601238Y-89359619D01*
X123794761Y-89359619D01*
X123891523Y-89311238D01*
X123939904Y-89262857D01*
X123988285Y-89166095D01*
X123988285Y-88924190D01*
X123939904Y-88827428D01*
X123891523Y-88779047D01*
X123794761Y-88730666D01*
X123601238Y-88730666D01*
X123504476Y-88779047D01*
X123456095Y-88827428D01*
X123407714Y-88924190D01*
X122440095Y-110949619D02*
X122440095Y-109933619D01*
X122827142Y-109933619D01*
X122923904Y-109982000D01*
X122972285Y-110030380D01*
X123020666Y-110127142D01*
X123020666Y-110272285D01*
X122972285Y-110369047D01*
X122923904Y-110417428D01*
X122827142Y-110465809D01*
X122440095Y-110465809D01*
X123359333Y-109933619D02*
X124036666Y-109933619D01*
X123601238Y-110949619D01*
X116090095Y-113644619D02*
X116090095Y-112628619D01*
X116332000Y-112628619D01*
X116477142Y-112677000D01*
X116573904Y-112773761D01*
X116622285Y-112870523D01*
X116670666Y-113064047D01*
X116670666Y-113209190D01*
X116622285Y-113402714D01*
X116573904Y-113499476D01*
X116477142Y-113596238D01*
X116332000Y-113644619D01*
X116090095Y-113644619D01*
X117541523Y-112967285D02*
X117541523Y-113644619D01*
X117299619Y-112580238D02*
X117057714Y-113305952D01*
X117686666Y-113305952D01*
X87460666Y-97771857D02*
X87412285Y-97820238D01*
X87267142Y-97868619D01*
X87170380Y-97868619D01*
X87025238Y-97820238D01*
X86928476Y-97723476D01*
X86880095Y-97626714D01*
X86831714Y-97433190D01*
X86831714Y-97288047D01*
X86880095Y-97094523D01*
X86928476Y-96997761D01*
X87025238Y-96901000D01*
X87170380Y-96852619D01*
X87267142Y-96852619D01*
X87412285Y-96901000D01*
X87460666Y-96949380D01*
X88379904Y-96852619D02*
X87896095Y-96852619D01*
X87847714Y-97336428D01*
X87896095Y-97288047D01*
X87992857Y-97239666D01*
X88234761Y-97239666D01*
X88331523Y-97288047D01*
X88379904Y-97336428D01*
X88428285Y-97433190D01*
X88428285Y-97675095D01*
X88379904Y-97771857D01*
X88331523Y-97820238D01*
X88234761Y-97868619D01*
X87992857Y-97868619D01*
X87896095Y-97820238D01*
X87847714Y-97771857D01*
X86541428Y-102440619D02*
X85960857Y-102440619D01*
X86251142Y-102440619D02*
X86251142Y-101424619D01*
X86154380Y-101569761D01*
X86057619Y-101666523D01*
X85960857Y-101714904D01*
X87170380Y-101424619D02*
X87267142Y-101424619D01*
X87363904Y-101473000D01*
X87412285Y-101521380D01*
X87460666Y-101618142D01*
X87509047Y-101811666D01*
X87509047Y-102053571D01*
X87460666Y-102247095D01*
X87412285Y-102343857D01*
X87363904Y-102392238D01*
X87267142Y-102440619D01*
X87170380Y-102440619D01*
X87073619Y-102392238D01*
X87025238Y-102343857D01*
X86976857Y-102247095D01*
X86928476Y-102053571D01*
X86928476Y-101811666D01*
X86976857Y-101618142D01*
X87025238Y-101521380D01*
X87073619Y-101473000D01*
X87170380Y-101424619D01*
X88379904Y-101763285D02*
X88379904Y-102440619D01*
X87944476Y-101763285D02*
X87944476Y-102295476D01*
X87992857Y-102392238D01*
X88089619Y-102440619D01*
X88234761Y-102440619D01*
X88331523Y-102392238D01*
X88379904Y-102343857D01*
X89202380Y-101908428D02*
X88863714Y-101908428D01*
X88863714Y-102440619D02*
X88863714Y-101424619D01*
X89347523Y-101424619D01*
%LPC*%
D17*
X78740000Y-81915000D03*
X81280000Y-81915000D03*
D18*
X76200000Y-81915000D03*
D17*
X83820000Y-81915000D03*
X86360000Y-81915000D03*
X88900000Y-81915000D03*
X91440000Y-81915000D03*
X93980000Y-81915000D03*
X96520000Y-81915000D03*
X99060000Y-81915000D03*
X101600000Y-81915000D03*
X104140000Y-81915000D03*
X106680000Y-81915000D03*
X109220000Y-81915000D03*
X111760000Y-81915000D03*
X114300000Y-81915000D03*
X114300000Y-117475000D03*
X111760000Y-117475000D03*
X109220000Y-117475000D03*
X106680000Y-117475000D03*
X104140000Y-117475000D03*
X101600000Y-117475000D03*
X99060000Y-117475000D03*
X96520000Y-117475000D03*
X93980000Y-117475000D03*
X91440000Y-117475000D03*
X88900000Y-117475000D03*
X86360000Y-117475000D03*
X83820000Y-117475000D03*
X81280000Y-117475000D03*
X78740000Y-117475000D03*
X76200000Y-117475000D03*
D19*
X77470000Y-86995000D03*
X77470000Y-112395000D03*
X118110000Y-116205000D03*
X118110000Y-83185000D03*
D20*
X129030000Y-99695000D03*
D21*
X133530000Y-99695000D03*
D22*
X134493000Y-86741000D03*
X124587000Y-86741000D03*
D23*
X122809000Y-97155000D03*
X122809000Y-99695000D03*
X122809000Y-102235000D03*
D22*
X125984000Y-94742000D03*
X125984000Y-104648000D03*
D24*
X129540000Y-93700600D03*
X129540000Y-105689400D03*
D22*
X124587000Y-112649000D03*
X134493000Y-112649000D03*
D25*
X67310000Y-113030000D03*
X67310000Y-115570000D03*
X67310000Y-110490000D03*
D26*
X63500000Y-104775000D03*
X63500000Y-94615000D03*
D27*
X69596000Y-99695000D03*
D28*
X72390000Y-99695000D03*
X72390000Y-96901000D03*
X72390000Y-102489000D03*
D29*
X82345000Y-99695000D03*
X78945000Y-99695000D03*
D30*
X67851020Y-81597500D03*
X67851020Y-89852500D03*
X71848980Y-81597500D03*
X71848980Y-89852500D03*
D31*
X128270000Y-88646000D03*
X130810000Y-88646000D03*
D22*
X125857000Y-85471000D03*
X133223000Y-85471000D03*
D32*
X124815600Y-81915000D03*
X134264400Y-81915000D03*
D31*
X130810000Y-110744000D03*
X128270000Y-110744000D03*
D22*
X133223000Y-113919000D03*
X125857000Y-113919000D03*
D32*
X134264400Y-117475000D03*
X124815600Y-117475000D03*
D33*
X116840000Y-109605000D03*
D34*
X115775000Y-105805000D03*
X117905000Y-105805000D03*
D19*
X116840000Y-99695000D03*
X62230000Y-117475000D03*
X62230000Y-81915000D03*
D35*
X78740000Y-92075000D03*
D36*
X81280000Y-92075000D03*
X83820000Y-92075000D03*
X86360000Y-92075000D03*
X88900000Y-92075000D03*
X91440000Y-92075000D03*
X93980000Y-92075000D03*
X96520000Y-92075000D03*
X99060000Y-92075000D03*
X101600000Y-92075000D03*
X104140000Y-92075000D03*
X106680000Y-92075000D03*
X109220000Y-92075000D03*
X111760000Y-92075000D03*
X111760000Y-107315000D03*
X109220000Y-107315000D03*
X106680000Y-107315000D03*
X104140000Y-107315000D03*
X101600000Y-107315000D03*
X99060000Y-107315000D03*
X96520000Y-107315000D03*
X93980000Y-107315000D03*
X91440000Y-107315000D03*
X88900000Y-107315000D03*
X86360000Y-107315000D03*
X83820000Y-107315000D03*
X81280000Y-107315000D03*
X78740000Y-107315000D03*
D25*
X111760000Y-104775000D03*
X111760000Y-102235000D03*
X111760000Y-99695000D03*
X111760000Y-97155000D03*
X111760000Y-94615000D03*
D36*
X81280000Y-104267000D03*
X86360000Y-104267000D03*
X88900000Y-104267000D03*
X91440000Y-104267000D03*
X93980000Y-102743000D03*
X93980000Y-99187000D03*
X96520000Y-102743000D03*
X96520000Y-99187000D03*
X99060000Y-99187000D03*
X101600000Y-99187000D03*
X104140000Y-99187000D03*
X106680000Y-99187000D03*
X109220000Y-99187000D03*
X99060000Y-102743000D03*
X101600000Y-102743000D03*
X104140000Y-102743000D03*
X106680000Y-102743000D03*
X109220000Y-102743000D03*
D37*
X86106000Y-99695000D03*
X89154000Y-99695000D03*
M02*
