G04 #@! TF.FileFunction,Soldermask,Top*
%FSLAX46Y46*%
G04 Gerber Fmt 4.6, Leading zero omitted, Abs format (unit mm)*
G04 Created by KiCad (PCBNEW 4.1.0-alpha+201607150317+6980~46~ubuntu16.04.1-product) date Fri Jul 15 13:36:51 2016*
%MOMM*%
%LPD*%
G01*
G04 APERTURE LIST*
%ADD10C,0.100000*%
%ADD11C,0.228600*%
%ADD12O,2.254200X2.940000*%
%ADD13R,2.254200X2.940000*%
%ADD14C,3.956000*%
%ADD15C,2.400000*%
%ADD16C,2.600000*%
%ADD17C,1.600200*%
%ADD18R,4.591000X2.178000*%
%ADD19R,5.029200X2.997200*%
%ADD20O,2.940000X1.924000*%
%ADD21O,5.480000X3.448000*%
%ADD22O,2.432000X1.924000*%
%ADD23O,1.924000X2.432000*%
%ADD24R,2.400000X2.900000*%
%ADD25R,1.990040X3.067000*%
%ADD26R,2.178000X4.591000*%
%ADD27R,2.997200X5.029200*%
%ADD28R,4.000000X5.160000*%
%ADD29R,1.800000X1.640000*%
%ADD30R,1.924000X2.940000*%
%ADD31O,1.924000X2.940000*%
%ADD32R,1.670000X2.940000*%
G04 APERTURE END LIST*
D10*
D11*
X137160000Y-79375000D02*
X59690000Y-79375000D01*
X137160000Y-120015000D02*
X137160000Y-79375000D01*
X59690000Y-120015000D02*
X137160000Y-120015000D01*
X59690000Y-79375000D02*
X59690000Y-120015000D01*
D12*
X78740000Y-81915000D03*
X81280000Y-81915000D03*
D13*
X76200000Y-81915000D03*
D12*
X83820000Y-81915000D03*
X86360000Y-81915000D03*
X88900000Y-81915000D03*
X91440000Y-81915000D03*
X93980000Y-81915000D03*
X96520000Y-81915000D03*
X99060000Y-81915000D03*
X101600000Y-81915000D03*
X104140000Y-81915000D03*
X106680000Y-81915000D03*
X109220000Y-81915000D03*
X111760000Y-81915000D03*
X114300000Y-81915000D03*
X114300000Y-117475000D03*
X111760000Y-117475000D03*
X109220000Y-117475000D03*
X106680000Y-117475000D03*
X104140000Y-117475000D03*
X101600000Y-117475000D03*
X99060000Y-117475000D03*
X96520000Y-117475000D03*
X93980000Y-117475000D03*
X91440000Y-117475000D03*
X88900000Y-117475000D03*
X86360000Y-117475000D03*
X83820000Y-117475000D03*
X81280000Y-117475000D03*
X78740000Y-117475000D03*
X76200000Y-117475000D03*
D14*
X77470000Y-86995000D03*
X77470000Y-112395000D03*
X118110000Y-116205000D03*
X118110000Y-83185000D03*
D15*
X129030000Y-99695000D03*
D16*
X133530000Y-99695000D03*
D17*
X134493000Y-86741000D03*
X124587000Y-86741000D03*
D18*
X122809000Y-97155000D03*
X122809000Y-99695000D03*
X122809000Y-102235000D03*
D17*
X125984000Y-94742000D03*
X125984000Y-104648000D03*
D19*
X129540000Y-93700600D03*
X129540000Y-105689400D03*
D17*
X124587000Y-112649000D03*
X134493000Y-112649000D03*
D20*
X67310000Y-113030000D03*
X67310000Y-115570000D03*
X67310000Y-110490000D03*
D21*
X63500000Y-104775000D03*
X63500000Y-94615000D03*
D22*
X69596000Y-99695000D03*
D23*
X72390000Y-99695000D03*
X72390000Y-96901000D03*
X72390000Y-102489000D03*
D24*
X82345000Y-99695000D03*
X78945000Y-99695000D03*
D25*
X67851020Y-81597500D03*
X67851020Y-89852500D03*
X71848980Y-81597500D03*
X71848980Y-89852500D03*
D26*
X128270000Y-88646000D03*
X130810000Y-88646000D03*
D17*
X125857000Y-85471000D03*
X133223000Y-85471000D03*
D27*
X124815600Y-81915000D03*
X134264400Y-81915000D03*
D26*
X130810000Y-110744000D03*
X128270000Y-110744000D03*
D17*
X133223000Y-113919000D03*
X125857000Y-113919000D03*
D27*
X134264400Y-117475000D03*
X124815600Y-117475000D03*
D28*
X116840000Y-109605000D03*
D29*
X115775000Y-105805000D03*
X117905000Y-105805000D03*
D14*
X116840000Y-99695000D03*
X62230000Y-117475000D03*
X62230000Y-81915000D03*
D30*
X78740000Y-92075000D03*
D31*
X81280000Y-92075000D03*
X83820000Y-92075000D03*
X86360000Y-92075000D03*
X88900000Y-92075000D03*
X91440000Y-92075000D03*
X93980000Y-92075000D03*
X96520000Y-92075000D03*
X99060000Y-92075000D03*
X101600000Y-92075000D03*
X104140000Y-92075000D03*
X106680000Y-92075000D03*
X109220000Y-92075000D03*
X111760000Y-92075000D03*
X111760000Y-107315000D03*
X109220000Y-107315000D03*
X106680000Y-107315000D03*
X104140000Y-107315000D03*
X101600000Y-107315000D03*
X99060000Y-107315000D03*
X96520000Y-107315000D03*
X93980000Y-107315000D03*
X91440000Y-107315000D03*
X88900000Y-107315000D03*
X86360000Y-107315000D03*
X83820000Y-107315000D03*
X81280000Y-107315000D03*
X78740000Y-107315000D03*
D20*
X111760000Y-104775000D03*
X111760000Y-102235000D03*
X111760000Y-99695000D03*
X111760000Y-97155000D03*
X111760000Y-94615000D03*
D31*
X81280000Y-104267000D03*
X86360000Y-104267000D03*
X88900000Y-104267000D03*
X91440000Y-104267000D03*
X93980000Y-102743000D03*
X93980000Y-99187000D03*
X96520000Y-102743000D03*
X96520000Y-99187000D03*
X99060000Y-99187000D03*
X101600000Y-99187000D03*
X104140000Y-99187000D03*
X106680000Y-99187000D03*
X109220000Y-99187000D03*
X99060000Y-102743000D03*
X101600000Y-102743000D03*
X104140000Y-102743000D03*
X106680000Y-102743000D03*
X109220000Y-102743000D03*
D32*
X86106000Y-99695000D03*
X89154000Y-99695000D03*
M02*
