G04 #@! TF.FileFunction,Soldermask,Bot*
%FSLAX46Y46*%
G04 Gerber Fmt 4.6, Leading zero omitted, Abs format (unit mm)*
G04 Created by KiCad (PCBNEW 4.1.0-alpha+201608010716+6997~46~ubuntu16.04.1-product) date Mon Aug  8 11:54:26 2016*
%MOMM*%
%LPD*%
G01*
G04 APERTURE LIST*
%ADD10C,0.100000*%
%ADD11C,0.228600*%
%ADD12R,1.670000X2.940000*%
%ADD13R,2.940000X1.670000*%
%ADD14R,2.178000X4.591000*%
%ADD15C,1.600200*%
%ADD16R,2.997200X5.029200*%
%ADD17O,2.940000X1.924000*%
%ADD18O,5.480000X3.448000*%
%ADD19O,2.432000X1.924000*%
%ADD20O,1.924000X2.432000*%
%ADD21R,5.160000X4.000000*%
%ADD22R,1.640000X1.800000*%
%ADD23R,1.924000X2.940000*%
%ADD24O,1.924000X2.940000*%
%ADD25R,3.200000X2.800000*%
%ADD26C,2.400000*%
%ADD27C,2.600000*%
%ADD28R,2.900000X3.110000*%
%ADD29C,3.956000*%
%ADD30O,2.254200X2.940000*%
%ADD31R,2.254200X2.940000*%
G04 APERTURE END LIST*
D10*
D11*
X143510000Y-79375000D02*
X59690000Y-79375000D01*
X143510000Y-120015000D02*
X143510000Y-79375000D01*
X59690000Y-120015000D02*
X143510000Y-120015000D01*
X59690000Y-79375000D02*
X59690000Y-120015000D01*
D12*
X67056000Y-106680000D03*
X70104000Y-106680000D03*
D13*
X62865000Y-112014000D03*
X62865000Y-108966000D03*
D14*
X130175000Y-89916000D03*
X127635000Y-89916000D03*
X125095000Y-89916000D03*
D15*
X132588000Y-86741000D03*
X122682000Y-86741000D03*
D16*
X133629400Y-83185000D03*
X121640600Y-83185000D03*
D15*
X132969000Y-94742000D03*
X132969000Y-104648000D03*
D14*
X125095000Y-109474000D03*
X127635000Y-109474000D03*
X130175000Y-109474000D03*
D15*
X122682000Y-112649000D03*
X132588000Y-112649000D03*
D16*
X121640600Y-116205000D03*
X133629400Y-116205000D03*
D17*
X67310000Y-113030000D03*
X67310000Y-115570000D03*
X67310000Y-110490000D03*
D18*
X63500000Y-104775000D03*
X63500000Y-94615000D03*
D19*
X69596000Y-99695000D03*
D20*
X72390000Y-99695000D03*
X72390000Y-96901000D03*
X72390000Y-102489000D03*
D15*
X123952000Y-85471000D03*
X131318000Y-85471000D03*
X131318000Y-113919000D03*
X123952000Y-113919000D03*
D21*
X63115000Y-99695000D03*
D22*
X66915000Y-100760000D03*
X66915000Y-98630000D03*
D23*
X78740000Y-92075000D03*
D24*
X81280000Y-92075000D03*
X83820000Y-92075000D03*
X86360000Y-92075000D03*
X88900000Y-92075000D03*
X91440000Y-92075000D03*
X93980000Y-92075000D03*
X96520000Y-92075000D03*
X99060000Y-92075000D03*
X101600000Y-92075000D03*
X104140000Y-92075000D03*
X106680000Y-92075000D03*
X109220000Y-92075000D03*
X111760000Y-92075000D03*
X111760000Y-107315000D03*
X109220000Y-107315000D03*
X106680000Y-107315000D03*
X104140000Y-107315000D03*
X101600000Y-107315000D03*
X99060000Y-107315000D03*
X96520000Y-107315000D03*
X93980000Y-107315000D03*
X91440000Y-107315000D03*
X88900000Y-107315000D03*
X86360000Y-107315000D03*
X83820000Y-107315000D03*
X81280000Y-107315000D03*
X78740000Y-107315000D03*
D17*
X111760000Y-104775000D03*
X111760000Y-102235000D03*
X111760000Y-99695000D03*
X111760000Y-97155000D03*
X111760000Y-94615000D03*
D24*
X81280000Y-104267000D03*
X86360000Y-104267000D03*
X88900000Y-104267000D03*
X91440000Y-104267000D03*
X93980000Y-102743000D03*
X93980000Y-99187000D03*
X96520000Y-102743000D03*
X96520000Y-99187000D03*
X99060000Y-99187000D03*
X101600000Y-99187000D03*
X104140000Y-99187000D03*
X106680000Y-99187000D03*
X109220000Y-99187000D03*
X99060000Y-102743000D03*
X101600000Y-102743000D03*
X104140000Y-102743000D03*
X106680000Y-102743000D03*
X109220000Y-102743000D03*
D13*
X69850000Y-84201000D03*
X69850000Y-87249000D03*
D12*
X75819000Y-106680000D03*
X72771000Y-106680000D03*
D25*
X141480000Y-93995000D03*
X135380000Y-93995000D03*
X141480000Y-105395000D03*
X135380000Y-105395000D03*
D26*
X141480000Y-99695000D03*
D27*
X136980000Y-99695000D03*
D28*
X71755000Y-115605000D03*
X71755000Y-111725000D03*
D29*
X62230000Y-81915000D03*
X62230000Y-117475000D03*
X118110000Y-99695000D03*
D30*
X78740000Y-81915000D03*
X81280000Y-81915000D03*
D31*
X76200000Y-81915000D03*
D30*
X83820000Y-81915000D03*
X86360000Y-81915000D03*
X88900000Y-81915000D03*
X91440000Y-81915000D03*
X93980000Y-81915000D03*
X96520000Y-81915000D03*
X99060000Y-81915000D03*
X101600000Y-81915000D03*
X104140000Y-81915000D03*
X106680000Y-81915000D03*
X109220000Y-81915000D03*
X111760000Y-81915000D03*
X114300000Y-81915000D03*
X114300000Y-117475000D03*
X111760000Y-117475000D03*
X109220000Y-117475000D03*
X106680000Y-117475000D03*
X104140000Y-117475000D03*
X101600000Y-117475000D03*
X99060000Y-117475000D03*
X96520000Y-117475000D03*
X93980000Y-117475000D03*
X91440000Y-117475000D03*
X88900000Y-117475000D03*
X86360000Y-117475000D03*
X83820000Y-117475000D03*
X81280000Y-117475000D03*
X78740000Y-117475000D03*
X76200000Y-117475000D03*
D29*
X77470000Y-86995000D03*
X77470000Y-112395000D03*
X118110000Y-117475000D03*
X118110000Y-81915000D03*
M02*
