M48
;DRILL file {KiCad 4.1.0-alpha+201607150317+6980~46~ubuntu16.04.1-product} date Fri Jul 15 13:36:54 2016
;FORMAT={-:-/ absolute / inch / decimal}
FMAT,2
INCH,TZ
T1C0.025
T2C0.035
T3C0.039
T4C0.040
T5C0.043
T6C0.047
T7C0.063
T8C0.071
T9C0.090
T10C0.130
%
G90
G05
M72
T1
X2.8287Y-3.454
X2.9517Y-4.1923
X3.2111Y-3.5087
X4.5464Y-3.5171
X4.6198Y-3.5589
X4.6435Y-4.1062
X4.7572Y-3.7285
X4.7847Y-3.5959
X4.8693Y-3.5959
X5.15Y-4.4701
X5.23Y-3.6535
X5.2769Y-4.2259
T2
X2.75Y-3.925
X2.85Y-3.825
X2.85Y-3.925
X2.85Y-4.025
T3
X2.65Y-4.35
X2.65Y-4.45
X2.65Y-4.55
T4
X3.1Y-3.625
X3.1Y-4.225
X3.2Y-3.625
X3.2Y-4.125
X3.2Y-4.225
X3.3Y-3.625
X3.3Y-4.225
X3.4Y-3.625
X3.4Y-4.125
X3.4Y-4.225
X3.5Y-3.625
X3.5Y-4.125
X3.5Y-4.225
X3.6Y-3.625
X3.6Y-4.125
X3.6Y-4.225
X3.7Y-3.625
X3.7Y-3.925
X3.7Y-4.025
X3.7Y-4.225
X3.8Y-3.625
X3.8Y-3.925
X3.8Y-4.025
X3.8Y-4.225
X3.9Y-3.625
X3.9Y-3.925
X3.9Y-4.025
X3.9Y-4.225
X4.Y-3.625
X4.Y-3.925
X4.Y-4.025
X4.Y-4.225
X4.1Y-3.625
X4.1Y-3.925
X4.1Y-4.025
X4.1Y-4.225
X4.2Y-3.625
X4.2Y-3.925
X4.2Y-4.025
X4.2Y-4.225
X4.3Y-3.625
X4.3Y-3.925
X4.3Y-4.025
X4.3Y-4.225
X4.4Y-3.625
X4.4Y-3.725
X4.4Y-3.825
X4.4Y-3.925
X4.4Y-4.025
X4.4Y-4.125
X4.4Y-4.225
T5
X3.Y-3.225
X3.Y-4.625
X3.1Y-3.225
X3.1Y-4.625
X3.2Y-3.225
X3.2Y-4.625
X3.3Y-3.225
X3.3Y-4.625
X3.4Y-3.225
X3.4Y-4.625
X3.5Y-3.225
X3.5Y-4.625
X3.6Y-3.225
X3.6Y-4.625
X3.7Y-3.225
X3.7Y-4.625
X3.8Y-3.225
X3.8Y-4.625
X3.9Y-3.225
X3.9Y-4.625
X4.Y-3.225
X4.Y-4.625
X4.1Y-3.225
X4.1Y-4.625
X4.2Y-3.225
X4.2Y-4.625
X4.3Y-3.225
X4.3Y-4.625
X4.4Y-3.225
X4.4Y-4.625
X4.5Y-3.225
X4.5Y-4.625
T6
X4.905Y-3.415
X4.905Y-4.435
X4.955Y-3.365
X4.955Y-4.485
X4.96Y-3.73
X4.96Y-4.12
X5.245Y-3.365
X5.245Y-4.485
X5.295Y-3.415
X5.295Y-4.435
T7
X5.0799Y-3.925
T8
X5.2571Y-3.925
T9
X2.5Y-3.725
X2.5Y-4.125
T10
X2.45Y-3.225
X2.45Y-4.625
X3.05Y-3.425
X3.05Y-4.425
X4.6Y-3.925
X4.65Y-3.275
X4.65Y-4.575
T0
M30
