G04 #@! TF.FileFunction,Copper,L2,Bot,Signal*
%FSLAX46Y46*%
G04 Gerber Fmt 4.6, Leading zero omitted, Abs format (unit mm)*
G04 Created by KiCad (PCBNEW 4.1.0-alpha+201607150317+6980~46~ubuntu16.04.1-product) date Fri Jul 15 13:36:51 2016*
%MOMM*%
%LPD*%
G01*
G04 APERTURE LIST*
%ADD10C,0.100000*%
%ADD11C,0.228600*%
%ADD12O,1.854200X2.540000*%
%ADD13R,1.854200X2.540000*%
%ADD14C,3.556000*%
%ADD15R,1.270000X2.540000*%
%ADD16R,2.540000X1.270000*%
%ADD17R,2.800000X2.400000*%
%ADD18C,2.000000*%
%ADD19C,2.200000*%
%ADD20R,1.778000X4.191000*%
%ADD21C,1.397000*%
%ADD22R,2.794000X4.826000*%
%ADD23O,2.540000X1.524000*%
%ADD24O,5.080000X3.048000*%
%ADD25O,2.032000X1.524000*%
%ADD26O,1.524000X2.032000*%
%ADD27R,2.500000X2.000000*%
%ADD28R,4.960000X3.800000*%
%ADD29R,1.440000X1.600000*%
%ADD30R,1.524000X2.540000*%
%ADD31O,1.524000X2.540000*%
%ADD32C,0.889000*%
%ADD33C,1.066800*%
%ADD34C,0.609600*%
%ADD35C,0.203200*%
G04 APERTURE END LIST*
D10*
D11*
X137160000Y-79375000D02*
X59690000Y-79375000D01*
X137160000Y-120015000D02*
X137160000Y-79375000D01*
X59690000Y-120015000D02*
X137160000Y-120015000D01*
X59690000Y-79375000D02*
X59690000Y-120015000D01*
D12*
X78740000Y-81915000D03*
X81280000Y-81915000D03*
D13*
X76200000Y-81915000D03*
D12*
X83820000Y-81915000D03*
X86360000Y-81915000D03*
X88900000Y-81915000D03*
X91440000Y-81915000D03*
X93980000Y-81915000D03*
X96520000Y-81915000D03*
X99060000Y-81915000D03*
X101600000Y-81915000D03*
X104140000Y-81915000D03*
X106680000Y-81915000D03*
X109220000Y-81915000D03*
X111760000Y-81915000D03*
X114300000Y-81915000D03*
X114300000Y-117475000D03*
X111760000Y-117475000D03*
X109220000Y-117475000D03*
X106680000Y-117475000D03*
X104140000Y-117475000D03*
X101600000Y-117475000D03*
X99060000Y-117475000D03*
X96520000Y-117475000D03*
X93980000Y-117475000D03*
X91440000Y-117475000D03*
X88900000Y-117475000D03*
X86360000Y-117475000D03*
X83820000Y-117475000D03*
X81280000Y-117475000D03*
X78740000Y-117475000D03*
X76200000Y-117475000D03*
D14*
X77470000Y-86995000D03*
X77470000Y-112395000D03*
X118110000Y-116205000D03*
X118110000Y-83185000D03*
D15*
X68326000Y-106680000D03*
X71374000Y-106680000D03*
D16*
X62865000Y-112014000D03*
X62865000Y-108966000D03*
D17*
X129030000Y-105395000D03*
X135130000Y-105395000D03*
X129030000Y-93995000D03*
X135130000Y-93995000D03*
D18*
X129030000Y-99695000D03*
D19*
X133530000Y-99695000D03*
D20*
X132080000Y-89916000D03*
X129540000Y-89916000D03*
X127000000Y-89916000D03*
D21*
X134493000Y-86741000D03*
X124587000Y-86741000D03*
D22*
X135534400Y-83185000D03*
X123545600Y-83185000D03*
D21*
X125984000Y-94742000D03*
X125984000Y-104648000D03*
D20*
X127000000Y-109474000D03*
X129540000Y-109474000D03*
X132080000Y-109474000D03*
D21*
X124587000Y-112649000D03*
X134493000Y-112649000D03*
D22*
X123545600Y-116205000D03*
X135534400Y-116205000D03*
D23*
X67310000Y-113030000D03*
X67310000Y-115570000D03*
X67310000Y-110490000D03*
D24*
X63500000Y-104775000D03*
X63500000Y-94615000D03*
D25*
X69596000Y-99695000D03*
D26*
X72390000Y-99695000D03*
X72390000Y-96901000D03*
X72390000Y-102489000D03*
D27*
X71755000Y-115365000D03*
X71755000Y-111965000D03*
D21*
X125857000Y-85471000D03*
X133223000Y-85471000D03*
X133223000Y-113919000D03*
X125857000Y-113919000D03*
D28*
X63115000Y-99695000D03*
D29*
X66915000Y-100760000D03*
X66915000Y-98630000D03*
D14*
X116840000Y-99695000D03*
X62230000Y-117475000D03*
X62230000Y-81915000D03*
D30*
X78740000Y-92075000D03*
D31*
X81280000Y-92075000D03*
X83820000Y-92075000D03*
X86360000Y-92075000D03*
X88900000Y-92075000D03*
X91440000Y-92075000D03*
X93980000Y-92075000D03*
X96520000Y-92075000D03*
X99060000Y-92075000D03*
X101600000Y-92075000D03*
X104140000Y-92075000D03*
X106680000Y-92075000D03*
X109220000Y-92075000D03*
X111760000Y-92075000D03*
X111760000Y-107315000D03*
X109220000Y-107315000D03*
X106680000Y-107315000D03*
X104140000Y-107315000D03*
X101600000Y-107315000D03*
X99060000Y-107315000D03*
X96520000Y-107315000D03*
X93980000Y-107315000D03*
X91440000Y-107315000D03*
X88900000Y-107315000D03*
X86360000Y-107315000D03*
X83820000Y-107315000D03*
X81280000Y-107315000D03*
X78740000Y-107315000D03*
D23*
X111760000Y-104775000D03*
X111760000Y-102235000D03*
X111760000Y-99695000D03*
X111760000Y-97155000D03*
X111760000Y-94615000D03*
D31*
X81280000Y-104267000D03*
X86360000Y-104267000D03*
X88900000Y-104267000D03*
X91440000Y-104267000D03*
X93980000Y-102743000D03*
X93980000Y-99187000D03*
X96520000Y-102743000D03*
X96520000Y-99187000D03*
X99060000Y-99187000D03*
X101600000Y-99187000D03*
X104140000Y-99187000D03*
X106680000Y-99187000D03*
X109220000Y-99187000D03*
X99060000Y-102743000D03*
X101600000Y-102743000D03*
X104140000Y-102743000D03*
X106680000Y-102743000D03*
X109220000Y-102743000D03*
D16*
X69850000Y-84201000D03*
X69850000Y-87249000D03*
D15*
X76454000Y-106680000D03*
X73406000Y-106680000D03*
D32*
X81563000Y-89119800D03*
X121531100Y-91334700D03*
X130810000Y-113540100D03*
X132841500Y-92799200D03*
X71849000Y-87731300D03*
X123679300Y-91334700D03*
X115477700Y-89333100D03*
X117342800Y-90395800D03*
X134033400Y-107337300D03*
X117943900Y-104297300D03*
X120831700Y-94702800D03*
X74972600Y-106483600D03*
D33*
X135130000Y-105395000D02*
X132942300Y-105395000D01*
X132942300Y-105395000D02*
X129030000Y-105395000D01*
X129030000Y-105395000D02*
X129030000Y-103407300D01*
X66915000Y-100760000D02*
X66915000Y-98630000D01*
X80665600Y-90017200D02*
X81563000Y-89119800D01*
X75527800Y-90017200D02*
X80665600Y-90017200D01*
X66915000Y-98630000D02*
X75527800Y-90017200D01*
X123054800Y-92858400D02*
X121531100Y-91334700D01*
X123054800Y-97432100D02*
X123054800Y-92858400D01*
X129030000Y-103407300D02*
X123054800Y-97432100D01*
X64287700Y-110388700D02*
X62865000Y-110388700D01*
X65252300Y-111353300D02*
X64287700Y-110388700D01*
X65252300Y-113030000D02*
X65252300Y-111353300D01*
X62865000Y-108966000D02*
X62865000Y-110388700D01*
X66922700Y-113030000D02*
X65252300Y-113030000D01*
X66922700Y-113030000D02*
X67310000Y-113030000D01*
X129627100Y-112357200D02*
X130810000Y-113540100D01*
X129540000Y-112357200D02*
X129627100Y-112357200D01*
X129540000Y-109474000D02*
X129540000Y-112357200D01*
X72719600Y-104622300D02*
X73406000Y-104622300D01*
X72390000Y-104292700D02*
X72719600Y-104622300D01*
X72390000Y-102235000D02*
X72390000Y-104292700D01*
X67310000Y-113030000D02*
X69367700Y-113030000D01*
X71374000Y-106680000D02*
X71374000Y-108737700D01*
X73406000Y-106680000D02*
X73406000Y-105881800D01*
X73406000Y-105881800D02*
X73406000Y-104622300D01*
X72796700Y-106491100D02*
X72796700Y-106680000D01*
X73406000Y-105881800D02*
X72796700Y-106491100D01*
X71374000Y-106680000D02*
X72796700Y-106680000D01*
X69367700Y-110744000D02*
X71374000Y-108737700D01*
X69367700Y-113030000D02*
X69367700Y-110744000D01*
X129540000Y-89916000D02*
X129540000Y-92799200D01*
X129258300Y-92799200D02*
X129030000Y-93027500D01*
X129540000Y-92799200D02*
X129258300Y-92799200D01*
X129030000Y-93511200D02*
X129030000Y-93027500D01*
X129030000Y-93511200D02*
X129030000Y-93995000D01*
X129030000Y-93995000D02*
X129030000Y-94988800D01*
X130651900Y-94988800D02*
X132841500Y-92799200D01*
X129030000Y-94988800D02*
X130651900Y-94988800D01*
X69850000Y-87249000D02*
X69850000Y-88671700D01*
X70908600Y-88671700D02*
X71849000Y-87731300D01*
X69850000Y-88671700D02*
X70908600Y-88671700D01*
X125372100Y-93027500D02*
X123679300Y-91334700D01*
X129030000Y-93027500D02*
X125372100Y-93027500D01*
X76962000Y-94132700D02*
X73939700Y-97155000D01*
X78740000Y-94132700D02*
X76962000Y-94132700D01*
X78740000Y-92075000D02*
X78740000Y-94132700D01*
X72390000Y-97155000D02*
X73939700Y-97155000D01*
D34*
X131950600Y-87261300D02*
X132080000Y-87390700D01*
X125769000Y-87261300D02*
X131950600Y-87261300D01*
X125085600Y-87944700D02*
X125769000Y-87261300D01*
X116866100Y-87944700D02*
X125085600Y-87944700D01*
X115477700Y-89333100D02*
X116866100Y-87944700D01*
X132080000Y-89916000D02*
X132080000Y-87390700D01*
X117822600Y-89916000D02*
X117342800Y-90395800D01*
X127000000Y-89916000D02*
X117822600Y-89916000D01*
X118678100Y-106948700D02*
X127000000Y-106948700D01*
X115292000Y-103562600D02*
X118678100Y-106948700D01*
X110578500Y-103562600D02*
X115292000Y-103562600D01*
X109715100Y-104426000D02*
X110578500Y-103562600D01*
X106168400Y-104426000D02*
X109715100Y-104426000D01*
X105410000Y-103667600D02*
X106168400Y-104426000D01*
X105410000Y-101836700D02*
X105410000Y-103667600D01*
X104538300Y-100965000D02*
X105410000Y-101836700D01*
X103753700Y-100965000D02*
X104538300Y-100965000D01*
X102971200Y-100182500D02*
X103753700Y-100965000D01*
X102971200Y-97686000D02*
X102971200Y-100182500D01*
X99060000Y-93774800D02*
X102971200Y-97686000D01*
X99060000Y-92075000D02*
X99060000Y-93774800D01*
X127000000Y-109474000D02*
X127000000Y-106948700D01*
X134033400Y-107520600D02*
X134033400Y-107337300D01*
X132080000Y-109474000D02*
X134033400Y-107520600D01*
D33*
X67310000Y-115570000D02*
X65252300Y-115570000D01*
X62865000Y-112014000D02*
X62865000Y-113436700D01*
X63388000Y-113436700D02*
X62865000Y-113436700D01*
X65252300Y-115301000D02*
X63388000Y-113436700D01*
X65252300Y-115570000D02*
X65252300Y-115301000D01*
X69572700Y-115365000D02*
X69367700Y-115570000D01*
X71755000Y-115365000D02*
X69572700Y-115365000D01*
X67310000Y-115570000D02*
X69367700Y-115570000D01*
X120831700Y-101409500D02*
X117943900Y-104297300D01*
X120831700Y-94702800D02*
X120831700Y-101409500D01*
X66086400Y-102382700D02*
X68326000Y-104622300D01*
X63115000Y-102382700D02*
X66086400Y-102382700D01*
X68326000Y-106680000D02*
X68326000Y-104622300D01*
X68123400Y-108940300D02*
X68326000Y-108737700D01*
X67310000Y-108940300D02*
X68123400Y-108940300D01*
X68326000Y-106680000D02*
X68326000Y-108737700D01*
X67310000Y-110490000D02*
X67310000Y-108940300D01*
X63115000Y-101038800D02*
X63115000Y-102382700D01*
X63115000Y-101038800D02*
X63115000Y-99695000D01*
X68427300Y-85623700D02*
X69850000Y-85623700D01*
X66857800Y-87193200D02*
X68427300Y-85623700D01*
X66857800Y-95542700D02*
X66857800Y-87193200D01*
X65393200Y-97007300D02*
X66857800Y-95542700D01*
X63115000Y-97007300D02*
X65393200Y-97007300D01*
X63115000Y-99695000D02*
X63115000Y-97007300D01*
X69850000Y-84645400D02*
X69850000Y-85623700D01*
X69850000Y-84645400D02*
X69850000Y-84429200D01*
X69850000Y-84201000D02*
X69850000Y-84429200D01*
X71971000Y-84429200D02*
X74485200Y-81915000D01*
X69850000Y-84429200D02*
X71971000Y-84429200D01*
X76200000Y-81915000D02*
X74485200Y-81915000D01*
X71755000Y-111965000D02*
X73462400Y-111965000D01*
X78740000Y-117475000D02*
X78740000Y-115417300D01*
X77876700Y-106120600D02*
X77876700Y-106680000D01*
X78740000Y-105257300D02*
X77876700Y-106120600D01*
X78740000Y-107315000D02*
X78740000Y-105257300D01*
X76454000Y-106680000D02*
X77876700Y-106680000D01*
X76793600Y-115417300D02*
X78740000Y-115417300D01*
X73462400Y-112086100D02*
X76793600Y-115417300D01*
X73462400Y-111965000D02*
X73462400Y-112086100D01*
X76454000Y-108973400D02*
X76454000Y-106680000D01*
X73462400Y-111965000D02*
X76454000Y-108973400D01*
D34*
X86360000Y-92075000D02*
X86360000Y-81915000D01*
X88900000Y-83614800D02*
X88900000Y-90375200D01*
X88900000Y-81915000D02*
X88900000Y-83614800D01*
X88900000Y-92075000D02*
X88900000Y-90375200D01*
X91440000Y-83614800D02*
X91440000Y-90375200D01*
X91440000Y-81915000D02*
X91440000Y-83614800D01*
X91440000Y-92075000D02*
X91440000Y-90375200D01*
X93980000Y-92075000D02*
X93980000Y-81915000D01*
X96520000Y-92075000D02*
X96520000Y-81915000D01*
X104140000Y-92075000D02*
X104140000Y-81915000D01*
X106680000Y-92075000D02*
X106680000Y-81915000D01*
X109220000Y-90375200D02*
X109220000Y-83614800D01*
X109220000Y-92075000D02*
X109220000Y-90375200D01*
X109220000Y-81915000D02*
X109220000Y-83614800D01*
X111760000Y-92075000D02*
X111760000Y-81915000D01*
X113459800Y-114935000D02*
X114300000Y-115775200D01*
X113459800Y-104775000D02*
X113459800Y-114935000D01*
X111760000Y-104775000D02*
X113459800Y-104775000D01*
X114300000Y-117475000D02*
X114300000Y-115775200D01*
X111760000Y-117475000D02*
X111760000Y-115775200D01*
X111760000Y-107315000D02*
X111760000Y-115775200D01*
X109220000Y-107315000D02*
X109220000Y-117475000D01*
X106680000Y-107315000D02*
X106680000Y-117475000D01*
X104140000Y-107315000D02*
X104140000Y-117475000D01*
X101600000Y-107315000D02*
X101600000Y-117475000D01*
X99060000Y-107315000D02*
X99060000Y-117475000D01*
X96520000Y-107315000D02*
X96520000Y-117475000D01*
X93980000Y-107315000D02*
X93980000Y-117475000D01*
X91440000Y-107315000D02*
X91440000Y-117475000D01*
X88900000Y-107315000D02*
X88900000Y-117475000D01*
X86360000Y-107315000D02*
X86360000Y-117475000D01*
D33*
X83820000Y-107315000D02*
X83820000Y-117475000D01*
X81280000Y-117475000D02*
X81280000Y-115417300D01*
X81280000Y-107315000D02*
X81280000Y-109372700D01*
X81280000Y-115417300D02*
X81280000Y-109372700D01*
X77864500Y-102209300D02*
X86360000Y-102209300D01*
X74972600Y-105101200D02*
X77864500Y-102209300D01*
X74972600Y-106483600D02*
X74972600Y-105101200D01*
X86360000Y-104775000D02*
X86360000Y-102209300D01*
D34*
X82664900Y-83299900D02*
X81280000Y-81915000D01*
X82664900Y-90500300D02*
X82664900Y-83299900D01*
X82610600Y-90554600D02*
X82664900Y-90500300D01*
X82610600Y-93032900D02*
X82610600Y-90554600D01*
X86989600Y-97411900D02*
X82610600Y-93032900D01*
X98984700Y-97411900D02*
X86989600Y-97411900D01*
X99060000Y-97487200D02*
X98984700Y-97411900D01*
X99060000Y-99695000D02*
X99060000Y-97487200D01*
X85026100Y-83121100D02*
X83820000Y-81915000D01*
X85026100Y-92911900D02*
X85026100Y-83121100D01*
X86206000Y-94091800D02*
X85026100Y-92911900D01*
X98204600Y-94091800D02*
X86206000Y-94091800D01*
X101600000Y-97487200D02*
X98204600Y-94091800D01*
X101600000Y-99695000D02*
X101600000Y-97487200D01*
X100266100Y-83121100D02*
X99060000Y-81915000D01*
X100266100Y-93110600D02*
X100266100Y-83121100D01*
X105340500Y-98185000D02*
X100266100Y-93110600D01*
X105340500Y-100232300D02*
X105340500Y-98185000D01*
X106151400Y-101043200D02*
X105340500Y-100232300D01*
X106680000Y-101043200D02*
X106151400Y-101043200D01*
X106680000Y-102235000D02*
X106680000Y-101043200D01*
X102806100Y-83121100D02*
X101600000Y-81915000D01*
X102806100Y-92980000D02*
X102806100Y-83121100D01*
X108028200Y-98202100D02*
X102806100Y-92980000D01*
X108028200Y-100223900D02*
X108028200Y-98202100D01*
X108847500Y-101043200D02*
X108028200Y-100223900D01*
X109220000Y-101043200D02*
X108847500Y-101043200D01*
X109220000Y-102235000D02*
X109220000Y-101043200D01*
X109220000Y-97377900D02*
X109220000Y-99695000D01*
X110712900Y-95885000D02*
X109220000Y-97377900D01*
X112790500Y-95885000D02*
X110712900Y-95885000D01*
X114300000Y-94375500D02*
X112790500Y-95885000D01*
X114300000Y-83614800D02*
X114300000Y-94375500D01*
X114300000Y-81915000D02*
X114300000Y-83614800D01*
X74851800Y-100965000D02*
X73581800Y-99695000D01*
X94567000Y-100965000D02*
X74851800Y-100965000D01*
X95247200Y-101645200D02*
X94567000Y-100965000D01*
X95247200Y-103813900D02*
X95247200Y-101645200D01*
X95969400Y-104536100D02*
X95247200Y-103813900D01*
X101506700Y-104536100D02*
X95969400Y-104536100D01*
X101600000Y-104442800D02*
X101506700Y-104536100D01*
X101600000Y-102235000D02*
X101600000Y-104442800D01*
X72390000Y-99695000D02*
X73581800Y-99695000D01*
D35*
G36*
X136740900Y-80461229D02*
X134137400Y-80461229D01*
X134018473Y-80484885D01*
X133917652Y-80552252D01*
X133850285Y-80653073D01*
X133826629Y-80772000D01*
X133826629Y-84655563D01*
X133792066Y-84620939D01*
X133423444Y-84467874D01*
X133024307Y-84467526D01*
X132655419Y-84619948D01*
X132372939Y-84901934D01*
X132219874Y-85270556D01*
X132219526Y-85669693D01*
X132371948Y-86038581D01*
X132653934Y-86321061D01*
X133022556Y-86474126D01*
X133421693Y-86474474D01*
X133537117Y-86426781D01*
X133489874Y-86540556D01*
X133489526Y-86939693D01*
X133641948Y-87308581D01*
X133923934Y-87591061D01*
X134292556Y-87744126D01*
X134691693Y-87744474D01*
X135060581Y-87592052D01*
X135343061Y-87310066D01*
X135496126Y-86941444D01*
X135496474Y-86542307D01*
X135344052Y-86173419D01*
X135079867Y-85908771D01*
X136740900Y-85908771D01*
X136740900Y-92569340D01*
X136648927Y-92507885D01*
X136530000Y-92484229D01*
X133730000Y-92484229D01*
X133611073Y-92507885D01*
X133510252Y-92575252D01*
X133442885Y-92676073D01*
X133419229Y-92795000D01*
X133419229Y-95195000D01*
X133442885Y-95313927D01*
X133510252Y-95414748D01*
X133611073Y-95482115D01*
X133730000Y-95505771D01*
X136530000Y-95505771D01*
X136648927Y-95482115D01*
X136740900Y-95420660D01*
X136740900Y-103908243D01*
X136668748Y-103860033D01*
X136530000Y-103832434D01*
X133730000Y-103832434D01*
X133591252Y-103860033D01*
X133473627Y-103938627D01*
X133395033Y-104056252D01*
X133367434Y-104195000D01*
X133367434Y-104506000D01*
X130792566Y-104506000D01*
X130792566Y-104195000D01*
X130764967Y-104056252D01*
X130686373Y-103938627D01*
X130568748Y-103860033D01*
X130430000Y-103832434D01*
X129919000Y-103832434D01*
X129919000Y-103407300D01*
X129851329Y-103067094D01*
X129658618Y-102778682D01*
X126833338Y-99953402D01*
X127724974Y-99953402D01*
X127923199Y-100433144D01*
X128289925Y-100800511D01*
X128769320Y-100999573D01*
X129288402Y-101000026D01*
X129768144Y-100801801D01*
X130135511Y-100435075D01*
X130327295Y-99973206D01*
X132124956Y-99973206D01*
X132338374Y-100489716D01*
X132733206Y-100885237D01*
X133249342Y-101099556D01*
X133808206Y-101100044D01*
X134324716Y-100886626D01*
X134720237Y-100491794D01*
X134934556Y-99975658D01*
X134935044Y-99416794D01*
X134721626Y-98900284D01*
X134326794Y-98504763D01*
X133810658Y-98290444D01*
X133251794Y-98289956D01*
X132735284Y-98503374D01*
X132339763Y-98898206D01*
X132125444Y-99414342D01*
X132124956Y-99973206D01*
X130327295Y-99973206D01*
X130334573Y-99955680D01*
X130335026Y-99436598D01*
X130136801Y-98956856D01*
X129770075Y-98589489D01*
X129290680Y-98390427D01*
X128771598Y-98389974D01*
X128291856Y-98588199D01*
X127924489Y-98954925D01*
X127725427Y-99434320D01*
X127724974Y-99953402D01*
X126833338Y-99953402D01*
X123943800Y-97063864D01*
X123943800Y-94940693D01*
X124980526Y-94940693D01*
X125132948Y-95309581D01*
X125414934Y-95592061D01*
X125783556Y-95745126D01*
X126182693Y-95745474D01*
X126551581Y-95593052D01*
X126834061Y-95311066D01*
X126987126Y-94942444D01*
X126987474Y-94543307D01*
X126886859Y-94299800D01*
X127020400Y-94299800D01*
X127020400Y-95316257D01*
X127113206Y-95540311D01*
X127284689Y-95711794D01*
X127508743Y-95804600D01*
X128725200Y-95804600D01*
X128877600Y-95652200D01*
X128877600Y-94147400D01*
X129182400Y-94147400D01*
X129182400Y-95652200D01*
X129334800Y-95804600D01*
X130551257Y-95804600D01*
X130775311Y-95711794D01*
X130946794Y-95540311D01*
X131039600Y-95316257D01*
X131039600Y-94299800D01*
X130887200Y-94147400D01*
X129182400Y-94147400D01*
X128877600Y-94147400D01*
X127172800Y-94147400D01*
X127020400Y-94299800D01*
X126886859Y-94299800D01*
X126835052Y-94174419D01*
X126553066Y-93891939D01*
X126184444Y-93738874D01*
X125785307Y-93738526D01*
X125416419Y-93890948D01*
X125133939Y-94172934D01*
X124980874Y-94541556D01*
X124980526Y-94940693D01*
X123943800Y-94940693D01*
X123943800Y-92858400D01*
X123876129Y-92518194D01*
X123683418Y-92229782D01*
X122159718Y-90706082D01*
X121889607Y-90525600D01*
X125800229Y-90525600D01*
X125800229Y-92011500D01*
X125823885Y-92130427D01*
X125891252Y-92231248D01*
X125992073Y-92298615D01*
X126111000Y-92322271D01*
X127240624Y-92322271D01*
X127113206Y-92449689D01*
X127020400Y-92673743D01*
X127020400Y-93690200D01*
X127172800Y-93842600D01*
X128877600Y-93842600D01*
X128877600Y-93822600D01*
X129182400Y-93822600D01*
X129182400Y-93842600D01*
X130887200Y-93842600D01*
X131039600Y-93690200D01*
X131039600Y-92673743D01*
X130946794Y-92449689D01*
X130899855Y-92402750D01*
X130945794Y-92356811D01*
X130992048Y-92245144D01*
X131072073Y-92298615D01*
X131191000Y-92322271D01*
X132969000Y-92322271D01*
X133087927Y-92298615D01*
X133188748Y-92231248D01*
X133256115Y-92130427D01*
X133279771Y-92011500D01*
X133279771Y-87820500D01*
X133256115Y-87701573D01*
X133188748Y-87600752D01*
X133087927Y-87533385D01*
X132969000Y-87509729D01*
X132689600Y-87509729D01*
X132689600Y-87390700D01*
X132643197Y-87157416D01*
X132511052Y-86959648D01*
X132381652Y-86830248D01*
X132183884Y-86698103D01*
X131950600Y-86651700D01*
X125769000Y-86651700D01*
X125590348Y-86687236D01*
X125590474Y-86542307D01*
X125542781Y-86426883D01*
X125656556Y-86474126D01*
X126055693Y-86474474D01*
X126424581Y-86322052D01*
X126707061Y-86040066D01*
X126860126Y-85671444D01*
X126860474Y-85272307D01*
X126708052Y-84903419D01*
X126426066Y-84620939D01*
X126057444Y-84467874D01*
X125658307Y-84467526D01*
X125289419Y-84619948D01*
X125253371Y-84655933D01*
X125253371Y-80772000D01*
X125229715Y-80653073D01*
X125162348Y-80552252D01*
X125061527Y-80484885D01*
X124942600Y-80461229D01*
X122148600Y-80461229D01*
X122029673Y-80484885D01*
X121928852Y-80552252D01*
X121861485Y-80653073D01*
X121837829Y-80772000D01*
X121837829Y-85598000D01*
X121861485Y-85716927D01*
X121928852Y-85817748D01*
X122029673Y-85885115D01*
X122148600Y-85908771D01*
X124000563Y-85908771D01*
X123736939Y-86171934D01*
X123583874Y-86540556D01*
X123583526Y-86939693D01*
X123735948Y-87308581D01*
X123762421Y-87335100D01*
X116866100Y-87335100D01*
X116632816Y-87381503D01*
X116435048Y-87513648D01*
X115364995Y-88583701D01*
X115329309Y-88583670D01*
X115053810Y-88697504D01*
X114909600Y-88841462D01*
X114909600Y-83597477D01*
X116026840Y-83597477D01*
X116343259Y-84363270D01*
X116928648Y-84949682D01*
X117693888Y-85267437D01*
X118522477Y-85268160D01*
X119288270Y-84951741D01*
X119874682Y-84366352D01*
X120192437Y-83601112D01*
X120193160Y-82772523D01*
X119876741Y-82006730D01*
X119291352Y-81420318D01*
X118526112Y-81102563D01*
X117697523Y-81101840D01*
X116931730Y-81418259D01*
X116345318Y-82003648D01*
X116027563Y-82768888D01*
X116026840Y-83597477D01*
X114909600Y-83597477D01*
X114909600Y-83334556D01*
X115171085Y-83159837D01*
X115438127Y-82760180D01*
X115531900Y-82288752D01*
X115531900Y-81541248D01*
X115438127Y-81069820D01*
X115171085Y-80670163D01*
X114771428Y-80403121D01*
X114300000Y-80309348D01*
X113828572Y-80403121D01*
X113428915Y-80670163D01*
X113161873Y-81069820D01*
X113068100Y-81541248D01*
X113068100Y-82288752D01*
X113161873Y-82760180D01*
X113428915Y-83159837D01*
X113690400Y-83334556D01*
X113690400Y-94122995D01*
X113337902Y-94475493D01*
X113284447Y-94206753D01*
X113053194Y-93860658D01*
X112707099Y-93629405D01*
X112298852Y-93548200D01*
X112244944Y-93548200D01*
X112514342Y-93368194D01*
X112745595Y-93022099D01*
X112826800Y-92613852D01*
X112826800Y-91536148D01*
X112745595Y-91127901D01*
X112514342Y-90781806D01*
X112369600Y-90685093D01*
X112369600Y-83334556D01*
X112631085Y-83159837D01*
X112898127Y-82760180D01*
X112991900Y-82288752D01*
X112991900Y-81541248D01*
X112898127Y-81069820D01*
X112631085Y-80670163D01*
X112231428Y-80403121D01*
X111760000Y-80309348D01*
X111288572Y-80403121D01*
X110888915Y-80670163D01*
X110621873Y-81069820D01*
X110528100Y-81541248D01*
X110528100Y-82288752D01*
X110621873Y-82760180D01*
X110888915Y-83159837D01*
X111150400Y-83334556D01*
X111150400Y-90685093D01*
X111005658Y-90781806D01*
X110774405Y-91127901D01*
X110693200Y-91536148D01*
X110693200Y-92613852D01*
X110774405Y-93022099D01*
X111005658Y-93368194D01*
X111275056Y-93548200D01*
X111221148Y-93548200D01*
X110812901Y-93629405D01*
X110466806Y-93860658D01*
X110235553Y-94206753D01*
X110154348Y-94615000D01*
X110235553Y-95023247D01*
X110448800Y-95342394D01*
X110281847Y-95453948D01*
X108788948Y-96946848D01*
X108656803Y-97144616D01*
X108610400Y-97377900D01*
X108610400Y-97797093D01*
X108517936Y-97858875D01*
X108484579Y-97808952D01*
X108459253Y-97771048D01*
X104330887Y-93642682D01*
X104548247Y-93599447D01*
X104894342Y-93368194D01*
X105125595Y-93022099D01*
X105206800Y-92613852D01*
X105206800Y-91536148D01*
X105125595Y-91127901D01*
X104894342Y-90781806D01*
X104749600Y-90685093D01*
X104749600Y-83334556D01*
X105011085Y-83159837D01*
X105278127Y-82760180D01*
X105371900Y-82288752D01*
X105371900Y-81541248D01*
X105448100Y-81541248D01*
X105448100Y-82288752D01*
X105541873Y-82760180D01*
X105808915Y-83159837D01*
X106070400Y-83334556D01*
X106070400Y-90685093D01*
X105925658Y-90781806D01*
X105694405Y-91127901D01*
X105613200Y-91536148D01*
X105613200Y-92613852D01*
X105694405Y-93022099D01*
X105925658Y-93368194D01*
X106271753Y-93599447D01*
X106680000Y-93680652D01*
X107088247Y-93599447D01*
X107434342Y-93368194D01*
X107665595Y-93022099D01*
X107746800Y-92613852D01*
X107746800Y-91536148D01*
X107665595Y-91127901D01*
X107434342Y-90781806D01*
X107289600Y-90685093D01*
X107289600Y-83334556D01*
X107551085Y-83159837D01*
X107818127Y-82760180D01*
X107911900Y-82288752D01*
X107911900Y-81541248D01*
X107988100Y-81541248D01*
X107988100Y-82288752D01*
X108081873Y-82760180D01*
X108348915Y-83159837D01*
X108610400Y-83334556D01*
X108610400Y-90685093D01*
X108465658Y-90781806D01*
X108234405Y-91127901D01*
X108153200Y-91536148D01*
X108153200Y-92613852D01*
X108234405Y-93022099D01*
X108465658Y-93368194D01*
X108811753Y-93599447D01*
X109220000Y-93680652D01*
X109628247Y-93599447D01*
X109974342Y-93368194D01*
X110205595Y-93022099D01*
X110286800Y-92613852D01*
X110286800Y-91536148D01*
X110205595Y-91127901D01*
X109974342Y-90781806D01*
X109829600Y-90685093D01*
X109829600Y-83334556D01*
X110091085Y-83159837D01*
X110358127Y-82760180D01*
X110451900Y-82288752D01*
X110451900Y-81541248D01*
X110358127Y-81069820D01*
X110091085Y-80670163D01*
X109691428Y-80403121D01*
X109220000Y-80309348D01*
X108748572Y-80403121D01*
X108348915Y-80670163D01*
X108081873Y-81069820D01*
X107988100Y-81541248D01*
X107911900Y-81541248D01*
X107818127Y-81069820D01*
X107551085Y-80670163D01*
X107151428Y-80403121D01*
X106680000Y-80309348D01*
X106208572Y-80403121D01*
X105808915Y-80670163D01*
X105541873Y-81069820D01*
X105448100Y-81541248D01*
X105371900Y-81541248D01*
X105278127Y-81069820D01*
X105011085Y-80670163D01*
X104611428Y-80403121D01*
X104140000Y-80309348D01*
X103668572Y-80403121D01*
X103268915Y-80670163D01*
X103001873Y-81069820D01*
X102908100Y-81541248D01*
X102908100Y-82288752D01*
X102926038Y-82378934D01*
X102831900Y-82284796D01*
X102831900Y-81541248D01*
X102738127Y-81069820D01*
X102471085Y-80670163D01*
X102071428Y-80403121D01*
X101600000Y-80309348D01*
X101128572Y-80403121D01*
X100728915Y-80670163D01*
X100461873Y-81069820D01*
X100368100Y-81541248D01*
X100368100Y-82288752D01*
X100386038Y-82378934D01*
X100291900Y-82284796D01*
X100291900Y-81541248D01*
X100198127Y-81069820D01*
X99931085Y-80670163D01*
X99531428Y-80403121D01*
X99060000Y-80309348D01*
X98588572Y-80403121D01*
X98188915Y-80670163D01*
X97921873Y-81069820D01*
X97828100Y-81541248D01*
X97828100Y-82288752D01*
X97921873Y-82760180D01*
X98188915Y-83159837D01*
X98588572Y-83426879D01*
X99060000Y-83520652D01*
X99531428Y-83426879D01*
X99638339Y-83355443D01*
X99656500Y-83373604D01*
X99656500Y-90676339D01*
X99468247Y-90550553D01*
X99060000Y-90469348D01*
X98651753Y-90550553D01*
X98305658Y-90781806D01*
X98074405Y-91127901D01*
X97993200Y-91536148D01*
X97993200Y-92613852D01*
X98074405Y-93022099D01*
X98305658Y-93368194D01*
X98450400Y-93464907D01*
X98450400Y-93536966D01*
X98437884Y-93528603D01*
X98204600Y-93482200D01*
X97103720Y-93482200D01*
X97274342Y-93368194D01*
X97505595Y-93022099D01*
X97586800Y-92613852D01*
X97586800Y-91536148D01*
X97505595Y-91127901D01*
X97274342Y-90781806D01*
X97129600Y-90685093D01*
X97129600Y-83334556D01*
X97391085Y-83159837D01*
X97658127Y-82760180D01*
X97751900Y-82288752D01*
X97751900Y-81541248D01*
X97658127Y-81069820D01*
X97391085Y-80670163D01*
X96991428Y-80403121D01*
X96520000Y-80309348D01*
X96048572Y-80403121D01*
X95648915Y-80670163D01*
X95381873Y-81069820D01*
X95288100Y-81541248D01*
X95288100Y-82288752D01*
X95381873Y-82760180D01*
X95648915Y-83159837D01*
X95910400Y-83334556D01*
X95910400Y-90685093D01*
X95765658Y-90781806D01*
X95534405Y-91127901D01*
X95453200Y-91536148D01*
X95453200Y-92613852D01*
X95534405Y-93022099D01*
X95765658Y-93368194D01*
X95936280Y-93482200D01*
X94563720Y-93482200D01*
X94734342Y-93368194D01*
X94965595Y-93022099D01*
X95046800Y-92613852D01*
X95046800Y-91536148D01*
X94965595Y-91127901D01*
X94734342Y-90781806D01*
X94589600Y-90685093D01*
X94589600Y-83334556D01*
X94851085Y-83159837D01*
X95118127Y-82760180D01*
X95211900Y-82288752D01*
X95211900Y-81541248D01*
X95118127Y-81069820D01*
X94851085Y-80670163D01*
X94451428Y-80403121D01*
X93980000Y-80309348D01*
X93508572Y-80403121D01*
X93108915Y-80670163D01*
X92841873Y-81069820D01*
X92748100Y-81541248D01*
X92748100Y-82288752D01*
X92841873Y-82760180D01*
X93108915Y-83159837D01*
X93370400Y-83334556D01*
X93370400Y-90685093D01*
X93225658Y-90781806D01*
X92994405Y-91127901D01*
X92913200Y-91536148D01*
X92913200Y-92613852D01*
X92994405Y-93022099D01*
X93225658Y-93368194D01*
X93396280Y-93482200D01*
X92023720Y-93482200D01*
X92194342Y-93368194D01*
X92425595Y-93022099D01*
X92506800Y-92613852D01*
X92506800Y-91536148D01*
X92425595Y-91127901D01*
X92194342Y-90781806D01*
X92049600Y-90685093D01*
X92049600Y-83334556D01*
X92311085Y-83159837D01*
X92578127Y-82760180D01*
X92671900Y-82288752D01*
X92671900Y-81541248D01*
X92578127Y-81069820D01*
X92311085Y-80670163D01*
X91911428Y-80403121D01*
X91440000Y-80309348D01*
X90968572Y-80403121D01*
X90568915Y-80670163D01*
X90301873Y-81069820D01*
X90208100Y-81541248D01*
X90208100Y-82288752D01*
X90301873Y-82760180D01*
X90568915Y-83159837D01*
X90830400Y-83334556D01*
X90830400Y-90685093D01*
X90685658Y-90781806D01*
X90454405Y-91127901D01*
X90373200Y-91536148D01*
X90373200Y-92613852D01*
X90454405Y-93022099D01*
X90685658Y-93368194D01*
X90856280Y-93482200D01*
X89483720Y-93482200D01*
X89654342Y-93368194D01*
X89885595Y-93022099D01*
X89966800Y-92613852D01*
X89966800Y-91536148D01*
X89885595Y-91127901D01*
X89654342Y-90781806D01*
X89509600Y-90685093D01*
X89509600Y-83334556D01*
X89771085Y-83159837D01*
X90038127Y-82760180D01*
X90131900Y-82288752D01*
X90131900Y-81541248D01*
X90038127Y-81069820D01*
X89771085Y-80670163D01*
X89371428Y-80403121D01*
X88900000Y-80309348D01*
X88428572Y-80403121D01*
X88028915Y-80670163D01*
X87761873Y-81069820D01*
X87668100Y-81541248D01*
X87668100Y-82288752D01*
X87761873Y-82760180D01*
X88028915Y-83159837D01*
X88290400Y-83334556D01*
X88290400Y-90685093D01*
X88145658Y-90781806D01*
X87914405Y-91127901D01*
X87833200Y-91536148D01*
X87833200Y-92613852D01*
X87914405Y-93022099D01*
X88145658Y-93368194D01*
X88316280Y-93482200D01*
X86943720Y-93482200D01*
X87114342Y-93368194D01*
X87345595Y-93022099D01*
X87426800Y-92613852D01*
X87426800Y-91536148D01*
X87345595Y-91127901D01*
X87114342Y-90781806D01*
X86969600Y-90685093D01*
X86969600Y-83334556D01*
X87231085Y-83159837D01*
X87498127Y-82760180D01*
X87591900Y-82288752D01*
X87591900Y-81541248D01*
X87498127Y-81069820D01*
X87231085Y-80670163D01*
X86831428Y-80403121D01*
X86360000Y-80309348D01*
X85888572Y-80403121D01*
X85488915Y-80670163D01*
X85221873Y-81069820D01*
X85128100Y-81541248D01*
X85128100Y-82288752D01*
X85146038Y-82378934D01*
X85051900Y-82284796D01*
X85051900Y-81541248D01*
X84958127Y-81069820D01*
X84691085Y-80670163D01*
X84291428Y-80403121D01*
X83820000Y-80309348D01*
X83348572Y-80403121D01*
X82948915Y-80670163D01*
X82681873Y-81069820D01*
X82588100Y-81541248D01*
X82588100Y-82288752D01*
X82606038Y-82378934D01*
X82511900Y-82284795D01*
X82511900Y-81541248D01*
X82418127Y-81069820D01*
X82151085Y-80670163D01*
X81751428Y-80403121D01*
X81280000Y-80309348D01*
X80808572Y-80403121D01*
X80408915Y-80670163D01*
X80161414Y-81040575D01*
X80101405Y-80843231D01*
X79718848Y-80377726D01*
X79187270Y-80094053D01*
X79129731Y-80085643D01*
X78892400Y-80196215D01*
X78892400Y-81762600D01*
X78912400Y-81762600D01*
X78912400Y-82067400D01*
X78892400Y-82067400D01*
X78892400Y-83633785D01*
X79129731Y-83744357D01*
X79187270Y-83735947D01*
X79718848Y-83452274D01*
X80101405Y-82986769D01*
X80161414Y-82789425D01*
X80408915Y-83159837D01*
X80808572Y-83426879D01*
X81280000Y-83520652D01*
X81751428Y-83426879D01*
X81858339Y-83355444D01*
X82055300Y-83552405D01*
X82055300Y-88400097D01*
X81903205Y-88298471D01*
X81563000Y-88230800D01*
X81222794Y-88298471D01*
X80934382Y-88491182D01*
X80297364Y-89128200D01*
X75527800Y-89128200D01*
X75187595Y-89195870D01*
X74899182Y-89388582D01*
X66768535Y-97519229D01*
X66195000Y-97519229D01*
X66124480Y-97533256D01*
X67486418Y-96171318D01*
X67487696Y-96169405D01*
X67679129Y-95882906D01*
X67746800Y-95542700D01*
X67746800Y-87561436D01*
X67970400Y-87337836D01*
X67970400Y-87401402D01*
X68122798Y-87401402D01*
X67970400Y-87553800D01*
X67970400Y-88005257D01*
X68063206Y-88229311D01*
X68234689Y-88400794D01*
X68458743Y-88493600D01*
X69545200Y-88493600D01*
X69697600Y-88341200D01*
X69697600Y-87401400D01*
X70002400Y-87401400D01*
X70002400Y-88341200D01*
X70154800Y-88493600D01*
X71241257Y-88493600D01*
X71465311Y-88400794D01*
X71636794Y-88229311D01*
X71729600Y-88005257D01*
X71729600Y-87553800D01*
X71583277Y-87407477D01*
X75386840Y-87407477D01*
X75703259Y-88173270D01*
X76288648Y-88759682D01*
X77053888Y-89077437D01*
X77882477Y-89078160D01*
X78648270Y-88761741D01*
X79234682Y-88176352D01*
X79552437Y-87411112D01*
X79553160Y-86582523D01*
X79236741Y-85816730D01*
X78651352Y-85230318D01*
X77886112Y-84912563D01*
X77057523Y-84911840D01*
X76291730Y-85228259D01*
X75705318Y-85813648D01*
X75387563Y-86578888D01*
X75386840Y-87407477D01*
X71583277Y-87407477D01*
X71577200Y-87401400D01*
X70002400Y-87401400D01*
X69697600Y-87401400D01*
X69677600Y-87401400D01*
X69677600Y-87096600D01*
X69697600Y-87096600D01*
X69697600Y-87076600D01*
X70002400Y-87076600D01*
X70002400Y-87096600D01*
X71577200Y-87096600D01*
X71729600Y-86944200D01*
X71729600Y-86492743D01*
X71636794Y-86268689D01*
X71465311Y-86097206D01*
X71241257Y-86004400D01*
X70644272Y-86004400D01*
X70671329Y-85963906D01*
X70739000Y-85623700D01*
X70739000Y-85318200D01*
X71971000Y-85318200D01*
X72311206Y-85250529D01*
X72599618Y-85057818D01*
X74853436Y-82804000D01*
X74910334Y-82804000D01*
X74910334Y-83185000D01*
X74937933Y-83323748D01*
X75016527Y-83441373D01*
X75134152Y-83519967D01*
X75272900Y-83547566D01*
X77127100Y-83547566D01*
X77265848Y-83519967D01*
X77383473Y-83441373D01*
X77462067Y-83323748D01*
X77489666Y-83185000D01*
X77489666Y-83121923D01*
X77761152Y-83452274D01*
X78292730Y-83735947D01*
X78350269Y-83744357D01*
X78587600Y-83633785D01*
X78587600Y-82067400D01*
X78567600Y-82067400D01*
X78567600Y-81762600D01*
X78587600Y-81762600D01*
X78587600Y-80196215D01*
X78350269Y-80085643D01*
X78292730Y-80094053D01*
X77761152Y-80377726D01*
X77489666Y-80708077D01*
X77489666Y-80645000D01*
X77462067Y-80506252D01*
X77383473Y-80388627D01*
X77265848Y-80310033D01*
X77127100Y-80282434D01*
X75272900Y-80282434D01*
X75134152Y-80310033D01*
X75016527Y-80388627D01*
X74937933Y-80506252D01*
X74910334Y-80645000D01*
X74910334Y-81026000D01*
X74485200Y-81026000D01*
X74144994Y-81093671D01*
X73856582Y-81286382D01*
X71602764Y-83540200D01*
X71477434Y-83540200D01*
X71454967Y-83427252D01*
X71376373Y-83309627D01*
X71258748Y-83231033D01*
X71120000Y-83203434D01*
X68580000Y-83203434D01*
X68441252Y-83231033D01*
X68323627Y-83309627D01*
X68245033Y-83427252D01*
X68217434Y-83566000D01*
X68217434Y-84776445D01*
X68087094Y-84802371D01*
X67829114Y-84974748D01*
X67798682Y-84995082D01*
X66229182Y-86564582D01*
X66036471Y-86852994D01*
X65968800Y-87193200D01*
X65968800Y-93477355D01*
X65864890Y-93321843D01*
X65271584Y-92925409D01*
X64571733Y-92786200D01*
X62428267Y-92786200D01*
X61728416Y-92925409D01*
X61135110Y-93321843D01*
X60738676Y-93915149D01*
X60599467Y-94615000D01*
X60738676Y-95314851D01*
X61135110Y-95908157D01*
X61728416Y-96304591D01*
X62428267Y-96443800D01*
X62442871Y-96443800D01*
X62293671Y-96667094D01*
X62226000Y-97007300D01*
X62226000Y-97484229D01*
X60635000Y-97484229D01*
X60516073Y-97507885D01*
X60415252Y-97575252D01*
X60347885Y-97676073D01*
X60324229Y-97795000D01*
X60324229Y-101595000D01*
X60347885Y-101713927D01*
X60415252Y-101814748D01*
X60516073Y-101882115D01*
X60635000Y-101905771D01*
X62226000Y-101905771D01*
X62226000Y-102382700D01*
X62293671Y-102722906D01*
X62442871Y-102946200D01*
X62428267Y-102946200D01*
X61728416Y-103085409D01*
X61135110Y-103481843D01*
X60738676Y-104075149D01*
X60599467Y-104775000D01*
X60738676Y-105474851D01*
X61135110Y-106068157D01*
X61728416Y-106464591D01*
X62428267Y-106603800D01*
X64571733Y-106603800D01*
X65271584Y-106464591D01*
X65864890Y-106068157D01*
X66261324Y-105474851D01*
X66400533Y-104775000D01*
X66261324Y-104075149D01*
X65864890Y-103481843D01*
X65550388Y-103271700D01*
X65718164Y-103271700D01*
X67437000Y-104990536D01*
X67437000Y-105152041D01*
X67434627Y-105153627D01*
X67356033Y-105271252D01*
X67328434Y-105410000D01*
X67328434Y-107950000D01*
X67348584Y-108051300D01*
X67310000Y-108051300D01*
X66969794Y-108118971D01*
X66681382Y-108311682D01*
X66488671Y-108600094D01*
X66421000Y-108940300D01*
X66421000Y-109441851D01*
X66342466Y-109457472D01*
X65979890Y-109699737D01*
X65737625Y-110062313D01*
X65652553Y-110490000D01*
X65737625Y-110917687D01*
X65979890Y-111280263D01*
X66342466Y-111522528D01*
X66770153Y-111607600D01*
X67849847Y-111607600D01*
X68277534Y-111522528D01*
X68640110Y-111280263D01*
X68882375Y-110917687D01*
X68967447Y-110490000D01*
X68882375Y-110062313D01*
X68640110Y-109699737D01*
X68598172Y-109671715D01*
X68752018Y-109568918D01*
X68954618Y-109366318D01*
X69147330Y-109077905D01*
X69215000Y-108737700D01*
X69215000Y-108207959D01*
X69217373Y-108206373D01*
X69295967Y-108088748D01*
X69323566Y-107950000D01*
X69323566Y-106984800D01*
X70129400Y-106984800D01*
X70129400Y-108071257D01*
X70222206Y-108295311D01*
X70393689Y-108466794D01*
X70617743Y-108559600D01*
X71069200Y-108559600D01*
X71221600Y-108407200D01*
X71221600Y-106832400D01*
X71526400Y-106832400D01*
X71526400Y-108407200D01*
X71678800Y-108559600D01*
X72130257Y-108559600D01*
X72354311Y-108466794D01*
X72390000Y-108431105D01*
X72425689Y-108466794D01*
X72649743Y-108559600D01*
X73101200Y-108559600D01*
X73253600Y-108407200D01*
X73253600Y-106832400D01*
X71526400Y-106832400D01*
X71221600Y-106832400D01*
X70281800Y-106832400D01*
X70129400Y-106984800D01*
X69323566Y-106984800D01*
X69323566Y-105410000D01*
X69299447Y-105288743D01*
X70129400Y-105288743D01*
X70129400Y-106375200D01*
X70281800Y-106527600D01*
X71221600Y-106527600D01*
X71221600Y-104952800D01*
X71526400Y-104952800D01*
X71526400Y-106527600D01*
X73253600Y-106527600D01*
X73253600Y-104952800D01*
X73101200Y-104800400D01*
X72649743Y-104800400D01*
X72425689Y-104893206D01*
X72390000Y-104928895D01*
X72354311Y-104893206D01*
X72130257Y-104800400D01*
X71678800Y-104800400D01*
X71526400Y-104952800D01*
X71221600Y-104952800D01*
X71069200Y-104800400D01*
X70617743Y-104800400D01*
X70393689Y-104893206D01*
X70222206Y-105064689D01*
X70129400Y-105288743D01*
X69299447Y-105288743D01*
X69295967Y-105271252D01*
X69217373Y-105153627D01*
X69215000Y-105152041D01*
X69215000Y-104622300D01*
X69147329Y-104282094D01*
X68954618Y-103993682D01*
X67819032Y-102858096D01*
X71013837Y-102858096D01*
X71162637Y-103375970D01*
X71498292Y-103797480D01*
X71969701Y-104058454D01*
X72026239Y-104065484D01*
X72237600Y-103952637D01*
X72237600Y-102641400D01*
X72542400Y-102641400D01*
X72542400Y-103952637D01*
X72753761Y-104065484D01*
X72810299Y-104058454D01*
X73281708Y-103797480D01*
X73617363Y-103375970D01*
X73766163Y-102858096D01*
X73614825Y-102641400D01*
X72542400Y-102641400D01*
X72237600Y-102641400D01*
X71165175Y-102641400D01*
X71013837Y-102858096D01*
X67819032Y-102858096D01*
X66831707Y-101870771D01*
X67635000Y-101870771D01*
X67753927Y-101847115D01*
X67854748Y-101779748D01*
X67922115Y-101678927D01*
X67945771Y-101560000D01*
X67945771Y-99960000D01*
X67922115Y-99841073D01*
X67854748Y-99740252D01*
X67804000Y-99706343D01*
X67804000Y-99695000D01*
X68249324Y-99695000D01*
X68330529Y-100103247D01*
X68561782Y-100449342D01*
X68907877Y-100680595D01*
X69316124Y-100761800D01*
X69875876Y-100761800D01*
X70284123Y-100680595D01*
X70630218Y-100449342D01*
X70861471Y-100103247D01*
X70942676Y-99695000D01*
X70861471Y-99286753D01*
X70630218Y-98940658D01*
X70284123Y-98709405D01*
X69875876Y-98628200D01*
X69316124Y-98628200D01*
X68907877Y-98709405D01*
X68561782Y-98940658D01*
X68330529Y-99286753D01*
X68249324Y-99695000D01*
X67804000Y-99695000D01*
X67804000Y-99683657D01*
X67854748Y-99649748D01*
X67922115Y-99548927D01*
X67945771Y-99430000D01*
X67945771Y-98856465D01*
X70270332Y-96531904D01*
X71013837Y-96531904D01*
X71165175Y-96748600D01*
X72237600Y-96748600D01*
X72237600Y-95437363D01*
X72542400Y-95437363D01*
X72542400Y-96748600D01*
X73614825Y-96748600D01*
X73766163Y-96531904D01*
X73617363Y-96014030D01*
X73281708Y-95592520D01*
X72810299Y-95331546D01*
X72753761Y-95324516D01*
X72542400Y-95437363D01*
X72237600Y-95437363D01*
X72026239Y-95324516D01*
X71969701Y-95331546D01*
X71498292Y-95592520D01*
X71162637Y-96014030D01*
X71013837Y-96531904D01*
X70270332Y-96531904D01*
X74422436Y-92379800D01*
X77368400Y-92379800D01*
X77368400Y-93466257D01*
X77461206Y-93690311D01*
X77632689Y-93861794D01*
X77856743Y-93954600D01*
X78435200Y-93954600D01*
X78587600Y-93802200D01*
X78587600Y-92227400D01*
X78892400Y-92227400D01*
X78892400Y-93802200D01*
X79044800Y-93954600D01*
X79623257Y-93954600D01*
X79847311Y-93861794D01*
X80018794Y-93690311D01*
X80111600Y-93466257D01*
X80111600Y-92379800D01*
X79959200Y-92227400D01*
X78892400Y-92227400D01*
X78587600Y-92227400D01*
X77520800Y-92227400D01*
X77368400Y-92379800D01*
X74422436Y-92379800D01*
X75896036Y-90906200D01*
X77368400Y-90906200D01*
X77368400Y-91770200D01*
X77520800Y-91922600D01*
X78587600Y-91922600D01*
X78587600Y-91902600D01*
X78892400Y-91902600D01*
X78892400Y-91922600D01*
X79959200Y-91922600D01*
X80111600Y-91770200D01*
X80111600Y-90906200D01*
X80442541Y-90906200D01*
X80294405Y-91127901D01*
X80213200Y-91536148D01*
X80213200Y-92613852D01*
X80294405Y-93022099D01*
X80525658Y-93368194D01*
X80871753Y-93599447D01*
X81280000Y-93680652D01*
X81688247Y-93599447D01*
X82034342Y-93368194D01*
X82074953Y-93307415D01*
X82179548Y-93463952D01*
X86558548Y-97842952D01*
X86756316Y-97975097D01*
X86989600Y-98021500D01*
X93140336Y-98021500D01*
X92994405Y-98239901D01*
X92913200Y-98648148D01*
X92913200Y-99725852D01*
X92994405Y-100134099D01*
X93142273Y-100355400D01*
X75104304Y-100355400D01*
X74012852Y-99263948D01*
X73815084Y-99131803D01*
X73581800Y-99085400D01*
X73391214Y-99085400D01*
X73375595Y-99006877D01*
X73144342Y-98660782D01*
X72837204Y-98455559D01*
X73281708Y-98209480D01*
X73617363Y-97787970D01*
X73766163Y-97270096D01*
X73614825Y-97053400D01*
X72542400Y-97053400D01*
X72542400Y-97073400D01*
X72237600Y-97073400D01*
X72237600Y-97053400D01*
X71165175Y-97053400D01*
X71013837Y-97270096D01*
X71162637Y-97787970D01*
X71498292Y-98209480D01*
X71942796Y-98455559D01*
X71635658Y-98660782D01*
X71404405Y-99006877D01*
X71323200Y-99415124D01*
X71323200Y-99974876D01*
X71404405Y-100383123D01*
X71635658Y-100729218D01*
X71942796Y-100934441D01*
X71498292Y-101180520D01*
X71162637Y-101602030D01*
X71013837Y-102119904D01*
X71165175Y-102336600D01*
X72237600Y-102336600D01*
X72237600Y-102316600D01*
X72542400Y-102316600D01*
X72542400Y-102336600D01*
X73614825Y-102336600D01*
X73766163Y-102119904D01*
X73617363Y-101602030D01*
X73281708Y-101180520D01*
X72837204Y-100934441D01*
X73144342Y-100729218D01*
X73375595Y-100383123D01*
X73380941Y-100356245D01*
X74420748Y-101396052D01*
X74618516Y-101528197D01*
X74851800Y-101574600D01*
X77244984Y-101574600D01*
X77235882Y-101580682D01*
X74343982Y-104472582D01*
X74151271Y-104760994D01*
X74143433Y-104800400D01*
X73710800Y-104800400D01*
X73558400Y-104952800D01*
X73558400Y-106527600D01*
X73578400Y-106527600D01*
X73578400Y-106832400D01*
X73558400Y-106832400D01*
X73558400Y-108407200D01*
X73710800Y-108559600D01*
X74162257Y-108559600D01*
X74386311Y-108466794D01*
X74557794Y-108295311D01*
X74650600Y-108071257D01*
X74650600Y-107308550D01*
X74972600Y-107372600D01*
X75312806Y-107304929D01*
X75456434Y-107208960D01*
X75456434Y-107950000D01*
X75484033Y-108088748D01*
X75562627Y-108206373D01*
X75565000Y-108207959D01*
X75565000Y-108605164D01*
X73340622Y-110829542D01*
X73339967Y-110826252D01*
X73261373Y-110708627D01*
X73143748Y-110630033D01*
X73005000Y-110602434D01*
X70505000Y-110602434D01*
X70366252Y-110630033D01*
X70248627Y-110708627D01*
X70170033Y-110826252D01*
X70142434Y-110965000D01*
X70142434Y-112965000D01*
X70170033Y-113103748D01*
X70248627Y-113221373D01*
X70366252Y-113299967D01*
X70505000Y-113327566D01*
X73005000Y-113327566D01*
X73143748Y-113299967D01*
X73261373Y-113221373D01*
X73293041Y-113173977D01*
X75980315Y-115861251D01*
X75709132Y-115915193D01*
X75292994Y-116193247D01*
X75014940Y-116609385D01*
X74917300Y-117100253D01*
X74917300Y-117849747D01*
X75014940Y-118340615D01*
X75292994Y-118756753D01*
X75709132Y-119034807D01*
X76200000Y-119132447D01*
X76690868Y-119034807D01*
X77107006Y-118756753D01*
X77385060Y-118340615D01*
X77470000Y-117913594D01*
X77554940Y-118340615D01*
X77832994Y-118756753D01*
X78249132Y-119034807D01*
X78740000Y-119132447D01*
X79230868Y-119034807D01*
X79647006Y-118756753D01*
X79925060Y-118340615D01*
X80010000Y-117913594D01*
X80094940Y-118340615D01*
X80372994Y-118756753D01*
X80789132Y-119034807D01*
X81280000Y-119132447D01*
X81770868Y-119034807D01*
X82187006Y-118756753D01*
X82465060Y-118340615D01*
X82550000Y-117913594D01*
X82634940Y-118340615D01*
X82912994Y-118756753D01*
X83329132Y-119034807D01*
X83820000Y-119132447D01*
X84310868Y-119034807D01*
X84727006Y-118756753D01*
X85005060Y-118340615D01*
X85102700Y-117849747D01*
X85102700Y-117100253D01*
X85005060Y-116609385D01*
X84727006Y-116193247D01*
X84709000Y-116181216D01*
X84709000Y-108497339D01*
X84852528Y-108282534D01*
X84937600Y-107854847D01*
X84937600Y-106775153D01*
X84852528Y-106347466D01*
X84610263Y-105984890D01*
X84247687Y-105742625D01*
X83820000Y-105657553D01*
X83392313Y-105742625D01*
X83029737Y-105984890D01*
X82787472Y-106347466D01*
X82702400Y-106775153D01*
X82702400Y-107854847D01*
X82787472Y-108282534D01*
X82931000Y-108497339D01*
X82931000Y-116181216D01*
X82912994Y-116193247D01*
X82634940Y-116609385D01*
X82550000Y-117036406D01*
X82465060Y-116609385D01*
X82187006Y-116193247D01*
X82169000Y-116181216D01*
X82169000Y-108497339D01*
X82312528Y-108282534D01*
X82397600Y-107854847D01*
X82397600Y-106775153D01*
X82312528Y-106347466D01*
X82070263Y-105984890D01*
X81780085Y-105791000D01*
X82070263Y-105597110D01*
X82312528Y-105234534D01*
X82397600Y-104806847D01*
X82397600Y-103727153D01*
X82312528Y-103299466D01*
X82178113Y-103098300D01*
X85461887Y-103098300D01*
X85327472Y-103299466D01*
X85242400Y-103727153D01*
X85242400Y-104806847D01*
X85327472Y-105234534D01*
X85569737Y-105597110D01*
X85905499Y-105821459D01*
X85605658Y-106021806D01*
X85374405Y-106367901D01*
X85293200Y-106776148D01*
X85293200Y-107853852D01*
X85374405Y-108262099D01*
X85605658Y-108608194D01*
X85750400Y-108704907D01*
X85750400Y-116055444D01*
X85488915Y-116230163D01*
X85221873Y-116629820D01*
X85128100Y-117101248D01*
X85128100Y-117848752D01*
X85221873Y-118320180D01*
X85488915Y-118719837D01*
X85888572Y-118986879D01*
X86360000Y-119080652D01*
X86831428Y-118986879D01*
X87231085Y-118719837D01*
X87498127Y-118320180D01*
X87591900Y-117848752D01*
X87591900Y-117101248D01*
X87668100Y-117101248D01*
X87668100Y-117848752D01*
X87761873Y-118320180D01*
X88028915Y-118719837D01*
X88428572Y-118986879D01*
X88900000Y-119080652D01*
X89371428Y-118986879D01*
X89771085Y-118719837D01*
X90038127Y-118320180D01*
X90131900Y-117848752D01*
X90131900Y-117101248D01*
X90208100Y-117101248D01*
X90208100Y-117848752D01*
X90301873Y-118320180D01*
X90568915Y-118719837D01*
X90968572Y-118986879D01*
X91440000Y-119080652D01*
X91911428Y-118986879D01*
X92311085Y-118719837D01*
X92578127Y-118320180D01*
X92671900Y-117848752D01*
X92671900Y-117101248D01*
X92748100Y-117101248D01*
X92748100Y-117848752D01*
X92841873Y-118320180D01*
X93108915Y-118719837D01*
X93508572Y-118986879D01*
X93980000Y-119080652D01*
X94451428Y-118986879D01*
X94851085Y-118719837D01*
X95118127Y-118320180D01*
X95211900Y-117848752D01*
X95211900Y-117101248D01*
X95288100Y-117101248D01*
X95288100Y-117848752D01*
X95381873Y-118320180D01*
X95648915Y-118719837D01*
X96048572Y-118986879D01*
X96520000Y-119080652D01*
X96991428Y-118986879D01*
X97391085Y-118719837D01*
X97658127Y-118320180D01*
X97751900Y-117848752D01*
X97751900Y-117101248D01*
X97828100Y-117101248D01*
X97828100Y-117848752D01*
X97921873Y-118320180D01*
X98188915Y-118719837D01*
X98588572Y-118986879D01*
X99060000Y-119080652D01*
X99531428Y-118986879D01*
X99931085Y-118719837D01*
X100198127Y-118320180D01*
X100291900Y-117848752D01*
X100291900Y-117101248D01*
X100368100Y-117101248D01*
X100368100Y-117848752D01*
X100461873Y-118320180D01*
X100728915Y-118719837D01*
X101128572Y-118986879D01*
X101600000Y-119080652D01*
X102071428Y-118986879D01*
X102471085Y-118719837D01*
X102738127Y-118320180D01*
X102831900Y-117848752D01*
X102831900Y-117101248D01*
X102908100Y-117101248D01*
X102908100Y-117848752D01*
X103001873Y-118320180D01*
X103268915Y-118719837D01*
X103668572Y-118986879D01*
X104140000Y-119080652D01*
X104611428Y-118986879D01*
X105011085Y-118719837D01*
X105278127Y-118320180D01*
X105371900Y-117848752D01*
X105371900Y-117101248D01*
X105448100Y-117101248D01*
X105448100Y-117848752D01*
X105541873Y-118320180D01*
X105808915Y-118719837D01*
X106208572Y-118986879D01*
X106680000Y-119080652D01*
X107151428Y-118986879D01*
X107551085Y-118719837D01*
X107818127Y-118320180D01*
X107911900Y-117848752D01*
X107911900Y-117101248D01*
X107988100Y-117101248D01*
X107988100Y-117848752D01*
X108081873Y-118320180D01*
X108348915Y-118719837D01*
X108748572Y-118986879D01*
X109220000Y-119080652D01*
X109691428Y-118986879D01*
X110091085Y-118719837D01*
X110358127Y-118320180D01*
X110451900Y-117848752D01*
X110451900Y-117101248D01*
X110358127Y-116629820D01*
X110091085Y-116230163D01*
X109829600Y-116055444D01*
X109829600Y-108704907D01*
X109974342Y-108608194D01*
X110205595Y-108262099D01*
X110286800Y-107853852D01*
X110286800Y-106776148D01*
X110205595Y-106367901D01*
X109974342Y-106021806D01*
X109628247Y-105790553D01*
X109220000Y-105709348D01*
X108811753Y-105790553D01*
X108465658Y-106021806D01*
X108234405Y-106367901D01*
X108153200Y-106776148D01*
X108153200Y-107853852D01*
X108234405Y-108262099D01*
X108465658Y-108608194D01*
X108610400Y-108704907D01*
X108610400Y-116055444D01*
X108348915Y-116230163D01*
X108081873Y-116629820D01*
X107988100Y-117101248D01*
X107911900Y-117101248D01*
X107818127Y-116629820D01*
X107551085Y-116230163D01*
X107289600Y-116055444D01*
X107289600Y-108704907D01*
X107434342Y-108608194D01*
X107665595Y-108262099D01*
X107746800Y-107853852D01*
X107746800Y-106776148D01*
X107665595Y-106367901D01*
X107434342Y-106021806D01*
X107088247Y-105790553D01*
X106680000Y-105709348D01*
X106271753Y-105790553D01*
X105925658Y-106021806D01*
X105694405Y-106367901D01*
X105613200Y-106776148D01*
X105613200Y-107853852D01*
X105694405Y-108262099D01*
X105925658Y-108608194D01*
X106070400Y-108704907D01*
X106070400Y-116055444D01*
X105808915Y-116230163D01*
X105541873Y-116629820D01*
X105448100Y-117101248D01*
X105371900Y-117101248D01*
X105278127Y-116629820D01*
X105011085Y-116230163D01*
X104749600Y-116055444D01*
X104749600Y-108704907D01*
X104894342Y-108608194D01*
X105125595Y-108262099D01*
X105206800Y-107853852D01*
X105206800Y-106776148D01*
X105125595Y-106367901D01*
X104894342Y-106021806D01*
X104548247Y-105790553D01*
X104140000Y-105709348D01*
X103731753Y-105790553D01*
X103385658Y-106021806D01*
X103154405Y-106367901D01*
X103073200Y-106776148D01*
X103073200Y-107853852D01*
X103154405Y-108262099D01*
X103385658Y-108608194D01*
X103530400Y-108704907D01*
X103530400Y-116055444D01*
X103268915Y-116230163D01*
X103001873Y-116629820D01*
X102908100Y-117101248D01*
X102831900Y-117101248D01*
X102738127Y-116629820D01*
X102471085Y-116230163D01*
X102209600Y-116055444D01*
X102209600Y-108704907D01*
X102354342Y-108608194D01*
X102585595Y-108262099D01*
X102666800Y-107853852D01*
X102666800Y-106776148D01*
X102585595Y-106367901D01*
X102354342Y-106021806D01*
X102008247Y-105790553D01*
X101600000Y-105709348D01*
X101191753Y-105790553D01*
X100845658Y-106021806D01*
X100614405Y-106367901D01*
X100533200Y-106776148D01*
X100533200Y-107853852D01*
X100614405Y-108262099D01*
X100845658Y-108608194D01*
X100990400Y-108704907D01*
X100990400Y-116055444D01*
X100728915Y-116230163D01*
X100461873Y-116629820D01*
X100368100Y-117101248D01*
X100291900Y-117101248D01*
X100198127Y-116629820D01*
X99931085Y-116230163D01*
X99669600Y-116055444D01*
X99669600Y-108704907D01*
X99814342Y-108608194D01*
X100045595Y-108262099D01*
X100126800Y-107853852D01*
X100126800Y-106776148D01*
X100045595Y-106367901D01*
X99814342Y-106021806D01*
X99468247Y-105790553D01*
X99060000Y-105709348D01*
X98651753Y-105790553D01*
X98305658Y-106021806D01*
X98074405Y-106367901D01*
X97993200Y-106776148D01*
X97993200Y-107853852D01*
X98074405Y-108262099D01*
X98305658Y-108608194D01*
X98450400Y-108704907D01*
X98450400Y-116055444D01*
X98188915Y-116230163D01*
X97921873Y-116629820D01*
X97828100Y-117101248D01*
X97751900Y-117101248D01*
X97658127Y-116629820D01*
X97391085Y-116230163D01*
X97129600Y-116055444D01*
X97129600Y-108704907D01*
X97274342Y-108608194D01*
X97505595Y-108262099D01*
X97586800Y-107853852D01*
X97586800Y-106776148D01*
X97505595Y-106367901D01*
X97274342Y-106021806D01*
X96928247Y-105790553D01*
X96520000Y-105709348D01*
X96111753Y-105790553D01*
X95765658Y-106021806D01*
X95534405Y-106367901D01*
X95453200Y-106776148D01*
X95453200Y-107853852D01*
X95534405Y-108262099D01*
X95765658Y-108608194D01*
X95910400Y-108704907D01*
X95910400Y-116055444D01*
X95648915Y-116230163D01*
X95381873Y-116629820D01*
X95288100Y-117101248D01*
X95211900Y-117101248D01*
X95118127Y-116629820D01*
X94851085Y-116230163D01*
X94589600Y-116055444D01*
X94589600Y-108704907D01*
X94734342Y-108608194D01*
X94965595Y-108262099D01*
X95046800Y-107853852D01*
X95046800Y-106776148D01*
X94965595Y-106367901D01*
X94734342Y-106021806D01*
X94388247Y-105790553D01*
X93980000Y-105709348D01*
X93571753Y-105790553D01*
X93225658Y-106021806D01*
X92994405Y-106367901D01*
X92913200Y-106776148D01*
X92913200Y-107853852D01*
X92994405Y-108262099D01*
X93225658Y-108608194D01*
X93370400Y-108704907D01*
X93370400Y-116055444D01*
X93108915Y-116230163D01*
X92841873Y-116629820D01*
X92748100Y-117101248D01*
X92671900Y-117101248D01*
X92578127Y-116629820D01*
X92311085Y-116230163D01*
X92049600Y-116055444D01*
X92049600Y-108704907D01*
X92194342Y-108608194D01*
X92425595Y-108262099D01*
X92506800Y-107853852D01*
X92506800Y-106776148D01*
X92425595Y-106367901D01*
X92194342Y-106021806D01*
X91848916Y-105791000D01*
X92194342Y-105560194D01*
X92425595Y-105214099D01*
X92506800Y-104805852D01*
X92506800Y-103728148D01*
X92425595Y-103319901D01*
X92194342Y-102973806D01*
X91848247Y-102742553D01*
X91440000Y-102661348D01*
X91031753Y-102742553D01*
X90685658Y-102973806D01*
X90454405Y-103319901D01*
X90373200Y-103728148D01*
X90373200Y-104805852D01*
X90454405Y-105214099D01*
X90685658Y-105560194D01*
X91031084Y-105791000D01*
X90685658Y-106021806D01*
X90454405Y-106367901D01*
X90373200Y-106776148D01*
X90373200Y-107853852D01*
X90454405Y-108262099D01*
X90685658Y-108608194D01*
X90830400Y-108704907D01*
X90830400Y-116055444D01*
X90568915Y-116230163D01*
X90301873Y-116629820D01*
X90208100Y-117101248D01*
X90131900Y-117101248D01*
X90038127Y-116629820D01*
X89771085Y-116230163D01*
X89509600Y-116055444D01*
X89509600Y-108704907D01*
X89654342Y-108608194D01*
X89885595Y-108262099D01*
X89966800Y-107853852D01*
X89966800Y-106776148D01*
X89885595Y-106367901D01*
X89654342Y-106021806D01*
X89308916Y-105791000D01*
X89654342Y-105560194D01*
X89885595Y-105214099D01*
X89966800Y-104805852D01*
X89966800Y-103728148D01*
X89885595Y-103319901D01*
X89654342Y-102973806D01*
X89308247Y-102742553D01*
X88900000Y-102661348D01*
X88491753Y-102742553D01*
X88145658Y-102973806D01*
X87914405Y-103319901D01*
X87833200Y-103728148D01*
X87833200Y-104805852D01*
X87914405Y-105214099D01*
X88145658Y-105560194D01*
X88491084Y-105791000D01*
X88145658Y-106021806D01*
X87914405Y-106367901D01*
X87833200Y-106776148D01*
X87833200Y-107853852D01*
X87914405Y-108262099D01*
X88145658Y-108608194D01*
X88290400Y-108704907D01*
X88290400Y-116055444D01*
X88028915Y-116230163D01*
X87761873Y-116629820D01*
X87668100Y-117101248D01*
X87591900Y-117101248D01*
X87498127Y-116629820D01*
X87231085Y-116230163D01*
X86969600Y-116055444D01*
X86969600Y-108704907D01*
X87114342Y-108608194D01*
X87345595Y-108262099D01*
X87426800Y-107853852D01*
X87426800Y-106776148D01*
X87345595Y-106367901D01*
X87114342Y-106021806D01*
X86814501Y-105821459D01*
X87150263Y-105597110D01*
X87392528Y-105234534D01*
X87477600Y-104806847D01*
X87477600Y-103727153D01*
X87392528Y-103299466D01*
X87249000Y-103084661D01*
X87249000Y-102209300D01*
X87181329Y-101869094D01*
X86988618Y-101580682D01*
X86979516Y-101574600D01*
X93142273Y-101574600D01*
X92994405Y-101795901D01*
X92913200Y-102204148D01*
X92913200Y-103281852D01*
X92994405Y-103690099D01*
X93225658Y-104036194D01*
X93571753Y-104267447D01*
X93980000Y-104348652D01*
X94388247Y-104267447D01*
X94694464Y-104062840D01*
X94816148Y-104244952D01*
X95538348Y-104967152D01*
X95736116Y-105099297D01*
X95969400Y-105145700D01*
X101506700Y-105145700D01*
X101739984Y-105099297D01*
X101937752Y-104967152D01*
X102031052Y-104873852D01*
X102163197Y-104676084D01*
X102189924Y-104541716D01*
X102209600Y-104442800D01*
X102209600Y-104132907D01*
X102354342Y-104036194D01*
X102585595Y-103690099D01*
X102666800Y-103281852D01*
X102666800Y-102204148D01*
X102585595Y-101795901D01*
X102354342Y-101449806D01*
X102008247Y-101218553D01*
X101600000Y-101137348D01*
X101191753Y-101218553D01*
X100845658Y-101449806D01*
X100614405Y-101795901D01*
X100533200Y-102204148D01*
X100533200Y-103281852D01*
X100614405Y-103690099D01*
X100772363Y-103926500D01*
X99887637Y-103926500D01*
X100045595Y-103690099D01*
X100126800Y-103281852D01*
X100126800Y-102204148D01*
X100045595Y-101795901D01*
X99814342Y-101449806D01*
X99468247Y-101218553D01*
X99060000Y-101137348D01*
X98651753Y-101218553D01*
X98305658Y-101449806D01*
X98074405Y-101795901D01*
X97993200Y-102204148D01*
X97993200Y-103281852D01*
X98074405Y-103690099D01*
X98232363Y-103926500D01*
X97347637Y-103926500D01*
X97505595Y-103690099D01*
X97586800Y-103281852D01*
X97586800Y-102204148D01*
X97505595Y-101795901D01*
X97274342Y-101449806D01*
X96928247Y-101218553D01*
X96520000Y-101137348D01*
X96111753Y-101218553D01*
X95811801Y-101418974D01*
X95810397Y-101411916D01*
X95678252Y-101214148D01*
X94998052Y-100533948D01*
X94800284Y-100401803D01*
X94788312Y-100399422D01*
X94965595Y-100134099D01*
X95046800Y-99725852D01*
X95046800Y-98648148D01*
X94965595Y-98239901D01*
X94819664Y-98021500D01*
X95680336Y-98021500D01*
X95534405Y-98239901D01*
X95453200Y-98648148D01*
X95453200Y-99725852D01*
X95534405Y-100134099D01*
X95765658Y-100480194D01*
X96111753Y-100711447D01*
X96520000Y-100792652D01*
X96928247Y-100711447D01*
X97274342Y-100480194D01*
X97505595Y-100134099D01*
X97586800Y-99725852D01*
X97586800Y-98648148D01*
X97505595Y-98239901D01*
X97359664Y-98021500D01*
X98220336Y-98021500D01*
X98074405Y-98239901D01*
X97993200Y-98648148D01*
X97993200Y-99725852D01*
X98074405Y-100134099D01*
X98305658Y-100480194D01*
X98651753Y-100711447D01*
X99060000Y-100792652D01*
X99468247Y-100711447D01*
X99814342Y-100480194D01*
X100045595Y-100134099D01*
X100126800Y-99725852D01*
X100126800Y-98648148D01*
X100045595Y-98239901D01*
X99814342Y-97893806D01*
X99669600Y-97797093D01*
X99669600Y-97487200D01*
X99623197Y-97253916D01*
X99491052Y-97056148D01*
X99415752Y-96980848D01*
X99217984Y-96848703D01*
X98984700Y-96802300D01*
X87242104Y-96802300D01*
X84070607Y-93630803D01*
X84228247Y-93599447D01*
X84574342Y-93368194D01*
X84593128Y-93340079D01*
X84595048Y-93342952D01*
X85774948Y-94522853D01*
X85893502Y-94602067D01*
X85972716Y-94654997D01*
X86206000Y-94701400D01*
X97952096Y-94701400D01*
X100990400Y-97739704D01*
X100990400Y-97797093D01*
X100845658Y-97893806D01*
X100614405Y-98239901D01*
X100533200Y-98648148D01*
X100533200Y-99725852D01*
X100614405Y-100134099D01*
X100845658Y-100480194D01*
X101191753Y-100711447D01*
X101600000Y-100792652D01*
X102008247Y-100711447D01*
X102354342Y-100480194D01*
X102405566Y-100403532D01*
X102408003Y-100415784D01*
X102540148Y-100613552D01*
X103322648Y-101396052D01*
X103394377Y-101443980D01*
X103385658Y-101449806D01*
X103154405Y-101795901D01*
X103073200Y-102204148D01*
X103073200Y-103281852D01*
X103154405Y-103690099D01*
X103385658Y-104036194D01*
X103731753Y-104267447D01*
X104140000Y-104348652D01*
X104548247Y-104267447D01*
X104894342Y-104036194D01*
X104915778Y-104004112D01*
X104978948Y-104098652D01*
X105737348Y-104857053D01*
X105840413Y-104925918D01*
X105935116Y-104989197D01*
X106168400Y-105035600D01*
X109715100Y-105035600D01*
X109948384Y-104989197D01*
X110146152Y-104857052D01*
X110166601Y-104836603D01*
X110235553Y-105183247D01*
X110466806Y-105529342D01*
X110812901Y-105760595D01*
X111221148Y-105841800D01*
X111275056Y-105841800D01*
X111005658Y-106021806D01*
X110774405Y-106367901D01*
X110693200Y-106776148D01*
X110693200Y-107853852D01*
X110774405Y-108262099D01*
X111005658Y-108608194D01*
X111150400Y-108704907D01*
X111150400Y-116055444D01*
X110888915Y-116230163D01*
X110621873Y-116629820D01*
X110528100Y-117101248D01*
X110528100Y-117848752D01*
X110621873Y-118320180D01*
X110888915Y-118719837D01*
X111288572Y-118986879D01*
X111760000Y-119080652D01*
X112231428Y-118986879D01*
X112631085Y-118719837D01*
X112898127Y-118320180D01*
X112991900Y-117848752D01*
X112991900Y-117101248D01*
X112898127Y-116629820D01*
X112631085Y-116230163D01*
X112369600Y-116055444D01*
X112369600Y-108704907D01*
X112514342Y-108608194D01*
X112745595Y-108262099D01*
X112826800Y-107853852D01*
X112826800Y-106776148D01*
X112745595Y-106367901D01*
X112514342Y-106021806D01*
X112244944Y-105841800D01*
X112298852Y-105841800D01*
X112707099Y-105760595D01*
X112850200Y-105664978D01*
X112850200Y-114935000D01*
X112896603Y-115168284D01*
X113028748Y-115366052D01*
X113690400Y-116027704D01*
X113690400Y-116055444D01*
X113428915Y-116230163D01*
X113161873Y-116629820D01*
X113068100Y-117101248D01*
X113068100Y-117848752D01*
X113161873Y-118320180D01*
X113428915Y-118719837D01*
X113828572Y-118986879D01*
X114300000Y-119080652D01*
X114771428Y-118986879D01*
X115171085Y-118719837D01*
X115438127Y-118320180D01*
X115531900Y-117848752D01*
X115531900Y-117101248D01*
X115438127Y-116629820D01*
X115429880Y-116617477D01*
X116026840Y-116617477D01*
X116343259Y-117383270D01*
X116928648Y-117969682D01*
X117693888Y-118287437D01*
X118522477Y-118288160D01*
X119288270Y-117971741D01*
X119874682Y-117386352D01*
X120192437Y-116621112D01*
X120193160Y-115792523D01*
X119876741Y-115026730D01*
X119291352Y-114440318D01*
X118526112Y-114122563D01*
X117697523Y-114121840D01*
X116931730Y-114438259D01*
X116345318Y-115023648D01*
X116027563Y-115788888D01*
X116026840Y-116617477D01*
X115429880Y-116617477D01*
X115171085Y-116230163D01*
X114909600Y-116055444D01*
X114909600Y-115775200D01*
X114863197Y-115541916D01*
X114731052Y-115344148D01*
X114069400Y-114682496D01*
X114069400Y-113792000D01*
X121837829Y-113792000D01*
X121837829Y-118618000D01*
X121861485Y-118736927D01*
X121928852Y-118837748D01*
X122029673Y-118905115D01*
X122148600Y-118928771D01*
X124942600Y-118928771D01*
X125061527Y-118905115D01*
X125162348Y-118837748D01*
X125229715Y-118736927D01*
X125253371Y-118618000D01*
X125253371Y-114734437D01*
X125287934Y-114769061D01*
X125656556Y-114922126D01*
X126055693Y-114922474D01*
X126424581Y-114770052D01*
X126707061Y-114488066D01*
X126860126Y-114119444D01*
X126860474Y-113720307D01*
X126708052Y-113351419D01*
X126426066Y-113068939D01*
X126057444Y-112915874D01*
X125658307Y-112915526D01*
X125542883Y-112963219D01*
X125590126Y-112849444D01*
X125590474Y-112450307D01*
X125438052Y-112081419D01*
X125156066Y-111798939D01*
X124787444Y-111645874D01*
X124388307Y-111645526D01*
X124019419Y-111797948D01*
X123736939Y-112079934D01*
X123583874Y-112448556D01*
X123583526Y-112847693D01*
X123735948Y-113216581D01*
X124000133Y-113481229D01*
X122148600Y-113481229D01*
X122029673Y-113504885D01*
X121928852Y-113572252D01*
X121861485Y-113673073D01*
X121837829Y-113792000D01*
X114069400Y-113792000D01*
X114069400Y-104775000D01*
X114022997Y-104541716D01*
X113890852Y-104343948D01*
X113693084Y-104211803D01*
X113493986Y-104172200D01*
X115039496Y-104172200D01*
X118247048Y-107379753D01*
X118365602Y-107458967D01*
X118444816Y-107511897D01*
X118678100Y-107558300D01*
X125800229Y-107558300D01*
X125800229Y-111569500D01*
X125823885Y-111688427D01*
X125891252Y-111789248D01*
X125992073Y-111856615D01*
X126111000Y-111880271D01*
X127889000Y-111880271D01*
X128007927Y-111856615D01*
X128087952Y-111803144D01*
X128134206Y-111914811D01*
X128305689Y-112086294D01*
X128529743Y-112179100D01*
X129235200Y-112179100D01*
X129387600Y-112026700D01*
X129387600Y-109626400D01*
X129367600Y-109626400D01*
X129367600Y-109321600D01*
X129387600Y-109321600D01*
X129387600Y-109301600D01*
X129692400Y-109301600D01*
X129692400Y-109321600D01*
X129712400Y-109321600D01*
X129712400Y-109626400D01*
X129692400Y-109626400D01*
X129692400Y-112026700D01*
X129844800Y-112179100D01*
X130550257Y-112179100D01*
X130774311Y-112086294D01*
X130945794Y-111914811D01*
X130992048Y-111803144D01*
X131072073Y-111856615D01*
X131191000Y-111880271D01*
X132969000Y-111880271D01*
X133087927Y-111856615D01*
X133188748Y-111789248D01*
X133256115Y-111688427D01*
X133279771Y-111569500D01*
X133279771Y-109136333D01*
X134433292Y-107982812D01*
X134457290Y-107972896D01*
X134668256Y-107762299D01*
X134782570Y-107486999D01*
X134782830Y-107188909D01*
X134687241Y-106957566D01*
X136530000Y-106957566D01*
X136668748Y-106929967D01*
X136740900Y-106881757D01*
X136740900Y-113481229D01*
X135079437Y-113481229D01*
X135343061Y-113218066D01*
X135496126Y-112849444D01*
X135496474Y-112450307D01*
X135344052Y-112081419D01*
X135062066Y-111798939D01*
X134693444Y-111645874D01*
X134294307Y-111645526D01*
X133925419Y-111797948D01*
X133642939Y-112079934D01*
X133489874Y-112448556D01*
X133489526Y-112847693D01*
X133537219Y-112963117D01*
X133423444Y-112915874D01*
X133024307Y-112915526D01*
X132655419Y-113067948D01*
X132372939Y-113349934D01*
X132219874Y-113718556D01*
X132219526Y-114117693D01*
X132371948Y-114486581D01*
X132653934Y-114769061D01*
X133022556Y-114922126D01*
X133421693Y-114922474D01*
X133790581Y-114770052D01*
X133826629Y-114734067D01*
X133826629Y-118618000D01*
X133850285Y-118736927D01*
X133917652Y-118837748D01*
X134018473Y-118905115D01*
X134137400Y-118928771D01*
X136740900Y-118928771D01*
X136740900Y-119595900D01*
X60109100Y-119595900D01*
X60109100Y-117887477D01*
X60146840Y-117887477D01*
X60463259Y-118653270D01*
X61048648Y-119239682D01*
X61813888Y-119557437D01*
X62642477Y-119558160D01*
X63408270Y-119241741D01*
X63994682Y-118656352D01*
X64312437Y-117891112D01*
X64313160Y-117062523D01*
X63996741Y-116296730D01*
X63411352Y-115710318D01*
X62646112Y-115392563D01*
X61817523Y-115391840D01*
X61051730Y-115708259D01*
X60465318Y-116293648D01*
X60147563Y-117058888D01*
X60146840Y-117887477D01*
X60109100Y-117887477D01*
X60109100Y-111379000D01*
X61232434Y-111379000D01*
X61232434Y-112649000D01*
X61260033Y-112787748D01*
X61338627Y-112905373D01*
X61456252Y-112983967D01*
X61595000Y-113011566D01*
X61976000Y-113011566D01*
X61976000Y-113436700D01*
X62043671Y-113776906D01*
X62236382Y-114065318D01*
X62524794Y-114258029D01*
X62865000Y-114325700D01*
X63019764Y-114325700D01*
X64387941Y-115693877D01*
X64430971Y-115910206D01*
X64623682Y-116198618D01*
X64912094Y-116391329D01*
X65252300Y-116459000D01*
X66127661Y-116459000D01*
X66342466Y-116602528D01*
X66770153Y-116687600D01*
X67849847Y-116687600D01*
X68277534Y-116602528D01*
X68492339Y-116459000D01*
X69367700Y-116459000D01*
X69707906Y-116391329D01*
X69913433Y-116254000D01*
X70142434Y-116254000D01*
X70142434Y-116365000D01*
X70170033Y-116503748D01*
X70248627Y-116621373D01*
X70366252Y-116699967D01*
X70505000Y-116727566D01*
X73005000Y-116727566D01*
X73143748Y-116699967D01*
X73261373Y-116621373D01*
X73339967Y-116503748D01*
X73367566Y-116365000D01*
X73367566Y-114365000D01*
X73339967Y-114226252D01*
X73261373Y-114108627D01*
X73143748Y-114030033D01*
X73005000Y-114002434D01*
X70505000Y-114002434D01*
X70366252Y-114030033D01*
X70248627Y-114108627D01*
X70170033Y-114226252D01*
X70142434Y-114365000D01*
X70142434Y-114476000D01*
X69572700Y-114476000D01*
X69232494Y-114543671D01*
X69154222Y-114595971D01*
X69026967Y-114681000D01*
X68492339Y-114681000D01*
X68277534Y-114537472D01*
X67849847Y-114452400D01*
X66770153Y-114452400D01*
X66342466Y-114537472D01*
X66127661Y-114681000D01*
X65886676Y-114681000D01*
X65880918Y-114672382D01*
X64602297Y-113393761D01*
X65479516Y-113393761D01*
X65724369Y-113892104D01*
X66136312Y-114238872D01*
X66649600Y-114401600D01*
X67157600Y-114401600D01*
X67157600Y-113182400D01*
X67462400Y-113182400D01*
X67462400Y-114401600D01*
X67970400Y-114401600D01*
X68483688Y-114238872D01*
X68895631Y-113892104D01*
X69140484Y-113393761D01*
X69027637Y-113182400D01*
X67462400Y-113182400D01*
X67157600Y-113182400D01*
X65592363Y-113182400D01*
X65479516Y-113393761D01*
X64602297Y-113393761D01*
X64205983Y-112997447D01*
X64273748Y-112983967D01*
X64391373Y-112905373D01*
X64469967Y-112787748D01*
X64494136Y-112666239D01*
X65479516Y-112666239D01*
X65592363Y-112877600D01*
X67157600Y-112877600D01*
X67157600Y-111658400D01*
X67462400Y-111658400D01*
X67462400Y-112877600D01*
X69027637Y-112877600D01*
X69140484Y-112666239D01*
X68895631Y-112167896D01*
X68483688Y-111821128D01*
X67970400Y-111658400D01*
X67462400Y-111658400D01*
X67157600Y-111658400D01*
X66649600Y-111658400D01*
X66136312Y-111821128D01*
X65724369Y-112167896D01*
X65479516Y-112666239D01*
X64494136Y-112666239D01*
X64497566Y-112649000D01*
X64497566Y-111379000D01*
X64469967Y-111240252D01*
X64391373Y-111122627D01*
X64273748Y-111044033D01*
X64135000Y-111016434D01*
X61595000Y-111016434D01*
X61456252Y-111044033D01*
X61338627Y-111122627D01*
X61260033Y-111240252D01*
X61232434Y-111379000D01*
X60109100Y-111379000D01*
X60109100Y-109270800D01*
X60985400Y-109270800D01*
X60985400Y-109722257D01*
X61078206Y-109946311D01*
X61249689Y-110117794D01*
X61473743Y-110210600D01*
X62560200Y-110210600D01*
X62712600Y-110058200D01*
X62712600Y-109118400D01*
X63017400Y-109118400D01*
X63017400Y-110058200D01*
X63169800Y-110210600D01*
X64256257Y-110210600D01*
X64480311Y-110117794D01*
X64651794Y-109946311D01*
X64744600Y-109722257D01*
X64744600Y-109270800D01*
X64592200Y-109118400D01*
X63017400Y-109118400D01*
X62712600Y-109118400D01*
X61137800Y-109118400D01*
X60985400Y-109270800D01*
X60109100Y-109270800D01*
X60109100Y-108209743D01*
X60985400Y-108209743D01*
X60985400Y-108661200D01*
X61137800Y-108813600D01*
X62712600Y-108813600D01*
X62712600Y-107873800D01*
X63017400Y-107873800D01*
X63017400Y-108813600D01*
X64592200Y-108813600D01*
X64744600Y-108661200D01*
X64744600Y-108209743D01*
X64651794Y-107985689D01*
X64480311Y-107814206D01*
X64256257Y-107721400D01*
X63169800Y-107721400D01*
X63017400Y-107873800D01*
X62712600Y-107873800D01*
X62560200Y-107721400D01*
X61473743Y-107721400D01*
X61249689Y-107814206D01*
X61078206Y-107985689D01*
X60985400Y-108209743D01*
X60109100Y-108209743D01*
X60109100Y-82327477D01*
X60146840Y-82327477D01*
X60463259Y-83093270D01*
X61048648Y-83679682D01*
X61813888Y-83997437D01*
X62642477Y-83998160D01*
X63408270Y-83681741D01*
X63994682Y-83096352D01*
X64312437Y-82331112D01*
X64313160Y-81502523D01*
X63996741Y-80736730D01*
X63411352Y-80150318D01*
X62646112Y-79832563D01*
X61817523Y-79831840D01*
X61051730Y-80148259D01*
X60465318Y-80733648D01*
X60147563Y-81498888D01*
X60146840Y-82327477D01*
X60109100Y-82327477D01*
X60109100Y-79794100D01*
X136740900Y-79794100D01*
X136740900Y-80461229D01*
X136740900Y-80461229D01*
G37*
X136740900Y-80461229D02*
X134137400Y-80461229D01*
X134018473Y-80484885D01*
X133917652Y-80552252D01*
X133850285Y-80653073D01*
X133826629Y-80772000D01*
X133826629Y-84655563D01*
X133792066Y-84620939D01*
X133423444Y-84467874D01*
X133024307Y-84467526D01*
X132655419Y-84619948D01*
X132372939Y-84901934D01*
X132219874Y-85270556D01*
X132219526Y-85669693D01*
X132371948Y-86038581D01*
X132653934Y-86321061D01*
X133022556Y-86474126D01*
X133421693Y-86474474D01*
X133537117Y-86426781D01*
X133489874Y-86540556D01*
X133489526Y-86939693D01*
X133641948Y-87308581D01*
X133923934Y-87591061D01*
X134292556Y-87744126D01*
X134691693Y-87744474D01*
X135060581Y-87592052D01*
X135343061Y-87310066D01*
X135496126Y-86941444D01*
X135496474Y-86542307D01*
X135344052Y-86173419D01*
X135079867Y-85908771D01*
X136740900Y-85908771D01*
X136740900Y-92569340D01*
X136648927Y-92507885D01*
X136530000Y-92484229D01*
X133730000Y-92484229D01*
X133611073Y-92507885D01*
X133510252Y-92575252D01*
X133442885Y-92676073D01*
X133419229Y-92795000D01*
X133419229Y-95195000D01*
X133442885Y-95313927D01*
X133510252Y-95414748D01*
X133611073Y-95482115D01*
X133730000Y-95505771D01*
X136530000Y-95505771D01*
X136648927Y-95482115D01*
X136740900Y-95420660D01*
X136740900Y-103908243D01*
X136668748Y-103860033D01*
X136530000Y-103832434D01*
X133730000Y-103832434D01*
X133591252Y-103860033D01*
X133473627Y-103938627D01*
X133395033Y-104056252D01*
X133367434Y-104195000D01*
X133367434Y-104506000D01*
X130792566Y-104506000D01*
X130792566Y-104195000D01*
X130764967Y-104056252D01*
X130686373Y-103938627D01*
X130568748Y-103860033D01*
X130430000Y-103832434D01*
X129919000Y-103832434D01*
X129919000Y-103407300D01*
X129851329Y-103067094D01*
X129658618Y-102778682D01*
X126833338Y-99953402D01*
X127724974Y-99953402D01*
X127923199Y-100433144D01*
X128289925Y-100800511D01*
X128769320Y-100999573D01*
X129288402Y-101000026D01*
X129768144Y-100801801D01*
X130135511Y-100435075D01*
X130327295Y-99973206D01*
X132124956Y-99973206D01*
X132338374Y-100489716D01*
X132733206Y-100885237D01*
X133249342Y-101099556D01*
X133808206Y-101100044D01*
X134324716Y-100886626D01*
X134720237Y-100491794D01*
X134934556Y-99975658D01*
X134935044Y-99416794D01*
X134721626Y-98900284D01*
X134326794Y-98504763D01*
X133810658Y-98290444D01*
X133251794Y-98289956D01*
X132735284Y-98503374D01*
X132339763Y-98898206D01*
X132125444Y-99414342D01*
X132124956Y-99973206D01*
X130327295Y-99973206D01*
X130334573Y-99955680D01*
X130335026Y-99436598D01*
X130136801Y-98956856D01*
X129770075Y-98589489D01*
X129290680Y-98390427D01*
X128771598Y-98389974D01*
X128291856Y-98588199D01*
X127924489Y-98954925D01*
X127725427Y-99434320D01*
X127724974Y-99953402D01*
X126833338Y-99953402D01*
X123943800Y-97063864D01*
X123943800Y-94940693D01*
X124980526Y-94940693D01*
X125132948Y-95309581D01*
X125414934Y-95592061D01*
X125783556Y-95745126D01*
X126182693Y-95745474D01*
X126551581Y-95593052D01*
X126834061Y-95311066D01*
X126987126Y-94942444D01*
X126987474Y-94543307D01*
X126886859Y-94299800D01*
X127020400Y-94299800D01*
X127020400Y-95316257D01*
X127113206Y-95540311D01*
X127284689Y-95711794D01*
X127508743Y-95804600D01*
X128725200Y-95804600D01*
X128877600Y-95652200D01*
X128877600Y-94147400D01*
X129182400Y-94147400D01*
X129182400Y-95652200D01*
X129334800Y-95804600D01*
X130551257Y-95804600D01*
X130775311Y-95711794D01*
X130946794Y-95540311D01*
X131039600Y-95316257D01*
X131039600Y-94299800D01*
X130887200Y-94147400D01*
X129182400Y-94147400D01*
X128877600Y-94147400D01*
X127172800Y-94147400D01*
X127020400Y-94299800D01*
X126886859Y-94299800D01*
X126835052Y-94174419D01*
X126553066Y-93891939D01*
X126184444Y-93738874D01*
X125785307Y-93738526D01*
X125416419Y-93890948D01*
X125133939Y-94172934D01*
X124980874Y-94541556D01*
X124980526Y-94940693D01*
X123943800Y-94940693D01*
X123943800Y-92858400D01*
X123876129Y-92518194D01*
X123683418Y-92229782D01*
X122159718Y-90706082D01*
X121889607Y-90525600D01*
X125800229Y-90525600D01*
X125800229Y-92011500D01*
X125823885Y-92130427D01*
X125891252Y-92231248D01*
X125992073Y-92298615D01*
X126111000Y-92322271D01*
X127240624Y-92322271D01*
X127113206Y-92449689D01*
X127020400Y-92673743D01*
X127020400Y-93690200D01*
X127172800Y-93842600D01*
X128877600Y-93842600D01*
X128877600Y-93822600D01*
X129182400Y-93822600D01*
X129182400Y-93842600D01*
X130887200Y-93842600D01*
X131039600Y-93690200D01*
X131039600Y-92673743D01*
X130946794Y-92449689D01*
X130899855Y-92402750D01*
X130945794Y-92356811D01*
X130992048Y-92245144D01*
X131072073Y-92298615D01*
X131191000Y-92322271D01*
X132969000Y-92322271D01*
X133087927Y-92298615D01*
X133188748Y-92231248D01*
X133256115Y-92130427D01*
X133279771Y-92011500D01*
X133279771Y-87820500D01*
X133256115Y-87701573D01*
X133188748Y-87600752D01*
X133087927Y-87533385D01*
X132969000Y-87509729D01*
X132689600Y-87509729D01*
X132689600Y-87390700D01*
X132643197Y-87157416D01*
X132511052Y-86959648D01*
X132381652Y-86830248D01*
X132183884Y-86698103D01*
X131950600Y-86651700D01*
X125769000Y-86651700D01*
X125590348Y-86687236D01*
X125590474Y-86542307D01*
X125542781Y-86426883D01*
X125656556Y-86474126D01*
X126055693Y-86474474D01*
X126424581Y-86322052D01*
X126707061Y-86040066D01*
X126860126Y-85671444D01*
X126860474Y-85272307D01*
X126708052Y-84903419D01*
X126426066Y-84620939D01*
X126057444Y-84467874D01*
X125658307Y-84467526D01*
X125289419Y-84619948D01*
X125253371Y-84655933D01*
X125253371Y-80772000D01*
X125229715Y-80653073D01*
X125162348Y-80552252D01*
X125061527Y-80484885D01*
X124942600Y-80461229D01*
X122148600Y-80461229D01*
X122029673Y-80484885D01*
X121928852Y-80552252D01*
X121861485Y-80653073D01*
X121837829Y-80772000D01*
X121837829Y-85598000D01*
X121861485Y-85716927D01*
X121928852Y-85817748D01*
X122029673Y-85885115D01*
X122148600Y-85908771D01*
X124000563Y-85908771D01*
X123736939Y-86171934D01*
X123583874Y-86540556D01*
X123583526Y-86939693D01*
X123735948Y-87308581D01*
X123762421Y-87335100D01*
X116866100Y-87335100D01*
X116632816Y-87381503D01*
X116435048Y-87513648D01*
X115364995Y-88583701D01*
X115329309Y-88583670D01*
X115053810Y-88697504D01*
X114909600Y-88841462D01*
X114909600Y-83597477D01*
X116026840Y-83597477D01*
X116343259Y-84363270D01*
X116928648Y-84949682D01*
X117693888Y-85267437D01*
X118522477Y-85268160D01*
X119288270Y-84951741D01*
X119874682Y-84366352D01*
X120192437Y-83601112D01*
X120193160Y-82772523D01*
X119876741Y-82006730D01*
X119291352Y-81420318D01*
X118526112Y-81102563D01*
X117697523Y-81101840D01*
X116931730Y-81418259D01*
X116345318Y-82003648D01*
X116027563Y-82768888D01*
X116026840Y-83597477D01*
X114909600Y-83597477D01*
X114909600Y-83334556D01*
X115171085Y-83159837D01*
X115438127Y-82760180D01*
X115531900Y-82288752D01*
X115531900Y-81541248D01*
X115438127Y-81069820D01*
X115171085Y-80670163D01*
X114771428Y-80403121D01*
X114300000Y-80309348D01*
X113828572Y-80403121D01*
X113428915Y-80670163D01*
X113161873Y-81069820D01*
X113068100Y-81541248D01*
X113068100Y-82288752D01*
X113161873Y-82760180D01*
X113428915Y-83159837D01*
X113690400Y-83334556D01*
X113690400Y-94122995D01*
X113337902Y-94475493D01*
X113284447Y-94206753D01*
X113053194Y-93860658D01*
X112707099Y-93629405D01*
X112298852Y-93548200D01*
X112244944Y-93548200D01*
X112514342Y-93368194D01*
X112745595Y-93022099D01*
X112826800Y-92613852D01*
X112826800Y-91536148D01*
X112745595Y-91127901D01*
X112514342Y-90781806D01*
X112369600Y-90685093D01*
X112369600Y-83334556D01*
X112631085Y-83159837D01*
X112898127Y-82760180D01*
X112991900Y-82288752D01*
X112991900Y-81541248D01*
X112898127Y-81069820D01*
X112631085Y-80670163D01*
X112231428Y-80403121D01*
X111760000Y-80309348D01*
X111288572Y-80403121D01*
X110888915Y-80670163D01*
X110621873Y-81069820D01*
X110528100Y-81541248D01*
X110528100Y-82288752D01*
X110621873Y-82760180D01*
X110888915Y-83159837D01*
X111150400Y-83334556D01*
X111150400Y-90685093D01*
X111005658Y-90781806D01*
X110774405Y-91127901D01*
X110693200Y-91536148D01*
X110693200Y-92613852D01*
X110774405Y-93022099D01*
X111005658Y-93368194D01*
X111275056Y-93548200D01*
X111221148Y-93548200D01*
X110812901Y-93629405D01*
X110466806Y-93860658D01*
X110235553Y-94206753D01*
X110154348Y-94615000D01*
X110235553Y-95023247D01*
X110448800Y-95342394D01*
X110281847Y-95453948D01*
X108788948Y-96946848D01*
X108656803Y-97144616D01*
X108610400Y-97377900D01*
X108610400Y-97797093D01*
X108517936Y-97858875D01*
X108484579Y-97808952D01*
X108459253Y-97771048D01*
X104330887Y-93642682D01*
X104548247Y-93599447D01*
X104894342Y-93368194D01*
X105125595Y-93022099D01*
X105206800Y-92613852D01*
X105206800Y-91536148D01*
X105125595Y-91127901D01*
X104894342Y-90781806D01*
X104749600Y-90685093D01*
X104749600Y-83334556D01*
X105011085Y-83159837D01*
X105278127Y-82760180D01*
X105371900Y-82288752D01*
X105371900Y-81541248D01*
X105448100Y-81541248D01*
X105448100Y-82288752D01*
X105541873Y-82760180D01*
X105808915Y-83159837D01*
X106070400Y-83334556D01*
X106070400Y-90685093D01*
X105925658Y-90781806D01*
X105694405Y-91127901D01*
X105613200Y-91536148D01*
X105613200Y-92613852D01*
X105694405Y-93022099D01*
X105925658Y-93368194D01*
X106271753Y-93599447D01*
X106680000Y-93680652D01*
X107088247Y-93599447D01*
X107434342Y-93368194D01*
X107665595Y-93022099D01*
X107746800Y-92613852D01*
X107746800Y-91536148D01*
X107665595Y-91127901D01*
X107434342Y-90781806D01*
X107289600Y-90685093D01*
X107289600Y-83334556D01*
X107551085Y-83159837D01*
X107818127Y-82760180D01*
X107911900Y-82288752D01*
X107911900Y-81541248D01*
X107988100Y-81541248D01*
X107988100Y-82288752D01*
X108081873Y-82760180D01*
X108348915Y-83159837D01*
X108610400Y-83334556D01*
X108610400Y-90685093D01*
X108465658Y-90781806D01*
X108234405Y-91127901D01*
X108153200Y-91536148D01*
X108153200Y-92613852D01*
X108234405Y-93022099D01*
X108465658Y-93368194D01*
X108811753Y-93599447D01*
X109220000Y-93680652D01*
X109628247Y-93599447D01*
X109974342Y-93368194D01*
X110205595Y-93022099D01*
X110286800Y-92613852D01*
X110286800Y-91536148D01*
X110205595Y-91127901D01*
X109974342Y-90781806D01*
X109829600Y-90685093D01*
X109829600Y-83334556D01*
X110091085Y-83159837D01*
X110358127Y-82760180D01*
X110451900Y-82288752D01*
X110451900Y-81541248D01*
X110358127Y-81069820D01*
X110091085Y-80670163D01*
X109691428Y-80403121D01*
X109220000Y-80309348D01*
X108748572Y-80403121D01*
X108348915Y-80670163D01*
X108081873Y-81069820D01*
X107988100Y-81541248D01*
X107911900Y-81541248D01*
X107818127Y-81069820D01*
X107551085Y-80670163D01*
X107151428Y-80403121D01*
X106680000Y-80309348D01*
X106208572Y-80403121D01*
X105808915Y-80670163D01*
X105541873Y-81069820D01*
X105448100Y-81541248D01*
X105371900Y-81541248D01*
X105278127Y-81069820D01*
X105011085Y-80670163D01*
X104611428Y-80403121D01*
X104140000Y-80309348D01*
X103668572Y-80403121D01*
X103268915Y-80670163D01*
X103001873Y-81069820D01*
X102908100Y-81541248D01*
X102908100Y-82288752D01*
X102926038Y-82378934D01*
X102831900Y-82284796D01*
X102831900Y-81541248D01*
X102738127Y-81069820D01*
X102471085Y-80670163D01*
X102071428Y-80403121D01*
X101600000Y-80309348D01*
X101128572Y-80403121D01*
X100728915Y-80670163D01*
X100461873Y-81069820D01*
X100368100Y-81541248D01*
X100368100Y-82288752D01*
X100386038Y-82378934D01*
X100291900Y-82284796D01*
X100291900Y-81541248D01*
X100198127Y-81069820D01*
X99931085Y-80670163D01*
X99531428Y-80403121D01*
X99060000Y-80309348D01*
X98588572Y-80403121D01*
X98188915Y-80670163D01*
X97921873Y-81069820D01*
X97828100Y-81541248D01*
X97828100Y-82288752D01*
X97921873Y-82760180D01*
X98188915Y-83159837D01*
X98588572Y-83426879D01*
X99060000Y-83520652D01*
X99531428Y-83426879D01*
X99638339Y-83355443D01*
X99656500Y-83373604D01*
X99656500Y-90676339D01*
X99468247Y-90550553D01*
X99060000Y-90469348D01*
X98651753Y-90550553D01*
X98305658Y-90781806D01*
X98074405Y-91127901D01*
X97993200Y-91536148D01*
X97993200Y-92613852D01*
X98074405Y-93022099D01*
X98305658Y-93368194D01*
X98450400Y-93464907D01*
X98450400Y-93536966D01*
X98437884Y-93528603D01*
X98204600Y-93482200D01*
X97103720Y-93482200D01*
X97274342Y-93368194D01*
X97505595Y-93022099D01*
X97586800Y-92613852D01*
X97586800Y-91536148D01*
X97505595Y-91127901D01*
X97274342Y-90781806D01*
X97129600Y-90685093D01*
X97129600Y-83334556D01*
X97391085Y-83159837D01*
X97658127Y-82760180D01*
X97751900Y-82288752D01*
X97751900Y-81541248D01*
X97658127Y-81069820D01*
X97391085Y-80670163D01*
X96991428Y-80403121D01*
X96520000Y-80309348D01*
X96048572Y-80403121D01*
X95648915Y-80670163D01*
X95381873Y-81069820D01*
X95288100Y-81541248D01*
X95288100Y-82288752D01*
X95381873Y-82760180D01*
X95648915Y-83159837D01*
X95910400Y-83334556D01*
X95910400Y-90685093D01*
X95765658Y-90781806D01*
X95534405Y-91127901D01*
X95453200Y-91536148D01*
X95453200Y-92613852D01*
X95534405Y-93022099D01*
X95765658Y-93368194D01*
X95936280Y-93482200D01*
X94563720Y-93482200D01*
X94734342Y-93368194D01*
X94965595Y-93022099D01*
X95046800Y-92613852D01*
X95046800Y-91536148D01*
X94965595Y-91127901D01*
X94734342Y-90781806D01*
X94589600Y-90685093D01*
X94589600Y-83334556D01*
X94851085Y-83159837D01*
X95118127Y-82760180D01*
X95211900Y-82288752D01*
X95211900Y-81541248D01*
X95118127Y-81069820D01*
X94851085Y-80670163D01*
X94451428Y-80403121D01*
X93980000Y-80309348D01*
X93508572Y-80403121D01*
X93108915Y-80670163D01*
X92841873Y-81069820D01*
X92748100Y-81541248D01*
X92748100Y-82288752D01*
X92841873Y-82760180D01*
X93108915Y-83159837D01*
X93370400Y-83334556D01*
X93370400Y-90685093D01*
X93225658Y-90781806D01*
X92994405Y-91127901D01*
X92913200Y-91536148D01*
X92913200Y-92613852D01*
X92994405Y-93022099D01*
X93225658Y-93368194D01*
X93396280Y-93482200D01*
X92023720Y-93482200D01*
X92194342Y-93368194D01*
X92425595Y-93022099D01*
X92506800Y-92613852D01*
X92506800Y-91536148D01*
X92425595Y-91127901D01*
X92194342Y-90781806D01*
X92049600Y-90685093D01*
X92049600Y-83334556D01*
X92311085Y-83159837D01*
X92578127Y-82760180D01*
X92671900Y-82288752D01*
X92671900Y-81541248D01*
X92578127Y-81069820D01*
X92311085Y-80670163D01*
X91911428Y-80403121D01*
X91440000Y-80309348D01*
X90968572Y-80403121D01*
X90568915Y-80670163D01*
X90301873Y-81069820D01*
X90208100Y-81541248D01*
X90208100Y-82288752D01*
X90301873Y-82760180D01*
X90568915Y-83159837D01*
X90830400Y-83334556D01*
X90830400Y-90685093D01*
X90685658Y-90781806D01*
X90454405Y-91127901D01*
X90373200Y-91536148D01*
X90373200Y-92613852D01*
X90454405Y-93022099D01*
X90685658Y-93368194D01*
X90856280Y-93482200D01*
X89483720Y-93482200D01*
X89654342Y-93368194D01*
X89885595Y-93022099D01*
X89966800Y-92613852D01*
X89966800Y-91536148D01*
X89885595Y-91127901D01*
X89654342Y-90781806D01*
X89509600Y-90685093D01*
X89509600Y-83334556D01*
X89771085Y-83159837D01*
X90038127Y-82760180D01*
X90131900Y-82288752D01*
X90131900Y-81541248D01*
X90038127Y-81069820D01*
X89771085Y-80670163D01*
X89371428Y-80403121D01*
X88900000Y-80309348D01*
X88428572Y-80403121D01*
X88028915Y-80670163D01*
X87761873Y-81069820D01*
X87668100Y-81541248D01*
X87668100Y-82288752D01*
X87761873Y-82760180D01*
X88028915Y-83159837D01*
X88290400Y-83334556D01*
X88290400Y-90685093D01*
X88145658Y-90781806D01*
X87914405Y-91127901D01*
X87833200Y-91536148D01*
X87833200Y-92613852D01*
X87914405Y-93022099D01*
X88145658Y-93368194D01*
X88316280Y-93482200D01*
X86943720Y-93482200D01*
X87114342Y-93368194D01*
X87345595Y-93022099D01*
X87426800Y-92613852D01*
X87426800Y-91536148D01*
X87345595Y-91127901D01*
X87114342Y-90781806D01*
X86969600Y-90685093D01*
X86969600Y-83334556D01*
X87231085Y-83159837D01*
X87498127Y-82760180D01*
X87591900Y-82288752D01*
X87591900Y-81541248D01*
X87498127Y-81069820D01*
X87231085Y-80670163D01*
X86831428Y-80403121D01*
X86360000Y-80309348D01*
X85888572Y-80403121D01*
X85488915Y-80670163D01*
X85221873Y-81069820D01*
X85128100Y-81541248D01*
X85128100Y-82288752D01*
X85146038Y-82378934D01*
X85051900Y-82284796D01*
X85051900Y-81541248D01*
X84958127Y-81069820D01*
X84691085Y-80670163D01*
X84291428Y-80403121D01*
X83820000Y-80309348D01*
X83348572Y-80403121D01*
X82948915Y-80670163D01*
X82681873Y-81069820D01*
X82588100Y-81541248D01*
X82588100Y-82288752D01*
X82606038Y-82378934D01*
X82511900Y-82284795D01*
X82511900Y-81541248D01*
X82418127Y-81069820D01*
X82151085Y-80670163D01*
X81751428Y-80403121D01*
X81280000Y-80309348D01*
X80808572Y-80403121D01*
X80408915Y-80670163D01*
X80161414Y-81040575D01*
X80101405Y-80843231D01*
X79718848Y-80377726D01*
X79187270Y-80094053D01*
X79129731Y-80085643D01*
X78892400Y-80196215D01*
X78892400Y-81762600D01*
X78912400Y-81762600D01*
X78912400Y-82067400D01*
X78892400Y-82067400D01*
X78892400Y-83633785D01*
X79129731Y-83744357D01*
X79187270Y-83735947D01*
X79718848Y-83452274D01*
X80101405Y-82986769D01*
X80161414Y-82789425D01*
X80408915Y-83159837D01*
X80808572Y-83426879D01*
X81280000Y-83520652D01*
X81751428Y-83426879D01*
X81858339Y-83355444D01*
X82055300Y-83552405D01*
X82055300Y-88400097D01*
X81903205Y-88298471D01*
X81563000Y-88230800D01*
X81222794Y-88298471D01*
X80934382Y-88491182D01*
X80297364Y-89128200D01*
X75527800Y-89128200D01*
X75187595Y-89195870D01*
X74899182Y-89388582D01*
X66768535Y-97519229D01*
X66195000Y-97519229D01*
X66124480Y-97533256D01*
X67486418Y-96171318D01*
X67487696Y-96169405D01*
X67679129Y-95882906D01*
X67746800Y-95542700D01*
X67746800Y-87561436D01*
X67970400Y-87337836D01*
X67970400Y-87401402D01*
X68122798Y-87401402D01*
X67970400Y-87553800D01*
X67970400Y-88005257D01*
X68063206Y-88229311D01*
X68234689Y-88400794D01*
X68458743Y-88493600D01*
X69545200Y-88493600D01*
X69697600Y-88341200D01*
X69697600Y-87401400D01*
X70002400Y-87401400D01*
X70002400Y-88341200D01*
X70154800Y-88493600D01*
X71241257Y-88493600D01*
X71465311Y-88400794D01*
X71636794Y-88229311D01*
X71729600Y-88005257D01*
X71729600Y-87553800D01*
X71583277Y-87407477D01*
X75386840Y-87407477D01*
X75703259Y-88173270D01*
X76288648Y-88759682D01*
X77053888Y-89077437D01*
X77882477Y-89078160D01*
X78648270Y-88761741D01*
X79234682Y-88176352D01*
X79552437Y-87411112D01*
X79553160Y-86582523D01*
X79236741Y-85816730D01*
X78651352Y-85230318D01*
X77886112Y-84912563D01*
X77057523Y-84911840D01*
X76291730Y-85228259D01*
X75705318Y-85813648D01*
X75387563Y-86578888D01*
X75386840Y-87407477D01*
X71583277Y-87407477D01*
X71577200Y-87401400D01*
X70002400Y-87401400D01*
X69697600Y-87401400D01*
X69677600Y-87401400D01*
X69677600Y-87096600D01*
X69697600Y-87096600D01*
X69697600Y-87076600D01*
X70002400Y-87076600D01*
X70002400Y-87096600D01*
X71577200Y-87096600D01*
X71729600Y-86944200D01*
X71729600Y-86492743D01*
X71636794Y-86268689D01*
X71465311Y-86097206D01*
X71241257Y-86004400D01*
X70644272Y-86004400D01*
X70671329Y-85963906D01*
X70739000Y-85623700D01*
X70739000Y-85318200D01*
X71971000Y-85318200D01*
X72311206Y-85250529D01*
X72599618Y-85057818D01*
X74853436Y-82804000D01*
X74910334Y-82804000D01*
X74910334Y-83185000D01*
X74937933Y-83323748D01*
X75016527Y-83441373D01*
X75134152Y-83519967D01*
X75272900Y-83547566D01*
X77127100Y-83547566D01*
X77265848Y-83519967D01*
X77383473Y-83441373D01*
X77462067Y-83323748D01*
X77489666Y-83185000D01*
X77489666Y-83121923D01*
X77761152Y-83452274D01*
X78292730Y-83735947D01*
X78350269Y-83744357D01*
X78587600Y-83633785D01*
X78587600Y-82067400D01*
X78567600Y-82067400D01*
X78567600Y-81762600D01*
X78587600Y-81762600D01*
X78587600Y-80196215D01*
X78350269Y-80085643D01*
X78292730Y-80094053D01*
X77761152Y-80377726D01*
X77489666Y-80708077D01*
X77489666Y-80645000D01*
X77462067Y-80506252D01*
X77383473Y-80388627D01*
X77265848Y-80310033D01*
X77127100Y-80282434D01*
X75272900Y-80282434D01*
X75134152Y-80310033D01*
X75016527Y-80388627D01*
X74937933Y-80506252D01*
X74910334Y-80645000D01*
X74910334Y-81026000D01*
X74485200Y-81026000D01*
X74144994Y-81093671D01*
X73856582Y-81286382D01*
X71602764Y-83540200D01*
X71477434Y-83540200D01*
X71454967Y-83427252D01*
X71376373Y-83309627D01*
X71258748Y-83231033D01*
X71120000Y-83203434D01*
X68580000Y-83203434D01*
X68441252Y-83231033D01*
X68323627Y-83309627D01*
X68245033Y-83427252D01*
X68217434Y-83566000D01*
X68217434Y-84776445D01*
X68087094Y-84802371D01*
X67829114Y-84974748D01*
X67798682Y-84995082D01*
X66229182Y-86564582D01*
X66036471Y-86852994D01*
X65968800Y-87193200D01*
X65968800Y-93477355D01*
X65864890Y-93321843D01*
X65271584Y-92925409D01*
X64571733Y-92786200D01*
X62428267Y-92786200D01*
X61728416Y-92925409D01*
X61135110Y-93321843D01*
X60738676Y-93915149D01*
X60599467Y-94615000D01*
X60738676Y-95314851D01*
X61135110Y-95908157D01*
X61728416Y-96304591D01*
X62428267Y-96443800D01*
X62442871Y-96443800D01*
X62293671Y-96667094D01*
X62226000Y-97007300D01*
X62226000Y-97484229D01*
X60635000Y-97484229D01*
X60516073Y-97507885D01*
X60415252Y-97575252D01*
X60347885Y-97676073D01*
X60324229Y-97795000D01*
X60324229Y-101595000D01*
X60347885Y-101713927D01*
X60415252Y-101814748D01*
X60516073Y-101882115D01*
X60635000Y-101905771D01*
X62226000Y-101905771D01*
X62226000Y-102382700D01*
X62293671Y-102722906D01*
X62442871Y-102946200D01*
X62428267Y-102946200D01*
X61728416Y-103085409D01*
X61135110Y-103481843D01*
X60738676Y-104075149D01*
X60599467Y-104775000D01*
X60738676Y-105474851D01*
X61135110Y-106068157D01*
X61728416Y-106464591D01*
X62428267Y-106603800D01*
X64571733Y-106603800D01*
X65271584Y-106464591D01*
X65864890Y-106068157D01*
X66261324Y-105474851D01*
X66400533Y-104775000D01*
X66261324Y-104075149D01*
X65864890Y-103481843D01*
X65550388Y-103271700D01*
X65718164Y-103271700D01*
X67437000Y-104990536D01*
X67437000Y-105152041D01*
X67434627Y-105153627D01*
X67356033Y-105271252D01*
X67328434Y-105410000D01*
X67328434Y-107950000D01*
X67348584Y-108051300D01*
X67310000Y-108051300D01*
X66969794Y-108118971D01*
X66681382Y-108311682D01*
X66488671Y-108600094D01*
X66421000Y-108940300D01*
X66421000Y-109441851D01*
X66342466Y-109457472D01*
X65979890Y-109699737D01*
X65737625Y-110062313D01*
X65652553Y-110490000D01*
X65737625Y-110917687D01*
X65979890Y-111280263D01*
X66342466Y-111522528D01*
X66770153Y-111607600D01*
X67849847Y-111607600D01*
X68277534Y-111522528D01*
X68640110Y-111280263D01*
X68882375Y-110917687D01*
X68967447Y-110490000D01*
X68882375Y-110062313D01*
X68640110Y-109699737D01*
X68598172Y-109671715D01*
X68752018Y-109568918D01*
X68954618Y-109366318D01*
X69147330Y-109077905D01*
X69215000Y-108737700D01*
X69215000Y-108207959D01*
X69217373Y-108206373D01*
X69295967Y-108088748D01*
X69323566Y-107950000D01*
X69323566Y-106984800D01*
X70129400Y-106984800D01*
X70129400Y-108071257D01*
X70222206Y-108295311D01*
X70393689Y-108466794D01*
X70617743Y-108559600D01*
X71069200Y-108559600D01*
X71221600Y-108407200D01*
X71221600Y-106832400D01*
X71526400Y-106832400D01*
X71526400Y-108407200D01*
X71678800Y-108559600D01*
X72130257Y-108559600D01*
X72354311Y-108466794D01*
X72390000Y-108431105D01*
X72425689Y-108466794D01*
X72649743Y-108559600D01*
X73101200Y-108559600D01*
X73253600Y-108407200D01*
X73253600Y-106832400D01*
X71526400Y-106832400D01*
X71221600Y-106832400D01*
X70281800Y-106832400D01*
X70129400Y-106984800D01*
X69323566Y-106984800D01*
X69323566Y-105410000D01*
X69299447Y-105288743D01*
X70129400Y-105288743D01*
X70129400Y-106375200D01*
X70281800Y-106527600D01*
X71221600Y-106527600D01*
X71221600Y-104952800D01*
X71526400Y-104952800D01*
X71526400Y-106527600D01*
X73253600Y-106527600D01*
X73253600Y-104952800D01*
X73101200Y-104800400D01*
X72649743Y-104800400D01*
X72425689Y-104893206D01*
X72390000Y-104928895D01*
X72354311Y-104893206D01*
X72130257Y-104800400D01*
X71678800Y-104800400D01*
X71526400Y-104952800D01*
X71221600Y-104952800D01*
X71069200Y-104800400D01*
X70617743Y-104800400D01*
X70393689Y-104893206D01*
X70222206Y-105064689D01*
X70129400Y-105288743D01*
X69299447Y-105288743D01*
X69295967Y-105271252D01*
X69217373Y-105153627D01*
X69215000Y-105152041D01*
X69215000Y-104622300D01*
X69147329Y-104282094D01*
X68954618Y-103993682D01*
X67819032Y-102858096D01*
X71013837Y-102858096D01*
X71162637Y-103375970D01*
X71498292Y-103797480D01*
X71969701Y-104058454D01*
X72026239Y-104065484D01*
X72237600Y-103952637D01*
X72237600Y-102641400D01*
X72542400Y-102641400D01*
X72542400Y-103952637D01*
X72753761Y-104065484D01*
X72810299Y-104058454D01*
X73281708Y-103797480D01*
X73617363Y-103375970D01*
X73766163Y-102858096D01*
X73614825Y-102641400D01*
X72542400Y-102641400D01*
X72237600Y-102641400D01*
X71165175Y-102641400D01*
X71013837Y-102858096D01*
X67819032Y-102858096D01*
X66831707Y-101870771D01*
X67635000Y-101870771D01*
X67753927Y-101847115D01*
X67854748Y-101779748D01*
X67922115Y-101678927D01*
X67945771Y-101560000D01*
X67945771Y-99960000D01*
X67922115Y-99841073D01*
X67854748Y-99740252D01*
X67804000Y-99706343D01*
X67804000Y-99695000D01*
X68249324Y-99695000D01*
X68330529Y-100103247D01*
X68561782Y-100449342D01*
X68907877Y-100680595D01*
X69316124Y-100761800D01*
X69875876Y-100761800D01*
X70284123Y-100680595D01*
X70630218Y-100449342D01*
X70861471Y-100103247D01*
X70942676Y-99695000D01*
X70861471Y-99286753D01*
X70630218Y-98940658D01*
X70284123Y-98709405D01*
X69875876Y-98628200D01*
X69316124Y-98628200D01*
X68907877Y-98709405D01*
X68561782Y-98940658D01*
X68330529Y-99286753D01*
X68249324Y-99695000D01*
X67804000Y-99695000D01*
X67804000Y-99683657D01*
X67854748Y-99649748D01*
X67922115Y-99548927D01*
X67945771Y-99430000D01*
X67945771Y-98856465D01*
X70270332Y-96531904D01*
X71013837Y-96531904D01*
X71165175Y-96748600D01*
X72237600Y-96748600D01*
X72237600Y-95437363D01*
X72542400Y-95437363D01*
X72542400Y-96748600D01*
X73614825Y-96748600D01*
X73766163Y-96531904D01*
X73617363Y-96014030D01*
X73281708Y-95592520D01*
X72810299Y-95331546D01*
X72753761Y-95324516D01*
X72542400Y-95437363D01*
X72237600Y-95437363D01*
X72026239Y-95324516D01*
X71969701Y-95331546D01*
X71498292Y-95592520D01*
X71162637Y-96014030D01*
X71013837Y-96531904D01*
X70270332Y-96531904D01*
X74422436Y-92379800D01*
X77368400Y-92379800D01*
X77368400Y-93466257D01*
X77461206Y-93690311D01*
X77632689Y-93861794D01*
X77856743Y-93954600D01*
X78435200Y-93954600D01*
X78587600Y-93802200D01*
X78587600Y-92227400D01*
X78892400Y-92227400D01*
X78892400Y-93802200D01*
X79044800Y-93954600D01*
X79623257Y-93954600D01*
X79847311Y-93861794D01*
X80018794Y-93690311D01*
X80111600Y-93466257D01*
X80111600Y-92379800D01*
X79959200Y-92227400D01*
X78892400Y-92227400D01*
X78587600Y-92227400D01*
X77520800Y-92227400D01*
X77368400Y-92379800D01*
X74422436Y-92379800D01*
X75896036Y-90906200D01*
X77368400Y-90906200D01*
X77368400Y-91770200D01*
X77520800Y-91922600D01*
X78587600Y-91922600D01*
X78587600Y-91902600D01*
X78892400Y-91902600D01*
X78892400Y-91922600D01*
X79959200Y-91922600D01*
X80111600Y-91770200D01*
X80111600Y-90906200D01*
X80442541Y-90906200D01*
X80294405Y-91127901D01*
X80213200Y-91536148D01*
X80213200Y-92613852D01*
X80294405Y-93022099D01*
X80525658Y-93368194D01*
X80871753Y-93599447D01*
X81280000Y-93680652D01*
X81688247Y-93599447D01*
X82034342Y-93368194D01*
X82074953Y-93307415D01*
X82179548Y-93463952D01*
X86558548Y-97842952D01*
X86756316Y-97975097D01*
X86989600Y-98021500D01*
X93140336Y-98021500D01*
X92994405Y-98239901D01*
X92913200Y-98648148D01*
X92913200Y-99725852D01*
X92994405Y-100134099D01*
X93142273Y-100355400D01*
X75104304Y-100355400D01*
X74012852Y-99263948D01*
X73815084Y-99131803D01*
X73581800Y-99085400D01*
X73391214Y-99085400D01*
X73375595Y-99006877D01*
X73144342Y-98660782D01*
X72837204Y-98455559D01*
X73281708Y-98209480D01*
X73617363Y-97787970D01*
X73766163Y-97270096D01*
X73614825Y-97053400D01*
X72542400Y-97053400D01*
X72542400Y-97073400D01*
X72237600Y-97073400D01*
X72237600Y-97053400D01*
X71165175Y-97053400D01*
X71013837Y-97270096D01*
X71162637Y-97787970D01*
X71498292Y-98209480D01*
X71942796Y-98455559D01*
X71635658Y-98660782D01*
X71404405Y-99006877D01*
X71323200Y-99415124D01*
X71323200Y-99974876D01*
X71404405Y-100383123D01*
X71635658Y-100729218D01*
X71942796Y-100934441D01*
X71498292Y-101180520D01*
X71162637Y-101602030D01*
X71013837Y-102119904D01*
X71165175Y-102336600D01*
X72237600Y-102336600D01*
X72237600Y-102316600D01*
X72542400Y-102316600D01*
X72542400Y-102336600D01*
X73614825Y-102336600D01*
X73766163Y-102119904D01*
X73617363Y-101602030D01*
X73281708Y-101180520D01*
X72837204Y-100934441D01*
X73144342Y-100729218D01*
X73375595Y-100383123D01*
X73380941Y-100356245D01*
X74420748Y-101396052D01*
X74618516Y-101528197D01*
X74851800Y-101574600D01*
X77244984Y-101574600D01*
X77235882Y-101580682D01*
X74343982Y-104472582D01*
X74151271Y-104760994D01*
X74143433Y-104800400D01*
X73710800Y-104800400D01*
X73558400Y-104952800D01*
X73558400Y-106527600D01*
X73578400Y-106527600D01*
X73578400Y-106832400D01*
X73558400Y-106832400D01*
X73558400Y-108407200D01*
X73710800Y-108559600D01*
X74162257Y-108559600D01*
X74386311Y-108466794D01*
X74557794Y-108295311D01*
X74650600Y-108071257D01*
X74650600Y-107308550D01*
X74972600Y-107372600D01*
X75312806Y-107304929D01*
X75456434Y-107208960D01*
X75456434Y-107950000D01*
X75484033Y-108088748D01*
X75562627Y-108206373D01*
X75565000Y-108207959D01*
X75565000Y-108605164D01*
X73340622Y-110829542D01*
X73339967Y-110826252D01*
X73261373Y-110708627D01*
X73143748Y-110630033D01*
X73005000Y-110602434D01*
X70505000Y-110602434D01*
X70366252Y-110630033D01*
X70248627Y-110708627D01*
X70170033Y-110826252D01*
X70142434Y-110965000D01*
X70142434Y-112965000D01*
X70170033Y-113103748D01*
X70248627Y-113221373D01*
X70366252Y-113299967D01*
X70505000Y-113327566D01*
X73005000Y-113327566D01*
X73143748Y-113299967D01*
X73261373Y-113221373D01*
X73293041Y-113173977D01*
X75980315Y-115861251D01*
X75709132Y-115915193D01*
X75292994Y-116193247D01*
X75014940Y-116609385D01*
X74917300Y-117100253D01*
X74917300Y-117849747D01*
X75014940Y-118340615D01*
X75292994Y-118756753D01*
X75709132Y-119034807D01*
X76200000Y-119132447D01*
X76690868Y-119034807D01*
X77107006Y-118756753D01*
X77385060Y-118340615D01*
X77470000Y-117913594D01*
X77554940Y-118340615D01*
X77832994Y-118756753D01*
X78249132Y-119034807D01*
X78740000Y-119132447D01*
X79230868Y-119034807D01*
X79647006Y-118756753D01*
X79925060Y-118340615D01*
X80010000Y-117913594D01*
X80094940Y-118340615D01*
X80372994Y-118756753D01*
X80789132Y-119034807D01*
X81280000Y-119132447D01*
X81770868Y-119034807D01*
X82187006Y-118756753D01*
X82465060Y-118340615D01*
X82550000Y-117913594D01*
X82634940Y-118340615D01*
X82912994Y-118756753D01*
X83329132Y-119034807D01*
X83820000Y-119132447D01*
X84310868Y-119034807D01*
X84727006Y-118756753D01*
X85005060Y-118340615D01*
X85102700Y-117849747D01*
X85102700Y-117100253D01*
X85005060Y-116609385D01*
X84727006Y-116193247D01*
X84709000Y-116181216D01*
X84709000Y-108497339D01*
X84852528Y-108282534D01*
X84937600Y-107854847D01*
X84937600Y-106775153D01*
X84852528Y-106347466D01*
X84610263Y-105984890D01*
X84247687Y-105742625D01*
X83820000Y-105657553D01*
X83392313Y-105742625D01*
X83029737Y-105984890D01*
X82787472Y-106347466D01*
X82702400Y-106775153D01*
X82702400Y-107854847D01*
X82787472Y-108282534D01*
X82931000Y-108497339D01*
X82931000Y-116181216D01*
X82912994Y-116193247D01*
X82634940Y-116609385D01*
X82550000Y-117036406D01*
X82465060Y-116609385D01*
X82187006Y-116193247D01*
X82169000Y-116181216D01*
X82169000Y-108497339D01*
X82312528Y-108282534D01*
X82397600Y-107854847D01*
X82397600Y-106775153D01*
X82312528Y-106347466D01*
X82070263Y-105984890D01*
X81780085Y-105791000D01*
X82070263Y-105597110D01*
X82312528Y-105234534D01*
X82397600Y-104806847D01*
X82397600Y-103727153D01*
X82312528Y-103299466D01*
X82178113Y-103098300D01*
X85461887Y-103098300D01*
X85327472Y-103299466D01*
X85242400Y-103727153D01*
X85242400Y-104806847D01*
X85327472Y-105234534D01*
X85569737Y-105597110D01*
X85905499Y-105821459D01*
X85605658Y-106021806D01*
X85374405Y-106367901D01*
X85293200Y-106776148D01*
X85293200Y-107853852D01*
X85374405Y-108262099D01*
X85605658Y-108608194D01*
X85750400Y-108704907D01*
X85750400Y-116055444D01*
X85488915Y-116230163D01*
X85221873Y-116629820D01*
X85128100Y-117101248D01*
X85128100Y-117848752D01*
X85221873Y-118320180D01*
X85488915Y-118719837D01*
X85888572Y-118986879D01*
X86360000Y-119080652D01*
X86831428Y-118986879D01*
X87231085Y-118719837D01*
X87498127Y-118320180D01*
X87591900Y-117848752D01*
X87591900Y-117101248D01*
X87668100Y-117101248D01*
X87668100Y-117848752D01*
X87761873Y-118320180D01*
X88028915Y-118719837D01*
X88428572Y-118986879D01*
X88900000Y-119080652D01*
X89371428Y-118986879D01*
X89771085Y-118719837D01*
X90038127Y-118320180D01*
X90131900Y-117848752D01*
X90131900Y-117101248D01*
X90208100Y-117101248D01*
X90208100Y-117848752D01*
X90301873Y-118320180D01*
X90568915Y-118719837D01*
X90968572Y-118986879D01*
X91440000Y-119080652D01*
X91911428Y-118986879D01*
X92311085Y-118719837D01*
X92578127Y-118320180D01*
X92671900Y-117848752D01*
X92671900Y-117101248D01*
X92748100Y-117101248D01*
X92748100Y-117848752D01*
X92841873Y-118320180D01*
X93108915Y-118719837D01*
X93508572Y-118986879D01*
X93980000Y-119080652D01*
X94451428Y-118986879D01*
X94851085Y-118719837D01*
X95118127Y-118320180D01*
X95211900Y-117848752D01*
X95211900Y-117101248D01*
X95288100Y-117101248D01*
X95288100Y-117848752D01*
X95381873Y-118320180D01*
X95648915Y-118719837D01*
X96048572Y-118986879D01*
X96520000Y-119080652D01*
X96991428Y-118986879D01*
X97391085Y-118719837D01*
X97658127Y-118320180D01*
X97751900Y-117848752D01*
X97751900Y-117101248D01*
X97828100Y-117101248D01*
X97828100Y-117848752D01*
X97921873Y-118320180D01*
X98188915Y-118719837D01*
X98588572Y-118986879D01*
X99060000Y-119080652D01*
X99531428Y-118986879D01*
X99931085Y-118719837D01*
X100198127Y-118320180D01*
X100291900Y-117848752D01*
X100291900Y-117101248D01*
X100368100Y-117101248D01*
X100368100Y-117848752D01*
X100461873Y-118320180D01*
X100728915Y-118719837D01*
X101128572Y-118986879D01*
X101600000Y-119080652D01*
X102071428Y-118986879D01*
X102471085Y-118719837D01*
X102738127Y-118320180D01*
X102831900Y-117848752D01*
X102831900Y-117101248D01*
X102908100Y-117101248D01*
X102908100Y-117848752D01*
X103001873Y-118320180D01*
X103268915Y-118719837D01*
X103668572Y-118986879D01*
X104140000Y-119080652D01*
X104611428Y-118986879D01*
X105011085Y-118719837D01*
X105278127Y-118320180D01*
X105371900Y-117848752D01*
X105371900Y-117101248D01*
X105448100Y-117101248D01*
X105448100Y-117848752D01*
X105541873Y-118320180D01*
X105808915Y-118719837D01*
X106208572Y-118986879D01*
X106680000Y-119080652D01*
X107151428Y-118986879D01*
X107551085Y-118719837D01*
X107818127Y-118320180D01*
X107911900Y-117848752D01*
X107911900Y-117101248D01*
X107988100Y-117101248D01*
X107988100Y-117848752D01*
X108081873Y-118320180D01*
X108348915Y-118719837D01*
X108748572Y-118986879D01*
X109220000Y-119080652D01*
X109691428Y-118986879D01*
X110091085Y-118719837D01*
X110358127Y-118320180D01*
X110451900Y-117848752D01*
X110451900Y-117101248D01*
X110358127Y-116629820D01*
X110091085Y-116230163D01*
X109829600Y-116055444D01*
X109829600Y-108704907D01*
X109974342Y-108608194D01*
X110205595Y-108262099D01*
X110286800Y-107853852D01*
X110286800Y-106776148D01*
X110205595Y-106367901D01*
X109974342Y-106021806D01*
X109628247Y-105790553D01*
X109220000Y-105709348D01*
X108811753Y-105790553D01*
X108465658Y-106021806D01*
X108234405Y-106367901D01*
X108153200Y-106776148D01*
X108153200Y-107853852D01*
X108234405Y-108262099D01*
X108465658Y-108608194D01*
X108610400Y-108704907D01*
X108610400Y-116055444D01*
X108348915Y-116230163D01*
X108081873Y-116629820D01*
X107988100Y-117101248D01*
X107911900Y-117101248D01*
X107818127Y-116629820D01*
X107551085Y-116230163D01*
X107289600Y-116055444D01*
X107289600Y-108704907D01*
X107434342Y-108608194D01*
X107665595Y-108262099D01*
X107746800Y-107853852D01*
X107746800Y-106776148D01*
X107665595Y-106367901D01*
X107434342Y-106021806D01*
X107088247Y-105790553D01*
X106680000Y-105709348D01*
X106271753Y-105790553D01*
X105925658Y-106021806D01*
X105694405Y-106367901D01*
X105613200Y-106776148D01*
X105613200Y-107853852D01*
X105694405Y-108262099D01*
X105925658Y-108608194D01*
X106070400Y-108704907D01*
X106070400Y-116055444D01*
X105808915Y-116230163D01*
X105541873Y-116629820D01*
X105448100Y-117101248D01*
X105371900Y-117101248D01*
X105278127Y-116629820D01*
X105011085Y-116230163D01*
X104749600Y-116055444D01*
X104749600Y-108704907D01*
X104894342Y-108608194D01*
X105125595Y-108262099D01*
X105206800Y-107853852D01*
X105206800Y-106776148D01*
X105125595Y-106367901D01*
X104894342Y-106021806D01*
X104548247Y-105790553D01*
X104140000Y-105709348D01*
X103731753Y-105790553D01*
X103385658Y-106021806D01*
X103154405Y-106367901D01*
X103073200Y-106776148D01*
X103073200Y-107853852D01*
X103154405Y-108262099D01*
X103385658Y-108608194D01*
X103530400Y-108704907D01*
X103530400Y-116055444D01*
X103268915Y-116230163D01*
X103001873Y-116629820D01*
X102908100Y-117101248D01*
X102831900Y-117101248D01*
X102738127Y-116629820D01*
X102471085Y-116230163D01*
X102209600Y-116055444D01*
X102209600Y-108704907D01*
X102354342Y-108608194D01*
X102585595Y-108262099D01*
X102666800Y-107853852D01*
X102666800Y-106776148D01*
X102585595Y-106367901D01*
X102354342Y-106021806D01*
X102008247Y-105790553D01*
X101600000Y-105709348D01*
X101191753Y-105790553D01*
X100845658Y-106021806D01*
X100614405Y-106367901D01*
X100533200Y-106776148D01*
X100533200Y-107853852D01*
X100614405Y-108262099D01*
X100845658Y-108608194D01*
X100990400Y-108704907D01*
X100990400Y-116055444D01*
X100728915Y-116230163D01*
X100461873Y-116629820D01*
X100368100Y-117101248D01*
X100291900Y-117101248D01*
X100198127Y-116629820D01*
X99931085Y-116230163D01*
X99669600Y-116055444D01*
X99669600Y-108704907D01*
X99814342Y-108608194D01*
X100045595Y-108262099D01*
X100126800Y-107853852D01*
X100126800Y-106776148D01*
X100045595Y-106367901D01*
X99814342Y-106021806D01*
X99468247Y-105790553D01*
X99060000Y-105709348D01*
X98651753Y-105790553D01*
X98305658Y-106021806D01*
X98074405Y-106367901D01*
X97993200Y-106776148D01*
X97993200Y-107853852D01*
X98074405Y-108262099D01*
X98305658Y-108608194D01*
X98450400Y-108704907D01*
X98450400Y-116055444D01*
X98188915Y-116230163D01*
X97921873Y-116629820D01*
X97828100Y-117101248D01*
X97751900Y-117101248D01*
X97658127Y-116629820D01*
X97391085Y-116230163D01*
X97129600Y-116055444D01*
X97129600Y-108704907D01*
X97274342Y-108608194D01*
X97505595Y-108262099D01*
X97586800Y-107853852D01*
X97586800Y-106776148D01*
X97505595Y-106367901D01*
X97274342Y-106021806D01*
X96928247Y-105790553D01*
X96520000Y-105709348D01*
X96111753Y-105790553D01*
X95765658Y-106021806D01*
X95534405Y-106367901D01*
X95453200Y-106776148D01*
X95453200Y-107853852D01*
X95534405Y-108262099D01*
X95765658Y-108608194D01*
X95910400Y-108704907D01*
X95910400Y-116055444D01*
X95648915Y-116230163D01*
X95381873Y-116629820D01*
X95288100Y-117101248D01*
X95211900Y-117101248D01*
X95118127Y-116629820D01*
X94851085Y-116230163D01*
X94589600Y-116055444D01*
X94589600Y-108704907D01*
X94734342Y-108608194D01*
X94965595Y-108262099D01*
X95046800Y-107853852D01*
X95046800Y-106776148D01*
X94965595Y-106367901D01*
X94734342Y-106021806D01*
X94388247Y-105790553D01*
X93980000Y-105709348D01*
X93571753Y-105790553D01*
X93225658Y-106021806D01*
X92994405Y-106367901D01*
X92913200Y-106776148D01*
X92913200Y-107853852D01*
X92994405Y-108262099D01*
X93225658Y-108608194D01*
X93370400Y-108704907D01*
X93370400Y-116055444D01*
X93108915Y-116230163D01*
X92841873Y-116629820D01*
X92748100Y-117101248D01*
X92671900Y-117101248D01*
X92578127Y-116629820D01*
X92311085Y-116230163D01*
X92049600Y-116055444D01*
X92049600Y-108704907D01*
X92194342Y-108608194D01*
X92425595Y-108262099D01*
X92506800Y-107853852D01*
X92506800Y-106776148D01*
X92425595Y-106367901D01*
X92194342Y-106021806D01*
X91848916Y-105791000D01*
X92194342Y-105560194D01*
X92425595Y-105214099D01*
X92506800Y-104805852D01*
X92506800Y-103728148D01*
X92425595Y-103319901D01*
X92194342Y-102973806D01*
X91848247Y-102742553D01*
X91440000Y-102661348D01*
X91031753Y-102742553D01*
X90685658Y-102973806D01*
X90454405Y-103319901D01*
X90373200Y-103728148D01*
X90373200Y-104805852D01*
X90454405Y-105214099D01*
X90685658Y-105560194D01*
X91031084Y-105791000D01*
X90685658Y-106021806D01*
X90454405Y-106367901D01*
X90373200Y-106776148D01*
X90373200Y-107853852D01*
X90454405Y-108262099D01*
X90685658Y-108608194D01*
X90830400Y-108704907D01*
X90830400Y-116055444D01*
X90568915Y-116230163D01*
X90301873Y-116629820D01*
X90208100Y-117101248D01*
X90131900Y-117101248D01*
X90038127Y-116629820D01*
X89771085Y-116230163D01*
X89509600Y-116055444D01*
X89509600Y-108704907D01*
X89654342Y-108608194D01*
X89885595Y-108262099D01*
X89966800Y-107853852D01*
X89966800Y-106776148D01*
X89885595Y-106367901D01*
X89654342Y-106021806D01*
X89308916Y-105791000D01*
X89654342Y-105560194D01*
X89885595Y-105214099D01*
X89966800Y-104805852D01*
X89966800Y-103728148D01*
X89885595Y-103319901D01*
X89654342Y-102973806D01*
X89308247Y-102742553D01*
X88900000Y-102661348D01*
X88491753Y-102742553D01*
X88145658Y-102973806D01*
X87914405Y-103319901D01*
X87833200Y-103728148D01*
X87833200Y-104805852D01*
X87914405Y-105214099D01*
X88145658Y-105560194D01*
X88491084Y-105791000D01*
X88145658Y-106021806D01*
X87914405Y-106367901D01*
X87833200Y-106776148D01*
X87833200Y-107853852D01*
X87914405Y-108262099D01*
X88145658Y-108608194D01*
X88290400Y-108704907D01*
X88290400Y-116055444D01*
X88028915Y-116230163D01*
X87761873Y-116629820D01*
X87668100Y-117101248D01*
X87591900Y-117101248D01*
X87498127Y-116629820D01*
X87231085Y-116230163D01*
X86969600Y-116055444D01*
X86969600Y-108704907D01*
X87114342Y-108608194D01*
X87345595Y-108262099D01*
X87426800Y-107853852D01*
X87426800Y-106776148D01*
X87345595Y-106367901D01*
X87114342Y-106021806D01*
X86814501Y-105821459D01*
X87150263Y-105597110D01*
X87392528Y-105234534D01*
X87477600Y-104806847D01*
X87477600Y-103727153D01*
X87392528Y-103299466D01*
X87249000Y-103084661D01*
X87249000Y-102209300D01*
X87181329Y-101869094D01*
X86988618Y-101580682D01*
X86979516Y-101574600D01*
X93142273Y-101574600D01*
X92994405Y-101795901D01*
X92913200Y-102204148D01*
X92913200Y-103281852D01*
X92994405Y-103690099D01*
X93225658Y-104036194D01*
X93571753Y-104267447D01*
X93980000Y-104348652D01*
X94388247Y-104267447D01*
X94694464Y-104062840D01*
X94816148Y-104244952D01*
X95538348Y-104967152D01*
X95736116Y-105099297D01*
X95969400Y-105145700D01*
X101506700Y-105145700D01*
X101739984Y-105099297D01*
X101937752Y-104967152D01*
X102031052Y-104873852D01*
X102163197Y-104676084D01*
X102189924Y-104541716D01*
X102209600Y-104442800D01*
X102209600Y-104132907D01*
X102354342Y-104036194D01*
X102585595Y-103690099D01*
X102666800Y-103281852D01*
X102666800Y-102204148D01*
X102585595Y-101795901D01*
X102354342Y-101449806D01*
X102008247Y-101218553D01*
X101600000Y-101137348D01*
X101191753Y-101218553D01*
X100845658Y-101449806D01*
X100614405Y-101795901D01*
X100533200Y-102204148D01*
X100533200Y-103281852D01*
X100614405Y-103690099D01*
X100772363Y-103926500D01*
X99887637Y-103926500D01*
X100045595Y-103690099D01*
X100126800Y-103281852D01*
X100126800Y-102204148D01*
X100045595Y-101795901D01*
X99814342Y-101449806D01*
X99468247Y-101218553D01*
X99060000Y-101137348D01*
X98651753Y-101218553D01*
X98305658Y-101449806D01*
X98074405Y-101795901D01*
X97993200Y-102204148D01*
X97993200Y-103281852D01*
X98074405Y-103690099D01*
X98232363Y-103926500D01*
X97347637Y-103926500D01*
X97505595Y-103690099D01*
X97586800Y-103281852D01*
X97586800Y-102204148D01*
X97505595Y-101795901D01*
X97274342Y-101449806D01*
X96928247Y-101218553D01*
X96520000Y-101137348D01*
X96111753Y-101218553D01*
X95811801Y-101418974D01*
X95810397Y-101411916D01*
X95678252Y-101214148D01*
X94998052Y-100533948D01*
X94800284Y-100401803D01*
X94788312Y-100399422D01*
X94965595Y-100134099D01*
X95046800Y-99725852D01*
X95046800Y-98648148D01*
X94965595Y-98239901D01*
X94819664Y-98021500D01*
X95680336Y-98021500D01*
X95534405Y-98239901D01*
X95453200Y-98648148D01*
X95453200Y-99725852D01*
X95534405Y-100134099D01*
X95765658Y-100480194D01*
X96111753Y-100711447D01*
X96520000Y-100792652D01*
X96928247Y-100711447D01*
X97274342Y-100480194D01*
X97505595Y-100134099D01*
X97586800Y-99725852D01*
X97586800Y-98648148D01*
X97505595Y-98239901D01*
X97359664Y-98021500D01*
X98220336Y-98021500D01*
X98074405Y-98239901D01*
X97993200Y-98648148D01*
X97993200Y-99725852D01*
X98074405Y-100134099D01*
X98305658Y-100480194D01*
X98651753Y-100711447D01*
X99060000Y-100792652D01*
X99468247Y-100711447D01*
X99814342Y-100480194D01*
X100045595Y-100134099D01*
X100126800Y-99725852D01*
X100126800Y-98648148D01*
X100045595Y-98239901D01*
X99814342Y-97893806D01*
X99669600Y-97797093D01*
X99669600Y-97487200D01*
X99623197Y-97253916D01*
X99491052Y-97056148D01*
X99415752Y-96980848D01*
X99217984Y-96848703D01*
X98984700Y-96802300D01*
X87242104Y-96802300D01*
X84070607Y-93630803D01*
X84228247Y-93599447D01*
X84574342Y-93368194D01*
X84593128Y-93340079D01*
X84595048Y-93342952D01*
X85774948Y-94522853D01*
X85893502Y-94602067D01*
X85972716Y-94654997D01*
X86206000Y-94701400D01*
X97952096Y-94701400D01*
X100990400Y-97739704D01*
X100990400Y-97797093D01*
X100845658Y-97893806D01*
X100614405Y-98239901D01*
X100533200Y-98648148D01*
X100533200Y-99725852D01*
X100614405Y-100134099D01*
X100845658Y-100480194D01*
X101191753Y-100711447D01*
X101600000Y-100792652D01*
X102008247Y-100711447D01*
X102354342Y-100480194D01*
X102405566Y-100403532D01*
X102408003Y-100415784D01*
X102540148Y-100613552D01*
X103322648Y-101396052D01*
X103394377Y-101443980D01*
X103385658Y-101449806D01*
X103154405Y-101795901D01*
X103073200Y-102204148D01*
X103073200Y-103281852D01*
X103154405Y-103690099D01*
X103385658Y-104036194D01*
X103731753Y-104267447D01*
X104140000Y-104348652D01*
X104548247Y-104267447D01*
X104894342Y-104036194D01*
X104915778Y-104004112D01*
X104978948Y-104098652D01*
X105737348Y-104857053D01*
X105840413Y-104925918D01*
X105935116Y-104989197D01*
X106168400Y-105035600D01*
X109715100Y-105035600D01*
X109948384Y-104989197D01*
X110146152Y-104857052D01*
X110166601Y-104836603D01*
X110235553Y-105183247D01*
X110466806Y-105529342D01*
X110812901Y-105760595D01*
X111221148Y-105841800D01*
X111275056Y-105841800D01*
X111005658Y-106021806D01*
X110774405Y-106367901D01*
X110693200Y-106776148D01*
X110693200Y-107853852D01*
X110774405Y-108262099D01*
X111005658Y-108608194D01*
X111150400Y-108704907D01*
X111150400Y-116055444D01*
X110888915Y-116230163D01*
X110621873Y-116629820D01*
X110528100Y-117101248D01*
X110528100Y-117848752D01*
X110621873Y-118320180D01*
X110888915Y-118719837D01*
X111288572Y-118986879D01*
X111760000Y-119080652D01*
X112231428Y-118986879D01*
X112631085Y-118719837D01*
X112898127Y-118320180D01*
X112991900Y-117848752D01*
X112991900Y-117101248D01*
X112898127Y-116629820D01*
X112631085Y-116230163D01*
X112369600Y-116055444D01*
X112369600Y-108704907D01*
X112514342Y-108608194D01*
X112745595Y-108262099D01*
X112826800Y-107853852D01*
X112826800Y-106776148D01*
X112745595Y-106367901D01*
X112514342Y-106021806D01*
X112244944Y-105841800D01*
X112298852Y-105841800D01*
X112707099Y-105760595D01*
X112850200Y-105664978D01*
X112850200Y-114935000D01*
X112896603Y-115168284D01*
X113028748Y-115366052D01*
X113690400Y-116027704D01*
X113690400Y-116055444D01*
X113428915Y-116230163D01*
X113161873Y-116629820D01*
X113068100Y-117101248D01*
X113068100Y-117848752D01*
X113161873Y-118320180D01*
X113428915Y-118719837D01*
X113828572Y-118986879D01*
X114300000Y-119080652D01*
X114771428Y-118986879D01*
X115171085Y-118719837D01*
X115438127Y-118320180D01*
X115531900Y-117848752D01*
X115531900Y-117101248D01*
X115438127Y-116629820D01*
X115429880Y-116617477D01*
X116026840Y-116617477D01*
X116343259Y-117383270D01*
X116928648Y-117969682D01*
X117693888Y-118287437D01*
X118522477Y-118288160D01*
X119288270Y-117971741D01*
X119874682Y-117386352D01*
X120192437Y-116621112D01*
X120193160Y-115792523D01*
X119876741Y-115026730D01*
X119291352Y-114440318D01*
X118526112Y-114122563D01*
X117697523Y-114121840D01*
X116931730Y-114438259D01*
X116345318Y-115023648D01*
X116027563Y-115788888D01*
X116026840Y-116617477D01*
X115429880Y-116617477D01*
X115171085Y-116230163D01*
X114909600Y-116055444D01*
X114909600Y-115775200D01*
X114863197Y-115541916D01*
X114731052Y-115344148D01*
X114069400Y-114682496D01*
X114069400Y-113792000D01*
X121837829Y-113792000D01*
X121837829Y-118618000D01*
X121861485Y-118736927D01*
X121928852Y-118837748D01*
X122029673Y-118905115D01*
X122148600Y-118928771D01*
X124942600Y-118928771D01*
X125061527Y-118905115D01*
X125162348Y-118837748D01*
X125229715Y-118736927D01*
X125253371Y-118618000D01*
X125253371Y-114734437D01*
X125287934Y-114769061D01*
X125656556Y-114922126D01*
X126055693Y-114922474D01*
X126424581Y-114770052D01*
X126707061Y-114488066D01*
X126860126Y-114119444D01*
X126860474Y-113720307D01*
X126708052Y-113351419D01*
X126426066Y-113068939D01*
X126057444Y-112915874D01*
X125658307Y-112915526D01*
X125542883Y-112963219D01*
X125590126Y-112849444D01*
X125590474Y-112450307D01*
X125438052Y-112081419D01*
X125156066Y-111798939D01*
X124787444Y-111645874D01*
X124388307Y-111645526D01*
X124019419Y-111797948D01*
X123736939Y-112079934D01*
X123583874Y-112448556D01*
X123583526Y-112847693D01*
X123735948Y-113216581D01*
X124000133Y-113481229D01*
X122148600Y-113481229D01*
X122029673Y-113504885D01*
X121928852Y-113572252D01*
X121861485Y-113673073D01*
X121837829Y-113792000D01*
X114069400Y-113792000D01*
X114069400Y-104775000D01*
X114022997Y-104541716D01*
X113890852Y-104343948D01*
X113693084Y-104211803D01*
X113493986Y-104172200D01*
X115039496Y-104172200D01*
X118247048Y-107379753D01*
X118365602Y-107458967D01*
X118444816Y-107511897D01*
X118678100Y-107558300D01*
X125800229Y-107558300D01*
X125800229Y-111569500D01*
X125823885Y-111688427D01*
X125891252Y-111789248D01*
X125992073Y-111856615D01*
X126111000Y-111880271D01*
X127889000Y-111880271D01*
X128007927Y-111856615D01*
X128087952Y-111803144D01*
X128134206Y-111914811D01*
X128305689Y-112086294D01*
X128529743Y-112179100D01*
X129235200Y-112179100D01*
X129387600Y-112026700D01*
X129387600Y-109626400D01*
X129367600Y-109626400D01*
X129367600Y-109321600D01*
X129387600Y-109321600D01*
X129387600Y-109301600D01*
X129692400Y-109301600D01*
X129692400Y-109321600D01*
X129712400Y-109321600D01*
X129712400Y-109626400D01*
X129692400Y-109626400D01*
X129692400Y-112026700D01*
X129844800Y-112179100D01*
X130550257Y-112179100D01*
X130774311Y-112086294D01*
X130945794Y-111914811D01*
X130992048Y-111803144D01*
X131072073Y-111856615D01*
X131191000Y-111880271D01*
X132969000Y-111880271D01*
X133087927Y-111856615D01*
X133188748Y-111789248D01*
X133256115Y-111688427D01*
X133279771Y-111569500D01*
X133279771Y-109136333D01*
X134433292Y-107982812D01*
X134457290Y-107972896D01*
X134668256Y-107762299D01*
X134782570Y-107486999D01*
X134782830Y-107188909D01*
X134687241Y-106957566D01*
X136530000Y-106957566D01*
X136668748Y-106929967D01*
X136740900Y-106881757D01*
X136740900Y-113481229D01*
X135079437Y-113481229D01*
X135343061Y-113218066D01*
X135496126Y-112849444D01*
X135496474Y-112450307D01*
X135344052Y-112081419D01*
X135062066Y-111798939D01*
X134693444Y-111645874D01*
X134294307Y-111645526D01*
X133925419Y-111797948D01*
X133642939Y-112079934D01*
X133489874Y-112448556D01*
X133489526Y-112847693D01*
X133537219Y-112963117D01*
X133423444Y-112915874D01*
X133024307Y-112915526D01*
X132655419Y-113067948D01*
X132372939Y-113349934D01*
X132219874Y-113718556D01*
X132219526Y-114117693D01*
X132371948Y-114486581D01*
X132653934Y-114769061D01*
X133022556Y-114922126D01*
X133421693Y-114922474D01*
X133790581Y-114770052D01*
X133826629Y-114734067D01*
X133826629Y-118618000D01*
X133850285Y-118736927D01*
X133917652Y-118837748D01*
X134018473Y-118905115D01*
X134137400Y-118928771D01*
X136740900Y-118928771D01*
X136740900Y-119595900D01*
X60109100Y-119595900D01*
X60109100Y-117887477D01*
X60146840Y-117887477D01*
X60463259Y-118653270D01*
X61048648Y-119239682D01*
X61813888Y-119557437D01*
X62642477Y-119558160D01*
X63408270Y-119241741D01*
X63994682Y-118656352D01*
X64312437Y-117891112D01*
X64313160Y-117062523D01*
X63996741Y-116296730D01*
X63411352Y-115710318D01*
X62646112Y-115392563D01*
X61817523Y-115391840D01*
X61051730Y-115708259D01*
X60465318Y-116293648D01*
X60147563Y-117058888D01*
X60146840Y-117887477D01*
X60109100Y-117887477D01*
X60109100Y-111379000D01*
X61232434Y-111379000D01*
X61232434Y-112649000D01*
X61260033Y-112787748D01*
X61338627Y-112905373D01*
X61456252Y-112983967D01*
X61595000Y-113011566D01*
X61976000Y-113011566D01*
X61976000Y-113436700D01*
X62043671Y-113776906D01*
X62236382Y-114065318D01*
X62524794Y-114258029D01*
X62865000Y-114325700D01*
X63019764Y-114325700D01*
X64387941Y-115693877D01*
X64430971Y-115910206D01*
X64623682Y-116198618D01*
X64912094Y-116391329D01*
X65252300Y-116459000D01*
X66127661Y-116459000D01*
X66342466Y-116602528D01*
X66770153Y-116687600D01*
X67849847Y-116687600D01*
X68277534Y-116602528D01*
X68492339Y-116459000D01*
X69367700Y-116459000D01*
X69707906Y-116391329D01*
X69913433Y-116254000D01*
X70142434Y-116254000D01*
X70142434Y-116365000D01*
X70170033Y-116503748D01*
X70248627Y-116621373D01*
X70366252Y-116699967D01*
X70505000Y-116727566D01*
X73005000Y-116727566D01*
X73143748Y-116699967D01*
X73261373Y-116621373D01*
X73339967Y-116503748D01*
X73367566Y-116365000D01*
X73367566Y-114365000D01*
X73339967Y-114226252D01*
X73261373Y-114108627D01*
X73143748Y-114030033D01*
X73005000Y-114002434D01*
X70505000Y-114002434D01*
X70366252Y-114030033D01*
X70248627Y-114108627D01*
X70170033Y-114226252D01*
X70142434Y-114365000D01*
X70142434Y-114476000D01*
X69572700Y-114476000D01*
X69232494Y-114543671D01*
X69154222Y-114595971D01*
X69026967Y-114681000D01*
X68492339Y-114681000D01*
X68277534Y-114537472D01*
X67849847Y-114452400D01*
X66770153Y-114452400D01*
X66342466Y-114537472D01*
X66127661Y-114681000D01*
X65886676Y-114681000D01*
X65880918Y-114672382D01*
X64602297Y-113393761D01*
X65479516Y-113393761D01*
X65724369Y-113892104D01*
X66136312Y-114238872D01*
X66649600Y-114401600D01*
X67157600Y-114401600D01*
X67157600Y-113182400D01*
X67462400Y-113182400D01*
X67462400Y-114401600D01*
X67970400Y-114401600D01*
X68483688Y-114238872D01*
X68895631Y-113892104D01*
X69140484Y-113393761D01*
X69027637Y-113182400D01*
X67462400Y-113182400D01*
X67157600Y-113182400D01*
X65592363Y-113182400D01*
X65479516Y-113393761D01*
X64602297Y-113393761D01*
X64205983Y-112997447D01*
X64273748Y-112983967D01*
X64391373Y-112905373D01*
X64469967Y-112787748D01*
X64494136Y-112666239D01*
X65479516Y-112666239D01*
X65592363Y-112877600D01*
X67157600Y-112877600D01*
X67157600Y-111658400D01*
X67462400Y-111658400D01*
X67462400Y-112877600D01*
X69027637Y-112877600D01*
X69140484Y-112666239D01*
X68895631Y-112167896D01*
X68483688Y-111821128D01*
X67970400Y-111658400D01*
X67462400Y-111658400D01*
X67157600Y-111658400D01*
X66649600Y-111658400D01*
X66136312Y-111821128D01*
X65724369Y-112167896D01*
X65479516Y-112666239D01*
X64494136Y-112666239D01*
X64497566Y-112649000D01*
X64497566Y-111379000D01*
X64469967Y-111240252D01*
X64391373Y-111122627D01*
X64273748Y-111044033D01*
X64135000Y-111016434D01*
X61595000Y-111016434D01*
X61456252Y-111044033D01*
X61338627Y-111122627D01*
X61260033Y-111240252D01*
X61232434Y-111379000D01*
X60109100Y-111379000D01*
X60109100Y-109270800D01*
X60985400Y-109270800D01*
X60985400Y-109722257D01*
X61078206Y-109946311D01*
X61249689Y-110117794D01*
X61473743Y-110210600D01*
X62560200Y-110210600D01*
X62712600Y-110058200D01*
X62712600Y-109118400D01*
X63017400Y-109118400D01*
X63017400Y-110058200D01*
X63169800Y-110210600D01*
X64256257Y-110210600D01*
X64480311Y-110117794D01*
X64651794Y-109946311D01*
X64744600Y-109722257D01*
X64744600Y-109270800D01*
X64592200Y-109118400D01*
X63017400Y-109118400D01*
X62712600Y-109118400D01*
X61137800Y-109118400D01*
X60985400Y-109270800D01*
X60109100Y-109270800D01*
X60109100Y-108209743D01*
X60985400Y-108209743D01*
X60985400Y-108661200D01*
X61137800Y-108813600D01*
X62712600Y-108813600D01*
X62712600Y-107873800D01*
X63017400Y-107873800D01*
X63017400Y-108813600D01*
X64592200Y-108813600D01*
X64744600Y-108661200D01*
X64744600Y-108209743D01*
X64651794Y-107985689D01*
X64480311Y-107814206D01*
X64256257Y-107721400D01*
X63169800Y-107721400D01*
X63017400Y-107873800D01*
X62712600Y-107873800D01*
X62560200Y-107721400D01*
X61473743Y-107721400D01*
X61249689Y-107814206D01*
X61078206Y-107985689D01*
X60985400Y-108209743D01*
X60109100Y-108209743D01*
X60109100Y-82327477D01*
X60146840Y-82327477D01*
X60463259Y-83093270D01*
X61048648Y-83679682D01*
X61813888Y-83997437D01*
X62642477Y-83998160D01*
X63408270Y-83681741D01*
X63994682Y-83096352D01*
X64312437Y-82331112D01*
X64313160Y-81502523D01*
X63996741Y-80736730D01*
X63411352Y-80150318D01*
X62646112Y-79832563D01*
X61817523Y-79831840D01*
X61051730Y-80148259D01*
X60465318Y-80733648D01*
X60147563Y-81498888D01*
X60146840Y-82327477D01*
X60109100Y-82327477D01*
X60109100Y-79794100D01*
X136740900Y-79794100D01*
X136740900Y-80461229D01*
G36*
X129692400Y-89763600D02*
X129712400Y-89763600D01*
X129712400Y-90068400D01*
X129692400Y-90068400D01*
X129692400Y-90088400D01*
X129387600Y-90088400D01*
X129387600Y-90068400D01*
X129367600Y-90068400D01*
X129367600Y-89763600D01*
X129387600Y-89763600D01*
X129387600Y-89743600D01*
X129692400Y-89743600D01*
X129692400Y-89763600D01*
X129692400Y-89763600D01*
G37*
X129692400Y-89763600D02*
X129712400Y-89763600D01*
X129712400Y-90068400D01*
X129692400Y-90068400D01*
X129692400Y-90088400D01*
X129387600Y-90088400D01*
X129387600Y-90068400D01*
X129367600Y-90068400D01*
X129367600Y-89763600D01*
X129387600Y-89763600D01*
X129387600Y-89743600D01*
X129692400Y-89743600D01*
X129692400Y-89763600D01*
M02*
