G04 #@! TF.FileFunction,Copper,L1,Top,Signal*
%FSLAX46Y46*%
G04 Gerber Fmt 4.6, Leading zero omitted, Abs format (unit mm)*
G04 Created by KiCad (PCBNEW 4.1.0-alpha+201607150317+6980~46~ubuntu16.04.1-product) date Fri Jul 15 13:36:51 2016*
%MOMM*%
%LPD*%
G01*
G04 APERTURE LIST*
%ADD10C,0.100000*%
%ADD11C,0.228600*%
%ADD12O,1.854200X2.540000*%
%ADD13R,1.854200X2.540000*%
%ADD14C,3.556000*%
%ADD15C,2.000000*%
%ADD16C,2.200000*%
%ADD17C,1.397000*%
%ADD18R,4.191000X1.778000*%
%ADD19R,4.826000X2.794000*%
%ADD20O,2.540000X1.524000*%
%ADD21O,5.080000X3.048000*%
%ADD22O,2.032000X1.524000*%
%ADD23O,1.524000X2.032000*%
%ADD24R,2.000000X2.500000*%
%ADD25R,1.590040X2.667000*%
%ADD26R,1.778000X4.191000*%
%ADD27R,2.794000X4.826000*%
%ADD28R,3.800000X4.960000*%
%ADD29R,1.600000X1.440000*%
%ADD30R,1.524000X2.540000*%
%ADD31O,1.524000X2.540000*%
%ADD32R,1.270000X2.540000*%
%ADD33C,0.889000*%
%ADD34C,1.066800*%
%ADD35C,0.609600*%
%ADD36C,0.203200*%
G04 APERTURE END LIST*
D10*
D11*
X137160000Y-79375000D02*
X59690000Y-79375000D01*
X137160000Y-120015000D02*
X137160000Y-79375000D01*
X59690000Y-120015000D02*
X137160000Y-120015000D01*
X59690000Y-79375000D02*
X59690000Y-120015000D01*
D12*
X78740000Y-81915000D03*
X81280000Y-81915000D03*
D13*
X76200000Y-81915000D03*
D12*
X83820000Y-81915000D03*
X86360000Y-81915000D03*
X88900000Y-81915000D03*
X91440000Y-81915000D03*
X93980000Y-81915000D03*
X96520000Y-81915000D03*
X99060000Y-81915000D03*
X101600000Y-81915000D03*
X104140000Y-81915000D03*
X106680000Y-81915000D03*
X109220000Y-81915000D03*
X111760000Y-81915000D03*
X114300000Y-81915000D03*
X114300000Y-117475000D03*
X111760000Y-117475000D03*
X109220000Y-117475000D03*
X106680000Y-117475000D03*
X104140000Y-117475000D03*
X101600000Y-117475000D03*
X99060000Y-117475000D03*
X96520000Y-117475000D03*
X93980000Y-117475000D03*
X91440000Y-117475000D03*
X88900000Y-117475000D03*
X86360000Y-117475000D03*
X83820000Y-117475000D03*
X81280000Y-117475000D03*
X78740000Y-117475000D03*
X76200000Y-117475000D03*
D14*
X77470000Y-86995000D03*
X77470000Y-112395000D03*
X118110000Y-116205000D03*
X118110000Y-83185000D03*
D15*
X129030000Y-99695000D03*
D16*
X133530000Y-99695000D03*
D17*
X134493000Y-86741000D03*
X124587000Y-86741000D03*
D18*
X122809000Y-97155000D03*
X122809000Y-99695000D03*
X122809000Y-102235000D03*
D17*
X125984000Y-94742000D03*
X125984000Y-104648000D03*
D19*
X129540000Y-93700600D03*
X129540000Y-105689400D03*
D17*
X124587000Y-112649000D03*
X134493000Y-112649000D03*
D20*
X67310000Y-113030000D03*
X67310000Y-115570000D03*
X67310000Y-110490000D03*
D21*
X63500000Y-104775000D03*
X63500000Y-94615000D03*
D22*
X69596000Y-99695000D03*
D23*
X72390000Y-99695000D03*
X72390000Y-96901000D03*
X72390000Y-102489000D03*
D24*
X82345000Y-99695000D03*
X78945000Y-99695000D03*
D25*
X67851020Y-81597500D03*
X67851020Y-89852500D03*
X71848980Y-81597500D03*
X71848980Y-89852500D03*
D26*
X128270000Y-88646000D03*
X130810000Y-88646000D03*
D17*
X125857000Y-85471000D03*
X133223000Y-85471000D03*
D27*
X124815600Y-81915000D03*
X134264400Y-81915000D03*
D26*
X130810000Y-110744000D03*
X128270000Y-110744000D03*
D17*
X133223000Y-113919000D03*
X125857000Y-113919000D03*
D27*
X134264400Y-117475000D03*
X124815600Y-117475000D03*
D28*
X116840000Y-109605000D03*
D29*
X115775000Y-105805000D03*
X117905000Y-105805000D03*
D14*
X116840000Y-99695000D03*
X62230000Y-117475000D03*
X62230000Y-81915000D03*
D30*
X78740000Y-92075000D03*
D31*
X81280000Y-92075000D03*
X83820000Y-92075000D03*
X86360000Y-92075000D03*
X88900000Y-92075000D03*
X91440000Y-92075000D03*
X93980000Y-92075000D03*
X96520000Y-92075000D03*
X99060000Y-92075000D03*
X101600000Y-92075000D03*
X104140000Y-92075000D03*
X106680000Y-92075000D03*
X109220000Y-92075000D03*
X111760000Y-92075000D03*
X111760000Y-107315000D03*
X109220000Y-107315000D03*
X106680000Y-107315000D03*
X104140000Y-107315000D03*
X101600000Y-107315000D03*
X99060000Y-107315000D03*
X96520000Y-107315000D03*
X93980000Y-107315000D03*
X91440000Y-107315000D03*
X88900000Y-107315000D03*
X86360000Y-107315000D03*
X83820000Y-107315000D03*
X81280000Y-107315000D03*
X78740000Y-107315000D03*
D20*
X111760000Y-104775000D03*
X111760000Y-102235000D03*
X111760000Y-99695000D03*
X111760000Y-97155000D03*
X111760000Y-94615000D03*
D31*
X81280000Y-104267000D03*
X86360000Y-104267000D03*
X88900000Y-104267000D03*
X91440000Y-104267000D03*
X93980000Y-102743000D03*
X93980000Y-99187000D03*
X96520000Y-102743000D03*
X96520000Y-99187000D03*
X99060000Y-99187000D03*
X101600000Y-99187000D03*
X104140000Y-99187000D03*
X106680000Y-99187000D03*
X109220000Y-99187000D03*
X99060000Y-102743000D03*
X101600000Y-102743000D03*
X104140000Y-102743000D03*
X106680000Y-102743000D03*
X109220000Y-102743000D03*
D32*
X86106000Y-99695000D03*
X89154000Y-99695000D03*
D33*
X81563000Y-89119800D03*
X121531100Y-91334700D03*
X130810000Y-113540100D03*
X132841500Y-92799200D03*
X71849000Y-87731300D03*
X123679300Y-91334700D03*
X115477700Y-89333100D03*
X117342800Y-90395800D03*
X134033400Y-107337300D03*
X117943900Y-104297300D03*
X120831700Y-94702800D03*
X74972600Y-106483600D03*
D34*
X118238200Y-88041800D02*
X121531100Y-91334700D01*
X82641000Y-88041800D02*
X118238200Y-88041800D01*
X81563000Y-89119800D02*
X82641000Y-88041800D01*
X130810000Y-113540100D02*
X130810000Y-110744000D01*
X78740000Y-81915000D02*
X78740000Y-83972700D01*
X132841500Y-90677500D02*
X130810000Y-88646000D01*
X132841500Y-92799200D02*
X132841500Y-90677500D01*
X133226600Y-108327400D02*
X130810000Y-110744000D01*
X133523100Y-108623900D02*
X133226600Y-108327400D01*
X134510900Y-108623900D02*
X133523100Y-108623900D01*
X135419300Y-107715500D02*
X134510900Y-108623900D01*
X135419300Y-95377000D02*
X135419300Y-107715500D01*
X132841500Y-92799200D02*
X135419300Y-95377000D01*
X125736200Y-99695000D02*
X122809000Y-99695000D01*
X129202900Y-103161700D02*
X125736200Y-99695000D01*
X131942400Y-103161700D02*
X129202900Y-103161700D01*
X132740800Y-103960100D02*
X131942400Y-103161700D01*
X132740800Y-107841600D02*
X132740800Y-103960100D01*
X133226600Y-108327400D02*
X132740800Y-107841600D01*
X71849000Y-89852500D02*
X71849000Y-87731300D01*
X72013800Y-90017300D02*
X71849000Y-89852500D01*
X78740000Y-90017300D02*
X72013800Y-90017300D01*
X78740000Y-92075000D02*
X78740000Y-90017300D01*
X80739700Y-85972400D02*
X80739700Y-86676800D01*
X78740000Y-83972700D02*
X80739700Y-85972400D01*
X80739700Y-88017600D02*
X78740000Y-90017300D01*
X80739700Y-86676800D02*
X80739700Y-88017600D01*
X119021400Y-86676800D02*
X123679300Y-91334700D01*
X80739700Y-86676800D02*
X119021400Y-86676800D01*
X73945100Y-100679900D02*
X72390000Y-102235000D01*
X73945100Y-97637200D02*
X73945100Y-100679900D01*
X87096200Y-97637200D02*
X73945100Y-97637200D01*
X87731300Y-98272300D02*
X87096200Y-97637200D01*
X87731300Y-99695000D02*
X87731300Y-98272300D01*
X73939700Y-97631800D02*
X73939700Y-97155000D01*
X73945100Y-97637200D02*
X73939700Y-97631800D01*
X72390000Y-97155000D02*
X73939700Y-97155000D01*
X89154000Y-99695000D02*
X87731300Y-99695000D01*
D35*
X84021900Y-89333100D02*
X115477700Y-89333100D01*
X82979800Y-90375200D02*
X84021900Y-89333100D01*
X81280000Y-90375200D02*
X82979800Y-90375200D01*
X81280000Y-92075000D02*
X81280000Y-90375200D01*
X85499200Y-90395800D02*
X117342800Y-90395800D01*
X83820000Y-92075000D02*
X85499200Y-90395800D01*
X134033400Y-102542600D02*
X134033400Y-107337300D01*
X129441100Y-97950300D02*
X134033400Y-102542600D01*
X127315900Y-97950300D02*
X129441100Y-97950300D01*
X125215900Y-95850300D02*
X127315900Y-97950300D01*
X113544100Y-95850300D02*
X125215900Y-95850300D01*
X113509400Y-95885000D02*
X113544100Y-95850300D01*
X103710200Y-95885000D02*
X113509400Y-95885000D01*
X101600000Y-93774800D02*
X103710200Y-95885000D01*
X101600000Y-92075000D02*
X101600000Y-93774800D01*
D34*
X122213200Y-94702800D02*
X128270000Y-88646000D01*
X120831700Y-94702800D02*
X122213200Y-94702800D01*
X117905000Y-105805000D02*
X117905000Y-105051100D01*
X117905000Y-105051100D02*
X117905000Y-104297300D01*
X117362700Y-105593400D02*
X117362700Y-105805000D01*
X117905000Y-105051100D02*
X117362700Y-105593400D01*
X115775000Y-105805000D02*
X117362700Y-105805000D01*
X117905000Y-104297300D02*
X117943900Y-104297300D01*
X81756600Y-101732700D02*
X82345000Y-101732700D01*
X81280000Y-102209300D02*
X81756600Y-101732700D01*
X81280000Y-104775000D02*
X81280000Y-102209300D01*
X82345000Y-99695000D02*
X82345000Y-101732700D01*
X127131000Y-109605000D02*
X116840000Y-109605000D01*
X128270000Y-110744000D02*
X127131000Y-109605000D01*
X108790300Y-114967000D02*
X114152300Y-109605000D01*
X73844700Y-114967000D02*
X108790300Y-114967000D01*
X69367700Y-110490000D02*
X73844700Y-114967000D01*
X67310000Y-110490000D02*
X69367700Y-110490000D01*
X116840000Y-109605000D02*
X114152300Y-109605000D01*
X78945000Y-105052300D02*
X78740000Y-105257300D01*
X78945000Y-99695000D02*
X78945000Y-105052300D01*
X78740000Y-107315000D02*
X78740000Y-105257300D01*
D35*
X67851000Y-81597500D02*
X67851000Y-83360800D01*
X69823000Y-85332800D02*
X67851000Y-83360800D01*
X69823000Y-90759200D02*
X69823000Y-85332800D01*
X73154000Y-94090200D02*
X69823000Y-90759200D01*
X98665900Y-94090200D02*
X73154000Y-94090200D01*
X102860500Y-98284800D02*
X98665900Y-94090200D01*
X102860500Y-100102000D02*
X102860500Y-98284800D01*
X103723500Y-100965000D02*
X102860500Y-100102000D01*
X110490000Y-100965000D02*
X103723500Y-100965000D01*
X111760000Y-102235000D02*
X110490000Y-100965000D01*
D34*
X84683300Y-104394000D02*
X84683300Y-99695000D01*
X83820000Y-105257300D02*
X84683300Y-104394000D01*
X86106000Y-99695000D02*
X84683300Y-99695000D01*
X83820000Y-107315000D02*
X83820000Y-105257300D01*
X68602100Y-106483600D02*
X74972600Y-106483600D01*
X65195600Y-109890100D02*
X68602100Y-106483600D01*
X65195600Y-116162700D02*
X65195600Y-109890100D01*
X66507900Y-117475000D02*
X65195600Y-116162700D01*
X76200000Y-117475000D02*
X66507900Y-117475000D01*
D35*
X104218000Y-97409200D02*
X104140000Y-97487200D01*
X109659000Y-97409200D02*
X104218000Y-97409200D01*
X110677600Y-98427800D02*
X109659000Y-97409200D01*
X114188700Y-98427800D02*
X110677600Y-98427800D01*
X115461500Y-97155000D02*
X114188700Y-98427800D01*
X122809000Y-97155000D02*
X115461500Y-97155000D01*
X104140000Y-99695000D02*
X104140000Y-97487200D01*
X117528900Y-102235000D02*
X122809000Y-102235000D01*
X116258900Y-103505000D02*
X117528900Y-102235000D01*
X110636100Y-103505000D02*
X116258900Y-103505000D01*
X109698300Y-104442800D02*
X110636100Y-103505000D01*
X104140000Y-104442800D02*
X109698300Y-104442800D01*
X104140000Y-102235000D02*
X104140000Y-104442800D01*
X69850000Y-102092500D02*
X69850000Y-99695000D01*
X72736700Y-104979200D02*
X69850000Y-102092500D01*
X75064300Y-104979200D02*
X72736700Y-104979200D01*
X76193000Y-106107900D02*
X75064300Y-104979200D01*
X76193000Y-107181600D02*
X76193000Y-106107900D01*
X78167100Y-109155700D02*
X76193000Y-107181600D01*
X91866700Y-109155700D02*
X78167100Y-109155700D01*
X92799000Y-108223400D02*
X91866700Y-109155700D01*
X92799000Y-106324500D02*
X92799000Y-108223400D01*
X93826500Y-105297000D02*
X92799000Y-106324500D01*
X98205800Y-105297000D02*
X93826500Y-105297000D01*
X99060000Y-104442800D02*
X98205800Y-105297000D01*
X99060000Y-102235000D02*
X99060000Y-104442800D01*
D36*
G36*
X123107829Y-84328000D02*
X123131485Y-84446927D01*
X123198852Y-84547748D01*
X123299673Y-84615115D01*
X123418600Y-84638771D01*
X125270563Y-84638771D01*
X125006939Y-84901934D01*
X124853874Y-85270556D01*
X124853526Y-85669693D01*
X124901219Y-85785117D01*
X124787444Y-85737874D01*
X124388307Y-85737526D01*
X124019419Y-85889948D01*
X123736939Y-86171934D01*
X123583874Y-86540556D01*
X123583526Y-86939693D01*
X123735948Y-87308581D01*
X124017934Y-87591061D01*
X124386556Y-87744126D01*
X124785693Y-87744474D01*
X125154581Y-87592052D01*
X125437061Y-87310066D01*
X125590126Y-86941444D01*
X125590474Y-86542307D01*
X125542781Y-86426883D01*
X125656556Y-86474126D01*
X126055693Y-86474474D01*
X126424581Y-86322052D01*
X126707061Y-86040066D01*
X126860126Y-85671444D01*
X126860474Y-85272307D01*
X126708052Y-84903419D01*
X126426066Y-84620939D01*
X126362385Y-84594496D01*
X126432348Y-84547748D01*
X126499715Y-84446927D01*
X126523371Y-84328000D01*
X126523371Y-79794100D01*
X132556629Y-79794100D01*
X132556629Y-84328000D01*
X132580285Y-84446927D01*
X132647652Y-84547748D01*
X132717386Y-84594343D01*
X132655419Y-84619948D01*
X132372939Y-84901934D01*
X132219874Y-85270556D01*
X132219526Y-85669693D01*
X132371948Y-86038581D01*
X132653934Y-86321061D01*
X133022556Y-86474126D01*
X133421693Y-86474474D01*
X133537117Y-86426781D01*
X133489874Y-86540556D01*
X133489526Y-86939693D01*
X133641948Y-87308581D01*
X133923934Y-87591061D01*
X134292556Y-87744126D01*
X134691693Y-87744474D01*
X135060581Y-87592052D01*
X135343061Y-87310066D01*
X135496126Y-86941444D01*
X135496474Y-86542307D01*
X135344052Y-86173419D01*
X135062066Y-85890939D01*
X134693444Y-85737874D01*
X134294307Y-85737526D01*
X134178883Y-85785219D01*
X134226126Y-85671444D01*
X134226474Y-85272307D01*
X134074052Y-84903419D01*
X133809867Y-84638771D01*
X135661400Y-84638771D01*
X135780327Y-84615115D01*
X135881148Y-84547748D01*
X135948515Y-84446927D01*
X135972171Y-84328000D01*
X135972171Y-79794100D01*
X136740900Y-79794100D01*
X136740900Y-119595900D01*
X135972171Y-119595900D01*
X135972171Y-115062000D01*
X135948515Y-114943073D01*
X135881148Y-114842252D01*
X135780327Y-114774885D01*
X135661400Y-114751229D01*
X133809437Y-114751229D01*
X134073061Y-114488066D01*
X134226126Y-114119444D01*
X134226474Y-113720307D01*
X134178781Y-113604883D01*
X134292556Y-113652126D01*
X134691693Y-113652474D01*
X135060581Y-113500052D01*
X135343061Y-113218066D01*
X135496126Y-112849444D01*
X135496474Y-112450307D01*
X135344052Y-112081419D01*
X135062066Y-111798939D01*
X134693444Y-111645874D01*
X134294307Y-111645526D01*
X133925419Y-111797948D01*
X133642939Y-112079934D01*
X133489874Y-112448556D01*
X133489526Y-112847693D01*
X133537219Y-112963117D01*
X133423444Y-112915874D01*
X133024307Y-112915526D01*
X132655419Y-113067948D01*
X132372939Y-113349934D01*
X132219874Y-113718556D01*
X132219526Y-114117693D01*
X132371948Y-114486581D01*
X132653934Y-114769061D01*
X132717615Y-114795504D01*
X132647652Y-114842252D01*
X132580285Y-114943073D01*
X132556629Y-115062000D01*
X132556629Y-119595900D01*
X126523371Y-119595900D01*
X126523371Y-115062000D01*
X126499715Y-114943073D01*
X126432348Y-114842252D01*
X126362614Y-114795657D01*
X126424581Y-114770052D01*
X126707061Y-114488066D01*
X126860126Y-114119444D01*
X126860474Y-113720307D01*
X126708052Y-113351419D01*
X126426066Y-113068939D01*
X126057444Y-112915874D01*
X125658307Y-112915526D01*
X125542883Y-112963219D01*
X125590126Y-112849444D01*
X125590474Y-112450307D01*
X125438052Y-112081419D01*
X125156066Y-111798939D01*
X124787444Y-111645874D01*
X124388307Y-111645526D01*
X124019419Y-111797948D01*
X123736939Y-112079934D01*
X123583874Y-112448556D01*
X123583526Y-112847693D01*
X123735948Y-113216581D01*
X124017934Y-113499061D01*
X124386556Y-113652126D01*
X124785693Y-113652474D01*
X124901117Y-113604781D01*
X124853874Y-113718556D01*
X124853526Y-114117693D01*
X125005948Y-114486581D01*
X125270133Y-114751229D01*
X123418600Y-114751229D01*
X123299673Y-114774885D01*
X123198852Y-114842252D01*
X123131485Y-114943073D01*
X123107829Y-115062000D01*
X123107829Y-119595900D01*
X60109100Y-119595900D01*
X60109100Y-117887477D01*
X60146840Y-117887477D01*
X60463259Y-118653270D01*
X61048648Y-119239682D01*
X61813888Y-119557437D01*
X62642477Y-119558160D01*
X63408270Y-119241741D01*
X63994682Y-118656352D01*
X64312437Y-117891112D01*
X64313160Y-117062523D01*
X63996741Y-116296730D01*
X63411352Y-115710318D01*
X62646112Y-115392563D01*
X61817523Y-115391840D01*
X61051730Y-115708259D01*
X60465318Y-116293648D01*
X60147563Y-117058888D01*
X60146840Y-117887477D01*
X60109100Y-117887477D01*
X60109100Y-109890100D01*
X64306600Y-109890100D01*
X64306600Y-116162700D01*
X64374271Y-116502906D01*
X64475009Y-116653671D01*
X64566982Y-116791318D01*
X65879282Y-118103618D01*
X66167694Y-118296329D01*
X66507900Y-118364000D01*
X75030565Y-118364000D01*
X75292994Y-118756753D01*
X75709132Y-119034807D01*
X76200000Y-119132447D01*
X76690868Y-119034807D01*
X77107006Y-118756753D01*
X77385060Y-118340615D01*
X77470000Y-117913594D01*
X77554940Y-118340615D01*
X77832994Y-118756753D01*
X78249132Y-119034807D01*
X78740000Y-119132447D01*
X79230868Y-119034807D01*
X79647006Y-118756753D01*
X79925060Y-118340615D01*
X80010000Y-117913594D01*
X80094940Y-118340615D01*
X80372994Y-118756753D01*
X80789132Y-119034807D01*
X81280000Y-119132447D01*
X81770868Y-119034807D01*
X82187006Y-118756753D01*
X82465060Y-118340615D01*
X82550000Y-117913594D01*
X82634940Y-118340615D01*
X82912994Y-118756753D01*
X83329132Y-119034807D01*
X83820000Y-119132447D01*
X84310868Y-119034807D01*
X84727006Y-118756753D01*
X85005060Y-118340615D01*
X85102700Y-117849747D01*
X85102700Y-117101248D01*
X85128100Y-117101248D01*
X85128100Y-117848752D01*
X85221873Y-118320180D01*
X85488915Y-118719837D01*
X85888572Y-118986879D01*
X86360000Y-119080652D01*
X86831428Y-118986879D01*
X87231085Y-118719837D01*
X87498127Y-118320180D01*
X87591900Y-117848752D01*
X87591900Y-117101248D01*
X87668100Y-117101248D01*
X87668100Y-117848752D01*
X87761873Y-118320180D01*
X88028915Y-118719837D01*
X88428572Y-118986879D01*
X88900000Y-119080652D01*
X89371428Y-118986879D01*
X89771085Y-118719837D01*
X90038127Y-118320180D01*
X90131900Y-117848752D01*
X90131900Y-117101248D01*
X90208100Y-117101248D01*
X90208100Y-117848752D01*
X90301873Y-118320180D01*
X90568915Y-118719837D01*
X90968572Y-118986879D01*
X91440000Y-119080652D01*
X91911428Y-118986879D01*
X92311085Y-118719837D01*
X92578127Y-118320180D01*
X92671900Y-117848752D01*
X92671900Y-117101248D01*
X92748100Y-117101248D01*
X92748100Y-117848752D01*
X92841873Y-118320180D01*
X93108915Y-118719837D01*
X93508572Y-118986879D01*
X93980000Y-119080652D01*
X94451428Y-118986879D01*
X94851085Y-118719837D01*
X95118127Y-118320180D01*
X95211900Y-117848752D01*
X95211900Y-117101248D01*
X95288100Y-117101248D01*
X95288100Y-117848752D01*
X95381873Y-118320180D01*
X95648915Y-118719837D01*
X96048572Y-118986879D01*
X96520000Y-119080652D01*
X96991428Y-118986879D01*
X97391085Y-118719837D01*
X97658127Y-118320180D01*
X97751900Y-117848752D01*
X97751900Y-117101248D01*
X97828100Y-117101248D01*
X97828100Y-117848752D01*
X97921873Y-118320180D01*
X98188915Y-118719837D01*
X98588572Y-118986879D01*
X99060000Y-119080652D01*
X99531428Y-118986879D01*
X99931085Y-118719837D01*
X100198127Y-118320180D01*
X100291900Y-117848752D01*
X100291900Y-117101248D01*
X100368100Y-117101248D01*
X100368100Y-117848752D01*
X100461873Y-118320180D01*
X100728915Y-118719837D01*
X101128572Y-118986879D01*
X101600000Y-119080652D01*
X102071428Y-118986879D01*
X102471085Y-118719837D01*
X102738127Y-118320180D01*
X102831900Y-117848752D01*
X102831900Y-117101248D01*
X102908100Y-117101248D01*
X102908100Y-117848752D01*
X103001873Y-118320180D01*
X103268915Y-118719837D01*
X103668572Y-118986879D01*
X104140000Y-119080652D01*
X104611428Y-118986879D01*
X105011085Y-118719837D01*
X105278127Y-118320180D01*
X105371900Y-117848752D01*
X105371900Y-117101248D01*
X105448100Y-117101248D01*
X105448100Y-117848752D01*
X105541873Y-118320180D01*
X105808915Y-118719837D01*
X106208572Y-118986879D01*
X106680000Y-119080652D01*
X107151428Y-118986879D01*
X107551085Y-118719837D01*
X107818127Y-118320180D01*
X107911900Y-117848752D01*
X107911900Y-117101248D01*
X107988100Y-117101248D01*
X107988100Y-117848752D01*
X108081873Y-118320180D01*
X108348915Y-118719837D01*
X108748572Y-118986879D01*
X109220000Y-119080652D01*
X109691428Y-118986879D01*
X110091085Y-118719837D01*
X110358127Y-118320180D01*
X110451900Y-117848752D01*
X110451900Y-117101248D01*
X110528100Y-117101248D01*
X110528100Y-117848752D01*
X110621873Y-118320180D01*
X110888915Y-118719837D01*
X111288572Y-118986879D01*
X111760000Y-119080652D01*
X112231428Y-118986879D01*
X112631085Y-118719837D01*
X112898127Y-118320180D01*
X112991900Y-117848752D01*
X112991900Y-117101248D01*
X113068100Y-117101248D01*
X113068100Y-117848752D01*
X113161873Y-118320180D01*
X113428915Y-118719837D01*
X113828572Y-118986879D01*
X114300000Y-119080652D01*
X114771428Y-118986879D01*
X115171085Y-118719837D01*
X115438127Y-118320180D01*
X115531900Y-117848752D01*
X115531900Y-117101248D01*
X115438127Y-116629820D01*
X115429880Y-116617477D01*
X116026840Y-116617477D01*
X116343259Y-117383270D01*
X116928648Y-117969682D01*
X117693888Y-118287437D01*
X118522477Y-118288160D01*
X119288270Y-117971741D01*
X119874682Y-117386352D01*
X120192437Y-116621112D01*
X120193160Y-115792523D01*
X119876741Y-115026730D01*
X119291352Y-114440318D01*
X118526112Y-114122563D01*
X117697523Y-114121840D01*
X116931730Y-114438259D01*
X116345318Y-115023648D01*
X116027563Y-115788888D01*
X116026840Y-116617477D01*
X115429880Y-116617477D01*
X115171085Y-116230163D01*
X114771428Y-115963121D01*
X114300000Y-115869348D01*
X113828572Y-115963121D01*
X113428915Y-116230163D01*
X113161873Y-116629820D01*
X113068100Y-117101248D01*
X112991900Y-117101248D01*
X112898127Y-116629820D01*
X112631085Y-116230163D01*
X112231428Y-115963121D01*
X111760000Y-115869348D01*
X111288572Y-115963121D01*
X110888915Y-116230163D01*
X110621873Y-116629820D01*
X110528100Y-117101248D01*
X110451900Y-117101248D01*
X110358127Y-116629820D01*
X110091085Y-116230163D01*
X109691428Y-115963121D01*
X109220000Y-115869348D01*
X108748572Y-115963121D01*
X108348915Y-116230163D01*
X108081873Y-116629820D01*
X107988100Y-117101248D01*
X107911900Y-117101248D01*
X107818127Y-116629820D01*
X107551085Y-116230163D01*
X107151428Y-115963121D01*
X106680000Y-115869348D01*
X106208572Y-115963121D01*
X105808915Y-116230163D01*
X105541873Y-116629820D01*
X105448100Y-117101248D01*
X105371900Y-117101248D01*
X105278127Y-116629820D01*
X105011085Y-116230163D01*
X104611428Y-115963121D01*
X104140000Y-115869348D01*
X103668572Y-115963121D01*
X103268915Y-116230163D01*
X103001873Y-116629820D01*
X102908100Y-117101248D01*
X102831900Y-117101248D01*
X102738127Y-116629820D01*
X102471085Y-116230163D01*
X102071428Y-115963121D01*
X101600000Y-115869348D01*
X101128572Y-115963121D01*
X100728915Y-116230163D01*
X100461873Y-116629820D01*
X100368100Y-117101248D01*
X100291900Y-117101248D01*
X100198127Y-116629820D01*
X99931085Y-116230163D01*
X99531428Y-115963121D01*
X99060000Y-115869348D01*
X98588572Y-115963121D01*
X98188915Y-116230163D01*
X97921873Y-116629820D01*
X97828100Y-117101248D01*
X97751900Y-117101248D01*
X97658127Y-116629820D01*
X97391085Y-116230163D01*
X96991428Y-115963121D01*
X96520000Y-115869348D01*
X96048572Y-115963121D01*
X95648915Y-116230163D01*
X95381873Y-116629820D01*
X95288100Y-117101248D01*
X95211900Y-117101248D01*
X95118127Y-116629820D01*
X94851085Y-116230163D01*
X94451428Y-115963121D01*
X93980000Y-115869348D01*
X93508572Y-115963121D01*
X93108915Y-116230163D01*
X92841873Y-116629820D01*
X92748100Y-117101248D01*
X92671900Y-117101248D01*
X92578127Y-116629820D01*
X92311085Y-116230163D01*
X91911428Y-115963121D01*
X91440000Y-115869348D01*
X90968572Y-115963121D01*
X90568915Y-116230163D01*
X90301873Y-116629820D01*
X90208100Y-117101248D01*
X90131900Y-117101248D01*
X90038127Y-116629820D01*
X89771085Y-116230163D01*
X89371428Y-115963121D01*
X88900000Y-115869348D01*
X88428572Y-115963121D01*
X88028915Y-116230163D01*
X87761873Y-116629820D01*
X87668100Y-117101248D01*
X87591900Y-117101248D01*
X87498127Y-116629820D01*
X87231085Y-116230163D01*
X86831428Y-115963121D01*
X86360000Y-115869348D01*
X85888572Y-115963121D01*
X85488915Y-116230163D01*
X85221873Y-116629820D01*
X85128100Y-117101248D01*
X85102700Y-117101248D01*
X85102700Y-117100253D01*
X85005060Y-116609385D01*
X84727006Y-116193247D01*
X84310868Y-115915193D01*
X84013286Y-115856000D01*
X108790300Y-115856000D01*
X109130506Y-115788329D01*
X109418918Y-115595618D01*
X114520536Y-110494000D01*
X114629229Y-110494000D01*
X114629229Y-112085000D01*
X114652885Y-112203927D01*
X114720252Y-112304748D01*
X114821073Y-112372115D01*
X114940000Y-112395771D01*
X118740000Y-112395771D01*
X118858927Y-112372115D01*
X118959748Y-112304748D01*
X119027115Y-112203927D01*
X119050771Y-112085000D01*
X119050771Y-110494000D01*
X126762764Y-110494000D01*
X127018434Y-110749670D01*
X127018434Y-112839500D01*
X127046033Y-112978248D01*
X127124627Y-113095873D01*
X127242252Y-113174467D01*
X127381000Y-113202066D01*
X129159000Y-113202066D01*
X129297748Y-113174467D01*
X129377773Y-113120996D01*
X129404206Y-113184811D01*
X129575689Y-113356294D01*
X129799743Y-113449100D01*
X130505200Y-113449100D01*
X130657600Y-113296700D01*
X130657600Y-110896400D01*
X130962400Y-110896400D01*
X130962400Y-113296700D01*
X131114800Y-113449100D01*
X131820257Y-113449100D01*
X132044311Y-113356294D01*
X132215794Y-113184811D01*
X132308600Y-112960757D01*
X132308600Y-111048800D01*
X132156200Y-110896400D01*
X130962400Y-110896400D01*
X130657600Y-110896400D01*
X130637600Y-110896400D01*
X130637600Y-110591600D01*
X130657600Y-110591600D01*
X130657600Y-108191300D01*
X130962400Y-108191300D01*
X130962400Y-110591600D01*
X132156200Y-110591600D01*
X132308600Y-110439200D01*
X132308600Y-108527243D01*
X132215794Y-108303189D01*
X132044311Y-108131706D01*
X131820257Y-108038900D01*
X131114800Y-108038900D01*
X130962400Y-108191300D01*
X130657600Y-108191300D01*
X130505200Y-108038900D01*
X129799743Y-108038900D01*
X129575689Y-108131706D01*
X129404206Y-108303189D01*
X129377773Y-108367004D01*
X129297748Y-108313533D01*
X129159000Y-108285934D01*
X127381000Y-108285934D01*
X127242252Y-108313533D01*
X127124627Y-108392127D01*
X127046033Y-108509752D01*
X127018434Y-108648500D01*
X127018434Y-108716000D01*
X119050771Y-108716000D01*
X119050771Y-107125000D01*
X119027115Y-107006073D01*
X118959748Y-106905252D01*
X118858927Y-106837885D01*
X118776650Y-106821519D01*
X118823927Y-106812115D01*
X118924748Y-106744748D01*
X118992115Y-106643927D01*
X119015771Y-106525000D01*
X119015771Y-105085000D01*
X118992115Y-104966073D01*
X118924748Y-104865252D01*
X118896973Y-104846693D01*
X124980526Y-104846693D01*
X125132948Y-105215581D01*
X125414934Y-105498061D01*
X125783556Y-105651126D01*
X126182693Y-105651474D01*
X126551581Y-105499052D01*
X126816229Y-105234867D01*
X126816229Y-107086400D01*
X126839885Y-107205327D01*
X126907252Y-107306148D01*
X127008073Y-107373515D01*
X127127000Y-107397171D01*
X131953000Y-107397171D01*
X132071927Y-107373515D01*
X132172748Y-107306148D01*
X132240115Y-107205327D01*
X132263771Y-107086400D01*
X132263771Y-104292400D01*
X132240115Y-104173473D01*
X132172748Y-104072652D01*
X132071927Y-104005285D01*
X131953000Y-103981629D01*
X127127000Y-103981629D01*
X127008073Y-104005285D01*
X126907252Y-104072652D01*
X126860657Y-104142386D01*
X126835052Y-104080419D01*
X126553066Y-103797939D01*
X126184444Y-103644874D01*
X125785307Y-103644526D01*
X125416419Y-103796948D01*
X125133939Y-104078934D01*
X124980874Y-104447556D01*
X124980526Y-104846693D01*
X118896973Y-104846693D01*
X118823927Y-104797885D01*
X118794000Y-104791932D01*
X118794000Y-104492864D01*
X118832900Y-104297300D01*
X118765229Y-103957094D01*
X118572518Y-103668682D01*
X118284106Y-103475971D01*
X117943900Y-103408300D01*
X117905000Y-103408300D01*
X117564794Y-103475971D01*
X117276382Y-103668682D01*
X117083671Y-103957094D01*
X117016000Y-104297300D01*
X117016000Y-104682864D01*
X116810315Y-104888549D01*
X116794748Y-104865252D01*
X116693927Y-104797885D01*
X116575000Y-104774229D01*
X114975000Y-104774229D01*
X114856073Y-104797885D01*
X114755252Y-104865252D01*
X114687885Y-104966073D01*
X114664229Y-105085000D01*
X114664229Y-106525000D01*
X114687885Y-106643927D01*
X114755252Y-106744748D01*
X114856073Y-106812115D01*
X114903350Y-106821519D01*
X114821073Y-106837885D01*
X114720252Y-106905252D01*
X114652885Y-107006073D01*
X114629229Y-107125000D01*
X114629229Y-108716000D01*
X114152300Y-108716000D01*
X113812094Y-108783671D01*
X113607088Y-108920652D01*
X113523682Y-108976382D01*
X108422064Y-114078000D01*
X78732157Y-114078000D01*
X79234682Y-113576352D01*
X79552437Y-112811112D01*
X79553160Y-111982523D01*
X79236741Y-111216730D01*
X78651352Y-110630318D01*
X77886112Y-110312563D01*
X77057523Y-110311840D01*
X76291730Y-110628259D01*
X75705318Y-111213648D01*
X75387563Y-111978888D01*
X75386840Y-112807477D01*
X75703259Y-113573270D01*
X76207108Y-114078000D01*
X74212936Y-114078000D01*
X69996318Y-109861382D01*
X69754399Y-109699737D01*
X69707906Y-109668671D01*
X69367700Y-109601000D01*
X68492339Y-109601000D01*
X68277534Y-109457472D01*
X67849847Y-109372400D01*
X66970536Y-109372400D01*
X68970336Y-107372600D01*
X74972600Y-107372600D01*
X75312806Y-107304929D01*
X75583400Y-107124124D01*
X75583400Y-107181600D01*
X75629803Y-107414884D01*
X75761948Y-107612652D01*
X77736048Y-109586752D01*
X77933816Y-109718897D01*
X78167100Y-109765300D01*
X91866700Y-109765300D01*
X92099984Y-109718897D01*
X92297752Y-109586752D01*
X93230052Y-108654453D01*
X93250065Y-108624502D01*
X93571753Y-108839447D01*
X93980000Y-108920652D01*
X94388247Y-108839447D01*
X94734342Y-108608194D01*
X94965595Y-108262099D01*
X95046800Y-107853852D01*
X95046800Y-106776148D01*
X94965595Y-106367901D01*
X94734342Y-106021806D01*
X94561924Y-105906600D01*
X95938076Y-105906600D01*
X95765658Y-106021806D01*
X95534405Y-106367901D01*
X95453200Y-106776148D01*
X95453200Y-107853852D01*
X95534405Y-108262099D01*
X95765658Y-108608194D01*
X96111753Y-108839447D01*
X96520000Y-108920652D01*
X96928247Y-108839447D01*
X97274342Y-108608194D01*
X97505595Y-108262099D01*
X97586800Y-107853852D01*
X97586800Y-106776148D01*
X97993200Y-106776148D01*
X97993200Y-107853852D01*
X98074405Y-108262099D01*
X98305658Y-108608194D01*
X98651753Y-108839447D01*
X99060000Y-108920652D01*
X99468247Y-108839447D01*
X99814342Y-108608194D01*
X100045595Y-108262099D01*
X100126800Y-107853852D01*
X100126800Y-106776148D01*
X100533200Y-106776148D01*
X100533200Y-107853852D01*
X100614405Y-108262099D01*
X100845658Y-108608194D01*
X101191753Y-108839447D01*
X101600000Y-108920652D01*
X102008247Y-108839447D01*
X102354342Y-108608194D01*
X102585595Y-108262099D01*
X102666800Y-107853852D01*
X102666800Y-106776148D01*
X103073200Y-106776148D01*
X103073200Y-107853852D01*
X103154405Y-108262099D01*
X103385658Y-108608194D01*
X103731753Y-108839447D01*
X104140000Y-108920652D01*
X104548247Y-108839447D01*
X104894342Y-108608194D01*
X105125595Y-108262099D01*
X105206800Y-107853852D01*
X105206800Y-106776148D01*
X105613200Y-106776148D01*
X105613200Y-107853852D01*
X105694405Y-108262099D01*
X105925658Y-108608194D01*
X106271753Y-108839447D01*
X106680000Y-108920652D01*
X107088247Y-108839447D01*
X107434342Y-108608194D01*
X107665595Y-108262099D01*
X107746800Y-107853852D01*
X107746800Y-106776148D01*
X108153200Y-106776148D01*
X108153200Y-107853852D01*
X108234405Y-108262099D01*
X108465658Y-108608194D01*
X108811753Y-108839447D01*
X109220000Y-108920652D01*
X109628247Y-108839447D01*
X109974342Y-108608194D01*
X110205595Y-108262099D01*
X110286800Y-107853852D01*
X110286800Y-106776148D01*
X110205595Y-106367901D01*
X109974342Y-106021806D01*
X109628247Y-105790553D01*
X109220000Y-105709348D01*
X108811753Y-105790553D01*
X108465658Y-106021806D01*
X108234405Y-106367901D01*
X108153200Y-106776148D01*
X107746800Y-106776148D01*
X107665595Y-106367901D01*
X107434342Y-106021806D01*
X107088247Y-105790553D01*
X106680000Y-105709348D01*
X106271753Y-105790553D01*
X105925658Y-106021806D01*
X105694405Y-106367901D01*
X105613200Y-106776148D01*
X105206800Y-106776148D01*
X105125595Y-106367901D01*
X104894342Y-106021806D01*
X104548247Y-105790553D01*
X104140000Y-105709348D01*
X103731753Y-105790553D01*
X103385658Y-106021806D01*
X103154405Y-106367901D01*
X103073200Y-106776148D01*
X102666800Y-106776148D01*
X102585595Y-106367901D01*
X102354342Y-106021806D01*
X102008247Y-105790553D01*
X101600000Y-105709348D01*
X101191753Y-105790553D01*
X100845658Y-106021806D01*
X100614405Y-106367901D01*
X100533200Y-106776148D01*
X100126800Y-106776148D01*
X100045595Y-106367901D01*
X99814342Y-106021806D01*
X99468247Y-105790553D01*
X99060000Y-105709348D01*
X98651753Y-105790553D01*
X98305658Y-106021806D01*
X98074405Y-106367901D01*
X97993200Y-106776148D01*
X97586800Y-106776148D01*
X97505595Y-106367901D01*
X97274342Y-106021806D01*
X97101924Y-105906600D01*
X98205800Y-105906600D01*
X98439084Y-105860197D01*
X98636852Y-105728052D01*
X99491052Y-104873852D01*
X99623197Y-104676084D01*
X99669600Y-104442800D01*
X99669600Y-104132907D01*
X99814342Y-104036194D01*
X100045595Y-103690099D01*
X100126800Y-103281852D01*
X100126800Y-102204148D01*
X100533200Y-102204148D01*
X100533200Y-103281852D01*
X100614405Y-103690099D01*
X100845658Y-104036194D01*
X101191753Y-104267447D01*
X101600000Y-104348652D01*
X102008247Y-104267447D01*
X102354342Y-104036194D01*
X102585595Y-103690099D01*
X102666800Y-103281852D01*
X102666800Y-102204148D01*
X102585595Y-101795901D01*
X102354342Y-101449806D01*
X102008247Y-101218553D01*
X101600000Y-101137348D01*
X101191753Y-101218553D01*
X100845658Y-101449806D01*
X100614405Y-101795901D01*
X100533200Y-102204148D01*
X100126800Y-102204148D01*
X100045595Y-101795901D01*
X99814342Y-101449806D01*
X99468247Y-101218553D01*
X99060000Y-101137348D01*
X98651753Y-101218553D01*
X98305658Y-101449806D01*
X98074405Y-101795901D01*
X97993200Y-102204148D01*
X97993200Y-103281852D01*
X98074405Y-103690099D01*
X98305658Y-104036194D01*
X98450400Y-104132907D01*
X98450400Y-104190296D01*
X97953296Y-104687400D01*
X93826500Y-104687400D01*
X93593216Y-104733803D01*
X93395447Y-104865948D01*
X92367948Y-105893448D01*
X92238262Y-106087536D01*
X92194342Y-106021806D01*
X91848916Y-105791000D01*
X92194342Y-105560194D01*
X92425595Y-105214099D01*
X92506800Y-104805852D01*
X92506800Y-103728148D01*
X92425595Y-103319901D01*
X92194342Y-102973806D01*
X91848247Y-102742553D01*
X91440000Y-102661348D01*
X91031753Y-102742553D01*
X90685658Y-102973806D01*
X90454405Y-103319901D01*
X90373200Y-103728148D01*
X90373200Y-104805852D01*
X90454405Y-105214099D01*
X90685658Y-105560194D01*
X91031084Y-105791000D01*
X90685658Y-106021806D01*
X90454405Y-106367901D01*
X90373200Y-106776148D01*
X90373200Y-107853852D01*
X90454405Y-108262099D01*
X90644168Y-108546100D01*
X89695832Y-108546100D01*
X89885595Y-108262099D01*
X89966800Y-107853852D01*
X89966800Y-106776148D01*
X89885595Y-106367901D01*
X89654342Y-106021806D01*
X89308916Y-105791000D01*
X89654342Y-105560194D01*
X89885595Y-105214099D01*
X89966800Y-104805852D01*
X89966800Y-103728148D01*
X89885595Y-103319901D01*
X89654342Y-102973806D01*
X89308247Y-102742553D01*
X88900000Y-102661348D01*
X88491753Y-102742553D01*
X88145658Y-102973806D01*
X87914405Y-103319901D01*
X87833200Y-103728148D01*
X87833200Y-104805852D01*
X87914405Y-105214099D01*
X88145658Y-105560194D01*
X88491084Y-105791000D01*
X88145658Y-106021806D01*
X87914405Y-106367901D01*
X87833200Y-106776148D01*
X87833200Y-107853852D01*
X87914405Y-108262099D01*
X88104168Y-108546100D01*
X87155832Y-108546100D01*
X87345595Y-108262099D01*
X87426800Y-107853852D01*
X87426800Y-106776148D01*
X87345595Y-106367901D01*
X87114342Y-106021806D01*
X86814501Y-105821459D01*
X87150263Y-105597110D01*
X87392528Y-105234534D01*
X87477600Y-104806847D01*
X87477600Y-103727153D01*
X87392528Y-103299466D01*
X87150263Y-102936890D01*
X86787687Y-102694625D01*
X86360000Y-102609553D01*
X85932313Y-102694625D01*
X85572300Y-102935177D01*
X85572300Y-102204148D01*
X92913200Y-102204148D01*
X92913200Y-103281852D01*
X92994405Y-103690099D01*
X93225658Y-104036194D01*
X93571753Y-104267447D01*
X93980000Y-104348652D01*
X94388247Y-104267447D01*
X94734342Y-104036194D01*
X94965595Y-103690099D01*
X95046800Y-103281852D01*
X95046800Y-102204148D01*
X95453200Y-102204148D01*
X95453200Y-103281852D01*
X95534405Y-103690099D01*
X95765658Y-104036194D01*
X96111753Y-104267447D01*
X96520000Y-104348652D01*
X96928247Y-104267447D01*
X97274342Y-104036194D01*
X97505595Y-103690099D01*
X97586800Y-103281852D01*
X97586800Y-102204148D01*
X97505595Y-101795901D01*
X97274342Y-101449806D01*
X96928247Y-101218553D01*
X96520000Y-101137348D01*
X96111753Y-101218553D01*
X95765658Y-101449806D01*
X95534405Y-101795901D01*
X95453200Y-102204148D01*
X95046800Y-102204148D01*
X94965595Y-101795901D01*
X94734342Y-101449806D01*
X94388247Y-101218553D01*
X93980000Y-101137348D01*
X93571753Y-101218553D01*
X93225658Y-101449806D01*
X92994405Y-101795901D01*
X92913200Y-102204148D01*
X85572300Y-102204148D01*
X85572300Y-101327566D01*
X86741000Y-101327566D01*
X86879748Y-101299967D01*
X86997373Y-101221373D01*
X87075967Y-101103748D01*
X87103566Y-100965000D01*
X87103566Y-99999800D01*
X87909400Y-99999800D01*
X87909400Y-101086257D01*
X88002206Y-101310311D01*
X88173689Y-101481794D01*
X88397743Y-101574600D01*
X88849200Y-101574600D01*
X89001600Y-101422200D01*
X89001600Y-99847400D01*
X89306400Y-99847400D01*
X89306400Y-101422200D01*
X89458800Y-101574600D01*
X89910257Y-101574600D01*
X90134311Y-101481794D01*
X90305794Y-101310311D01*
X90398600Y-101086257D01*
X90398600Y-99999800D01*
X90246200Y-99847400D01*
X89306400Y-99847400D01*
X89001600Y-99847400D01*
X88061800Y-99847400D01*
X87909400Y-99999800D01*
X87103566Y-99999800D01*
X87103566Y-98425000D01*
X87079447Y-98303743D01*
X87909400Y-98303743D01*
X87909400Y-99390200D01*
X88061800Y-99542600D01*
X89001600Y-99542600D01*
X89001600Y-97967800D01*
X89306400Y-97967800D01*
X89306400Y-99542600D01*
X90246200Y-99542600D01*
X90398600Y-99390200D01*
X90398600Y-98648148D01*
X92913200Y-98648148D01*
X92913200Y-99725852D01*
X92994405Y-100134099D01*
X93225658Y-100480194D01*
X93571753Y-100711447D01*
X93980000Y-100792652D01*
X94388247Y-100711447D01*
X94734342Y-100480194D01*
X94965595Y-100134099D01*
X95046800Y-99725852D01*
X95046800Y-98648148D01*
X95453200Y-98648148D01*
X95453200Y-99725852D01*
X95534405Y-100134099D01*
X95765658Y-100480194D01*
X96111753Y-100711447D01*
X96520000Y-100792652D01*
X96928247Y-100711447D01*
X97274342Y-100480194D01*
X97505595Y-100134099D01*
X97586800Y-99725852D01*
X97586800Y-98648148D01*
X97993200Y-98648148D01*
X97993200Y-99725852D01*
X98074405Y-100134099D01*
X98305658Y-100480194D01*
X98651753Y-100711447D01*
X99060000Y-100792652D01*
X99468247Y-100711447D01*
X99814342Y-100480194D01*
X100045595Y-100134099D01*
X100126800Y-99725852D01*
X100126800Y-98648148D01*
X100045595Y-98239901D01*
X99814342Y-97893806D01*
X99468247Y-97662553D01*
X99060000Y-97581348D01*
X98651753Y-97662553D01*
X98305658Y-97893806D01*
X98074405Y-98239901D01*
X97993200Y-98648148D01*
X97586800Y-98648148D01*
X97505595Y-98239901D01*
X97274342Y-97893806D01*
X96928247Y-97662553D01*
X96520000Y-97581348D01*
X96111753Y-97662553D01*
X95765658Y-97893806D01*
X95534405Y-98239901D01*
X95453200Y-98648148D01*
X95046800Y-98648148D01*
X94965595Y-98239901D01*
X94734342Y-97893806D01*
X94388247Y-97662553D01*
X93980000Y-97581348D01*
X93571753Y-97662553D01*
X93225658Y-97893806D01*
X92994405Y-98239901D01*
X92913200Y-98648148D01*
X90398600Y-98648148D01*
X90398600Y-98303743D01*
X90305794Y-98079689D01*
X90134311Y-97908206D01*
X89910257Y-97815400D01*
X89458800Y-97815400D01*
X89306400Y-97967800D01*
X89001600Y-97967800D01*
X88849200Y-97815400D01*
X88397743Y-97815400D01*
X88173689Y-97908206D01*
X88002206Y-98079689D01*
X87909400Y-98303743D01*
X87079447Y-98303743D01*
X87075967Y-98286252D01*
X86997373Y-98168627D01*
X86879748Y-98090033D01*
X86741000Y-98062434D01*
X85471000Y-98062434D01*
X85332252Y-98090033D01*
X85214627Y-98168627D01*
X85136033Y-98286252D01*
X85108434Y-98425000D01*
X85108434Y-98806000D01*
X84683300Y-98806000D01*
X84343094Y-98873671D01*
X84054682Y-99066382D01*
X83861971Y-99354794D01*
X83794300Y-99695000D01*
X83794300Y-104025764D01*
X83191382Y-104628682D01*
X82998671Y-104917094D01*
X82931000Y-105257300D01*
X82931000Y-106132661D01*
X82787472Y-106347466D01*
X82702400Y-106775153D01*
X82702400Y-107854847D01*
X82787472Y-108282534D01*
X82963581Y-108546100D01*
X82136419Y-108546100D01*
X82312528Y-108282534D01*
X82397600Y-107854847D01*
X82397600Y-106775153D01*
X82312528Y-106347466D01*
X82070263Y-105984890D01*
X81780085Y-105791000D01*
X82070263Y-105597110D01*
X82312528Y-105234534D01*
X82397600Y-104806847D01*
X82397600Y-103727153D01*
X82312528Y-103299466D01*
X82169000Y-103084661D01*
X82169000Y-102621700D01*
X82345000Y-102621700D01*
X82685206Y-102554029D01*
X82973618Y-102361318D01*
X83166329Y-102072906D01*
X83234000Y-101732700D01*
X83234000Y-101307566D01*
X83345000Y-101307566D01*
X83483748Y-101279967D01*
X83601373Y-101201373D01*
X83679967Y-101083748D01*
X83707566Y-100945000D01*
X83707566Y-98445000D01*
X83679967Y-98306252D01*
X83601373Y-98188627D01*
X83483748Y-98110033D01*
X83345000Y-98082434D01*
X81345000Y-98082434D01*
X81206252Y-98110033D01*
X81088627Y-98188627D01*
X81010033Y-98306252D01*
X80982434Y-98445000D01*
X80982434Y-100945000D01*
X81010033Y-101083748D01*
X81065421Y-101166643D01*
X80651382Y-101580682D01*
X80458671Y-101869094D01*
X80391000Y-102209300D01*
X80391000Y-103084661D01*
X80247472Y-103299466D01*
X80162400Y-103727153D01*
X80162400Y-104806847D01*
X80247472Y-105234534D01*
X80489737Y-105597110D01*
X80779915Y-105791000D01*
X80489737Y-105984890D01*
X80247472Y-106347466D01*
X80162400Y-106775153D01*
X80162400Y-107854847D01*
X80247472Y-108282534D01*
X80423581Y-108546100D01*
X79596419Y-108546100D01*
X79772528Y-108282534D01*
X79857600Y-107854847D01*
X79857600Y-106775153D01*
X79772528Y-106347466D01*
X79629000Y-106132661D01*
X79629000Y-105598033D01*
X79629617Y-105597110D01*
X79766329Y-105392506D01*
X79834000Y-105052300D01*
X79834000Y-101307566D01*
X79945000Y-101307566D01*
X80083748Y-101279967D01*
X80201373Y-101201373D01*
X80279967Y-101083748D01*
X80307566Y-100945000D01*
X80307566Y-98445000D01*
X80279967Y-98306252D01*
X80201373Y-98188627D01*
X80083748Y-98110033D01*
X79945000Y-98082434D01*
X77945000Y-98082434D01*
X77806252Y-98110033D01*
X77688627Y-98188627D01*
X77610033Y-98306252D01*
X77582434Y-98445000D01*
X77582434Y-100945000D01*
X77610033Y-101083748D01*
X77688627Y-101201373D01*
X77806252Y-101279967D01*
X77945000Y-101307566D01*
X78056000Y-101307566D01*
X78056000Y-104711567D01*
X77918671Y-104917094D01*
X77851000Y-105257300D01*
X77851000Y-106132661D01*
X77707472Y-106347466D01*
X77622400Y-106775153D01*
X77622400Y-107748896D01*
X76802600Y-106929096D01*
X76802600Y-106107900D01*
X76756197Y-105874616D01*
X76624052Y-105676848D01*
X75495352Y-104548148D01*
X75297584Y-104416003D01*
X75064300Y-104369600D01*
X72989204Y-104369600D01*
X72606424Y-103986820D01*
X72753761Y-104065484D01*
X72810299Y-104058454D01*
X73281708Y-103797480D01*
X73617363Y-103375970D01*
X73766163Y-102858096D01*
X73614825Y-102641400D01*
X72542400Y-102641400D01*
X72542400Y-102661400D01*
X72237600Y-102661400D01*
X72237600Y-102641400D01*
X72217600Y-102641400D01*
X72217600Y-102336600D01*
X72237600Y-102336600D01*
X72237600Y-102316600D01*
X72542400Y-102316600D01*
X72542400Y-102336600D01*
X73614825Y-102336600D01*
X73766163Y-102119904D01*
X73617363Y-101602030D01*
X73281708Y-101180520D01*
X72837204Y-100934441D01*
X73144342Y-100729218D01*
X73375595Y-100383123D01*
X73456800Y-99974876D01*
X73456800Y-99415124D01*
X73375595Y-99006877D01*
X73144342Y-98660782D01*
X72837204Y-98455559D01*
X73281708Y-98209480D01*
X73617363Y-97787970D01*
X73766163Y-97270096D01*
X73614825Y-97053400D01*
X72542400Y-97053400D01*
X72542400Y-97073400D01*
X72237600Y-97073400D01*
X72237600Y-97053400D01*
X71165175Y-97053400D01*
X71013837Y-97270096D01*
X71162637Y-97787970D01*
X71498292Y-98209480D01*
X71942796Y-98455559D01*
X71635658Y-98660782D01*
X71404405Y-99006877D01*
X71323200Y-99415124D01*
X71323200Y-99974876D01*
X71404405Y-100383123D01*
X71635658Y-100729218D01*
X71942796Y-100934441D01*
X71498292Y-101180520D01*
X71162637Y-101602030D01*
X71013837Y-102119904D01*
X71165174Y-102336598D01*
X71018400Y-102336598D01*
X71018400Y-102398796D01*
X70459600Y-101839996D01*
X70459600Y-100563345D01*
X70630218Y-100449342D01*
X70861471Y-100103247D01*
X70942676Y-99695000D01*
X70861471Y-99286753D01*
X70630218Y-98940658D01*
X70284123Y-98709405D01*
X69875876Y-98628200D01*
X69316124Y-98628200D01*
X68907877Y-98709405D01*
X68561782Y-98940658D01*
X68330529Y-99286753D01*
X68249324Y-99695000D01*
X68330529Y-100103247D01*
X68561782Y-100449342D01*
X68907877Y-100680595D01*
X69240400Y-100746738D01*
X69240400Y-102092500D01*
X69286803Y-102325784D01*
X69418948Y-102523552D01*
X72305648Y-105410252D01*
X72503416Y-105542397D01*
X72736700Y-105588800D01*
X74811796Y-105588800D01*
X74817596Y-105594600D01*
X68602100Y-105594600D01*
X68261895Y-105662270D01*
X67973482Y-105854982D01*
X64566982Y-109261482D01*
X64374271Y-109549894D01*
X64306600Y-109890100D01*
X60109100Y-109890100D01*
X60109100Y-104775000D01*
X60599467Y-104775000D01*
X60738676Y-105474851D01*
X61135110Y-106068157D01*
X61728416Y-106464591D01*
X62428267Y-106603800D01*
X64571733Y-106603800D01*
X65271584Y-106464591D01*
X65864890Y-106068157D01*
X66261324Y-105474851D01*
X66400533Y-104775000D01*
X66261324Y-104075149D01*
X65864890Y-103481843D01*
X65271584Y-103085409D01*
X64571733Y-102946200D01*
X62428267Y-102946200D01*
X61728416Y-103085409D01*
X61135110Y-103481843D01*
X60738676Y-104075149D01*
X60599467Y-104775000D01*
X60109100Y-104775000D01*
X60109100Y-96531904D01*
X71013837Y-96531904D01*
X71165175Y-96748600D01*
X72237600Y-96748600D01*
X72237600Y-95437363D01*
X72542400Y-95437363D01*
X72542400Y-96748600D01*
X73614825Y-96748600D01*
X73766163Y-96531904D01*
X73617363Y-96014030D01*
X73281708Y-95592520D01*
X72810299Y-95331546D01*
X72753761Y-95324516D01*
X72542400Y-95437363D01*
X72237600Y-95437363D01*
X72026239Y-95324516D01*
X71969701Y-95331546D01*
X71498292Y-95592520D01*
X71162637Y-96014030D01*
X71013837Y-96531904D01*
X60109100Y-96531904D01*
X60109100Y-94615000D01*
X60599467Y-94615000D01*
X60738676Y-95314851D01*
X61135110Y-95908157D01*
X61728416Y-96304591D01*
X62428267Y-96443800D01*
X64571733Y-96443800D01*
X65271584Y-96304591D01*
X65864890Y-95908157D01*
X66261324Y-95314851D01*
X66400533Y-94615000D01*
X66261324Y-93915149D01*
X65864890Y-93321843D01*
X65271584Y-92925409D01*
X64571733Y-92786200D01*
X62428267Y-92786200D01*
X61728416Y-92925409D01*
X61135110Y-93321843D01*
X60738676Y-93915149D01*
X60599467Y-94615000D01*
X60109100Y-94615000D01*
X60109100Y-88519000D01*
X66745229Y-88519000D01*
X66745229Y-91186000D01*
X66768885Y-91304927D01*
X66836252Y-91405748D01*
X66937073Y-91473115D01*
X67056000Y-91496771D01*
X68646040Y-91496771D01*
X68764967Y-91473115D01*
X68865788Y-91405748D01*
X68933155Y-91304927D01*
X68956811Y-91186000D01*
X68956811Y-88519000D01*
X68933155Y-88400073D01*
X68865788Y-88299252D01*
X68764967Y-88231885D01*
X68646040Y-88208229D01*
X67056000Y-88208229D01*
X66937073Y-88231885D01*
X66836252Y-88299252D01*
X66768885Y-88400073D01*
X66745229Y-88519000D01*
X60109100Y-88519000D01*
X60109100Y-82327477D01*
X60146840Y-82327477D01*
X60463259Y-83093270D01*
X61048648Y-83679682D01*
X61813888Y-83997437D01*
X62642477Y-83998160D01*
X63408270Y-83681741D01*
X63994682Y-83096352D01*
X64312437Y-82331112D01*
X64313160Y-81502523D01*
X63996741Y-80736730D01*
X63524836Y-80264000D01*
X66745229Y-80264000D01*
X66745229Y-82931000D01*
X66768885Y-83049927D01*
X66836252Y-83150748D01*
X66937073Y-83218115D01*
X67056000Y-83241771D01*
X67241400Y-83241771D01*
X67241400Y-83360800D01*
X67287803Y-83594084D01*
X67419948Y-83791852D01*
X69213400Y-85585304D01*
X69213400Y-90759200D01*
X69259803Y-90992484D01*
X69391948Y-91190252D01*
X72722947Y-94521252D01*
X72755955Y-94543307D01*
X72920716Y-94653397D01*
X73154000Y-94699800D01*
X98413396Y-94699800D01*
X101345556Y-97631960D01*
X101191753Y-97662553D01*
X100845658Y-97893806D01*
X100614405Y-98239901D01*
X100533200Y-98648148D01*
X100533200Y-99725852D01*
X100614405Y-100134099D01*
X100845658Y-100480194D01*
X101191753Y-100711447D01*
X101600000Y-100792652D01*
X102008247Y-100711447D01*
X102354342Y-100480194D01*
X102374236Y-100450421D01*
X102429448Y-100533052D01*
X103292447Y-101396052D01*
X103381719Y-101455701D01*
X103154405Y-101795901D01*
X103073200Y-102204148D01*
X103073200Y-103281852D01*
X103154405Y-103690099D01*
X103385658Y-104036194D01*
X103530400Y-104132907D01*
X103530400Y-104442800D01*
X103576803Y-104676084D01*
X103708948Y-104873852D01*
X103906716Y-105005997D01*
X104140000Y-105052400D01*
X109698300Y-105052400D01*
X109931584Y-105005997D01*
X110129352Y-104873852D01*
X110166601Y-104836603D01*
X110235553Y-105183247D01*
X110466806Y-105529342D01*
X110812901Y-105760595D01*
X111221148Y-105841800D01*
X111275056Y-105841800D01*
X111005658Y-106021806D01*
X110774405Y-106367901D01*
X110693200Y-106776148D01*
X110693200Y-107853852D01*
X110774405Y-108262099D01*
X111005658Y-108608194D01*
X111351753Y-108839447D01*
X111760000Y-108920652D01*
X112168247Y-108839447D01*
X112514342Y-108608194D01*
X112745595Y-108262099D01*
X112826800Y-107853852D01*
X112826800Y-106776148D01*
X112745595Y-106367901D01*
X112514342Y-106021806D01*
X112244944Y-105841800D01*
X112298852Y-105841800D01*
X112707099Y-105760595D01*
X113053194Y-105529342D01*
X113284447Y-105183247D01*
X113365652Y-104775000D01*
X113284447Y-104366753D01*
X113115964Y-104114600D01*
X116258900Y-104114600D01*
X116492184Y-104068197D01*
X116689952Y-103936052D01*
X117781404Y-102844600D01*
X120402729Y-102844600D01*
X120402729Y-103124000D01*
X120426385Y-103242927D01*
X120493752Y-103343748D01*
X120594573Y-103411115D01*
X120713500Y-103434771D01*
X124904500Y-103434771D01*
X125023427Y-103411115D01*
X125124248Y-103343748D01*
X125191615Y-103242927D01*
X125215271Y-103124000D01*
X125215271Y-101346000D01*
X125191615Y-101227073D01*
X125138144Y-101147048D01*
X125249811Y-101100794D01*
X125421294Y-100929311D01*
X125514100Y-100705257D01*
X125514100Y-99999800D01*
X125361700Y-99847400D01*
X122961400Y-99847400D01*
X122961400Y-99867400D01*
X122656600Y-99867400D01*
X122656600Y-99847400D01*
X120256300Y-99847400D01*
X120103900Y-99999800D01*
X120103900Y-100705257D01*
X120196706Y-100929311D01*
X120368189Y-101100794D01*
X120479856Y-101147048D01*
X120426385Y-101227073D01*
X120402729Y-101346000D01*
X120402729Y-101625400D01*
X117622185Y-101625400D01*
X118018270Y-101461741D01*
X118604682Y-100876352D01*
X118922437Y-100111112D01*
X118923160Y-99282523D01*
X118606741Y-98516730D01*
X118021352Y-97930318D01*
X117622258Y-97764600D01*
X120402729Y-97764600D01*
X120402729Y-98044000D01*
X120426385Y-98162927D01*
X120479856Y-98242952D01*
X120368189Y-98289206D01*
X120196706Y-98460689D01*
X120103900Y-98684743D01*
X120103900Y-99390200D01*
X120256300Y-99542600D01*
X122656600Y-99542600D01*
X122656600Y-99522600D01*
X122961400Y-99522600D01*
X122961400Y-99542600D01*
X125361700Y-99542600D01*
X125514100Y-99390200D01*
X125514100Y-98684743D01*
X125421294Y-98460689D01*
X125249811Y-98289206D01*
X125138144Y-98242952D01*
X125191615Y-98162927D01*
X125215271Y-98044000D01*
X125215271Y-96711775D01*
X126884847Y-98381352D01*
X127018198Y-98470454D01*
X127082616Y-98513497D01*
X127315900Y-98559900D01*
X128360345Y-98559900D01*
X128291856Y-98588199D01*
X127924489Y-98954925D01*
X127725427Y-99434320D01*
X127724974Y-99953402D01*
X127923199Y-100433144D01*
X128289925Y-100800511D01*
X128769320Y-100999573D01*
X129288402Y-101000026D01*
X129768144Y-100801801D01*
X130135511Y-100435075D01*
X130334573Y-99955680D01*
X130334791Y-99706095D01*
X133423800Y-102795104D01*
X133423800Y-106887089D01*
X133398544Y-106912301D01*
X133284230Y-107187601D01*
X133283970Y-107485691D01*
X133397804Y-107761190D01*
X133608401Y-107972156D01*
X133883701Y-108086470D01*
X134181791Y-108086730D01*
X134457290Y-107972896D01*
X134668256Y-107762299D01*
X134782570Y-107486999D01*
X134782830Y-107188909D01*
X134668996Y-106913410D01*
X134643000Y-106887368D01*
X134643000Y-102542600D01*
X134596597Y-102309316D01*
X134464452Y-102111548D01*
X133452638Y-101099734D01*
X133808206Y-101100044D01*
X134324716Y-100886626D01*
X134720237Y-100491794D01*
X134934556Y-99975658D01*
X134935044Y-99416794D01*
X134721626Y-98900284D01*
X134326794Y-98504763D01*
X133810658Y-98290444D01*
X133251794Y-98289956D01*
X132735284Y-98503374D01*
X132339763Y-98898206D01*
X132125444Y-99414342D01*
X132125131Y-99772227D01*
X129872152Y-97519248D01*
X129674384Y-97387103D01*
X129441100Y-97340700D01*
X127568405Y-97340700D01*
X125972995Y-95745291D01*
X126182693Y-95745474D01*
X126551581Y-95593052D01*
X126834061Y-95311066D01*
X126860504Y-95247385D01*
X126907252Y-95317348D01*
X127008073Y-95384715D01*
X127127000Y-95408371D01*
X131953000Y-95408371D01*
X132071927Y-95384715D01*
X132172748Y-95317348D01*
X132240115Y-95216527D01*
X132263771Y-95097600D01*
X132263771Y-92303600D01*
X132240115Y-92184673D01*
X132172748Y-92083852D01*
X132071927Y-92016485D01*
X131953000Y-91992829D01*
X127127000Y-91992829D01*
X127008073Y-92016485D01*
X126907252Y-92083852D01*
X126839885Y-92184673D01*
X126816229Y-92303600D01*
X126816229Y-94155563D01*
X126553066Y-93891939D01*
X126184444Y-93738874D01*
X125785307Y-93738526D01*
X125416419Y-93890948D01*
X125133939Y-94172934D01*
X124980874Y-94541556D01*
X124980526Y-94940693D01*
X125104487Y-95240700D01*
X122932536Y-95240700D01*
X127155041Y-91018195D01*
X127242252Y-91076467D01*
X127381000Y-91104066D01*
X129159000Y-91104066D01*
X129297748Y-91076467D01*
X129377773Y-91022996D01*
X129404206Y-91086811D01*
X129575689Y-91258294D01*
X129799743Y-91351100D01*
X130505200Y-91351100D01*
X130657600Y-91198700D01*
X130657600Y-88798400D01*
X130962400Y-88798400D01*
X130962400Y-91198700D01*
X131114800Y-91351100D01*
X131820257Y-91351100D01*
X132044311Y-91258294D01*
X132215794Y-91086811D01*
X132308600Y-90862757D01*
X132308600Y-88950800D01*
X132156200Y-88798400D01*
X130962400Y-88798400D01*
X130657600Y-88798400D01*
X130637600Y-88798400D01*
X130637600Y-88493600D01*
X130657600Y-88493600D01*
X130657600Y-86093300D01*
X130962400Y-86093300D01*
X130962400Y-88493600D01*
X132156200Y-88493600D01*
X132308600Y-88341200D01*
X132308600Y-86429243D01*
X132215794Y-86205189D01*
X132044311Y-86033706D01*
X131820257Y-85940900D01*
X131114800Y-85940900D01*
X130962400Y-86093300D01*
X130657600Y-86093300D01*
X130505200Y-85940900D01*
X129799743Y-85940900D01*
X129575689Y-86033706D01*
X129404206Y-86205189D01*
X129377773Y-86269004D01*
X129297748Y-86215533D01*
X129159000Y-86187934D01*
X127381000Y-86187934D01*
X127242252Y-86215533D01*
X127124627Y-86294127D01*
X127046033Y-86411752D01*
X127018434Y-86550500D01*
X127018434Y-88640330D01*
X121844964Y-93813800D01*
X120831700Y-93813800D01*
X120491494Y-93881471D01*
X120203082Y-94074182D01*
X120010371Y-94362594D01*
X119942700Y-94702800D01*
X120010371Y-95043006D01*
X120142466Y-95240700D01*
X113544100Y-95240700D01*
X113369651Y-95275400D01*
X113115964Y-95275400D01*
X113284447Y-95023247D01*
X113365652Y-94615000D01*
X113284447Y-94206753D01*
X113053194Y-93860658D01*
X112707099Y-93629405D01*
X112298852Y-93548200D01*
X112244944Y-93548200D01*
X112514342Y-93368194D01*
X112745595Y-93022099D01*
X112826800Y-92613852D01*
X112826800Y-91536148D01*
X112745595Y-91127901D01*
X112663743Y-91005400D01*
X116892589Y-91005400D01*
X116917801Y-91030656D01*
X117193101Y-91144970D01*
X117491191Y-91145230D01*
X117766690Y-91031396D01*
X117977656Y-90820799D01*
X118091970Y-90545499D01*
X118092230Y-90247409D01*
X117978396Y-89971910D01*
X117767799Y-89760944D01*
X117492499Y-89646630D01*
X117194409Y-89646370D01*
X116918910Y-89760204D01*
X116892868Y-89786200D01*
X116084406Y-89786200D01*
X116112556Y-89758099D01*
X116226870Y-89482799D01*
X116227130Y-89184709D01*
X116122217Y-88930800D01*
X117869964Y-88930800D01*
X120902482Y-91963318D01*
X121190895Y-92156029D01*
X121531100Y-92223700D01*
X121871305Y-92156029D01*
X122159718Y-91963318D01*
X122352429Y-91674905D01*
X122420100Y-91334700D01*
X122352429Y-90994495D01*
X122159718Y-90706082D01*
X118866818Y-87413182D01*
X118712494Y-87310066D01*
X118578406Y-87220471D01*
X118238200Y-87152800D01*
X82641000Y-87152800D01*
X82300794Y-87220471D01*
X82166706Y-87310066D01*
X82012382Y-87413182D01*
X80934382Y-88491182D01*
X80741671Y-88779595D01*
X80674000Y-89119800D01*
X80741671Y-89460005D01*
X80934382Y-89748418D01*
X81038130Y-89817740D01*
X80848948Y-89944148D01*
X80716803Y-90141916D01*
X80670400Y-90375200D01*
X80670400Y-90685093D01*
X80525658Y-90781806D01*
X80294405Y-91127901D01*
X80213200Y-91536148D01*
X80213200Y-92613852D01*
X80294405Y-93022099D01*
X80525658Y-93368194D01*
X80693886Y-93480600D01*
X80105659Y-93480600D01*
X80111600Y-93466257D01*
X80111600Y-92379800D01*
X79959200Y-92227400D01*
X78892400Y-92227400D01*
X78892400Y-92247400D01*
X78587600Y-92247400D01*
X78587600Y-92227400D01*
X77520800Y-92227400D01*
X77368400Y-92379800D01*
X77368400Y-93466257D01*
X77374341Y-93480600D01*
X73406505Y-93480600D01*
X71632842Y-91706938D01*
X71696580Y-91643200D01*
X71696580Y-90004900D01*
X72001380Y-90004900D01*
X72001380Y-91643200D01*
X72153780Y-91795600D01*
X72765257Y-91795600D01*
X72989311Y-91702794D01*
X73160794Y-91531311D01*
X73253600Y-91307257D01*
X73253600Y-90683743D01*
X77368400Y-90683743D01*
X77368400Y-91770200D01*
X77520800Y-91922600D01*
X78587600Y-91922600D01*
X78587600Y-90347800D01*
X78892400Y-90347800D01*
X78892400Y-91922600D01*
X79959200Y-91922600D01*
X80111600Y-91770200D01*
X80111600Y-90683743D01*
X80018794Y-90459689D01*
X79847311Y-90288206D01*
X79623257Y-90195400D01*
X79044800Y-90195400D01*
X78892400Y-90347800D01*
X78587600Y-90347800D01*
X78435200Y-90195400D01*
X77856743Y-90195400D01*
X77632689Y-90288206D01*
X77461206Y-90459689D01*
X77368400Y-90683743D01*
X73253600Y-90683743D01*
X73253600Y-90157300D01*
X73101200Y-90004900D01*
X72001380Y-90004900D01*
X71696580Y-90004900D01*
X70596760Y-90004900D01*
X70444360Y-90157300D01*
X70444360Y-90518456D01*
X70432600Y-90506696D01*
X70432600Y-88397743D01*
X70444360Y-88397743D01*
X70444360Y-89547700D01*
X70596760Y-89700100D01*
X71696580Y-89700100D01*
X71696580Y-88061800D01*
X72001380Y-88061800D01*
X72001380Y-89700100D01*
X73101200Y-89700100D01*
X73253600Y-89547700D01*
X73253600Y-88397743D01*
X73160794Y-88173689D01*
X72989311Y-88002206D01*
X72765257Y-87909400D01*
X72153780Y-87909400D01*
X72001380Y-88061800D01*
X71696580Y-88061800D01*
X71544180Y-87909400D01*
X70932703Y-87909400D01*
X70708649Y-88002206D01*
X70537166Y-88173689D01*
X70444360Y-88397743D01*
X70432600Y-88397743D01*
X70432600Y-87407477D01*
X75386840Y-87407477D01*
X75703259Y-88173270D01*
X76288648Y-88759682D01*
X77053888Y-89077437D01*
X77882477Y-89078160D01*
X78648270Y-88761741D01*
X79234682Y-88176352D01*
X79552437Y-87411112D01*
X79553160Y-86582523D01*
X79236741Y-85816730D01*
X78651352Y-85230318D01*
X77886112Y-84912563D01*
X77057523Y-84911840D01*
X76291730Y-85228259D01*
X75705318Y-85813648D01*
X75387563Y-86578888D01*
X75386840Y-87407477D01*
X70432600Y-87407477D01*
X70432600Y-85332800D01*
X70386197Y-85099516D01*
X70254052Y-84901748D01*
X68594075Y-83241771D01*
X68646040Y-83241771D01*
X68764967Y-83218115D01*
X68865788Y-83150748D01*
X68933155Y-83049927D01*
X68956811Y-82931000D01*
X68956811Y-80264000D01*
X70743189Y-80264000D01*
X70743189Y-82931000D01*
X70766845Y-83049927D01*
X70834212Y-83150748D01*
X70935033Y-83218115D01*
X71053960Y-83241771D01*
X72644000Y-83241771D01*
X72762927Y-83218115D01*
X72863748Y-83150748D01*
X72931115Y-83049927D01*
X72954771Y-82931000D01*
X72954771Y-80645000D01*
X74910334Y-80645000D01*
X74910334Y-83185000D01*
X74937933Y-83323748D01*
X75016527Y-83441373D01*
X75134152Y-83519967D01*
X75272900Y-83547566D01*
X77127100Y-83547566D01*
X77265848Y-83519967D01*
X77383473Y-83441373D01*
X77462067Y-83323748D01*
X77489666Y-83185000D01*
X77489666Y-83121923D01*
X77761152Y-83452274D01*
X78292730Y-83735947D01*
X78350269Y-83744357D01*
X78587600Y-83633785D01*
X78587600Y-82067400D01*
X78567600Y-82067400D01*
X78567600Y-81762600D01*
X78587600Y-81762600D01*
X78587600Y-80196215D01*
X78892400Y-80196215D01*
X78892400Y-81762600D01*
X78912400Y-81762600D01*
X78912400Y-82067400D01*
X78892400Y-82067400D01*
X78892400Y-83633785D01*
X79129731Y-83744357D01*
X79187270Y-83735947D01*
X79446750Y-83597477D01*
X116026840Y-83597477D01*
X116343259Y-84363270D01*
X116928648Y-84949682D01*
X117693888Y-85267437D01*
X118522477Y-85268160D01*
X119288270Y-84951741D01*
X119874682Y-84366352D01*
X120192437Y-83601112D01*
X120193160Y-82772523D01*
X119876741Y-82006730D01*
X119291352Y-81420318D01*
X118526112Y-81102563D01*
X117697523Y-81101840D01*
X116931730Y-81418259D01*
X116345318Y-82003648D01*
X116027563Y-82768888D01*
X116026840Y-83597477D01*
X79446750Y-83597477D01*
X79718848Y-83452274D01*
X80101405Y-82986769D01*
X80161414Y-82789425D01*
X80408915Y-83159837D01*
X80808572Y-83426879D01*
X81280000Y-83520652D01*
X81751428Y-83426879D01*
X82151085Y-83159837D01*
X82418127Y-82760180D01*
X82511900Y-82288752D01*
X82511900Y-81541248D01*
X82588100Y-81541248D01*
X82588100Y-82288752D01*
X82681873Y-82760180D01*
X82948915Y-83159837D01*
X83348572Y-83426879D01*
X83820000Y-83520652D01*
X84291428Y-83426879D01*
X84691085Y-83159837D01*
X84958127Y-82760180D01*
X85051900Y-82288752D01*
X85051900Y-81541248D01*
X85128100Y-81541248D01*
X85128100Y-82288752D01*
X85221873Y-82760180D01*
X85488915Y-83159837D01*
X85888572Y-83426879D01*
X86360000Y-83520652D01*
X86831428Y-83426879D01*
X87231085Y-83159837D01*
X87498127Y-82760180D01*
X87591900Y-82288752D01*
X87591900Y-81541248D01*
X87668100Y-81541248D01*
X87668100Y-82288752D01*
X87761873Y-82760180D01*
X88028915Y-83159837D01*
X88428572Y-83426879D01*
X88900000Y-83520652D01*
X89371428Y-83426879D01*
X89771085Y-83159837D01*
X90038127Y-82760180D01*
X90131900Y-82288752D01*
X90131900Y-81541248D01*
X90208100Y-81541248D01*
X90208100Y-82288752D01*
X90301873Y-82760180D01*
X90568915Y-83159837D01*
X90968572Y-83426879D01*
X91440000Y-83520652D01*
X91911428Y-83426879D01*
X92311085Y-83159837D01*
X92578127Y-82760180D01*
X92671900Y-82288752D01*
X92671900Y-81541248D01*
X92748100Y-81541248D01*
X92748100Y-82288752D01*
X92841873Y-82760180D01*
X93108915Y-83159837D01*
X93508572Y-83426879D01*
X93980000Y-83520652D01*
X94451428Y-83426879D01*
X94851085Y-83159837D01*
X95118127Y-82760180D01*
X95211900Y-82288752D01*
X95211900Y-81541248D01*
X95288100Y-81541248D01*
X95288100Y-82288752D01*
X95381873Y-82760180D01*
X95648915Y-83159837D01*
X96048572Y-83426879D01*
X96520000Y-83520652D01*
X96991428Y-83426879D01*
X97391085Y-83159837D01*
X97658127Y-82760180D01*
X97751900Y-82288752D01*
X97751900Y-81541248D01*
X97828100Y-81541248D01*
X97828100Y-82288752D01*
X97921873Y-82760180D01*
X98188915Y-83159837D01*
X98588572Y-83426879D01*
X99060000Y-83520652D01*
X99531428Y-83426879D01*
X99931085Y-83159837D01*
X100198127Y-82760180D01*
X100291900Y-82288752D01*
X100291900Y-81541248D01*
X100368100Y-81541248D01*
X100368100Y-82288752D01*
X100461873Y-82760180D01*
X100728915Y-83159837D01*
X101128572Y-83426879D01*
X101600000Y-83520652D01*
X102071428Y-83426879D01*
X102471085Y-83159837D01*
X102738127Y-82760180D01*
X102831900Y-82288752D01*
X102831900Y-81541248D01*
X102908100Y-81541248D01*
X102908100Y-82288752D01*
X103001873Y-82760180D01*
X103268915Y-83159837D01*
X103668572Y-83426879D01*
X104140000Y-83520652D01*
X104611428Y-83426879D01*
X105011085Y-83159837D01*
X105278127Y-82760180D01*
X105371900Y-82288752D01*
X105371900Y-81541248D01*
X105448100Y-81541248D01*
X105448100Y-82288752D01*
X105541873Y-82760180D01*
X105808915Y-83159837D01*
X106208572Y-83426879D01*
X106680000Y-83520652D01*
X107151428Y-83426879D01*
X107551085Y-83159837D01*
X107818127Y-82760180D01*
X107911900Y-82288752D01*
X107911900Y-81541248D01*
X107988100Y-81541248D01*
X107988100Y-82288752D01*
X108081873Y-82760180D01*
X108348915Y-83159837D01*
X108748572Y-83426879D01*
X109220000Y-83520652D01*
X109691428Y-83426879D01*
X110091085Y-83159837D01*
X110358127Y-82760180D01*
X110451900Y-82288752D01*
X110451900Y-81541248D01*
X110528100Y-81541248D01*
X110528100Y-82288752D01*
X110621873Y-82760180D01*
X110888915Y-83159837D01*
X111288572Y-83426879D01*
X111760000Y-83520652D01*
X112231428Y-83426879D01*
X112631085Y-83159837D01*
X112898127Y-82760180D01*
X112991900Y-82288752D01*
X112991900Y-81541248D01*
X113068100Y-81541248D01*
X113068100Y-82288752D01*
X113161873Y-82760180D01*
X113428915Y-83159837D01*
X113828572Y-83426879D01*
X114300000Y-83520652D01*
X114771428Y-83426879D01*
X115171085Y-83159837D01*
X115438127Y-82760180D01*
X115531900Y-82288752D01*
X115531900Y-81541248D01*
X115438127Y-81069820D01*
X115171085Y-80670163D01*
X114771428Y-80403121D01*
X114300000Y-80309348D01*
X113828572Y-80403121D01*
X113428915Y-80670163D01*
X113161873Y-81069820D01*
X113068100Y-81541248D01*
X112991900Y-81541248D01*
X112898127Y-81069820D01*
X112631085Y-80670163D01*
X112231428Y-80403121D01*
X111760000Y-80309348D01*
X111288572Y-80403121D01*
X110888915Y-80670163D01*
X110621873Y-81069820D01*
X110528100Y-81541248D01*
X110451900Y-81541248D01*
X110358127Y-81069820D01*
X110091085Y-80670163D01*
X109691428Y-80403121D01*
X109220000Y-80309348D01*
X108748572Y-80403121D01*
X108348915Y-80670163D01*
X108081873Y-81069820D01*
X107988100Y-81541248D01*
X107911900Y-81541248D01*
X107818127Y-81069820D01*
X107551085Y-80670163D01*
X107151428Y-80403121D01*
X106680000Y-80309348D01*
X106208572Y-80403121D01*
X105808915Y-80670163D01*
X105541873Y-81069820D01*
X105448100Y-81541248D01*
X105371900Y-81541248D01*
X105278127Y-81069820D01*
X105011085Y-80670163D01*
X104611428Y-80403121D01*
X104140000Y-80309348D01*
X103668572Y-80403121D01*
X103268915Y-80670163D01*
X103001873Y-81069820D01*
X102908100Y-81541248D01*
X102831900Y-81541248D01*
X102738127Y-81069820D01*
X102471085Y-80670163D01*
X102071428Y-80403121D01*
X101600000Y-80309348D01*
X101128572Y-80403121D01*
X100728915Y-80670163D01*
X100461873Y-81069820D01*
X100368100Y-81541248D01*
X100291900Y-81541248D01*
X100198127Y-81069820D01*
X99931085Y-80670163D01*
X99531428Y-80403121D01*
X99060000Y-80309348D01*
X98588572Y-80403121D01*
X98188915Y-80670163D01*
X97921873Y-81069820D01*
X97828100Y-81541248D01*
X97751900Y-81541248D01*
X97658127Y-81069820D01*
X97391085Y-80670163D01*
X96991428Y-80403121D01*
X96520000Y-80309348D01*
X96048572Y-80403121D01*
X95648915Y-80670163D01*
X95381873Y-81069820D01*
X95288100Y-81541248D01*
X95211900Y-81541248D01*
X95118127Y-81069820D01*
X94851085Y-80670163D01*
X94451428Y-80403121D01*
X93980000Y-80309348D01*
X93508572Y-80403121D01*
X93108915Y-80670163D01*
X92841873Y-81069820D01*
X92748100Y-81541248D01*
X92671900Y-81541248D01*
X92578127Y-81069820D01*
X92311085Y-80670163D01*
X91911428Y-80403121D01*
X91440000Y-80309348D01*
X90968572Y-80403121D01*
X90568915Y-80670163D01*
X90301873Y-81069820D01*
X90208100Y-81541248D01*
X90131900Y-81541248D01*
X90038127Y-81069820D01*
X89771085Y-80670163D01*
X89371428Y-80403121D01*
X88900000Y-80309348D01*
X88428572Y-80403121D01*
X88028915Y-80670163D01*
X87761873Y-81069820D01*
X87668100Y-81541248D01*
X87591900Y-81541248D01*
X87498127Y-81069820D01*
X87231085Y-80670163D01*
X86831428Y-80403121D01*
X86360000Y-80309348D01*
X85888572Y-80403121D01*
X85488915Y-80670163D01*
X85221873Y-81069820D01*
X85128100Y-81541248D01*
X85051900Y-81541248D01*
X84958127Y-81069820D01*
X84691085Y-80670163D01*
X84291428Y-80403121D01*
X83820000Y-80309348D01*
X83348572Y-80403121D01*
X82948915Y-80670163D01*
X82681873Y-81069820D01*
X82588100Y-81541248D01*
X82511900Y-81541248D01*
X82418127Y-81069820D01*
X82151085Y-80670163D01*
X81751428Y-80403121D01*
X81280000Y-80309348D01*
X80808572Y-80403121D01*
X80408915Y-80670163D01*
X80161414Y-81040575D01*
X80101405Y-80843231D01*
X79718848Y-80377726D01*
X79187270Y-80094053D01*
X79129731Y-80085643D01*
X78892400Y-80196215D01*
X78587600Y-80196215D01*
X78350269Y-80085643D01*
X78292730Y-80094053D01*
X77761152Y-80377726D01*
X77489666Y-80708077D01*
X77489666Y-80645000D01*
X77462067Y-80506252D01*
X77383473Y-80388627D01*
X77265848Y-80310033D01*
X77127100Y-80282434D01*
X75272900Y-80282434D01*
X75134152Y-80310033D01*
X75016527Y-80388627D01*
X74937933Y-80506252D01*
X74910334Y-80645000D01*
X72954771Y-80645000D01*
X72954771Y-80264000D01*
X72931115Y-80145073D01*
X72863748Y-80044252D01*
X72762927Y-79976885D01*
X72644000Y-79953229D01*
X71053960Y-79953229D01*
X70935033Y-79976885D01*
X70834212Y-80044252D01*
X70766845Y-80145073D01*
X70743189Y-80264000D01*
X68956811Y-80264000D01*
X68933155Y-80145073D01*
X68865788Y-80044252D01*
X68764967Y-79976885D01*
X68646040Y-79953229D01*
X67056000Y-79953229D01*
X66937073Y-79976885D01*
X66836252Y-80044252D01*
X66768885Y-80145073D01*
X66745229Y-80264000D01*
X63524836Y-80264000D01*
X63411352Y-80150318D01*
X62646112Y-79832563D01*
X61817523Y-79831840D01*
X61051730Y-80148259D01*
X60465318Y-80733648D01*
X60147563Y-81498888D01*
X60146840Y-82327477D01*
X60109100Y-82327477D01*
X60109100Y-79794100D01*
X123107829Y-79794100D01*
X123107829Y-84328000D01*
X123107829Y-84328000D01*
G37*
X123107829Y-84328000D02*
X123131485Y-84446927D01*
X123198852Y-84547748D01*
X123299673Y-84615115D01*
X123418600Y-84638771D01*
X125270563Y-84638771D01*
X125006939Y-84901934D01*
X124853874Y-85270556D01*
X124853526Y-85669693D01*
X124901219Y-85785117D01*
X124787444Y-85737874D01*
X124388307Y-85737526D01*
X124019419Y-85889948D01*
X123736939Y-86171934D01*
X123583874Y-86540556D01*
X123583526Y-86939693D01*
X123735948Y-87308581D01*
X124017934Y-87591061D01*
X124386556Y-87744126D01*
X124785693Y-87744474D01*
X125154581Y-87592052D01*
X125437061Y-87310066D01*
X125590126Y-86941444D01*
X125590474Y-86542307D01*
X125542781Y-86426883D01*
X125656556Y-86474126D01*
X126055693Y-86474474D01*
X126424581Y-86322052D01*
X126707061Y-86040066D01*
X126860126Y-85671444D01*
X126860474Y-85272307D01*
X126708052Y-84903419D01*
X126426066Y-84620939D01*
X126362385Y-84594496D01*
X126432348Y-84547748D01*
X126499715Y-84446927D01*
X126523371Y-84328000D01*
X126523371Y-79794100D01*
X132556629Y-79794100D01*
X132556629Y-84328000D01*
X132580285Y-84446927D01*
X132647652Y-84547748D01*
X132717386Y-84594343D01*
X132655419Y-84619948D01*
X132372939Y-84901934D01*
X132219874Y-85270556D01*
X132219526Y-85669693D01*
X132371948Y-86038581D01*
X132653934Y-86321061D01*
X133022556Y-86474126D01*
X133421693Y-86474474D01*
X133537117Y-86426781D01*
X133489874Y-86540556D01*
X133489526Y-86939693D01*
X133641948Y-87308581D01*
X133923934Y-87591061D01*
X134292556Y-87744126D01*
X134691693Y-87744474D01*
X135060581Y-87592052D01*
X135343061Y-87310066D01*
X135496126Y-86941444D01*
X135496474Y-86542307D01*
X135344052Y-86173419D01*
X135062066Y-85890939D01*
X134693444Y-85737874D01*
X134294307Y-85737526D01*
X134178883Y-85785219D01*
X134226126Y-85671444D01*
X134226474Y-85272307D01*
X134074052Y-84903419D01*
X133809867Y-84638771D01*
X135661400Y-84638771D01*
X135780327Y-84615115D01*
X135881148Y-84547748D01*
X135948515Y-84446927D01*
X135972171Y-84328000D01*
X135972171Y-79794100D01*
X136740900Y-79794100D01*
X136740900Y-119595900D01*
X135972171Y-119595900D01*
X135972171Y-115062000D01*
X135948515Y-114943073D01*
X135881148Y-114842252D01*
X135780327Y-114774885D01*
X135661400Y-114751229D01*
X133809437Y-114751229D01*
X134073061Y-114488066D01*
X134226126Y-114119444D01*
X134226474Y-113720307D01*
X134178781Y-113604883D01*
X134292556Y-113652126D01*
X134691693Y-113652474D01*
X135060581Y-113500052D01*
X135343061Y-113218066D01*
X135496126Y-112849444D01*
X135496474Y-112450307D01*
X135344052Y-112081419D01*
X135062066Y-111798939D01*
X134693444Y-111645874D01*
X134294307Y-111645526D01*
X133925419Y-111797948D01*
X133642939Y-112079934D01*
X133489874Y-112448556D01*
X133489526Y-112847693D01*
X133537219Y-112963117D01*
X133423444Y-112915874D01*
X133024307Y-112915526D01*
X132655419Y-113067948D01*
X132372939Y-113349934D01*
X132219874Y-113718556D01*
X132219526Y-114117693D01*
X132371948Y-114486581D01*
X132653934Y-114769061D01*
X132717615Y-114795504D01*
X132647652Y-114842252D01*
X132580285Y-114943073D01*
X132556629Y-115062000D01*
X132556629Y-119595900D01*
X126523371Y-119595900D01*
X126523371Y-115062000D01*
X126499715Y-114943073D01*
X126432348Y-114842252D01*
X126362614Y-114795657D01*
X126424581Y-114770052D01*
X126707061Y-114488066D01*
X126860126Y-114119444D01*
X126860474Y-113720307D01*
X126708052Y-113351419D01*
X126426066Y-113068939D01*
X126057444Y-112915874D01*
X125658307Y-112915526D01*
X125542883Y-112963219D01*
X125590126Y-112849444D01*
X125590474Y-112450307D01*
X125438052Y-112081419D01*
X125156066Y-111798939D01*
X124787444Y-111645874D01*
X124388307Y-111645526D01*
X124019419Y-111797948D01*
X123736939Y-112079934D01*
X123583874Y-112448556D01*
X123583526Y-112847693D01*
X123735948Y-113216581D01*
X124017934Y-113499061D01*
X124386556Y-113652126D01*
X124785693Y-113652474D01*
X124901117Y-113604781D01*
X124853874Y-113718556D01*
X124853526Y-114117693D01*
X125005948Y-114486581D01*
X125270133Y-114751229D01*
X123418600Y-114751229D01*
X123299673Y-114774885D01*
X123198852Y-114842252D01*
X123131485Y-114943073D01*
X123107829Y-115062000D01*
X123107829Y-119595900D01*
X60109100Y-119595900D01*
X60109100Y-117887477D01*
X60146840Y-117887477D01*
X60463259Y-118653270D01*
X61048648Y-119239682D01*
X61813888Y-119557437D01*
X62642477Y-119558160D01*
X63408270Y-119241741D01*
X63994682Y-118656352D01*
X64312437Y-117891112D01*
X64313160Y-117062523D01*
X63996741Y-116296730D01*
X63411352Y-115710318D01*
X62646112Y-115392563D01*
X61817523Y-115391840D01*
X61051730Y-115708259D01*
X60465318Y-116293648D01*
X60147563Y-117058888D01*
X60146840Y-117887477D01*
X60109100Y-117887477D01*
X60109100Y-109890100D01*
X64306600Y-109890100D01*
X64306600Y-116162700D01*
X64374271Y-116502906D01*
X64475009Y-116653671D01*
X64566982Y-116791318D01*
X65879282Y-118103618D01*
X66167694Y-118296329D01*
X66507900Y-118364000D01*
X75030565Y-118364000D01*
X75292994Y-118756753D01*
X75709132Y-119034807D01*
X76200000Y-119132447D01*
X76690868Y-119034807D01*
X77107006Y-118756753D01*
X77385060Y-118340615D01*
X77470000Y-117913594D01*
X77554940Y-118340615D01*
X77832994Y-118756753D01*
X78249132Y-119034807D01*
X78740000Y-119132447D01*
X79230868Y-119034807D01*
X79647006Y-118756753D01*
X79925060Y-118340615D01*
X80010000Y-117913594D01*
X80094940Y-118340615D01*
X80372994Y-118756753D01*
X80789132Y-119034807D01*
X81280000Y-119132447D01*
X81770868Y-119034807D01*
X82187006Y-118756753D01*
X82465060Y-118340615D01*
X82550000Y-117913594D01*
X82634940Y-118340615D01*
X82912994Y-118756753D01*
X83329132Y-119034807D01*
X83820000Y-119132447D01*
X84310868Y-119034807D01*
X84727006Y-118756753D01*
X85005060Y-118340615D01*
X85102700Y-117849747D01*
X85102700Y-117101248D01*
X85128100Y-117101248D01*
X85128100Y-117848752D01*
X85221873Y-118320180D01*
X85488915Y-118719837D01*
X85888572Y-118986879D01*
X86360000Y-119080652D01*
X86831428Y-118986879D01*
X87231085Y-118719837D01*
X87498127Y-118320180D01*
X87591900Y-117848752D01*
X87591900Y-117101248D01*
X87668100Y-117101248D01*
X87668100Y-117848752D01*
X87761873Y-118320180D01*
X88028915Y-118719837D01*
X88428572Y-118986879D01*
X88900000Y-119080652D01*
X89371428Y-118986879D01*
X89771085Y-118719837D01*
X90038127Y-118320180D01*
X90131900Y-117848752D01*
X90131900Y-117101248D01*
X90208100Y-117101248D01*
X90208100Y-117848752D01*
X90301873Y-118320180D01*
X90568915Y-118719837D01*
X90968572Y-118986879D01*
X91440000Y-119080652D01*
X91911428Y-118986879D01*
X92311085Y-118719837D01*
X92578127Y-118320180D01*
X92671900Y-117848752D01*
X92671900Y-117101248D01*
X92748100Y-117101248D01*
X92748100Y-117848752D01*
X92841873Y-118320180D01*
X93108915Y-118719837D01*
X93508572Y-118986879D01*
X93980000Y-119080652D01*
X94451428Y-118986879D01*
X94851085Y-118719837D01*
X95118127Y-118320180D01*
X95211900Y-117848752D01*
X95211900Y-117101248D01*
X95288100Y-117101248D01*
X95288100Y-117848752D01*
X95381873Y-118320180D01*
X95648915Y-118719837D01*
X96048572Y-118986879D01*
X96520000Y-119080652D01*
X96991428Y-118986879D01*
X97391085Y-118719837D01*
X97658127Y-118320180D01*
X97751900Y-117848752D01*
X97751900Y-117101248D01*
X97828100Y-117101248D01*
X97828100Y-117848752D01*
X97921873Y-118320180D01*
X98188915Y-118719837D01*
X98588572Y-118986879D01*
X99060000Y-119080652D01*
X99531428Y-118986879D01*
X99931085Y-118719837D01*
X100198127Y-118320180D01*
X100291900Y-117848752D01*
X100291900Y-117101248D01*
X100368100Y-117101248D01*
X100368100Y-117848752D01*
X100461873Y-118320180D01*
X100728915Y-118719837D01*
X101128572Y-118986879D01*
X101600000Y-119080652D01*
X102071428Y-118986879D01*
X102471085Y-118719837D01*
X102738127Y-118320180D01*
X102831900Y-117848752D01*
X102831900Y-117101248D01*
X102908100Y-117101248D01*
X102908100Y-117848752D01*
X103001873Y-118320180D01*
X103268915Y-118719837D01*
X103668572Y-118986879D01*
X104140000Y-119080652D01*
X104611428Y-118986879D01*
X105011085Y-118719837D01*
X105278127Y-118320180D01*
X105371900Y-117848752D01*
X105371900Y-117101248D01*
X105448100Y-117101248D01*
X105448100Y-117848752D01*
X105541873Y-118320180D01*
X105808915Y-118719837D01*
X106208572Y-118986879D01*
X106680000Y-119080652D01*
X107151428Y-118986879D01*
X107551085Y-118719837D01*
X107818127Y-118320180D01*
X107911900Y-117848752D01*
X107911900Y-117101248D01*
X107988100Y-117101248D01*
X107988100Y-117848752D01*
X108081873Y-118320180D01*
X108348915Y-118719837D01*
X108748572Y-118986879D01*
X109220000Y-119080652D01*
X109691428Y-118986879D01*
X110091085Y-118719837D01*
X110358127Y-118320180D01*
X110451900Y-117848752D01*
X110451900Y-117101248D01*
X110528100Y-117101248D01*
X110528100Y-117848752D01*
X110621873Y-118320180D01*
X110888915Y-118719837D01*
X111288572Y-118986879D01*
X111760000Y-119080652D01*
X112231428Y-118986879D01*
X112631085Y-118719837D01*
X112898127Y-118320180D01*
X112991900Y-117848752D01*
X112991900Y-117101248D01*
X113068100Y-117101248D01*
X113068100Y-117848752D01*
X113161873Y-118320180D01*
X113428915Y-118719837D01*
X113828572Y-118986879D01*
X114300000Y-119080652D01*
X114771428Y-118986879D01*
X115171085Y-118719837D01*
X115438127Y-118320180D01*
X115531900Y-117848752D01*
X115531900Y-117101248D01*
X115438127Y-116629820D01*
X115429880Y-116617477D01*
X116026840Y-116617477D01*
X116343259Y-117383270D01*
X116928648Y-117969682D01*
X117693888Y-118287437D01*
X118522477Y-118288160D01*
X119288270Y-117971741D01*
X119874682Y-117386352D01*
X120192437Y-116621112D01*
X120193160Y-115792523D01*
X119876741Y-115026730D01*
X119291352Y-114440318D01*
X118526112Y-114122563D01*
X117697523Y-114121840D01*
X116931730Y-114438259D01*
X116345318Y-115023648D01*
X116027563Y-115788888D01*
X116026840Y-116617477D01*
X115429880Y-116617477D01*
X115171085Y-116230163D01*
X114771428Y-115963121D01*
X114300000Y-115869348D01*
X113828572Y-115963121D01*
X113428915Y-116230163D01*
X113161873Y-116629820D01*
X113068100Y-117101248D01*
X112991900Y-117101248D01*
X112898127Y-116629820D01*
X112631085Y-116230163D01*
X112231428Y-115963121D01*
X111760000Y-115869348D01*
X111288572Y-115963121D01*
X110888915Y-116230163D01*
X110621873Y-116629820D01*
X110528100Y-117101248D01*
X110451900Y-117101248D01*
X110358127Y-116629820D01*
X110091085Y-116230163D01*
X109691428Y-115963121D01*
X109220000Y-115869348D01*
X108748572Y-115963121D01*
X108348915Y-116230163D01*
X108081873Y-116629820D01*
X107988100Y-117101248D01*
X107911900Y-117101248D01*
X107818127Y-116629820D01*
X107551085Y-116230163D01*
X107151428Y-115963121D01*
X106680000Y-115869348D01*
X106208572Y-115963121D01*
X105808915Y-116230163D01*
X105541873Y-116629820D01*
X105448100Y-117101248D01*
X105371900Y-117101248D01*
X105278127Y-116629820D01*
X105011085Y-116230163D01*
X104611428Y-115963121D01*
X104140000Y-115869348D01*
X103668572Y-115963121D01*
X103268915Y-116230163D01*
X103001873Y-116629820D01*
X102908100Y-117101248D01*
X102831900Y-117101248D01*
X102738127Y-116629820D01*
X102471085Y-116230163D01*
X102071428Y-115963121D01*
X101600000Y-115869348D01*
X101128572Y-115963121D01*
X100728915Y-116230163D01*
X100461873Y-116629820D01*
X100368100Y-117101248D01*
X100291900Y-117101248D01*
X100198127Y-116629820D01*
X99931085Y-116230163D01*
X99531428Y-115963121D01*
X99060000Y-115869348D01*
X98588572Y-115963121D01*
X98188915Y-116230163D01*
X97921873Y-116629820D01*
X97828100Y-117101248D01*
X97751900Y-117101248D01*
X97658127Y-116629820D01*
X97391085Y-116230163D01*
X96991428Y-115963121D01*
X96520000Y-115869348D01*
X96048572Y-115963121D01*
X95648915Y-116230163D01*
X95381873Y-116629820D01*
X95288100Y-117101248D01*
X95211900Y-117101248D01*
X95118127Y-116629820D01*
X94851085Y-116230163D01*
X94451428Y-115963121D01*
X93980000Y-115869348D01*
X93508572Y-115963121D01*
X93108915Y-116230163D01*
X92841873Y-116629820D01*
X92748100Y-117101248D01*
X92671900Y-117101248D01*
X92578127Y-116629820D01*
X92311085Y-116230163D01*
X91911428Y-115963121D01*
X91440000Y-115869348D01*
X90968572Y-115963121D01*
X90568915Y-116230163D01*
X90301873Y-116629820D01*
X90208100Y-117101248D01*
X90131900Y-117101248D01*
X90038127Y-116629820D01*
X89771085Y-116230163D01*
X89371428Y-115963121D01*
X88900000Y-115869348D01*
X88428572Y-115963121D01*
X88028915Y-116230163D01*
X87761873Y-116629820D01*
X87668100Y-117101248D01*
X87591900Y-117101248D01*
X87498127Y-116629820D01*
X87231085Y-116230163D01*
X86831428Y-115963121D01*
X86360000Y-115869348D01*
X85888572Y-115963121D01*
X85488915Y-116230163D01*
X85221873Y-116629820D01*
X85128100Y-117101248D01*
X85102700Y-117101248D01*
X85102700Y-117100253D01*
X85005060Y-116609385D01*
X84727006Y-116193247D01*
X84310868Y-115915193D01*
X84013286Y-115856000D01*
X108790300Y-115856000D01*
X109130506Y-115788329D01*
X109418918Y-115595618D01*
X114520536Y-110494000D01*
X114629229Y-110494000D01*
X114629229Y-112085000D01*
X114652885Y-112203927D01*
X114720252Y-112304748D01*
X114821073Y-112372115D01*
X114940000Y-112395771D01*
X118740000Y-112395771D01*
X118858927Y-112372115D01*
X118959748Y-112304748D01*
X119027115Y-112203927D01*
X119050771Y-112085000D01*
X119050771Y-110494000D01*
X126762764Y-110494000D01*
X127018434Y-110749670D01*
X127018434Y-112839500D01*
X127046033Y-112978248D01*
X127124627Y-113095873D01*
X127242252Y-113174467D01*
X127381000Y-113202066D01*
X129159000Y-113202066D01*
X129297748Y-113174467D01*
X129377773Y-113120996D01*
X129404206Y-113184811D01*
X129575689Y-113356294D01*
X129799743Y-113449100D01*
X130505200Y-113449100D01*
X130657600Y-113296700D01*
X130657600Y-110896400D01*
X130962400Y-110896400D01*
X130962400Y-113296700D01*
X131114800Y-113449100D01*
X131820257Y-113449100D01*
X132044311Y-113356294D01*
X132215794Y-113184811D01*
X132308600Y-112960757D01*
X132308600Y-111048800D01*
X132156200Y-110896400D01*
X130962400Y-110896400D01*
X130657600Y-110896400D01*
X130637600Y-110896400D01*
X130637600Y-110591600D01*
X130657600Y-110591600D01*
X130657600Y-108191300D01*
X130962400Y-108191300D01*
X130962400Y-110591600D01*
X132156200Y-110591600D01*
X132308600Y-110439200D01*
X132308600Y-108527243D01*
X132215794Y-108303189D01*
X132044311Y-108131706D01*
X131820257Y-108038900D01*
X131114800Y-108038900D01*
X130962400Y-108191300D01*
X130657600Y-108191300D01*
X130505200Y-108038900D01*
X129799743Y-108038900D01*
X129575689Y-108131706D01*
X129404206Y-108303189D01*
X129377773Y-108367004D01*
X129297748Y-108313533D01*
X129159000Y-108285934D01*
X127381000Y-108285934D01*
X127242252Y-108313533D01*
X127124627Y-108392127D01*
X127046033Y-108509752D01*
X127018434Y-108648500D01*
X127018434Y-108716000D01*
X119050771Y-108716000D01*
X119050771Y-107125000D01*
X119027115Y-107006073D01*
X118959748Y-106905252D01*
X118858927Y-106837885D01*
X118776650Y-106821519D01*
X118823927Y-106812115D01*
X118924748Y-106744748D01*
X118992115Y-106643927D01*
X119015771Y-106525000D01*
X119015771Y-105085000D01*
X118992115Y-104966073D01*
X118924748Y-104865252D01*
X118896973Y-104846693D01*
X124980526Y-104846693D01*
X125132948Y-105215581D01*
X125414934Y-105498061D01*
X125783556Y-105651126D01*
X126182693Y-105651474D01*
X126551581Y-105499052D01*
X126816229Y-105234867D01*
X126816229Y-107086400D01*
X126839885Y-107205327D01*
X126907252Y-107306148D01*
X127008073Y-107373515D01*
X127127000Y-107397171D01*
X131953000Y-107397171D01*
X132071927Y-107373515D01*
X132172748Y-107306148D01*
X132240115Y-107205327D01*
X132263771Y-107086400D01*
X132263771Y-104292400D01*
X132240115Y-104173473D01*
X132172748Y-104072652D01*
X132071927Y-104005285D01*
X131953000Y-103981629D01*
X127127000Y-103981629D01*
X127008073Y-104005285D01*
X126907252Y-104072652D01*
X126860657Y-104142386D01*
X126835052Y-104080419D01*
X126553066Y-103797939D01*
X126184444Y-103644874D01*
X125785307Y-103644526D01*
X125416419Y-103796948D01*
X125133939Y-104078934D01*
X124980874Y-104447556D01*
X124980526Y-104846693D01*
X118896973Y-104846693D01*
X118823927Y-104797885D01*
X118794000Y-104791932D01*
X118794000Y-104492864D01*
X118832900Y-104297300D01*
X118765229Y-103957094D01*
X118572518Y-103668682D01*
X118284106Y-103475971D01*
X117943900Y-103408300D01*
X117905000Y-103408300D01*
X117564794Y-103475971D01*
X117276382Y-103668682D01*
X117083671Y-103957094D01*
X117016000Y-104297300D01*
X117016000Y-104682864D01*
X116810315Y-104888549D01*
X116794748Y-104865252D01*
X116693927Y-104797885D01*
X116575000Y-104774229D01*
X114975000Y-104774229D01*
X114856073Y-104797885D01*
X114755252Y-104865252D01*
X114687885Y-104966073D01*
X114664229Y-105085000D01*
X114664229Y-106525000D01*
X114687885Y-106643927D01*
X114755252Y-106744748D01*
X114856073Y-106812115D01*
X114903350Y-106821519D01*
X114821073Y-106837885D01*
X114720252Y-106905252D01*
X114652885Y-107006073D01*
X114629229Y-107125000D01*
X114629229Y-108716000D01*
X114152300Y-108716000D01*
X113812094Y-108783671D01*
X113607088Y-108920652D01*
X113523682Y-108976382D01*
X108422064Y-114078000D01*
X78732157Y-114078000D01*
X79234682Y-113576352D01*
X79552437Y-112811112D01*
X79553160Y-111982523D01*
X79236741Y-111216730D01*
X78651352Y-110630318D01*
X77886112Y-110312563D01*
X77057523Y-110311840D01*
X76291730Y-110628259D01*
X75705318Y-111213648D01*
X75387563Y-111978888D01*
X75386840Y-112807477D01*
X75703259Y-113573270D01*
X76207108Y-114078000D01*
X74212936Y-114078000D01*
X69996318Y-109861382D01*
X69754399Y-109699737D01*
X69707906Y-109668671D01*
X69367700Y-109601000D01*
X68492339Y-109601000D01*
X68277534Y-109457472D01*
X67849847Y-109372400D01*
X66970536Y-109372400D01*
X68970336Y-107372600D01*
X74972600Y-107372600D01*
X75312806Y-107304929D01*
X75583400Y-107124124D01*
X75583400Y-107181600D01*
X75629803Y-107414884D01*
X75761948Y-107612652D01*
X77736048Y-109586752D01*
X77933816Y-109718897D01*
X78167100Y-109765300D01*
X91866700Y-109765300D01*
X92099984Y-109718897D01*
X92297752Y-109586752D01*
X93230052Y-108654453D01*
X93250065Y-108624502D01*
X93571753Y-108839447D01*
X93980000Y-108920652D01*
X94388247Y-108839447D01*
X94734342Y-108608194D01*
X94965595Y-108262099D01*
X95046800Y-107853852D01*
X95046800Y-106776148D01*
X94965595Y-106367901D01*
X94734342Y-106021806D01*
X94561924Y-105906600D01*
X95938076Y-105906600D01*
X95765658Y-106021806D01*
X95534405Y-106367901D01*
X95453200Y-106776148D01*
X95453200Y-107853852D01*
X95534405Y-108262099D01*
X95765658Y-108608194D01*
X96111753Y-108839447D01*
X96520000Y-108920652D01*
X96928247Y-108839447D01*
X97274342Y-108608194D01*
X97505595Y-108262099D01*
X97586800Y-107853852D01*
X97586800Y-106776148D01*
X97993200Y-106776148D01*
X97993200Y-107853852D01*
X98074405Y-108262099D01*
X98305658Y-108608194D01*
X98651753Y-108839447D01*
X99060000Y-108920652D01*
X99468247Y-108839447D01*
X99814342Y-108608194D01*
X100045595Y-108262099D01*
X100126800Y-107853852D01*
X100126800Y-106776148D01*
X100533200Y-106776148D01*
X100533200Y-107853852D01*
X100614405Y-108262099D01*
X100845658Y-108608194D01*
X101191753Y-108839447D01*
X101600000Y-108920652D01*
X102008247Y-108839447D01*
X102354342Y-108608194D01*
X102585595Y-108262099D01*
X102666800Y-107853852D01*
X102666800Y-106776148D01*
X103073200Y-106776148D01*
X103073200Y-107853852D01*
X103154405Y-108262099D01*
X103385658Y-108608194D01*
X103731753Y-108839447D01*
X104140000Y-108920652D01*
X104548247Y-108839447D01*
X104894342Y-108608194D01*
X105125595Y-108262099D01*
X105206800Y-107853852D01*
X105206800Y-106776148D01*
X105613200Y-106776148D01*
X105613200Y-107853852D01*
X105694405Y-108262099D01*
X105925658Y-108608194D01*
X106271753Y-108839447D01*
X106680000Y-108920652D01*
X107088247Y-108839447D01*
X107434342Y-108608194D01*
X107665595Y-108262099D01*
X107746800Y-107853852D01*
X107746800Y-106776148D01*
X108153200Y-106776148D01*
X108153200Y-107853852D01*
X108234405Y-108262099D01*
X108465658Y-108608194D01*
X108811753Y-108839447D01*
X109220000Y-108920652D01*
X109628247Y-108839447D01*
X109974342Y-108608194D01*
X110205595Y-108262099D01*
X110286800Y-107853852D01*
X110286800Y-106776148D01*
X110205595Y-106367901D01*
X109974342Y-106021806D01*
X109628247Y-105790553D01*
X109220000Y-105709348D01*
X108811753Y-105790553D01*
X108465658Y-106021806D01*
X108234405Y-106367901D01*
X108153200Y-106776148D01*
X107746800Y-106776148D01*
X107665595Y-106367901D01*
X107434342Y-106021806D01*
X107088247Y-105790553D01*
X106680000Y-105709348D01*
X106271753Y-105790553D01*
X105925658Y-106021806D01*
X105694405Y-106367901D01*
X105613200Y-106776148D01*
X105206800Y-106776148D01*
X105125595Y-106367901D01*
X104894342Y-106021806D01*
X104548247Y-105790553D01*
X104140000Y-105709348D01*
X103731753Y-105790553D01*
X103385658Y-106021806D01*
X103154405Y-106367901D01*
X103073200Y-106776148D01*
X102666800Y-106776148D01*
X102585595Y-106367901D01*
X102354342Y-106021806D01*
X102008247Y-105790553D01*
X101600000Y-105709348D01*
X101191753Y-105790553D01*
X100845658Y-106021806D01*
X100614405Y-106367901D01*
X100533200Y-106776148D01*
X100126800Y-106776148D01*
X100045595Y-106367901D01*
X99814342Y-106021806D01*
X99468247Y-105790553D01*
X99060000Y-105709348D01*
X98651753Y-105790553D01*
X98305658Y-106021806D01*
X98074405Y-106367901D01*
X97993200Y-106776148D01*
X97586800Y-106776148D01*
X97505595Y-106367901D01*
X97274342Y-106021806D01*
X97101924Y-105906600D01*
X98205800Y-105906600D01*
X98439084Y-105860197D01*
X98636852Y-105728052D01*
X99491052Y-104873852D01*
X99623197Y-104676084D01*
X99669600Y-104442800D01*
X99669600Y-104132907D01*
X99814342Y-104036194D01*
X100045595Y-103690099D01*
X100126800Y-103281852D01*
X100126800Y-102204148D01*
X100533200Y-102204148D01*
X100533200Y-103281852D01*
X100614405Y-103690099D01*
X100845658Y-104036194D01*
X101191753Y-104267447D01*
X101600000Y-104348652D01*
X102008247Y-104267447D01*
X102354342Y-104036194D01*
X102585595Y-103690099D01*
X102666800Y-103281852D01*
X102666800Y-102204148D01*
X102585595Y-101795901D01*
X102354342Y-101449806D01*
X102008247Y-101218553D01*
X101600000Y-101137348D01*
X101191753Y-101218553D01*
X100845658Y-101449806D01*
X100614405Y-101795901D01*
X100533200Y-102204148D01*
X100126800Y-102204148D01*
X100045595Y-101795901D01*
X99814342Y-101449806D01*
X99468247Y-101218553D01*
X99060000Y-101137348D01*
X98651753Y-101218553D01*
X98305658Y-101449806D01*
X98074405Y-101795901D01*
X97993200Y-102204148D01*
X97993200Y-103281852D01*
X98074405Y-103690099D01*
X98305658Y-104036194D01*
X98450400Y-104132907D01*
X98450400Y-104190296D01*
X97953296Y-104687400D01*
X93826500Y-104687400D01*
X93593216Y-104733803D01*
X93395447Y-104865948D01*
X92367948Y-105893448D01*
X92238262Y-106087536D01*
X92194342Y-106021806D01*
X91848916Y-105791000D01*
X92194342Y-105560194D01*
X92425595Y-105214099D01*
X92506800Y-104805852D01*
X92506800Y-103728148D01*
X92425595Y-103319901D01*
X92194342Y-102973806D01*
X91848247Y-102742553D01*
X91440000Y-102661348D01*
X91031753Y-102742553D01*
X90685658Y-102973806D01*
X90454405Y-103319901D01*
X90373200Y-103728148D01*
X90373200Y-104805852D01*
X90454405Y-105214099D01*
X90685658Y-105560194D01*
X91031084Y-105791000D01*
X90685658Y-106021806D01*
X90454405Y-106367901D01*
X90373200Y-106776148D01*
X90373200Y-107853852D01*
X90454405Y-108262099D01*
X90644168Y-108546100D01*
X89695832Y-108546100D01*
X89885595Y-108262099D01*
X89966800Y-107853852D01*
X89966800Y-106776148D01*
X89885595Y-106367901D01*
X89654342Y-106021806D01*
X89308916Y-105791000D01*
X89654342Y-105560194D01*
X89885595Y-105214099D01*
X89966800Y-104805852D01*
X89966800Y-103728148D01*
X89885595Y-103319901D01*
X89654342Y-102973806D01*
X89308247Y-102742553D01*
X88900000Y-102661348D01*
X88491753Y-102742553D01*
X88145658Y-102973806D01*
X87914405Y-103319901D01*
X87833200Y-103728148D01*
X87833200Y-104805852D01*
X87914405Y-105214099D01*
X88145658Y-105560194D01*
X88491084Y-105791000D01*
X88145658Y-106021806D01*
X87914405Y-106367901D01*
X87833200Y-106776148D01*
X87833200Y-107853852D01*
X87914405Y-108262099D01*
X88104168Y-108546100D01*
X87155832Y-108546100D01*
X87345595Y-108262099D01*
X87426800Y-107853852D01*
X87426800Y-106776148D01*
X87345595Y-106367901D01*
X87114342Y-106021806D01*
X86814501Y-105821459D01*
X87150263Y-105597110D01*
X87392528Y-105234534D01*
X87477600Y-104806847D01*
X87477600Y-103727153D01*
X87392528Y-103299466D01*
X87150263Y-102936890D01*
X86787687Y-102694625D01*
X86360000Y-102609553D01*
X85932313Y-102694625D01*
X85572300Y-102935177D01*
X85572300Y-102204148D01*
X92913200Y-102204148D01*
X92913200Y-103281852D01*
X92994405Y-103690099D01*
X93225658Y-104036194D01*
X93571753Y-104267447D01*
X93980000Y-104348652D01*
X94388247Y-104267447D01*
X94734342Y-104036194D01*
X94965595Y-103690099D01*
X95046800Y-103281852D01*
X95046800Y-102204148D01*
X95453200Y-102204148D01*
X95453200Y-103281852D01*
X95534405Y-103690099D01*
X95765658Y-104036194D01*
X96111753Y-104267447D01*
X96520000Y-104348652D01*
X96928247Y-104267447D01*
X97274342Y-104036194D01*
X97505595Y-103690099D01*
X97586800Y-103281852D01*
X97586800Y-102204148D01*
X97505595Y-101795901D01*
X97274342Y-101449806D01*
X96928247Y-101218553D01*
X96520000Y-101137348D01*
X96111753Y-101218553D01*
X95765658Y-101449806D01*
X95534405Y-101795901D01*
X95453200Y-102204148D01*
X95046800Y-102204148D01*
X94965595Y-101795901D01*
X94734342Y-101449806D01*
X94388247Y-101218553D01*
X93980000Y-101137348D01*
X93571753Y-101218553D01*
X93225658Y-101449806D01*
X92994405Y-101795901D01*
X92913200Y-102204148D01*
X85572300Y-102204148D01*
X85572300Y-101327566D01*
X86741000Y-101327566D01*
X86879748Y-101299967D01*
X86997373Y-101221373D01*
X87075967Y-101103748D01*
X87103566Y-100965000D01*
X87103566Y-99999800D01*
X87909400Y-99999800D01*
X87909400Y-101086257D01*
X88002206Y-101310311D01*
X88173689Y-101481794D01*
X88397743Y-101574600D01*
X88849200Y-101574600D01*
X89001600Y-101422200D01*
X89001600Y-99847400D01*
X89306400Y-99847400D01*
X89306400Y-101422200D01*
X89458800Y-101574600D01*
X89910257Y-101574600D01*
X90134311Y-101481794D01*
X90305794Y-101310311D01*
X90398600Y-101086257D01*
X90398600Y-99999800D01*
X90246200Y-99847400D01*
X89306400Y-99847400D01*
X89001600Y-99847400D01*
X88061800Y-99847400D01*
X87909400Y-99999800D01*
X87103566Y-99999800D01*
X87103566Y-98425000D01*
X87079447Y-98303743D01*
X87909400Y-98303743D01*
X87909400Y-99390200D01*
X88061800Y-99542600D01*
X89001600Y-99542600D01*
X89001600Y-97967800D01*
X89306400Y-97967800D01*
X89306400Y-99542600D01*
X90246200Y-99542600D01*
X90398600Y-99390200D01*
X90398600Y-98648148D01*
X92913200Y-98648148D01*
X92913200Y-99725852D01*
X92994405Y-100134099D01*
X93225658Y-100480194D01*
X93571753Y-100711447D01*
X93980000Y-100792652D01*
X94388247Y-100711447D01*
X94734342Y-100480194D01*
X94965595Y-100134099D01*
X95046800Y-99725852D01*
X95046800Y-98648148D01*
X95453200Y-98648148D01*
X95453200Y-99725852D01*
X95534405Y-100134099D01*
X95765658Y-100480194D01*
X96111753Y-100711447D01*
X96520000Y-100792652D01*
X96928247Y-100711447D01*
X97274342Y-100480194D01*
X97505595Y-100134099D01*
X97586800Y-99725852D01*
X97586800Y-98648148D01*
X97993200Y-98648148D01*
X97993200Y-99725852D01*
X98074405Y-100134099D01*
X98305658Y-100480194D01*
X98651753Y-100711447D01*
X99060000Y-100792652D01*
X99468247Y-100711447D01*
X99814342Y-100480194D01*
X100045595Y-100134099D01*
X100126800Y-99725852D01*
X100126800Y-98648148D01*
X100045595Y-98239901D01*
X99814342Y-97893806D01*
X99468247Y-97662553D01*
X99060000Y-97581348D01*
X98651753Y-97662553D01*
X98305658Y-97893806D01*
X98074405Y-98239901D01*
X97993200Y-98648148D01*
X97586800Y-98648148D01*
X97505595Y-98239901D01*
X97274342Y-97893806D01*
X96928247Y-97662553D01*
X96520000Y-97581348D01*
X96111753Y-97662553D01*
X95765658Y-97893806D01*
X95534405Y-98239901D01*
X95453200Y-98648148D01*
X95046800Y-98648148D01*
X94965595Y-98239901D01*
X94734342Y-97893806D01*
X94388247Y-97662553D01*
X93980000Y-97581348D01*
X93571753Y-97662553D01*
X93225658Y-97893806D01*
X92994405Y-98239901D01*
X92913200Y-98648148D01*
X90398600Y-98648148D01*
X90398600Y-98303743D01*
X90305794Y-98079689D01*
X90134311Y-97908206D01*
X89910257Y-97815400D01*
X89458800Y-97815400D01*
X89306400Y-97967800D01*
X89001600Y-97967800D01*
X88849200Y-97815400D01*
X88397743Y-97815400D01*
X88173689Y-97908206D01*
X88002206Y-98079689D01*
X87909400Y-98303743D01*
X87079447Y-98303743D01*
X87075967Y-98286252D01*
X86997373Y-98168627D01*
X86879748Y-98090033D01*
X86741000Y-98062434D01*
X85471000Y-98062434D01*
X85332252Y-98090033D01*
X85214627Y-98168627D01*
X85136033Y-98286252D01*
X85108434Y-98425000D01*
X85108434Y-98806000D01*
X84683300Y-98806000D01*
X84343094Y-98873671D01*
X84054682Y-99066382D01*
X83861971Y-99354794D01*
X83794300Y-99695000D01*
X83794300Y-104025764D01*
X83191382Y-104628682D01*
X82998671Y-104917094D01*
X82931000Y-105257300D01*
X82931000Y-106132661D01*
X82787472Y-106347466D01*
X82702400Y-106775153D01*
X82702400Y-107854847D01*
X82787472Y-108282534D01*
X82963581Y-108546100D01*
X82136419Y-108546100D01*
X82312528Y-108282534D01*
X82397600Y-107854847D01*
X82397600Y-106775153D01*
X82312528Y-106347466D01*
X82070263Y-105984890D01*
X81780085Y-105791000D01*
X82070263Y-105597110D01*
X82312528Y-105234534D01*
X82397600Y-104806847D01*
X82397600Y-103727153D01*
X82312528Y-103299466D01*
X82169000Y-103084661D01*
X82169000Y-102621700D01*
X82345000Y-102621700D01*
X82685206Y-102554029D01*
X82973618Y-102361318D01*
X83166329Y-102072906D01*
X83234000Y-101732700D01*
X83234000Y-101307566D01*
X83345000Y-101307566D01*
X83483748Y-101279967D01*
X83601373Y-101201373D01*
X83679967Y-101083748D01*
X83707566Y-100945000D01*
X83707566Y-98445000D01*
X83679967Y-98306252D01*
X83601373Y-98188627D01*
X83483748Y-98110033D01*
X83345000Y-98082434D01*
X81345000Y-98082434D01*
X81206252Y-98110033D01*
X81088627Y-98188627D01*
X81010033Y-98306252D01*
X80982434Y-98445000D01*
X80982434Y-100945000D01*
X81010033Y-101083748D01*
X81065421Y-101166643D01*
X80651382Y-101580682D01*
X80458671Y-101869094D01*
X80391000Y-102209300D01*
X80391000Y-103084661D01*
X80247472Y-103299466D01*
X80162400Y-103727153D01*
X80162400Y-104806847D01*
X80247472Y-105234534D01*
X80489737Y-105597110D01*
X80779915Y-105791000D01*
X80489737Y-105984890D01*
X80247472Y-106347466D01*
X80162400Y-106775153D01*
X80162400Y-107854847D01*
X80247472Y-108282534D01*
X80423581Y-108546100D01*
X79596419Y-108546100D01*
X79772528Y-108282534D01*
X79857600Y-107854847D01*
X79857600Y-106775153D01*
X79772528Y-106347466D01*
X79629000Y-106132661D01*
X79629000Y-105598033D01*
X79629617Y-105597110D01*
X79766329Y-105392506D01*
X79834000Y-105052300D01*
X79834000Y-101307566D01*
X79945000Y-101307566D01*
X80083748Y-101279967D01*
X80201373Y-101201373D01*
X80279967Y-101083748D01*
X80307566Y-100945000D01*
X80307566Y-98445000D01*
X80279967Y-98306252D01*
X80201373Y-98188627D01*
X80083748Y-98110033D01*
X79945000Y-98082434D01*
X77945000Y-98082434D01*
X77806252Y-98110033D01*
X77688627Y-98188627D01*
X77610033Y-98306252D01*
X77582434Y-98445000D01*
X77582434Y-100945000D01*
X77610033Y-101083748D01*
X77688627Y-101201373D01*
X77806252Y-101279967D01*
X77945000Y-101307566D01*
X78056000Y-101307566D01*
X78056000Y-104711567D01*
X77918671Y-104917094D01*
X77851000Y-105257300D01*
X77851000Y-106132661D01*
X77707472Y-106347466D01*
X77622400Y-106775153D01*
X77622400Y-107748896D01*
X76802600Y-106929096D01*
X76802600Y-106107900D01*
X76756197Y-105874616D01*
X76624052Y-105676848D01*
X75495352Y-104548148D01*
X75297584Y-104416003D01*
X75064300Y-104369600D01*
X72989204Y-104369600D01*
X72606424Y-103986820D01*
X72753761Y-104065484D01*
X72810299Y-104058454D01*
X73281708Y-103797480D01*
X73617363Y-103375970D01*
X73766163Y-102858096D01*
X73614825Y-102641400D01*
X72542400Y-102641400D01*
X72542400Y-102661400D01*
X72237600Y-102661400D01*
X72237600Y-102641400D01*
X72217600Y-102641400D01*
X72217600Y-102336600D01*
X72237600Y-102336600D01*
X72237600Y-102316600D01*
X72542400Y-102316600D01*
X72542400Y-102336600D01*
X73614825Y-102336600D01*
X73766163Y-102119904D01*
X73617363Y-101602030D01*
X73281708Y-101180520D01*
X72837204Y-100934441D01*
X73144342Y-100729218D01*
X73375595Y-100383123D01*
X73456800Y-99974876D01*
X73456800Y-99415124D01*
X73375595Y-99006877D01*
X73144342Y-98660782D01*
X72837204Y-98455559D01*
X73281708Y-98209480D01*
X73617363Y-97787970D01*
X73766163Y-97270096D01*
X73614825Y-97053400D01*
X72542400Y-97053400D01*
X72542400Y-97073400D01*
X72237600Y-97073400D01*
X72237600Y-97053400D01*
X71165175Y-97053400D01*
X71013837Y-97270096D01*
X71162637Y-97787970D01*
X71498292Y-98209480D01*
X71942796Y-98455559D01*
X71635658Y-98660782D01*
X71404405Y-99006877D01*
X71323200Y-99415124D01*
X71323200Y-99974876D01*
X71404405Y-100383123D01*
X71635658Y-100729218D01*
X71942796Y-100934441D01*
X71498292Y-101180520D01*
X71162637Y-101602030D01*
X71013837Y-102119904D01*
X71165174Y-102336598D01*
X71018400Y-102336598D01*
X71018400Y-102398796D01*
X70459600Y-101839996D01*
X70459600Y-100563345D01*
X70630218Y-100449342D01*
X70861471Y-100103247D01*
X70942676Y-99695000D01*
X70861471Y-99286753D01*
X70630218Y-98940658D01*
X70284123Y-98709405D01*
X69875876Y-98628200D01*
X69316124Y-98628200D01*
X68907877Y-98709405D01*
X68561782Y-98940658D01*
X68330529Y-99286753D01*
X68249324Y-99695000D01*
X68330529Y-100103247D01*
X68561782Y-100449342D01*
X68907877Y-100680595D01*
X69240400Y-100746738D01*
X69240400Y-102092500D01*
X69286803Y-102325784D01*
X69418948Y-102523552D01*
X72305648Y-105410252D01*
X72503416Y-105542397D01*
X72736700Y-105588800D01*
X74811796Y-105588800D01*
X74817596Y-105594600D01*
X68602100Y-105594600D01*
X68261895Y-105662270D01*
X67973482Y-105854982D01*
X64566982Y-109261482D01*
X64374271Y-109549894D01*
X64306600Y-109890100D01*
X60109100Y-109890100D01*
X60109100Y-104775000D01*
X60599467Y-104775000D01*
X60738676Y-105474851D01*
X61135110Y-106068157D01*
X61728416Y-106464591D01*
X62428267Y-106603800D01*
X64571733Y-106603800D01*
X65271584Y-106464591D01*
X65864890Y-106068157D01*
X66261324Y-105474851D01*
X66400533Y-104775000D01*
X66261324Y-104075149D01*
X65864890Y-103481843D01*
X65271584Y-103085409D01*
X64571733Y-102946200D01*
X62428267Y-102946200D01*
X61728416Y-103085409D01*
X61135110Y-103481843D01*
X60738676Y-104075149D01*
X60599467Y-104775000D01*
X60109100Y-104775000D01*
X60109100Y-96531904D01*
X71013837Y-96531904D01*
X71165175Y-96748600D01*
X72237600Y-96748600D01*
X72237600Y-95437363D01*
X72542400Y-95437363D01*
X72542400Y-96748600D01*
X73614825Y-96748600D01*
X73766163Y-96531904D01*
X73617363Y-96014030D01*
X73281708Y-95592520D01*
X72810299Y-95331546D01*
X72753761Y-95324516D01*
X72542400Y-95437363D01*
X72237600Y-95437363D01*
X72026239Y-95324516D01*
X71969701Y-95331546D01*
X71498292Y-95592520D01*
X71162637Y-96014030D01*
X71013837Y-96531904D01*
X60109100Y-96531904D01*
X60109100Y-94615000D01*
X60599467Y-94615000D01*
X60738676Y-95314851D01*
X61135110Y-95908157D01*
X61728416Y-96304591D01*
X62428267Y-96443800D01*
X64571733Y-96443800D01*
X65271584Y-96304591D01*
X65864890Y-95908157D01*
X66261324Y-95314851D01*
X66400533Y-94615000D01*
X66261324Y-93915149D01*
X65864890Y-93321843D01*
X65271584Y-92925409D01*
X64571733Y-92786200D01*
X62428267Y-92786200D01*
X61728416Y-92925409D01*
X61135110Y-93321843D01*
X60738676Y-93915149D01*
X60599467Y-94615000D01*
X60109100Y-94615000D01*
X60109100Y-88519000D01*
X66745229Y-88519000D01*
X66745229Y-91186000D01*
X66768885Y-91304927D01*
X66836252Y-91405748D01*
X66937073Y-91473115D01*
X67056000Y-91496771D01*
X68646040Y-91496771D01*
X68764967Y-91473115D01*
X68865788Y-91405748D01*
X68933155Y-91304927D01*
X68956811Y-91186000D01*
X68956811Y-88519000D01*
X68933155Y-88400073D01*
X68865788Y-88299252D01*
X68764967Y-88231885D01*
X68646040Y-88208229D01*
X67056000Y-88208229D01*
X66937073Y-88231885D01*
X66836252Y-88299252D01*
X66768885Y-88400073D01*
X66745229Y-88519000D01*
X60109100Y-88519000D01*
X60109100Y-82327477D01*
X60146840Y-82327477D01*
X60463259Y-83093270D01*
X61048648Y-83679682D01*
X61813888Y-83997437D01*
X62642477Y-83998160D01*
X63408270Y-83681741D01*
X63994682Y-83096352D01*
X64312437Y-82331112D01*
X64313160Y-81502523D01*
X63996741Y-80736730D01*
X63524836Y-80264000D01*
X66745229Y-80264000D01*
X66745229Y-82931000D01*
X66768885Y-83049927D01*
X66836252Y-83150748D01*
X66937073Y-83218115D01*
X67056000Y-83241771D01*
X67241400Y-83241771D01*
X67241400Y-83360800D01*
X67287803Y-83594084D01*
X67419948Y-83791852D01*
X69213400Y-85585304D01*
X69213400Y-90759200D01*
X69259803Y-90992484D01*
X69391948Y-91190252D01*
X72722947Y-94521252D01*
X72755955Y-94543307D01*
X72920716Y-94653397D01*
X73154000Y-94699800D01*
X98413396Y-94699800D01*
X101345556Y-97631960D01*
X101191753Y-97662553D01*
X100845658Y-97893806D01*
X100614405Y-98239901D01*
X100533200Y-98648148D01*
X100533200Y-99725852D01*
X100614405Y-100134099D01*
X100845658Y-100480194D01*
X101191753Y-100711447D01*
X101600000Y-100792652D01*
X102008247Y-100711447D01*
X102354342Y-100480194D01*
X102374236Y-100450421D01*
X102429448Y-100533052D01*
X103292447Y-101396052D01*
X103381719Y-101455701D01*
X103154405Y-101795901D01*
X103073200Y-102204148D01*
X103073200Y-103281852D01*
X103154405Y-103690099D01*
X103385658Y-104036194D01*
X103530400Y-104132907D01*
X103530400Y-104442800D01*
X103576803Y-104676084D01*
X103708948Y-104873852D01*
X103906716Y-105005997D01*
X104140000Y-105052400D01*
X109698300Y-105052400D01*
X109931584Y-105005997D01*
X110129352Y-104873852D01*
X110166601Y-104836603D01*
X110235553Y-105183247D01*
X110466806Y-105529342D01*
X110812901Y-105760595D01*
X111221148Y-105841800D01*
X111275056Y-105841800D01*
X111005658Y-106021806D01*
X110774405Y-106367901D01*
X110693200Y-106776148D01*
X110693200Y-107853852D01*
X110774405Y-108262099D01*
X111005658Y-108608194D01*
X111351753Y-108839447D01*
X111760000Y-108920652D01*
X112168247Y-108839447D01*
X112514342Y-108608194D01*
X112745595Y-108262099D01*
X112826800Y-107853852D01*
X112826800Y-106776148D01*
X112745595Y-106367901D01*
X112514342Y-106021806D01*
X112244944Y-105841800D01*
X112298852Y-105841800D01*
X112707099Y-105760595D01*
X113053194Y-105529342D01*
X113284447Y-105183247D01*
X113365652Y-104775000D01*
X113284447Y-104366753D01*
X113115964Y-104114600D01*
X116258900Y-104114600D01*
X116492184Y-104068197D01*
X116689952Y-103936052D01*
X117781404Y-102844600D01*
X120402729Y-102844600D01*
X120402729Y-103124000D01*
X120426385Y-103242927D01*
X120493752Y-103343748D01*
X120594573Y-103411115D01*
X120713500Y-103434771D01*
X124904500Y-103434771D01*
X125023427Y-103411115D01*
X125124248Y-103343748D01*
X125191615Y-103242927D01*
X125215271Y-103124000D01*
X125215271Y-101346000D01*
X125191615Y-101227073D01*
X125138144Y-101147048D01*
X125249811Y-101100794D01*
X125421294Y-100929311D01*
X125514100Y-100705257D01*
X125514100Y-99999800D01*
X125361700Y-99847400D01*
X122961400Y-99847400D01*
X122961400Y-99867400D01*
X122656600Y-99867400D01*
X122656600Y-99847400D01*
X120256300Y-99847400D01*
X120103900Y-99999800D01*
X120103900Y-100705257D01*
X120196706Y-100929311D01*
X120368189Y-101100794D01*
X120479856Y-101147048D01*
X120426385Y-101227073D01*
X120402729Y-101346000D01*
X120402729Y-101625400D01*
X117622185Y-101625400D01*
X118018270Y-101461741D01*
X118604682Y-100876352D01*
X118922437Y-100111112D01*
X118923160Y-99282523D01*
X118606741Y-98516730D01*
X118021352Y-97930318D01*
X117622258Y-97764600D01*
X120402729Y-97764600D01*
X120402729Y-98044000D01*
X120426385Y-98162927D01*
X120479856Y-98242952D01*
X120368189Y-98289206D01*
X120196706Y-98460689D01*
X120103900Y-98684743D01*
X120103900Y-99390200D01*
X120256300Y-99542600D01*
X122656600Y-99542600D01*
X122656600Y-99522600D01*
X122961400Y-99522600D01*
X122961400Y-99542600D01*
X125361700Y-99542600D01*
X125514100Y-99390200D01*
X125514100Y-98684743D01*
X125421294Y-98460689D01*
X125249811Y-98289206D01*
X125138144Y-98242952D01*
X125191615Y-98162927D01*
X125215271Y-98044000D01*
X125215271Y-96711775D01*
X126884847Y-98381352D01*
X127018198Y-98470454D01*
X127082616Y-98513497D01*
X127315900Y-98559900D01*
X128360345Y-98559900D01*
X128291856Y-98588199D01*
X127924489Y-98954925D01*
X127725427Y-99434320D01*
X127724974Y-99953402D01*
X127923199Y-100433144D01*
X128289925Y-100800511D01*
X128769320Y-100999573D01*
X129288402Y-101000026D01*
X129768144Y-100801801D01*
X130135511Y-100435075D01*
X130334573Y-99955680D01*
X130334791Y-99706095D01*
X133423800Y-102795104D01*
X133423800Y-106887089D01*
X133398544Y-106912301D01*
X133284230Y-107187601D01*
X133283970Y-107485691D01*
X133397804Y-107761190D01*
X133608401Y-107972156D01*
X133883701Y-108086470D01*
X134181791Y-108086730D01*
X134457290Y-107972896D01*
X134668256Y-107762299D01*
X134782570Y-107486999D01*
X134782830Y-107188909D01*
X134668996Y-106913410D01*
X134643000Y-106887368D01*
X134643000Y-102542600D01*
X134596597Y-102309316D01*
X134464452Y-102111548D01*
X133452638Y-101099734D01*
X133808206Y-101100044D01*
X134324716Y-100886626D01*
X134720237Y-100491794D01*
X134934556Y-99975658D01*
X134935044Y-99416794D01*
X134721626Y-98900284D01*
X134326794Y-98504763D01*
X133810658Y-98290444D01*
X133251794Y-98289956D01*
X132735284Y-98503374D01*
X132339763Y-98898206D01*
X132125444Y-99414342D01*
X132125131Y-99772227D01*
X129872152Y-97519248D01*
X129674384Y-97387103D01*
X129441100Y-97340700D01*
X127568405Y-97340700D01*
X125972995Y-95745291D01*
X126182693Y-95745474D01*
X126551581Y-95593052D01*
X126834061Y-95311066D01*
X126860504Y-95247385D01*
X126907252Y-95317348D01*
X127008073Y-95384715D01*
X127127000Y-95408371D01*
X131953000Y-95408371D01*
X132071927Y-95384715D01*
X132172748Y-95317348D01*
X132240115Y-95216527D01*
X132263771Y-95097600D01*
X132263771Y-92303600D01*
X132240115Y-92184673D01*
X132172748Y-92083852D01*
X132071927Y-92016485D01*
X131953000Y-91992829D01*
X127127000Y-91992829D01*
X127008073Y-92016485D01*
X126907252Y-92083852D01*
X126839885Y-92184673D01*
X126816229Y-92303600D01*
X126816229Y-94155563D01*
X126553066Y-93891939D01*
X126184444Y-93738874D01*
X125785307Y-93738526D01*
X125416419Y-93890948D01*
X125133939Y-94172934D01*
X124980874Y-94541556D01*
X124980526Y-94940693D01*
X125104487Y-95240700D01*
X122932536Y-95240700D01*
X127155041Y-91018195D01*
X127242252Y-91076467D01*
X127381000Y-91104066D01*
X129159000Y-91104066D01*
X129297748Y-91076467D01*
X129377773Y-91022996D01*
X129404206Y-91086811D01*
X129575689Y-91258294D01*
X129799743Y-91351100D01*
X130505200Y-91351100D01*
X130657600Y-91198700D01*
X130657600Y-88798400D01*
X130962400Y-88798400D01*
X130962400Y-91198700D01*
X131114800Y-91351100D01*
X131820257Y-91351100D01*
X132044311Y-91258294D01*
X132215794Y-91086811D01*
X132308600Y-90862757D01*
X132308600Y-88950800D01*
X132156200Y-88798400D01*
X130962400Y-88798400D01*
X130657600Y-88798400D01*
X130637600Y-88798400D01*
X130637600Y-88493600D01*
X130657600Y-88493600D01*
X130657600Y-86093300D01*
X130962400Y-86093300D01*
X130962400Y-88493600D01*
X132156200Y-88493600D01*
X132308600Y-88341200D01*
X132308600Y-86429243D01*
X132215794Y-86205189D01*
X132044311Y-86033706D01*
X131820257Y-85940900D01*
X131114800Y-85940900D01*
X130962400Y-86093300D01*
X130657600Y-86093300D01*
X130505200Y-85940900D01*
X129799743Y-85940900D01*
X129575689Y-86033706D01*
X129404206Y-86205189D01*
X129377773Y-86269004D01*
X129297748Y-86215533D01*
X129159000Y-86187934D01*
X127381000Y-86187934D01*
X127242252Y-86215533D01*
X127124627Y-86294127D01*
X127046033Y-86411752D01*
X127018434Y-86550500D01*
X127018434Y-88640330D01*
X121844964Y-93813800D01*
X120831700Y-93813800D01*
X120491494Y-93881471D01*
X120203082Y-94074182D01*
X120010371Y-94362594D01*
X119942700Y-94702800D01*
X120010371Y-95043006D01*
X120142466Y-95240700D01*
X113544100Y-95240700D01*
X113369651Y-95275400D01*
X113115964Y-95275400D01*
X113284447Y-95023247D01*
X113365652Y-94615000D01*
X113284447Y-94206753D01*
X113053194Y-93860658D01*
X112707099Y-93629405D01*
X112298852Y-93548200D01*
X112244944Y-93548200D01*
X112514342Y-93368194D01*
X112745595Y-93022099D01*
X112826800Y-92613852D01*
X112826800Y-91536148D01*
X112745595Y-91127901D01*
X112663743Y-91005400D01*
X116892589Y-91005400D01*
X116917801Y-91030656D01*
X117193101Y-91144970D01*
X117491191Y-91145230D01*
X117766690Y-91031396D01*
X117977656Y-90820799D01*
X118091970Y-90545499D01*
X118092230Y-90247409D01*
X117978396Y-89971910D01*
X117767799Y-89760944D01*
X117492499Y-89646630D01*
X117194409Y-89646370D01*
X116918910Y-89760204D01*
X116892868Y-89786200D01*
X116084406Y-89786200D01*
X116112556Y-89758099D01*
X116226870Y-89482799D01*
X116227130Y-89184709D01*
X116122217Y-88930800D01*
X117869964Y-88930800D01*
X120902482Y-91963318D01*
X121190895Y-92156029D01*
X121531100Y-92223700D01*
X121871305Y-92156029D01*
X122159718Y-91963318D01*
X122352429Y-91674905D01*
X122420100Y-91334700D01*
X122352429Y-90994495D01*
X122159718Y-90706082D01*
X118866818Y-87413182D01*
X118712494Y-87310066D01*
X118578406Y-87220471D01*
X118238200Y-87152800D01*
X82641000Y-87152800D01*
X82300794Y-87220471D01*
X82166706Y-87310066D01*
X82012382Y-87413182D01*
X80934382Y-88491182D01*
X80741671Y-88779595D01*
X80674000Y-89119800D01*
X80741671Y-89460005D01*
X80934382Y-89748418D01*
X81038130Y-89817740D01*
X80848948Y-89944148D01*
X80716803Y-90141916D01*
X80670400Y-90375200D01*
X80670400Y-90685093D01*
X80525658Y-90781806D01*
X80294405Y-91127901D01*
X80213200Y-91536148D01*
X80213200Y-92613852D01*
X80294405Y-93022099D01*
X80525658Y-93368194D01*
X80693886Y-93480600D01*
X80105659Y-93480600D01*
X80111600Y-93466257D01*
X80111600Y-92379800D01*
X79959200Y-92227400D01*
X78892400Y-92227400D01*
X78892400Y-92247400D01*
X78587600Y-92247400D01*
X78587600Y-92227400D01*
X77520800Y-92227400D01*
X77368400Y-92379800D01*
X77368400Y-93466257D01*
X77374341Y-93480600D01*
X73406505Y-93480600D01*
X71632842Y-91706938D01*
X71696580Y-91643200D01*
X71696580Y-90004900D01*
X72001380Y-90004900D01*
X72001380Y-91643200D01*
X72153780Y-91795600D01*
X72765257Y-91795600D01*
X72989311Y-91702794D01*
X73160794Y-91531311D01*
X73253600Y-91307257D01*
X73253600Y-90683743D01*
X77368400Y-90683743D01*
X77368400Y-91770200D01*
X77520800Y-91922600D01*
X78587600Y-91922600D01*
X78587600Y-90347800D01*
X78892400Y-90347800D01*
X78892400Y-91922600D01*
X79959200Y-91922600D01*
X80111600Y-91770200D01*
X80111600Y-90683743D01*
X80018794Y-90459689D01*
X79847311Y-90288206D01*
X79623257Y-90195400D01*
X79044800Y-90195400D01*
X78892400Y-90347800D01*
X78587600Y-90347800D01*
X78435200Y-90195400D01*
X77856743Y-90195400D01*
X77632689Y-90288206D01*
X77461206Y-90459689D01*
X77368400Y-90683743D01*
X73253600Y-90683743D01*
X73253600Y-90157300D01*
X73101200Y-90004900D01*
X72001380Y-90004900D01*
X71696580Y-90004900D01*
X70596760Y-90004900D01*
X70444360Y-90157300D01*
X70444360Y-90518456D01*
X70432600Y-90506696D01*
X70432600Y-88397743D01*
X70444360Y-88397743D01*
X70444360Y-89547700D01*
X70596760Y-89700100D01*
X71696580Y-89700100D01*
X71696580Y-88061800D01*
X72001380Y-88061800D01*
X72001380Y-89700100D01*
X73101200Y-89700100D01*
X73253600Y-89547700D01*
X73253600Y-88397743D01*
X73160794Y-88173689D01*
X72989311Y-88002206D01*
X72765257Y-87909400D01*
X72153780Y-87909400D01*
X72001380Y-88061800D01*
X71696580Y-88061800D01*
X71544180Y-87909400D01*
X70932703Y-87909400D01*
X70708649Y-88002206D01*
X70537166Y-88173689D01*
X70444360Y-88397743D01*
X70432600Y-88397743D01*
X70432600Y-87407477D01*
X75386840Y-87407477D01*
X75703259Y-88173270D01*
X76288648Y-88759682D01*
X77053888Y-89077437D01*
X77882477Y-89078160D01*
X78648270Y-88761741D01*
X79234682Y-88176352D01*
X79552437Y-87411112D01*
X79553160Y-86582523D01*
X79236741Y-85816730D01*
X78651352Y-85230318D01*
X77886112Y-84912563D01*
X77057523Y-84911840D01*
X76291730Y-85228259D01*
X75705318Y-85813648D01*
X75387563Y-86578888D01*
X75386840Y-87407477D01*
X70432600Y-87407477D01*
X70432600Y-85332800D01*
X70386197Y-85099516D01*
X70254052Y-84901748D01*
X68594075Y-83241771D01*
X68646040Y-83241771D01*
X68764967Y-83218115D01*
X68865788Y-83150748D01*
X68933155Y-83049927D01*
X68956811Y-82931000D01*
X68956811Y-80264000D01*
X70743189Y-80264000D01*
X70743189Y-82931000D01*
X70766845Y-83049927D01*
X70834212Y-83150748D01*
X70935033Y-83218115D01*
X71053960Y-83241771D01*
X72644000Y-83241771D01*
X72762927Y-83218115D01*
X72863748Y-83150748D01*
X72931115Y-83049927D01*
X72954771Y-82931000D01*
X72954771Y-80645000D01*
X74910334Y-80645000D01*
X74910334Y-83185000D01*
X74937933Y-83323748D01*
X75016527Y-83441373D01*
X75134152Y-83519967D01*
X75272900Y-83547566D01*
X77127100Y-83547566D01*
X77265848Y-83519967D01*
X77383473Y-83441373D01*
X77462067Y-83323748D01*
X77489666Y-83185000D01*
X77489666Y-83121923D01*
X77761152Y-83452274D01*
X78292730Y-83735947D01*
X78350269Y-83744357D01*
X78587600Y-83633785D01*
X78587600Y-82067400D01*
X78567600Y-82067400D01*
X78567600Y-81762600D01*
X78587600Y-81762600D01*
X78587600Y-80196215D01*
X78892400Y-80196215D01*
X78892400Y-81762600D01*
X78912400Y-81762600D01*
X78912400Y-82067400D01*
X78892400Y-82067400D01*
X78892400Y-83633785D01*
X79129731Y-83744357D01*
X79187270Y-83735947D01*
X79446750Y-83597477D01*
X116026840Y-83597477D01*
X116343259Y-84363270D01*
X116928648Y-84949682D01*
X117693888Y-85267437D01*
X118522477Y-85268160D01*
X119288270Y-84951741D01*
X119874682Y-84366352D01*
X120192437Y-83601112D01*
X120193160Y-82772523D01*
X119876741Y-82006730D01*
X119291352Y-81420318D01*
X118526112Y-81102563D01*
X117697523Y-81101840D01*
X116931730Y-81418259D01*
X116345318Y-82003648D01*
X116027563Y-82768888D01*
X116026840Y-83597477D01*
X79446750Y-83597477D01*
X79718848Y-83452274D01*
X80101405Y-82986769D01*
X80161414Y-82789425D01*
X80408915Y-83159837D01*
X80808572Y-83426879D01*
X81280000Y-83520652D01*
X81751428Y-83426879D01*
X82151085Y-83159837D01*
X82418127Y-82760180D01*
X82511900Y-82288752D01*
X82511900Y-81541248D01*
X82588100Y-81541248D01*
X82588100Y-82288752D01*
X82681873Y-82760180D01*
X82948915Y-83159837D01*
X83348572Y-83426879D01*
X83820000Y-83520652D01*
X84291428Y-83426879D01*
X84691085Y-83159837D01*
X84958127Y-82760180D01*
X85051900Y-82288752D01*
X85051900Y-81541248D01*
X85128100Y-81541248D01*
X85128100Y-82288752D01*
X85221873Y-82760180D01*
X85488915Y-83159837D01*
X85888572Y-83426879D01*
X86360000Y-83520652D01*
X86831428Y-83426879D01*
X87231085Y-83159837D01*
X87498127Y-82760180D01*
X87591900Y-82288752D01*
X87591900Y-81541248D01*
X87668100Y-81541248D01*
X87668100Y-82288752D01*
X87761873Y-82760180D01*
X88028915Y-83159837D01*
X88428572Y-83426879D01*
X88900000Y-83520652D01*
X89371428Y-83426879D01*
X89771085Y-83159837D01*
X90038127Y-82760180D01*
X90131900Y-82288752D01*
X90131900Y-81541248D01*
X90208100Y-81541248D01*
X90208100Y-82288752D01*
X90301873Y-82760180D01*
X90568915Y-83159837D01*
X90968572Y-83426879D01*
X91440000Y-83520652D01*
X91911428Y-83426879D01*
X92311085Y-83159837D01*
X92578127Y-82760180D01*
X92671900Y-82288752D01*
X92671900Y-81541248D01*
X92748100Y-81541248D01*
X92748100Y-82288752D01*
X92841873Y-82760180D01*
X93108915Y-83159837D01*
X93508572Y-83426879D01*
X93980000Y-83520652D01*
X94451428Y-83426879D01*
X94851085Y-83159837D01*
X95118127Y-82760180D01*
X95211900Y-82288752D01*
X95211900Y-81541248D01*
X95288100Y-81541248D01*
X95288100Y-82288752D01*
X95381873Y-82760180D01*
X95648915Y-83159837D01*
X96048572Y-83426879D01*
X96520000Y-83520652D01*
X96991428Y-83426879D01*
X97391085Y-83159837D01*
X97658127Y-82760180D01*
X97751900Y-82288752D01*
X97751900Y-81541248D01*
X97828100Y-81541248D01*
X97828100Y-82288752D01*
X97921873Y-82760180D01*
X98188915Y-83159837D01*
X98588572Y-83426879D01*
X99060000Y-83520652D01*
X99531428Y-83426879D01*
X99931085Y-83159837D01*
X100198127Y-82760180D01*
X100291900Y-82288752D01*
X100291900Y-81541248D01*
X100368100Y-81541248D01*
X100368100Y-82288752D01*
X100461873Y-82760180D01*
X100728915Y-83159837D01*
X101128572Y-83426879D01*
X101600000Y-83520652D01*
X102071428Y-83426879D01*
X102471085Y-83159837D01*
X102738127Y-82760180D01*
X102831900Y-82288752D01*
X102831900Y-81541248D01*
X102908100Y-81541248D01*
X102908100Y-82288752D01*
X103001873Y-82760180D01*
X103268915Y-83159837D01*
X103668572Y-83426879D01*
X104140000Y-83520652D01*
X104611428Y-83426879D01*
X105011085Y-83159837D01*
X105278127Y-82760180D01*
X105371900Y-82288752D01*
X105371900Y-81541248D01*
X105448100Y-81541248D01*
X105448100Y-82288752D01*
X105541873Y-82760180D01*
X105808915Y-83159837D01*
X106208572Y-83426879D01*
X106680000Y-83520652D01*
X107151428Y-83426879D01*
X107551085Y-83159837D01*
X107818127Y-82760180D01*
X107911900Y-82288752D01*
X107911900Y-81541248D01*
X107988100Y-81541248D01*
X107988100Y-82288752D01*
X108081873Y-82760180D01*
X108348915Y-83159837D01*
X108748572Y-83426879D01*
X109220000Y-83520652D01*
X109691428Y-83426879D01*
X110091085Y-83159837D01*
X110358127Y-82760180D01*
X110451900Y-82288752D01*
X110451900Y-81541248D01*
X110528100Y-81541248D01*
X110528100Y-82288752D01*
X110621873Y-82760180D01*
X110888915Y-83159837D01*
X111288572Y-83426879D01*
X111760000Y-83520652D01*
X112231428Y-83426879D01*
X112631085Y-83159837D01*
X112898127Y-82760180D01*
X112991900Y-82288752D01*
X112991900Y-81541248D01*
X113068100Y-81541248D01*
X113068100Y-82288752D01*
X113161873Y-82760180D01*
X113428915Y-83159837D01*
X113828572Y-83426879D01*
X114300000Y-83520652D01*
X114771428Y-83426879D01*
X115171085Y-83159837D01*
X115438127Y-82760180D01*
X115531900Y-82288752D01*
X115531900Y-81541248D01*
X115438127Y-81069820D01*
X115171085Y-80670163D01*
X114771428Y-80403121D01*
X114300000Y-80309348D01*
X113828572Y-80403121D01*
X113428915Y-80670163D01*
X113161873Y-81069820D01*
X113068100Y-81541248D01*
X112991900Y-81541248D01*
X112898127Y-81069820D01*
X112631085Y-80670163D01*
X112231428Y-80403121D01*
X111760000Y-80309348D01*
X111288572Y-80403121D01*
X110888915Y-80670163D01*
X110621873Y-81069820D01*
X110528100Y-81541248D01*
X110451900Y-81541248D01*
X110358127Y-81069820D01*
X110091085Y-80670163D01*
X109691428Y-80403121D01*
X109220000Y-80309348D01*
X108748572Y-80403121D01*
X108348915Y-80670163D01*
X108081873Y-81069820D01*
X107988100Y-81541248D01*
X107911900Y-81541248D01*
X107818127Y-81069820D01*
X107551085Y-80670163D01*
X107151428Y-80403121D01*
X106680000Y-80309348D01*
X106208572Y-80403121D01*
X105808915Y-80670163D01*
X105541873Y-81069820D01*
X105448100Y-81541248D01*
X105371900Y-81541248D01*
X105278127Y-81069820D01*
X105011085Y-80670163D01*
X104611428Y-80403121D01*
X104140000Y-80309348D01*
X103668572Y-80403121D01*
X103268915Y-80670163D01*
X103001873Y-81069820D01*
X102908100Y-81541248D01*
X102831900Y-81541248D01*
X102738127Y-81069820D01*
X102471085Y-80670163D01*
X102071428Y-80403121D01*
X101600000Y-80309348D01*
X101128572Y-80403121D01*
X100728915Y-80670163D01*
X100461873Y-81069820D01*
X100368100Y-81541248D01*
X100291900Y-81541248D01*
X100198127Y-81069820D01*
X99931085Y-80670163D01*
X99531428Y-80403121D01*
X99060000Y-80309348D01*
X98588572Y-80403121D01*
X98188915Y-80670163D01*
X97921873Y-81069820D01*
X97828100Y-81541248D01*
X97751900Y-81541248D01*
X97658127Y-81069820D01*
X97391085Y-80670163D01*
X96991428Y-80403121D01*
X96520000Y-80309348D01*
X96048572Y-80403121D01*
X95648915Y-80670163D01*
X95381873Y-81069820D01*
X95288100Y-81541248D01*
X95211900Y-81541248D01*
X95118127Y-81069820D01*
X94851085Y-80670163D01*
X94451428Y-80403121D01*
X93980000Y-80309348D01*
X93508572Y-80403121D01*
X93108915Y-80670163D01*
X92841873Y-81069820D01*
X92748100Y-81541248D01*
X92671900Y-81541248D01*
X92578127Y-81069820D01*
X92311085Y-80670163D01*
X91911428Y-80403121D01*
X91440000Y-80309348D01*
X90968572Y-80403121D01*
X90568915Y-80670163D01*
X90301873Y-81069820D01*
X90208100Y-81541248D01*
X90131900Y-81541248D01*
X90038127Y-81069820D01*
X89771085Y-80670163D01*
X89371428Y-80403121D01*
X88900000Y-80309348D01*
X88428572Y-80403121D01*
X88028915Y-80670163D01*
X87761873Y-81069820D01*
X87668100Y-81541248D01*
X87591900Y-81541248D01*
X87498127Y-81069820D01*
X87231085Y-80670163D01*
X86831428Y-80403121D01*
X86360000Y-80309348D01*
X85888572Y-80403121D01*
X85488915Y-80670163D01*
X85221873Y-81069820D01*
X85128100Y-81541248D01*
X85051900Y-81541248D01*
X84958127Y-81069820D01*
X84691085Y-80670163D01*
X84291428Y-80403121D01*
X83820000Y-80309348D01*
X83348572Y-80403121D01*
X82948915Y-80670163D01*
X82681873Y-81069820D01*
X82588100Y-81541248D01*
X82511900Y-81541248D01*
X82418127Y-81069820D01*
X82151085Y-80670163D01*
X81751428Y-80403121D01*
X81280000Y-80309348D01*
X80808572Y-80403121D01*
X80408915Y-80670163D01*
X80161414Y-81040575D01*
X80101405Y-80843231D01*
X79718848Y-80377726D01*
X79187270Y-80094053D01*
X79129731Y-80085643D01*
X78892400Y-80196215D01*
X78587600Y-80196215D01*
X78350269Y-80085643D01*
X78292730Y-80094053D01*
X77761152Y-80377726D01*
X77489666Y-80708077D01*
X77489666Y-80645000D01*
X77462067Y-80506252D01*
X77383473Y-80388627D01*
X77265848Y-80310033D01*
X77127100Y-80282434D01*
X75272900Y-80282434D01*
X75134152Y-80310033D01*
X75016527Y-80388627D01*
X74937933Y-80506252D01*
X74910334Y-80645000D01*
X72954771Y-80645000D01*
X72954771Y-80264000D01*
X72931115Y-80145073D01*
X72863748Y-80044252D01*
X72762927Y-79976885D01*
X72644000Y-79953229D01*
X71053960Y-79953229D01*
X70935033Y-79976885D01*
X70834212Y-80044252D01*
X70766845Y-80145073D01*
X70743189Y-80264000D01*
X68956811Y-80264000D01*
X68933155Y-80145073D01*
X68865788Y-80044252D01*
X68764967Y-79976885D01*
X68646040Y-79953229D01*
X67056000Y-79953229D01*
X66937073Y-79976885D01*
X66836252Y-80044252D01*
X66768885Y-80145073D01*
X66745229Y-80264000D01*
X63524836Y-80264000D01*
X63411352Y-80150318D01*
X62646112Y-79832563D01*
X61817523Y-79831840D01*
X61051730Y-80148259D01*
X60465318Y-80733648D01*
X60147563Y-81498888D01*
X60146840Y-82327477D01*
X60109100Y-82327477D01*
X60109100Y-79794100D01*
X123107829Y-79794100D01*
X123107829Y-84328000D01*
G36*
X66342466Y-111522528D02*
X66770153Y-111607600D01*
X67849847Y-111607600D01*
X68277534Y-111522528D01*
X68492339Y-111379000D01*
X68999464Y-111379000D01*
X73216082Y-115595618D01*
X73504494Y-115788329D01*
X73844700Y-115856000D01*
X76006714Y-115856000D01*
X75709132Y-115915193D01*
X75292994Y-116193247D01*
X75030565Y-116586000D01*
X68302270Y-116586000D01*
X68640110Y-116360263D01*
X68882375Y-115997687D01*
X68967447Y-115570000D01*
X68882375Y-115142313D01*
X68640110Y-114779737D01*
X68277534Y-114537472D01*
X67849847Y-114452400D01*
X66770153Y-114452400D01*
X66342466Y-114537472D01*
X66084600Y-114709772D01*
X66084600Y-114195342D01*
X66136312Y-114238872D01*
X66649600Y-114401600D01*
X67157600Y-114401600D01*
X67157600Y-113182400D01*
X67462400Y-113182400D01*
X67462400Y-114401600D01*
X67970400Y-114401600D01*
X68483688Y-114238872D01*
X68895631Y-113892104D01*
X69140484Y-113393761D01*
X69027637Y-113182400D01*
X67462400Y-113182400D01*
X67157600Y-113182400D01*
X67137600Y-113182400D01*
X67137600Y-112877600D01*
X67157600Y-112877600D01*
X67157600Y-111658400D01*
X67462400Y-111658400D01*
X67462400Y-112877600D01*
X69027637Y-112877600D01*
X69140484Y-112666239D01*
X68895631Y-112167896D01*
X68483688Y-111821128D01*
X67970400Y-111658400D01*
X67462400Y-111658400D01*
X67157600Y-111658400D01*
X66649600Y-111658400D01*
X66136312Y-111821128D01*
X66084600Y-111864658D01*
X66084600Y-111350228D01*
X66342466Y-111522528D01*
X66342466Y-111522528D01*
G37*
X66342466Y-111522528D02*
X66770153Y-111607600D01*
X67849847Y-111607600D01*
X68277534Y-111522528D01*
X68492339Y-111379000D01*
X68999464Y-111379000D01*
X73216082Y-115595618D01*
X73504494Y-115788329D01*
X73844700Y-115856000D01*
X76006714Y-115856000D01*
X75709132Y-115915193D01*
X75292994Y-116193247D01*
X75030565Y-116586000D01*
X68302270Y-116586000D01*
X68640110Y-116360263D01*
X68882375Y-115997687D01*
X68967447Y-115570000D01*
X68882375Y-115142313D01*
X68640110Y-114779737D01*
X68277534Y-114537472D01*
X67849847Y-114452400D01*
X66770153Y-114452400D01*
X66342466Y-114537472D01*
X66084600Y-114709772D01*
X66084600Y-114195342D01*
X66136312Y-114238872D01*
X66649600Y-114401600D01*
X67157600Y-114401600D01*
X67157600Y-113182400D01*
X67462400Y-113182400D01*
X67462400Y-114401600D01*
X67970400Y-114401600D01*
X68483688Y-114238872D01*
X68895631Y-113892104D01*
X69140484Y-113393761D01*
X69027637Y-113182400D01*
X67462400Y-113182400D01*
X67157600Y-113182400D01*
X67137600Y-113182400D01*
X67137600Y-112877600D01*
X67157600Y-112877600D01*
X67157600Y-111658400D01*
X67462400Y-111658400D01*
X67462400Y-112877600D01*
X69027637Y-112877600D01*
X69140484Y-112666239D01*
X68895631Y-112167896D01*
X68483688Y-111821128D01*
X67970400Y-111658400D01*
X67462400Y-111658400D01*
X67157600Y-111658400D01*
X66649600Y-111658400D01*
X66136312Y-111821128D01*
X66084600Y-111864658D01*
X66084600Y-111350228D01*
X66342466Y-111522528D01*
M02*
